G04 #@! TF.GenerationSoftware,KiCad,Pcbnew,8.0.4*
G04 #@! TF.CreationDate,2024-09-04T06:00:41+09:00*
G04 #@! TF.ProjectId,circuit-esp32-base,63697263-7569-4742-9d65-737033322d62,rev?*
G04 #@! TF.SameCoordinates,Original*
G04 #@! TF.FileFunction,Soldermask,Top*
G04 #@! TF.FilePolarity,Negative*
%FSLAX46Y46*%
G04 Gerber Fmt 4.6, Leading zero omitted, Abs format (unit mm)*
G04 Created by KiCad (PCBNEW 8.0.4) date 2024-09-04 06:00:41*
%MOMM*%
%LPD*%
G01*
G04 APERTURE LIST*
G04 Aperture macros list*
%AMRoundRect*
0 Rectangle with rounded corners*
0 $1 Rounding radius*
0 $2 $3 $4 $5 $6 $7 $8 $9 X,Y pos of 4 corners*
0 Add a 4 corners polygon primitive as box body*
4,1,4,$2,$3,$4,$5,$6,$7,$8,$9,$2,$3,0*
0 Add four circle primitives for the rounded corners*
1,1,$1+$1,$2,$3*
1,1,$1+$1,$4,$5*
1,1,$1+$1,$6,$7*
1,1,$1+$1,$8,$9*
0 Add four rect primitives between the rounded corners*
20,1,$1+$1,$2,$3,$4,$5,0*
20,1,$1+$1,$4,$5,$6,$7,0*
20,1,$1+$1,$6,$7,$8,$9,0*
20,1,$1+$1,$8,$9,$2,$3,0*%
G04 Aperture macros list end*
%ADD10RoundRect,0.250000X0.725000X-0.600000X0.725000X0.600000X-0.725000X0.600000X-0.725000X-0.600000X0*%
%ADD11O,1.950000X1.700000*%
%ADD12RoundRect,0.250000X-0.725000X0.600000X-0.725000X-0.600000X0.725000X-0.600000X0.725000X0.600000X0*%
%ADD13RoundRect,0.218750X0.218750X0.256250X-0.218750X0.256250X-0.218750X-0.256250X0.218750X-0.256250X0*%
%ADD14RoundRect,0.200000X0.200000X0.275000X-0.200000X0.275000X-0.200000X-0.275000X0.200000X-0.275000X0*%
%ADD15O,1.500000X2.500000*%
%ADD16C,1.500000*%
%ADD17C,1.524000*%
%ADD18R,0.650000X0.350000*%
%ADD19R,1.550000X2.400000*%
%ADD20RoundRect,0.250000X-0.600000X-0.750000X0.600000X-0.750000X0.600000X0.750000X-0.600000X0.750000X0*%
%ADD21O,1.700000X2.000000*%
%ADD22RoundRect,0.250000X0.512000X-0.512000X0.512000X0.512000X-0.512000X0.512000X-0.512000X-0.512000X0*%
%ADD23C,7.200000*%
%ADD24R,1.600000X1.600000*%
%ADD25O,1.600000X1.600000*%
%ADD26RoundRect,0.250000X0.600000X0.725000X-0.600000X0.725000X-0.600000X-0.725000X0.600000X-0.725000X0*%
%ADD27O,1.700000X1.950000*%
G04 APERTURE END LIST*
D10*
X124500000Y-90500000D03*
D11*
X124500000Y-88000000D03*
X124500000Y-85500000D03*
D12*
X167000000Y-103000000D03*
D11*
X167000000Y-105500000D03*
X167000000Y-108000000D03*
X167000000Y-110500000D03*
D10*
X150000000Y-90500000D03*
D11*
X150000000Y-88000000D03*
X150000000Y-85500000D03*
D13*
X196500000Y-109525000D03*
X194925000Y-109525000D03*
X196500000Y-118025000D03*
X194925000Y-118025000D03*
D14*
X196537500Y-115025000D03*
X194887500Y-115025000D03*
X196542500Y-98025000D03*
X194892500Y-98025000D03*
D10*
X158500000Y-90500000D03*
D11*
X158500000Y-88000000D03*
X158500000Y-85500000D03*
D13*
X196500000Y-92525000D03*
X194925000Y-92525000D03*
D15*
X175580000Y-143500000D03*
X173040000Y-143500000D03*
X170500000Y-143500000D03*
D16*
X178120000Y-143500000D03*
X167960000Y-143500000D03*
D17*
X110960000Y-147310000D03*
X116040000Y-147310000D03*
X110960000Y-139690000D03*
X116040000Y-139690000D03*
D18*
X155000000Y-103800000D03*
X155000000Y-104450000D03*
X155000000Y-105100000D03*
X155000000Y-105750000D03*
X158100000Y-105750000D03*
X158100000Y-105100000D03*
X158100000Y-104450000D03*
X158100000Y-103800000D03*
D19*
X156550000Y-104775000D03*
D17*
X109000000Y-108000000D03*
X109000000Y-105500000D03*
X109000000Y-103000000D03*
X109000000Y-100500000D03*
D15*
X175580000Y-128500000D03*
X173040000Y-128500000D03*
X170500000Y-128500000D03*
D16*
X178120000Y-128500000D03*
X167960000Y-128500000D03*
D17*
X162000000Y-127000000D03*
X162000000Y-124500000D03*
X162000000Y-122000000D03*
X162000000Y-119500000D03*
X162000000Y-117000000D03*
X162000000Y-114500000D03*
D10*
X133100000Y-90500000D03*
D11*
X133100000Y-88000000D03*
X133100000Y-85500000D03*
D12*
X177500000Y-103000000D03*
D11*
X177500000Y-105500000D03*
X177500000Y-108000000D03*
X177500000Y-110500000D03*
D13*
X196500000Y-101025000D03*
X194925000Y-101025000D03*
D20*
X187500000Y-106500000D03*
D21*
X190000000Y-106500000D03*
D10*
X167000000Y-90500000D03*
D11*
X167000000Y-88000000D03*
X167000000Y-85500000D03*
D10*
X141500000Y-90500000D03*
D11*
X141500000Y-88000000D03*
X141500000Y-85500000D03*
D15*
X175580000Y-136000000D03*
X173040000Y-136000000D03*
X170500000Y-136000000D03*
D16*
X178120000Y-136000000D03*
X167960000Y-136000000D03*
D22*
X107000000Y-119750000D03*
D17*
X107000000Y-117250000D03*
X107000000Y-114750000D03*
X107000000Y-112250000D03*
D20*
X187650000Y-89500000D03*
D21*
X190150000Y-89500000D03*
D14*
X196500000Y-89560000D03*
X194850000Y-89560000D03*
D23*
X196000000Y-83500000D03*
X104000000Y-145500000D03*
D17*
X121500000Y-101000000D03*
X121500000Y-103500000D03*
X121500000Y-106000000D03*
X121500000Y-108500000D03*
X121500000Y-111000000D03*
X121500000Y-113500000D03*
X121500000Y-116000000D03*
X121500000Y-118500000D03*
X121500000Y-121000000D03*
X121500000Y-123500000D03*
X121500000Y-126000000D03*
X121500000Y-128500000D03*
X121500000Y-131000000D03*
X121500000Y-133500000D03*
X121500000Y-136000000D03*
X121500000Y-138500000D03*
X121500000Y-141000000D03*
X121500000Y-143500000D03*
X121500000Y-146000000D03*
X146500000Y-101000000D03*
X146500000Y-103500000D03*
X146500000Y-106000000D03*
X146500000Y-108500000D03*
X146500000Y-111000000D03*
X146500000Y-113500000D03*
X146500000Y-116000000D03*
X146500000Y-118500000D03*
X146500000Y-121000000D03*
X146500000Y-123500000D03*
X146500000Y-126000000D03*
X146500000Y-128500000D03*
X146500000Y-131000000D03*
X146500000Y-133500000D03*
X146500000Y-136000000D03*
X146500000Y-138500000D03*
X146500000Y-141000000D03*
X146500000Y-143500000D03*
X146500000Y-146000000D03*
D24*
X182700000Y-122850000D03*
D25*
X182700000Y-125390000D03*
X182700000Y-127930000D03*
X182700000Y-130470000D03*
X182700000Y-133010000D03*
X182700000Y-135550000D03*
X182700000Y-138090000D03*
X182700000Y-140630000D03*
X182700000Y-143170000D03*
X190320000Y-143170000D03*
X190320000Y-140630000D03*
X190320000Y-138090000D03*
X190320000Y-135550000D03*
X190320000Y-133010000D03*
X190320000Y-130470000D03*
X190320000Y-127930000D03*
X190320000Y-125390000D03*
X190320000Y-122850000D03*
D22*
X107000000Y-132500000D03*
D17*
X107000000Y-130000000D03*
X107000000Y-127500000D03*
X107000000Y-125000000D03*
D23*
X104000000Y-83500000D03*
D14*
X196542500Y-106400000D03*
X194892500Y-106400000D03*
D15*
X175580000Y-121000000D03*
X173040000Y-121000000D03*
X170500000Y-121000000D03*
D16*
X178120000Y-121000000D03*
X167960000Y-121000000D03*
D23*
X196000000Y-145500000D03*
D17*
X162000000Y-130250000D03*
X162000000Y-132750000D03*
X162000000Y-135250000D03*
X162000000Y-137750000D03*
X162000000Y-140250000D03*
X162000000Y-142750000D03*
X162000000Y-145250000D03*
X162000000Y-147750000D03*
D26*
X180500000Y-86500000D03*
D27*
X178000000Y-86500000D03*
X175500000Y-86500000D03*
D20*
X187500000Y-98000000D03*
D21*
X190000000Y-98000000D03*
D20*
X187500000Y-115000000D03*
D21*
X190000000Y-115000000D03*
M02*
