%TF.GenerationSoftware,KiCad,Pcbnew,8.0.4*%
%TF.CreationDate,2024-09-18T18:00:15+09:00*%
%TF.ProjectId,circuit-esp32-base,63697263-7569-4742-9d65-737033322d62,rev?*%
%TF.SameCoordinates,Original*%
%TF.FileFunction,Drillmap*%
%TF.FilePolarity,Positive*%
%FSLAX45Y45*%
G04 Gerber Fmt 4.5, Leading zero omitted, Abs format (unit mm)*
G04 Created by KiCad (PCBNEW 8.0.4) date 2024-09-18 18:00:15*
%MOMM*%
%LPD*%
G01*
G04 APERTURE LIST*
%ADD10C,0.050000*%
%ADD11C,0.200000*%
%ADD12C,0.100000*%
G04 APERTURE END LIST*
D10*
X10000000Y-8350000D02*
G75*
G02*
X10400000Y-7950000I400000J0D01*
G01*
X20000000Y-14550000D02*
G75*
G02*
X19600000Y-14950000I-400000J0D01*
G01*
X10400000Y-7950000D02*
X19600000Y-7950000D01*
X19600000Y-7950000D02*
G75*
G02*
X20000000Y-8350000I0J-400000D01*
G01*
X10000000Y-8350000D02*
X10000000Y-14550000D01*
X10400000Y-14950000D02*
G75*
G02*
X10000000Y-14550000I0J400000D01*
G01*
X10400000Y-14950000D02*
X19600000Y-14950000D01*
X20000000Y-8350000D02*
X20000000Y-14550000D01*
D11*
D12*
X10180000Y-11830000D02*
X10220000Y-11870000D01*
X10220000Y-11830000D02*
X10180000Y-11870000D01*
X10230000Y-13130000D02*
X10270000Y-13170000D01*
X10270000Y-13130000D02*
X10230000Y-13170000D01*
X10280000Y-10530000D02*
X10320000Y-10570000D01*
X10320000Y-10530000D02*
X10280000Y-10570000D01*
X10380000Y-9530000D02*
X10420000Y-9570000D01*
X10420000Y-9530000D02*
X10380000Y-9570000D01*
X10530000Y-13780000D02*
X10570000Y-13820000D01*
X10570000Y-13780000D02*
X10530000Y-13820000D01*
X11030000Y-8930000D02*
X11070000Y-8970000D01*
X11070000Y-8930000D02*
X11030000Y-8970000D01*
X11080000Y-8430000D02*
X11120000Y-8470000D01*
X11120000Y-8430000D02*
X11080000Y-8470000D01*
X11080000Y-11830000D02*
X11120000Y-11870000D01*
X11120000Y-11830000D02*
X11080000Y-11870000D01*
X11280000Y-10230000D02*
X11320000Y-10270000D01*
X11320000Y-10230000D02*
X11280000Y-10270000D01*
X11280000Y-10830000D02*
X11320000Y-10870000D01*
X11320000Y-10830000D02*
X11280000Y-10870000D01*
X11480000Y-12430000D02*
X11520000Y-12470000D01*
X11520000Y-12430000D02*
X11480000Y-12470000D01*
X11530000Y-11080000D02*
X11570000Y-11120000D01*
X11570000Y-11080000D02*
X11530000Y-11120000D01*
X11580000Y-9680000D02*
X11620000Y-9720000D01*
X11620000Y-9680000D02*
X11580000Y-9720000D01*
X11580000Y-10230000D02*
X11620000Y-10270000D01*
X11620000Y-10230000D02*
X11580000Y-10270000D01*
X11630000Y-10580000D02*
X11670000Y-10620000D01*
X11670000Y-10580000D02*
X11630000Y-10620000D01*
X11730000Y-8980000D02*
X11770000Y-9020000D01*
X11770000Y-8980000D02*
X11730000Y-9020000D01*
X11780000Y-10430000D02*
X11820000Y-10470000D01*
X11820000Y-10430000D02*
X11780000Y-10470000D01*
X11780000Y-10780000D02*
X11820000Y-10820000D01*
X11820000Y-10780000D02*
X11780000Y-10820000D01*
X11780000Y-11680000D02*
X11820000Y-11720000D01*
X11820000Y-11680000D02*
X11780000Y-11720000D01*
X11780000Y-12230000D02*
X11820000Y-12270000D01*
X11820000Y-12230000D02*
X11780000Y-12270000D01*
X11830000Y-11080000D02*
X11870000Y-11120000D01*
X11870000Y-11080000D02*
X11830000Y-11120000D01*
X11830000Y-13330000D02*
X11870000Y-13370000D01*
X11870000Y-13330000D02*
X11830000Y-13370000D01*
X11930000Y-10580000D02*
X11970000Y-10620000D01*
X11970000Y-10580000D02*
X11930000Y-10620000D01*
X12480000Y-13030000D02*
X12520000Y-13070000D01*
X12520000Y-13030000D02*
X12480000Y-13070000D01*
X12480000Y-13680000D02*
X12520000Y-13720000D01*
X12520000Y-13680000D02*
X12480000Y-13720000D01*
X12530000Y-10730000D02*
X12570000Y-10770000D01*
X12570000Y-10730000D02*
X12530000Y-10770000D01*
X12580000Y-12280000D02*
X12620000Y-12320000D01*
X12620000Y-12280000D02*
X12580000Y-12320000D01*
X12630000Y-9580000D02*
X12670000Y-9620000D01*
X12670000Y-9580000D02*
X12630000Y-9620000D01*
X12730000Y-11880000D02*
X12770000Y-11920000D01*
X12770000Y-11880000D02*
X12730000Y-11920000D01*
X12780000Y-10380000D02*
X12820000Y-10420000D01*
X12820000Y-10380000D02*
X12780000Y-10420000D01*
X12780000Y-11080000D02*
X12820000Y-11120000D01*
X12820000Y-11080000D02*
X12780000Y-11120000D01*
X12880000Y-11480000D02*
X12920000Y-11520000D01*
X12920000Y-11480000D02*
X12880000Y-11520000D01*
X12880000Y-12380000D02*
X12920000Y-12420000D01*
X12920000Y-12380000D02*
X12880000Y-12420000D01*
X12955000Y-9955000D02*
X12995000Y-9995000D01*
X12995000Y-9955000D02*
X12955000Y-9995000D01*
X12980000Y-9580000D02*
X13020000Y-9620000D01*
X13020000Y-9580000D02*
X12980000Y-9620000D01*
X13130000Y-10130000D02*
X13170000Y-10170000D01*
X13170000Y-10130000D02*
X13130000Y-10170000D01*
X13130000Y-10880000D02*
X13170000Y-10920000D01*
X13170000Y-10880000D02*
X13130000Y-10920000D01*
X13130000Y-12280000D02*
X13170000Y-12320000D01*
X13170000Y-12280000D02*
X13130000Y-12320000D01*
X13130000Y-14430000D02*
X13170000Y-14470000D01*
X13170000Y-14430000D02*
X13130000Y-14470000D01*
X13230000Y-11630000D02*
X13270000Y-11670000D01*
X13270000Y-11630000D02*
X13230000Y-11670000D01*
X13230000Y-12780000D02*
X13270000Y-12820000D01*
X13270000Y-12780000D02*
X13230000Y-12820000D01*
X13230000Y-12980000D02*
X13270000Y-13020000D01*
X13270000Y-12980000D02*
X13230000Y-13020000D01*
X13270000Y-9980000D02*
X13310000Y-10020000D01*
X13310000Y-9980000D02*
X13270000Y-10020000D01*
X13380000Y-13580000D02*
X13420000Y-13620000D01*
X13420000Y-13580000D02*
X13380000Y-13620000D01*
X13430000Y-9780000D02*
X13470000Y-9820000D01*
X13470000Y-9780000D02*
X13430000Y-9820000D01*
X13430000Y-11830000D02*
X13470000Y-11870000D01*
X13470000Y-11830000D02*
X13430000Y-11870000D01*
X13430000Y-12280000D02*
X13470000Y-12320000D01*
X13470000Y-12280000D02*
X13430000Y-12320000D01*
X13480000Y-11080000D02*
X13520000Y-11120000D01*
X13520000Y-11080000D02*
X13480000Y-11120000D01*
X13480000Y-13080000D02*
X13520000Y-13120000D01*
X13520000Y-13080000D02*
X13480000Y-13120000D01*
X13580000Y-9580000D02*
X13620000Y-9620000D01*
X13620000Y-9580000D02*
X13580000Y-9620000D01*
X13630000Y-9230000D02*
X13670000Y-9270000D01*
X13670000Y-9230000D02*
X13630000Y-9270000D01*
X13680000Y-11830000D02*
X13720000Y-11870000D01*
X13720000Y-11830000D02*
X13680000Y-11870000D01*
X13680000Y-13430000D02*
X13720000Y-13470000D01*
X13720000Y-13430000D02*
X13680000Y-13470000D01*
X13780000Y-12830000D02*
X13820000Y-12870000D01*
X13820000Y-12830000D02*
X13780000Y-12870000D01*
X13830000Y-9480000D02*
X13870000Y-9520000D01*
X13870000Y-9480000D02*
X13830000Y-9520000D01*
X13830000Y-10710000D02*
X13870000Y-10750000D01*
X13870000Y-10710000D02*
X13830000Y-10750000D01*
X13880000Y-14080000D02*
X13920000Y-14120000D01*
X13920000Y-14080000D02*
X13880000Y-14120000D01*
X13930000Y-10330000D02*
X13970000Y-10370000D01*
X13970000Y-10330000D02*
X13930000Y-10370000D01*
X13930000Y-10980000D02*
X13970000Y-11020000D01*
X13970000Y-10980000D02*
X13930000Y-11020000D01*
X14030000Y-9930000D02*
X14070000Y-9970000D01*
X14070000Y-9930000D02*
X14030000Y-9970000D01*
X14030000Y-12080000D02*
X14070000Y-12120000D01*
X14070000Y-12080000D02*
X14030000Y-12120000D01*
X14030000Y-12480000D02*
X14070000Y-12520000D01*
X14070000Y-12480000D02*
X14030000Y-12520000D01*
X14030000Y-12830000D02*
X14070000Y-12870000D01*
X14070000Y-12830000D02*
X14030000Y-12870000D01*
X14080000Y-11580000D02*
X14120000Y-11620000D01*
X14120000Y-11580000D02*
X14080000Y-11620000D01*
X14080000Y-14080000D02*
X14120000Y-14120000D01*
X14120000Y-14080000D02*
X14080000Y-14120000D01*
X14180000Y-10080000D02*
X14220000Y-10120000D01*
X14220000Y-10080000D02*
X14180000Y-10120000D01*
X14180000Y-10980000D02*
X14220000Y-11020000D01*
X14220000Y-10980000D02*
X14180000Y-11020000D01*
X14230000Y-13630000D02*
X14270000Y-13670000D01*
X14270000Y-13630000D02*
X14230000Y-13670000D01*
X14230000Y-14280000D02*
X14270000Y-14320000D01*
X14270000Y-14280000D02*
X14230000Y-14320000D01*
X14380000Y-9880000D02*
X14420000Y-9920000D01*
X14420000Y-9880000D02*
X14380000Y-9920000D01*
X14380000Y-10330000D02*
X14420000Y-10370000D01*
X14420000Y-10330000D02*
X14380000Y-10370000D01*
X14380000Y-13230000D02*
X14420000Y-13270000D01*
X14420000Y-13230000D02*
X14380000Y-13270000D01*
X14380000Y-14080000D02*
X14420000Y-14120000D01*
X14420000Y-14080000D02*
X14380000Y-14120000D01*
X14430000Y-11930000D02*
X14470000Y-11970000D01*
X14470000Y-11930000D02*
X14430000Y-11970000D01*
X14430000Y-13630000D02*
X14470000Y-13670000D01*
X14470000Y-13630000D02*
X14430000Y-13670000D01*
X14430000Y-14330000D02*
X14470000Y-14370000D01*
X14470000Y-14330000D02*
X14430000Y-14370000D01*
X14780000Y-9530000D02*
X14820000Y-9570000D01*
X14820000Y-9530000D02*
X14780000Y-9570000D01*
X14880000Y-10480000D02*
X14920000Y-10520000D01*
X14920000Y-10480000D02*
X14880000Y-10520000D01*
X14980000Y-12380000D02*
X15020000Y-12420000D01*
X15020000Y-12380000D02*
X14980000Y-12420000D01*
X15030000Y-10530000D02*
X15070000Y-10570000D01*
X15070000Y-10530000D02*
X15030000Y-10570000D01*
X15080000Y-14080000D02*
X15120000Y-14120000D01*
X15120000Y-14080000D02*
X15080000Y-14120000D01*
X15130000Y-12080000D02*
X15170000Y-12120000D01*
X15170000Y-12080000D02*
X15130000Y-12120000D01*
X15180000Y-13230000D02*
X15220000Y-13270000D01*
X15220000Y-13230000D02*
X15180000Y-13270000D01*
X15230000Y-11780000D02*
X15270000Y-11820000D01*
X15270000Y-11780000D02*
X15230000Y-11820000D01*
X15330000Y-13480000D02*
X15370000Y-13520000D01*
X15370000Y-13480000D02*
X15330000Y-13520000D01*
X15430000Y-9830000D02*
X15470000Y-9870000D01*
X15470000Y-9830000D02*
X15430000Y-9870000D01*
X15430000Y-11030000D02*
X15470000Y-11070000D01*
X15470000Y-11030000D02*
X15430000Y-11070000D01*
X15430000Y-14480000D02*
X15470000Y-14520000D01*
X15470000Y-14480000D02*
X15430000Y-14520000D01*
X15480000Y-12330000D02*
X15520000Y-12370000D01*
X15520000Y-12330000D02*
X15480000Y-12370000D01*
X15530000Y-12680000D02*
X15570000Y-12720000D01*
X15570000Y-12680000D02*
X15530000Y-12720000D01*
X15530000Y-13130000D02*
X15570000Y-13170000D01*
X15570000Y-13130000D02*
X15530000Y-13170000D01*
X15530000Y-13980000D02*
X15570000Y-14020000D01*
X15570000Y-13980000D02*
X15530000Y-14020000D01*
X15630000Y-9430000D02*
X15670000Y-9470000D01*
X15670000Y-9430000D02*
X15630000Y-9470000D01*
X15630000Y-10455000D02*
X15670000Y-10495000D01*
X15670000Y-10455000D02*
X15630000Y-10495000D01*
X15680000Y-14130000D02*
X15720000Y-14170000D01*
X15720000Y-14130000D02*
X15680000Y-14170000D01*
X15730000Y-13580000D02*
X15770000Y-13620000D01*
X15770000Y-13580000D02*
X15730000Y-13620000D01*
X15744283Y-10144283D02*
X15784283Y-10184283D01*
X15784283Y-10144283D02*
X15744283Y-10184283D01*
X15780000Y-9780000D02*
X15820000Y-9820000D01*
X15820000Y-9780000D02*
X15780000Y-9820000D01*
X15780000Y-10830000D02*
X15820000Y-10870000D01*
X15820000Y-10830000D02*
X15780000Y-10870000D01*
X15780000Y-12530000D02*
X15820000Y-12570000D01*
X15820000Y-12530000D02*
X15780000Y-12570000D01*
X15780000Y-13980000D02*
X15820000Y-14020000D01*
X15820000Y-13980000D02*
X15780000Y-14020000D01*
X15830000Y-13430000D02*
X15870000Y-13470000D01*
X15870000Y-13430000D02*
X15830000Y-13470000D01*
X15830000Y-13830000D02*
X15870000Y-13870000D01*
X15870000Y-13830000D02*
X15830000Y-13870000D01*
X15930000Y-14130000D02*
X15970000Y-14170000D01*
X15970000Y-14130000D02*
X15930000Y-14170000D01*
X16180000Y-10330000D02*
X16220000Y-10370000D01*
X16220000Y-10330000D02*
X16180000Y-10370000D01*
X16180000Y-10580000D02*
X16220000Y-10620000D01*
X16220000Y-10580000D02*
X16180000Y-10620000D01*
X16480000Y-13580000D02*
X16520000Y-13620000D01*
X16520000Y-13580000D02*
X16480000Y-13620000D01*
X16580000Y-11530000D02*
X16620000Y-11570000D01*
X16620000Y-11530000D02*
X16580000Y-11570000D01*
X16630000Y-13080000D02*
X16670000Y-13120000D01*
X16670000Y-13080000D02*
X16630000Y-13120000D01*
X16730000Y-14730000D02*
X16770000Y-14770000D01*
X16770000Y-14730000D02*
X16730000Y-14770000D01*
X16830000Y-9430000D02*
X16870000Y-9470000D01*
X16870000Y-9430000D02*
X16830000Y-9470000D01*
X16980000Y-11530000D02*
X17020000Y-11570000D01*
X17020000Y-11530000D02*
X16980000Y-11570000D01*
X17180000Y-9680000D02*
X17220000Y-9720000D01*
X17220000Y-9680000D02*
X17180000Y-9720000D01*
X17880000Y-13330000D02*
X17920000Y-13370000D01*
X17920000Y-13330000D02*
X17880000Y-13370000D01*
X17880000Y-13780000D02*
X17920000Y-13820000D01*
X17920000Y-13780000D02*
X17880000Y-13820000D01*
X17930000Y-12380000D02*
X17970000Y-12420000D01*
X17970000Y-12380000D02*
X17930000Y-12420000D01*
X17980000Y-12730000D02*
X18020000Y-12770000D01*
X18020000Y-12730000D02*
X17980000Y-12770000D01*
X18030000Y-11530000D02*
X18070000Y-11570000D01*
X18070000Y-11530000D02*
X18030000Y-11570000D01*
X18180000Y-8080000D02*
X18220000Y-8120000D01*
X18220000Y-8080000D02*
X18180000Y-8120000D01*
X18180000Y-10280000D02*
X18220000Y-10320000D01*
X18220000Y-10280000D02*
X18180000Y-10320000D01*
X18530000Y-12730000D02*
X18570000Y-12770000D01*
X18570000Y-12730000D02*
X18530000Y-12770000D01*
X18580000Y-12380000D02*
X18620000Y-12420000D01*
X18620000Y-12380000D02*
X18580000Y-12420000D01*
X18580000Y-14230000D02*
X18620000Y-14270000D01*
X18620000Y-14230000D02*
X18580000Y-14270000D01*
X18880000Y-11630000D02*
X18920000Y-11670000D01*
X18920000Y-11630000D02*
X18880000Y-11670000D01*
X19380000Y-9382500D02*
X19420000Y-9422500D01*
X19420000Y-9382500D02*
X19380000Y-9422500D01*
X19380000Y-10232500D02*
X19420000Y-10272500D01*
X19420000Y-10232500D02*
X19380000Y-10272500D01*
X19380000Y-11082500D02*
X19420000Y-11122500D01*
X19420000Y-11082500D02*
X19380000Y-11122500D01*
X19380000Y-11932500D02*
X19420000Y-11972500D01*
X19420000Y-11932500D02*
X19380000Y-11972500D01*
X19530000Y-12280000D02*
X19570000Y-12320000D01*
X19570000Y-12280000D02*
X19530000Y-12320000D01*
X19630000Y-13430000D02*
X19670000Y-13470000D01*
X19670000Y-13430000D02*
X19630000Y-13470000D01*
X10738100Y-11225000D02*
G75*
G02*
X10661900Y-11225000I-38100J0D01*
G01*
X10661900Y-11225000D02*
G75*
G02*
X10738100Y-11225000I38100J0D01*
G01*
X10738100Y-11475000D02*
G75*
G02*
X10661900Y-11475000I-38100J0D01*
G01*
X10661900Y-11475000D02*
G75*
G02*
X10738100Y-11475000I38100J0D01*
G01*
X10738100Y-11725000D02*
G75*
G02*
X10661900Y-11725000I-38100J0D01*
G01*
X10661900Y-11725000D02*
G75*
G02*
X10738100Y-11725000I38100J0D01*
G01*
X10738100Y-11975000D02*
G75*
G02*
X10661900Y-11975000I-38100J0D01*
G01*
X10661900Y-11975000D02*
G75*
G02*
X10738100Y-11975000I38100J0D01*
G01*
X10738100Y-12500000D02*
G75*
G02*
X10661900Y-12500000I-38100J0D01*
G01*
X10661900Y-12500000D02*
G75*
G02*
X10738100Y-12500000I38100J0D01*
G01*
X10738100Y-12750000D02*
G75*
G02*
X10661900Y-12750000I-38100J0D01*
G01*
X10661900Y-12750000D02*
G75*
G02*
X10738100Y-12750000I38100J0D01*
G01*
X10738100Y-13000000D02*
G75*
G02*
X10661900Y-13000000I-38100J0D01*
G01*
X10661900Y-13000000D02*
G75*
G02*
X10738100Y-13000000I38100J0D01*
G01*
X10738100Y-13250000D02*
G75*
G02*
X10661900Y-13250000I-38100J0D01*
G01*
X10661900Y-13250000D02*
G75*
G02*
X10738100Y-13250000I38100J0D01*
G01*
X10938100Y-10050000D02*
G75*
G02*
X10861900Y-10050000I-38100J0D01*
G01*
X10861900Y-10050000D02*
G75*
G02*
X10938100Y-10050000I38100J0D01*
G01*
X10938100Y-10300000D02*
G75*
G02*
X10861900Y-10300000I-38100J0D01*
G01*
X10861900Y-10300000D02*
G75*
G02*
X10938100Y-10300000I38100J0D01*
G01*
X10938100Y-10550000D02*
G75*
G02*
X10861900Y-10550000I-38100J0D01*
G01*
X10861900Y-10550000D02*
G75*
G02*
X10938100Y-10550000I38100J0D01*
G01*
X10938100Y-10800000D02*
G75*
G02*
X10861900Y-10800000I-38100J0D01*
G01*
X10861900Y-10800000D02*
G75*
G02*
X10938100Y-10800000I38100J0D01*
G01*
X12188100Y-10100000D02*
G75*
G02*
X12111900Y-10100000I-38100J0D01*
G01*
X12111900Y-10100000D02*
G75*
G02*
X12188100Y-10100000I38100J0D01*
G01*
X12188100Y-10350000D02*
G75*
G02*
X12111900Y-10350000I-38100J0D01*
G01*
X12111900Y-10350000D02*
G75*
G02*
X12188100Y-10350000I38100J0D01*
G01*
X12188100Y-10600000D02*
G75*
G02*
X12111900Y-10600000I-38100J0D01*
G01*
X12111900Y-10600000D02*
G75*
G02*
X12188100Y-10600000I38100J0D01*
G01*
X12188100Y-10850000D02*
G75*
G02*
X12111900Y-10850000I-38100J0D01*
G01*
X12111900Y-10850000D02*
G75*
G02*
X12188100Y-10850000I38100J0D01*
G01*
X12188100Y-11100000D02*
G75*
G02*
X12111900Y-11100000I-38100J0D01*
G01*
X12111900Y-11100000D02*
G75*
G02*
X12188100Y-11100000I38100J0D01*
G01*
X12188100Y-11350000D02*
G75*
G02*
X12111900Y-11350000I-38100J0D01*
G01*
X12111900Y-11350000D02*
G75*
G02*
X12188100Y-11350000I38100J0D01*
G01*
X12188100Y-11600000D02*
G75*
G02*
X12111900Y-11600000I-38100J0D01*
G01*
X12111900Y-11600000D02*
G75*
G02*
X12188100Y-11600000I38100J0D01*
G01*
X12188100Y-11850000D02*
G75*
G02*
X12111900Y-11850000I-38100J0D01*
G01*
X12111900Y-11850000D02*
G75*
G02*
X12188100Y-11850000I38100J0D01*
G01*
X12188100Y-12100000D02*
G75*
G02*
X12111900Y-12100000I-38100J0D01*
G01*
X12111900Y-12100000D02*
G75*
G02*
X12188100Y-12100000I38100J0D01*
G01*
X12188100Y-12350000D02*
G75*
G02*
X12111900Y-12350000I-38100J0D01*
G01*
X12111900Y-12350000D02*
G75*
G02*
X12188100Y-12350000I38100J0D01*
G01*
X12188100Y-12600000D02*
G75*
G02*
X12111900Y-12600000I-38100J0D01*
G01*
X12111900Y-12600000D02*
G75*
G02*
X12188100Y-12600000I38100J0D01*
G01*
X12188100Y-12850000D02*
G75*
G02*
X12111900Y-12850000I-38100J0D01*
G01*
X12111900Y-12850000D02*
G75*
G02*
X12188100Y-12850000I38100J0D01*
G01*
X12188100Y-13100000D02*
G75*
G02*
X12111900Y-13100000I-38100J0D01*
G01*
X12111900Y-13100000D02*
G75*
G02*
X12188100Y-13100000I38100J0D01*
G01*
X12188100Y-13350000D02*
G75*
G02*
X12111900Y-13350000I-38100J0D01*
G01*
X12111900Y-13350000D02*
G75*
G02*
X12188100Y-13350000I38100J0D01*
G01*
X12188100Y-13600000D02*
G75*
G02*
X12111900Y-13600000I-38100J0D01*
G01*
X12111900Y-13600000D02*
G75*
G02*
X12188100Y-13600000I38100J0D01*
G01*
X12188100Y-13850000D02*
G75*
G02*
X12111900Y-13850000I-38100J0D01*
G01*
X12111900Y-13850000D02*
G75*
G02*
X12188100Y-13850000I38100J0D01*
G01*
X12188100Y-14100000D02*
G75*
G02*
X12111900Y-14100000I-38100J0D01*
G01*
X12111900Y-14100000D02*
G75*
G02*
X12188100Y-14100000I38100J0D01*
G01*
X12188100Y-14350000D02*
G75*
G02*
X12111900Y-14350000I-38100J0D01*
G01*
X12111900Y-14350000D02*
G75*
G02*
X12188100Y-14350000I38100J0D01*
G01*
X12188100Y-14600000D02*
G75*
G02*
X12111900Y-14600000I-38100J0D01*
G01*
X12111900Y-14600000D02*
G75*
G02*
X12188100Y-14600000I38100J0D01*
G01*
X14688100Y-10100000D02*
G75*
G02*
X14611900Y-10100000I-38100J0D01*
G01*
X14611900Y-10100000D02*
G75*
G02*
X14688100Y-10100000I38100J0D01*
G01*
X14688100Y-10350000D02*
G75*
G02*
X14611900Y-10350000I-38100J0D01*
G01*
X14611900Y-10350000D02*
G75*
G02*
X14688100Y-10350000I38100J0D01*
G01*
X14688100Y-10600000D02*
G75*
G02*
X14611900Y-10600000I-38100J0D01*
G01*
X14611900Y-10600000D02*
G75*
G02*
X14688100Y-10600000I38100J0D01*
G01*
X14688100Y-10850000D02*
G75*
G02*
X14611900Y-10850000I-38100J0D01*
G01*
X14611900Y-10850000D02*
G75*
G02*
X14688100Y-10850000I38100J0D01*
G01*
X14688100Y-11100000D02*
G75*
G02*
X14611900Y-11100000I-38100J0D01*
G01*
X14611900Y-11100000D02*
G75*
G02*
X14688100Y-11100000I38100J0D01*
G01*
X14688100Y-11350000D02*
G75*
G02*
X14611900Y-11350000I-38100J0D01*
G01*
X14611900Y-11350000D02*
G75*
G02*
X14688100Y-11350000I38100J0D01*
G01*
X14688100Y-11600000D02*
G75*
G02*
X14611900Y-11600000I-38100J0D01*
G01*
X14611900Y-11600000D02*
G75*
G02*
X14688100Y-11600000I38100J0D01*
G01*
X14688100Y-11850000D02*
G75*
G02*
X14611900Y-11850000I-38100J0D01*
G01*
X14611900Y-11850000D02*
G75*
G02*
X14688100Y-11850000I38100J0D01*
G01*
X14688100Y-12100000D02*
G75*
G02*
X14611900Y-12100000I-38100J0D01*
G01*
X14611900Y-12100000D02*
G75*
G02*
X14688100Y-12100000I38100J0D01*
G01*
X14688100Y-12350000D02*
G75*
G02*
X14611900Y-12350000I-38100J0D01*
G01*
X14611900Y-12350000D02*
G75*
G02*
X14688100Y-12350000I38100J0D01*
G01*
X14688100Y-12600000D02*
G75*
G02*
X14611900Y-12600000I-38100J0D01*
G01*
X14611900Y-12600000D02*
G75*
G02*
X14688100Y-12600000I38100J0D01*
G01*
X14688100Y-12850000D02*
G75*
G02*
X14611900Y-12850000I-38100J0D01*
G01*
X14611900Y-12850000D02*
G75*
G02*
X14688100Y-12850000I38100J0D01*
G01*
X14688100Y-13100000D02*
G75*
G02*
X14611900Y-13100000I-38100J0D01*
G01*
X14611900Y-13100000D02*
G75*
G02*
X14688100Y-13100000I38100J0D01*
G01*
X14688100Y-13350000D02*
G75*
G02*
X14611900Y-13350000I-38100J0D01*
G01*
X14611900Y-13350000D02*
G75*
G02*
X14688100Y-13350000I38100J0D01*
G01*
X14688100Y-13600000D02*
G75*
G02*
X14611900Y-13600000I-38100J0D01*
G01*
X14611900Y-13600000D02*
G75*
G02*
X14688100Y-13600000I38100J0D01*
G01*
X14688100Y-13850000D02*
G75*
G02*
X14611900Y-13850000I-38100J0D01*
G01*
X14611900Y-13850000D02*
G75*
G02*
X14688100Y-13850000I38100J0D01*
G01*
X14688100Y-14100000D02*
G75*
G02*
X14611900Y-14100000I-38100J0D01*
G01*
X14611900Y-14100000D02*
G75*
G02*
X14688100Y-14100000I38100J0D01*
G01*
X14688100Y-14350000D02*
G75*
G02*
X14611900Y-14350000I-38100J0D01*
G01*
X14611900Y-14350000D02*
G75*
G02*
X14688100Y-14350000I38100J0D01*
G01*
X14688100Y-14600000D02*
G75*
G02*
X14611900Y-14600000I-38100J0D01*
G01*
X14611900Y-14600000D02*
G75*
G02*
X14688100Y-14600000I38100J0D01*
G01*
X16238100Y-11450000D02*
G75*
G02*
X16161900Y-11450000I-38100J0D01*
G01*
X16161900Y-11450000D02*
G75*
G02*
X16238100Y-11450000I38100J0D01*
G01*
X16238100Y-11700000D02*
G75*
G02*
X16161900Y-11700000I-38100J0D01*
G01*
X16161900Y-11700000D02*
G75*
G02*
X16238100Y-11700000I38100J0D01*
G01*
X16238100Y-11950000D02*
G75*
G02*
X16161900Y-11950000I-38100J0D01*
G01*
X16161900Y-11950000D02*
G75*
G02*
X16238100Y-11950000I38100J0D01*
G01*
X16238100Y-12200000D02*
G75*
G02*
X16161900Y-12200000I-38100J0D01*
G01*
X16161900Y-12200000D02*
G75*
G02*
X16238100Y-12200000I38100J0D01*
G01*
X16238100Y-12450000D02*
G75*
G02*
X16161900Y-12450000I-38100J0D01*
G01*
X16161900Y-12450000D02*
G75*
G02*
X16238100Y-12450000I38100J0D01*
G01*
X16238100Y-12700000D02*
G75*
G02*
X16161900Y-12700000I-38100J0D01*
G01*
X16161900Y-12700000D02*
G75*
G02*
X16238100Y-12700000I38100J0D01*
G01*
X16238100Y-13025000D02*
G75*
G02*
X16161900Y-13025000I-38100J0D01*
G01*
X16161900Y-13025000D02*
G75*
G02*
X16238100Y-13025000I38100J0D01*
G01*
X16238100Y-13275000D02*
G75*
G02*
X16161900Y-13275000I-38100J0D01*
G01*
X16161900Y-13275000D02*
G75*
G02*
X16238100Y-13275000I38100J0D01*
G01*
X16238100Y-13525000D02*
G75*
G02*
X16161900Y-13525000I-38100J0D01*
G01*
X16161900Y-13525000D02*
G75*
G02*
X16238100Y-13525000I38100J0D01*
G01*
X16238100Y-13775000D02*
G75*
G02*
X16161900Y-13775000I-38100J0D01*
G01*
X16161900Y-13775000D02*
G75*
G02*
X16238100Y-13775000I38100J0D01*
G01*
X16238100Y-14025000D02*
G75*
G02*
X16161900Y-14025000I-38100J0D01*
G01*
X16161900Y-14025000D02*
G75*
G02*
X16238100Y-14025000I38100J0D01*
G01*
X16238100Y-14275000D02*
G75*
G02*
X16161900Y-14275000I-38100J0D01*
G01*
X16161900Y-14275000D02*
G75*
G02*
X16238100Y-14275000I38100J0D01*
G01*
X16238100Y-14525000D02*
G75*
G02*
X16161900Y-14525000I-38100J0D01*
G01*
X16161900Y-14525000D02*
G75*
G02*
X16238100Y-14525000I38100J0D01*
G01*
X16238100Y-14775000D02*
G75*
G02*
X16161900Y-14775000I-38100J0D01*
G01*
X16161900Y-14775000D02*
G75*
G02*
X16238100Y-14775000I38100J0D01*
G01*
X18270000Y-12245000D02*
X18270000Y-12325000D01*
X18230000Y-12285000D02*
X18310000Y-12285000D01*
X18270000Y-12499000D02*
X18270000Y-12579000D01*
X18230000Y-12539000D02*
X18310000Y-12539000D01*
X18270000Y-12753000D02*
X18270000Y-12833000D01*
X18230000Y-12793000D02*
X18310000Y-12793000D01*
X18270000Y-13007000D02*
X18270000Y-13087000D01*
X18230000Y-13047000D02*
X18310000Y-13047000D01*
X18270000Y-13261000D02*
X18270000Y-13341000D01*
X18230000Y-13301000D02*
X18310000Y-13301000D01*
X18270000Y-13515000D02*
X18270000Y-13595000D01*
X18230000Y-13555000D02*
X18310000Y-13555000D01*
X18270000Y-13769000D02*
X18270000Y-13849000D01*
X18230000Y-13809000D02*
X18310000Y-13809000D01*
X18270000Y-14023000D02*
X18270000Y-14103000D01*
X18230000Y-14063000D02*
X18310000Y-14063000D01*
X18270000Y-14277000D02*
X18270000Y-14357000D01*
X18230000Y-14317000D02*
X18310000Y-14317000D01*
X19032000Y-12245000D02*
X19032000Y-12325000D01*
X18992000Y-12285000D02*
X19072000Y-12285000D01*
X19032000Y-12499000D02*
X19032000Y-12579000D01*
X18992000Y-12539000D02*
X19072000Y-12539000D01*
X19032000Y-12753000D02*
X19032000Y-12833000D01*
X18992000Y-12793000D02*
X19072000Y-12793000D01*
X19032000Y-13007000D02*
X19032000Y-13087000D01*
X18992000Y-13047000D02*
X19072000Y-13047000D01*
X19032000Y-13261000D02*
X19032000Y-13341000D01*
X18992000Y-13301000D02*
X19072000Y-13301000D01*
X19032000Y-13515000D02*
X19032000Y-13595000D01*
X18992000Y-13555000D02*
X19072000Y-13555000D01*
X19032000Y-13769000D02*
X19032000Y-13849000D01*
X18992000Y-13809000D02*
X19072000Y-13809000D01*
X19032000Y-14023000D02*
X19032000Y-14103000D01*
X18992000Y-14063000D02*
X19072000Y-14063000D01*
X19032000Y-14277000D02*
X19032000Y-14357000D01*
X18992000Y-14317000D02*
X19072000Y-14317000D01*
X12483588Y-8583588D02*
X12483588Y-8516412D01*
X12416412Y-8516412D01*
X12416412Y-8583588D01*
X12483588Y-8583588D01*
X12483588Y-8833588D02*
X12483588Y-8766412D01*
X12416412Y-8766412D01*
X12416412Y-8833588D01*
X12483588Y-8833588D01*
X12483588Y-9083588D02*
X12483588Y-9016412D01*
X12416412Y-9016412D01*
X12416412Y-9083588D01*
X12483588Y-9083588D01*
X13343588Y-8583588D02*
X13343588Y-8516412D01*
X13276412Y-8516412D01*
X13276412Y-8583588D01*
X13343588Y-8583588D01*
X13343588Y-8833588D02*
X13343588Y-8766412D01*
X13276412Y-8766412D01*
X13276412Y-8833588D01*
X13343588Y-8833588D01*
X13343588Y-9083588D02*
X13343588Y-9016412D01*
X13276412Y-9016412D01*
X13276412Y-9083588D01*
X13343588Y-9083588D01*
X14183588Y-8583588D02*
X14183588Y-8516412D01*
X14116412Y-8516412D01*
X14116412Y-8583588D01*
X14183588Y-8583588D01*
X14183588Y-8833588D02*
X14183588Y-8766412D01*
X14116412Y-8766412D01*
X14116412Y-8833588D01*
X14183588Y-8833588D01*
X14183588Y-9083588D02*
X14183588Y-9016412D01*
X14116412Y-9016412D01*
X14116412Y-9083588D01*
X14183588Y-9083588D01*
X15033588Y-8583588D02*
X15033588Y-8516412D01*
X14966412Y-8516412D01*
X14966412Y-8583588D01*
X15033588Y-8583588D01*
X15033588Y-8833588D02*
X15033588Y-8766412D01*
X14966412Y-8766412D01*
X14966412Y-8833588D01*
X15033588Y-8833588D01*
X15033588Y-9083588D02*
X15033588Y-9016412D01*
X14966412Y-9016412D01*
X14966412Y-9083588D01*
X15033588Y-9083588D01*
X15883588Y-8583588D02*
X15883588Y-8516412D01*
X15816412Y-8516412D01*
X15816412Y-8583588D01*
X15883588Y-8583588D01*
X15883588Y-8833588D02*
X15883588Y-8766412D01*
X15816412Y-8766412D01*
X15816412Y-8833588D01*
X15883588Y-8833588D01*
X15883588Y-9083588D02*
X15883588Y-9016412D01*
X15816412Y-9016412D01*
X15816412Y-9083588D01*
X15883588Y-9083588D01*
X16733588Y-8583588D02*
X16733588Y-8516412D01*
X16666412Y-8516412D01*
X16666412Y-8583588D01*
X16733588Y-8583588D01*
X16733588Y-8833588D02*
X16733588Y-8766412D01*
X16666412Y-8766412D01*
X16666412Y-8833588D01*
X16733588Y-8833588D01*
X16733588Y-9083588D02*
X16733588Y-9016412D01*
X16666412Y-9016412D01*
X16666412Y-9083588D01*
X16733588Y-9083588D01*
X16733588Y-10333588D02*
X16733588Y-10266412D01*
X16666412Y-10266412D01*
X16666412Y-10333588D01*
X16733588Y-10333588D01*
X16733588Y-10583588D02*
X16733588Y-10516412D01*
X16666412Y-10516412D01*
X16666412Y-10583588D01*
X16733588Y-10583588D01*
X16733588Y-10833588D02*
X16733588Y-10766412D01*
X16666412Y-10766412D01*
X16666412Y-10833588D01*
X16733588Y-10833588D01*
X16733588Y-11083588D02*
X16733588Y-11016412D01*
X16666412Y-11016412D01*
X16666412Y-11083588D01*
X16733588Y-11083588D01*
X17583588Y-8683588D02*
X17583588Y-8616412D01*
X17516412Y-8616412D01*
X17516412Y-8683588D01*
X17583588Y-8683588D01*
X17783588Y-10333588D02*
X17783588Y-10266412D01*
X17716412Y-10266412D01*
X17716412Y-10333588D01*
X17783588Y-10333588D01*
X17783588Y-10583588D02*
X17783588Y-10516412D01*
X17716412Y-10516412D01*
X17716412Y-10583588D01*
X17783588Y-10583588D01*
X17783588Y-10833588D02*
X17783588Y-10766412D01*
X17716412Y-10766412D01*
X17716412Y-10833588D01*
X17783588Y-10833588D01*
X17783588Y-11083588D02*
X17783588Y-11016412D01*
X17716412Y-11016412D01*
X17716412Y-11083588D01*
X17783588Y-11083588D01*
X17833588Y-8683588D02*
X17833588Y-8616412D01*
X17766412Y-8616412D01*
X17766412Y-8683588D01*
X17833588Y-8683588D01*
X18083588Y-8683588D02*
X18083588Y-8616412D01*
X18016412Y-8616412D01*
X18016412Y-8683588D01*
X18083588Y-8683588D01*
X11096000Y-14019000D02*
X11146000Y-13969000D01*
X11096000Y-13919000D01*
X11046000Y-13969000D01*
X11096000Y-14019000D01*
X11096000Y-14781000D02*
X11146000Y-14731000D01*
X11096000Y-14681000D01*
X11046000Y-14731000D01*
X11096000Y-14781000D01*
X11604000Y-14019000D02*
X11654000Y-13969000D01*
X11604000Y-13919000D01*
X11554000Y-13969000D01*
X11604000Y-14019000D01*
X11604000Y-14781000D02*
X11654000Y-14731000D01*
X11604000Y-14681000D01*
X11554000Y-14731000D01*
X11604000Y-14781000D01*
X16796000Y-12150000D02*
X16846000Y-12100000D01*
X16796000Y-12050000D01*
X16746000Y-12100000D01*
X16796000Y-12150000D01*
X16796000Y-12900000D02*
X16846000Y-12850000D01*
X16796000Y-12800000D01*
X16746000Y-12850000D01*
X16796000Y-12900000D01*
X16796000Y-13650000D02*
X16846000Y-13600000D01*
X16796000Y-13550000D01*
X16746000Y-13600000D01*
X16796000Y-13650000D01*
X16796000Y-14400000D02*
X16846000Y-14350000D01*
X16796000Y-14300000D01*
X16746000Y-14350000D01*
X16796000Y-14400000D01*
X17050000Y-12150000D02*
X17100000Y-12100000D01*
X17050000Y-12050000D01*
X17000000Y-12100000D01*
X17050000Y-12150000D01*
X17050000Y-12900000D02*
X17100000Y-12850000D01*
X17050000Y-12800000D01*
X17000000Y-12850000D01*
X17050000Y-12900000D01*
X17050000Y-13650000D02*
X17100000Y-13600000D01*
X17050000Y-13550000D01*
X17000000Y-13600000D01*
X17050000Y-13650000D01*
X17050000Y-14400000D02*
X17100000Y-14350000D01*
X17050000Y-14300000D01*
X17000000Y-14350000D01*
X17050000Y-14400000D01*
X17304000Y-12150000D02*
X17354000Y-12100000D01*
X17304000Y-12050000D01*
X17254000Y-12100000D01*
X17304000Y-12150000D01*
X17304000Y-12900000D02*
X17354000Y-12850000D01*
X17304000Y-12800000D01*
X17254000Y-12850000D01*
X17304000Y-12900000D01*
X17304000Y-13650000D02*
X17354000Y-13600000D01*
X17304000Y-13550000D01*
X17254000Y-13600000D01*
X17304000Y-13650000D01*
X17304000Y-14400000D02*
X17354000Y-14350000D01*
X17304000Y-14300000D01*
X17254000Y-14350000D01*
X17304000Y-14400000D01*
X17558000Y-12150000D02*
X17608000Y-12100000D01*
X17558000Y-12050000D01*
X17508000Y-12100000D01*
X17558000Y-12150000D01*
X17558000Y-12900000D02*
X17608000Y-12850000D01*
X17558000Y-12800000D01*
X17508000Y-12850000D01*
X17558000Y-12900000D01*
X17558000Y-13650000D02*
X17608000Y-13600000D01*
X17558000Y-13550000D01*
X17508000Y-13600000D01*
X17558000Y-13650000D01*
X17558000Y-14400000D02*
X17608000Y-14350000D01*
X17558000Y-14300000D01*
X17508000Y-14350000D01*
X17558000Y-14400000D01*
X17812000Y-12150000D02*
X17862000Y-12100000D01*
X17812000Y-12050000D01*
X17762000Y-12100000D01*
X17812000Y-12150000D01*
X17812000Y-12900000D02*
X17862000Y-12850000D01*
X17812000Y-12800000D01*
X17762000Y-12850000D01*
X17812000Y-12900000D01*
X17812000Y-13650000D02*
X17862000Y-13600000D01*
X17812000Y-13550000D01*
X17762000Y-13600000D01*
X17812000Y-13650000D01*
X17812000Y-14400000D02*
X17862000Y-14350000D01*
X17812000Y-14300000D01*
X17762000Y-14350000D01*
X17812000Y-14400000D01*
X18750000Y-9850000D02*
X18800000Y-9800000D01*
X18750000Y-9750000D01*
X18700000Y-9800000D01*
X18750000Y-9850000D01*
X18750000Y-10700000D02*
X18800000Y-10650000D01*
X18750000Y-10600000D01*
X18700000Y-10650000D01*
X18750000Y-10700000D01*
X18750000Y-11550000D02*
X18800000Y-11500000D01*
X18750000Y-11450000D01*
X18700000Y-11500000D01*
X18750000Y-11550000D01*
X18765000Y-9000000D02*
X18815000Y-8950000D01*
X18765000Y-8900000D01*
X18715000Y-8950000D01*
X18765000Y-9000000D01*
X19000000Y-9850000D02*
X19050000Y-9800000D01*
X19000000Y-9750000D01*
X18950000Y-9800000D01*
X19000000Y-9850000D01*
X19000000Y-10700000D02*
X19050000Y-10650000D01*
X19000000Y-10600000D01*
X18950000Y-10650000D01*
X19000000Y-10700000D01*
X19000000Y-11550000D02*
X19050000Y-11500000D01*
X19000000Y-11450000D01*
X18950000Y-11500000D01*
X19000000Y-11550000D01*
X19015000Y-9000000D02*
X19065000Y-8950000D01*
X19015000Y-8900000D01*
X18965000Y-8950000D01*
X19015000Y-9000000D01*
D11*
X10258277Y-15263984D02*
X10258277Y-15063984D01*
X10258277Y-15063984D02*
X10305896Y-15063984D01*
X10305896Y-15063984D02*
X10334467Y-15073508D01*
X10334467Y-15073508D02*
X10353515Y-15092555D01*
X10353515Y-15092555D02*
X10363039Y-15111603D01*
X10363039Y-15111603D02*
X10372563Y-15149698D01*
X10372563Y-15149698D02*
X10372563Y-15178269D01*
X10372563Y-15178269D02*
X10363039Y-15216365D01*
X10363039Y-15216365D02*
X10353515Y-15235412D01*
X10353515Y-15235412D02*
X10334467Y-15254460D01*
X10334467Y-15254460D02*
X10305896Y-15263984D01*
X10305896Y-15263984D02*
X10258277Y-15263984D01*
X10458277Y-15263984D02*
X10458277Y-15130650D01*
X10458277Y-15168746D02*
X10467801Y-15149698D01*
X10467801Y-15149698D02*
X10477324Y-15140174D01*
X10477324Y-15140174D02*
X10496372Y-15130650D01*
X10496372Y-15130650D02*
X10515420Y-15130650D01*
X10582086Y-15263984D02*
X10582086Y-15130650D01*
X10582086Y-15063984D02*
X10572563Y-15073508D01*
X10572563Y-15073508D02*
X10582086Y-15083031D01*
X10582086Y-15083031D02*
X10591610Y-15073508D01*
X10591610Y-15073508D02*
X10582086Y-15063984D01*
X10582086Y-15063984D02*
X10582086Y-15083031D01*
X10705896Y-15263984D02*
X10686848Y-15254460D01*
X10686848Y-15254460D02*
X10677324Y-15235412D01*
X10677324Y-15235412D02*
X10677324Y-15063984D01*
X10810658Y-15263984D02*
X10791610Y-15254460D01*
X10791610Y-15254460D02*
X10782086Y-15235412D01*
X10782086Y-15235412D02*
X10782086Y-15063984D01*
X11039229Y-15263984D02*
X11039229Y-15063984D01*
X11039229Y-15063984D02*
X11105896Y-15206841D01*
X11105896Y-15206841D02*
X11172563Y-15063984D01*
X11172563Y-15063984D02*
X11172563Y-15263984D01*
X11353515Y-15263984D02*
X11353515Y-15159222D01*
X11353515Y-15159222D02*
X11343991Y-15140174D01*
X11343991Y-15140174D02*
X11324943Y-15130650D01*
X11324943Y-15130650D02*
X11286848Y-15130650D01*
X11286848Y-15130650D02*
X11267801Y-15140174D01*
X11353515Y-15254460D02*
X11334467Y-15263984D01*
X11334467Y-15263984D02*
X11286848Y-15263984D01*
X11286848Y-15263984D02*
X11267801Y-15254460D01*
X11267801Y-15254460D02*
X11258277Y-15235412D01*
X11258277Y-15235412D02*
X11258277Y-15216365D01*
X11258277Y-15216365D02*
X11267801Y-15197317D01*
X11267801Y-15197317D02*
X11286848Y-15187793D01*
X11286848Y-15187793D02*
X11334467Y-15187793D01*
X11334467Y-15187793D02*
X11353515Y-15178269D01*
X11448753Y-15130650D02*
X11448753Y-15330650D01*
X11448753Y-15140174D02*
X11467801Y-15130650D01*
X11467801Y-15130650D02*
X11505896Y-15130650D01*
X11505896Y-15130650D02*
X11524943Y-15140174D01*
X11524943Y-15140174D02*
X11534467Y-15149698D01*
X11534467Y-15149698D02*
X11543991Y-15168746D01*
X11543991Y-15168746D02*
X11543991Y-15225888D01*
X11543991Y-15225888D02*
X11534467Y-15244936D01*
X11534467Y-15244936D02*
X11524943Y-15254460D01*
X11524943Y-15254460D02*
X11505896Y-15263984D01*
X11505896Y-15263984D02*
X11467801Y-15263984D01*
X11467801Y-15263984D02*
X11448753Y-15254460D01*
X11629705Y-15244936D02*
X11639229Y-15254460D01*
X11639229Y-15254460D02*
X11629705Y-15263984D01*
X11629705Y-15263984D02*
X11620182Y-15254460D01*
X11620182Y-15254460D02*
X11629705Y-15244936D01*
X11629705Y-15244936D02*
X11629705Y-15263984D01*
X11629705Y-15140174D02*
X11639229Y-15149698D01*
X11639229Y-15149698D02*
X11629705Y-15159222D01*
X11629705Y-15159222D02*
X11620182Y-15149698D01*
X11620182Y-15149698D02*
X11629705Y-15140174D01*
X11629705Y-15140174D02*
X11629705Y-15159222D01*
D12*
X9957500Y-15572500D02*
X9997500Y-15612500D01*
X9997500Y-15572500D02*
X9957500Y-15612500D01*
D11*
X10296372Y-15483984D02*
X10315420Y-15483984D01*
X10315420Y-15483984D02*
X10334467Y-15493508D01*
X10334467Y-15493508D02*
X10343991Y-15503031D01*
X10343991Y-15503031D02*
X10353515Y-15522079D01*
X10353515Y-15522079D02*
X10363039Y-15560174D01*
X10363039Y-15560174D02*
X10363039Y-15607793D01*
X10363039Y-15607793D02*
X10353515Y-15645888D01*
X10353515Y-15645888D02*
X10343991Y-15664936D01*
X10343991Y-15664936D02*
X10334467Y-15674460D01*
X10334467Y-15674460D02*
X10315420Y-15683984D01*
X10315420Y-15683984D02*
X10296372Y-15683984D01*
X10296372Y-15683984D02*
X10277324Y-15674460D01*
X10277324Y-15674460D02*
X10267801Y-15664936D01*
X10267801Y-15664936D02*
X10258277Y-15645888D01*
X10258277Y-15645888D02*
X10248753Y-15607793D01*
X10248753Y-15607793D02*
X10248753Y-15560174D01*
X10248753Y-15560174D02*
X10258277Y-15522079D01*
X10258277Y-15522079D02*
X10267801Y-15503031D01*
X10267801Y-15503031D02*
X10277324Y-15493508D01*
X10277324Y-15493508D02*
X10296372Y-15483984D01*
X10448753Y-15664936D02*
X10458277Y-15674460D01*
X10458277Y-15674460D02*
X10448753Y-15683984D01*
X10448753Y-15683984D02*
X10439229Y-15674460D01*
X10439229Y-15674460D02*
X10448753Y-15664936D01*
X10448753Y-15664936D02*
X10448753Y-15683984D01*
X10629705Y-15550650D02*
X10629705Y-15683984D01*
X10582086Y-15474460D02*
X10534467Y-15617317D01*
X10534467Y-15617317D02*
X10658277Y-15617317D01*
X10772563Y-15483984D02*
X10791610Y-15483984D01*
X10791610Y-15483984D02*
X10810658Y-15493508D01*
X10810658Y-15493508D02*
X10820182Y-15503031D01*
X10820182Y-15503031D02*
X10829705Y-15522079D01*
X10829705Y-15522079D02*
X10839229Y-15560174D01*
X10839229Y-15560174D02*
X10839229Y-15607793D01*
X10839229Y-15607793D02*
X10829705Y-15645888D01*
X10829705Y-15645888D02*
X10820182Y-15664936D01*
X10820182Y-15664936D02*
X10810658Y-15674460D01*
X10810658Y-15674460D02*
X10791610Y-15683984D01*
X10791610Y-15683984D02*
X10772563Y-15683984D01*
X10772563Y-15683984D02*
X10753515Y-15674460D01*
X10753515Y-15674460D02*
X10743991Y-15664936D01*
X10743991Y-15664936D02*
X10734467Y-15645888D01*
X10734467Y-15645888D02*
X10724944Y-15607793D01*
X10724944Y-15607793D02*
X10724944Y-15560174D01*
X10724944Y-15560174D02*
X10734467Y-15522079D01*
X10734467Y-15522079D02*
X10743991Y-15503031D01*
X10743991Y-15503031D02*
X10753515Y-15493508D01*
X10753515Y-15493508D02*
X10772563Y-15483984D01*
X10963039Y-15483984D02*
X10982086Y-15483984D01*
X10982086Y-15483984D02*
X11001134Y-15493508D01*
X11001134Y-15493508D02*
X11010658Y-15503031D01*
X11010658Y-15503031D02*
X11020182Y-15522079D01*
X11020182Y-15522079D02*
X11029705Y-15560174D01*
X11029705Y-15560174D02*
X11029705Y-15607793D01*
X11029705Y-15607793D02*
X11020182Y-15645888D01*
X11020182Y-15645888D02*
X11010658Y-15664936D01*
X11010658Y-15664936D02*
X11001134Y-15674460D01*
X11001134Y-15674460D02*
X10982086Y-15683984D01*
X10982086Y-15683984D02*
X10963039Y-15683984D01*
X10963039Y-15683984D02*
X10943991Y-15674460D01*
X10943991Y-15674460D02*
X10934467Y-15664936D01*
X10934467Y-15664936D02*
X10924944Y-15645888D01*
X10924944Y-15645888D02*
X10915420Y-15607793D01*
X10915420Y-15607793D02*
X10915420Y-15560174D01*
X10915420Y-15560174D02*
X10924944Y-15522079D01*
X10924944Y-15522079D02*
X10934467Y-15503031D01*
X10934467Y-15503031D02*
X10943991Y-15493508D01*
X10943991Y-15493508D02*
X10963039Y-15483984D01*
X11115420Y-15683984D02*
X11115420Y-15550650D01*
X11115420Y-15569698D02*
X11124944Y-15560174D01*
X11124944Y-15560174D02*
X11143991Y-15550650D01*
X11143991Y-15550650D02*
X11172563Y-15550650D01*
X11172563Y-15550650D02*
X11191610Y-15560174D01*
X11191610Y-15560174D02*
X11201134Y-15579222D01*
X11201134Y-15579222D02*
X11201134Y-15683984D01*
X11201134Y-15579222D02*
X11210658Y-15560174D01*
X11210658Y-15560174D02*
X11229705Y-15550650D01*
X11229705Y-15550650D02*
X11258277Y-15550650D01*
X11258277Y-15550650D02*
X11277324Y-15560174D01*
X11277324Y-15560174D02*
X11286848Y-15579222D01*
X11286848Y-15579222D02*
X11286848Y-15683984D01*
X11382086Y-15683984D02*
X11382086Y-15550650D01*
X11382086Y-15569698D02*
X11391610Y-15560174D01*
X11391610Y-15560174D02*
X11410658Y-15550650D01*
X11410658Y-15550650D02*
X11439229Y-15550650D01*
X11439229Y-15550650D02*
X11458277Y-15560174D01*
X11458277Y-15560174D02*
X11467801Y-15579222D01*
X11467801Y-15579222D02*
X11467801Y-15683984D01*
X11467801Y-15579222D02*
X11477324Y-15560174D01*
X11477324Y-15560174D02*
X11496372Y-15550650D01*
X11496372Y-15550650D02*
X11524943Y-15550650D01*
X11524943Y-15550650D02*
X11543991Y-15560174D01*
X11543991Y-15560174D02*
X11553515Y-15579222D01*
X11553515Y-15579222D02*
X11553515Y-15683984D01*
X11943991Y-15474460D02*
X11772563Y-15731603D01*
X12201134Y-15483984D02*
X12220182Y-15483984D01*
X12220182Y-15483984D02*
X12239229Y-15493508D01*
X12239229Y-15493508D02*
X12248753Y-15503031D01*
X12248753Y-15503031D02*
X12258277Y-15522079D01*
X12258277Y-15522079D02*
X12267801Y-15560174D01*
X12267801Y-15560174D02*
X12267801Y-15607793D01*
X12267801Y-15607793D02*
X12258277Y-15645888D01*
X12258277Y-15645888D02*
X12248753Y-15664936D01*
X12248753Y-15664936D02*
X12239229Y-15674460D01*
X12239229Y-15674460D02*
X12220182Y-15683984D01*
X12220182Y-15683984D02*
X12201134Y-15683984D01*
X12201134Y-15683984D02*
X12182086Y-15674460D01*
X12182086Y-15674460D02*
X12172563Y-15664936D01*
X12172563Y-15664936D02*
X12163039Y-15645888D01*
X12163039Y-15645888D02*
X12153515Y-15607793D01*
X12153515Y-15607793D02*
X12153515Y-15560174D01*
X12153515Y-15560174D02*
X12163039Y-15522079D01*
X12163039Y-15522079D02*
X12172563Y-15503031D01*
X12172563Y-15503031D02*
X12182086Y-15493508D01*
X12182086Y-15493508D02*
X12201134Y-15483984D01*
X12353515Y-15664936D02*
X12363039Y-15674460D01*
X12363039Y-15674460D02*
X12353515Y-15683984D01*
X12353515Y-15683984D02*
X12343991Y-15674460D01*
X12343991Y-15674460D02*
X12353515Y-15664936D01*
X12353515Y-15664936D02*
X12353515Y-15683984D01*
X12486848Y-15483984D02*
X12505896Y-15483984D01*
X12505896Y-15483984D02*
X12524944Y-15493508D01*
X12524944Y-15493508D02*
X12534467Y-15503031D01*
X12534467Y-15503031D02*
X12543991Y-15522079D01*
X12543991Y-15522079D02*
X12553515Y-15560174D01*
X12553515Y-15560174D02*
X12553515Y-15607793D01*
X12553515Y-15607793D02*
X12543991Y-15645888D01*
X12543991Y-15645888D02*
X12534467Y-15664936D01*
X12534467Y-15664936D02*
X12524944Y-15674460D01*
X12524944Y-15674460D02*
X12505896Y-15683984D01*
X12505896Y-15683984D02*
X12486848Y-15683984D01*
X12486848Y-15683984D02*
X12467801Y-15674460D01*
X12467801Y-15674460D02*
X12458277Y-15664936D01*
X12458277Y-15664936D02*
X12448753Y-15645888D01*
X12448753Y-15645888D02*
X12439229Y-15607793D01*
X12439229Y-15607793D02*
X12439229Y-15560174D01*
X12439229Y-15560174D02*
X12448753Y-15522079D01*
X12448753Y-15522079D02*
X12458277Y-15503031D01*
X12458277Y-15503031D02*
X12467801Y-15493508D01*
X12467801Y-15493508D02*
X12486848Y-15483984D01*
X12743991Y-15683984D02*
X12629706Y-15683984D01*
X12686848Y-15683984D02*
X12686848Y-15483984D01*
X12686848Y-15483984D02*
X12667801Y-15512555D01*
X12667801Y-15512555D02*
X12648753Y-15531603D01*
X12648753Y-15531603D02*
X12629706Y-15541127D01*
X12924944Y-15483984D02*
X12829706Y-15483984D01*
X12829706Y-15483984D02*
X12820182Y-15579222D01*
X12820182Y-15579222D02*
X12829706Y-15569698D01*
X12829706Y-15569698D02*
X12848753Y-15560174D01*
X12848753Y-15560174D02*
X12896372Y-15560174D01*
X12896372Y-15560174D02*
X12915420Y-15569698D01*
X12915420Y-15569698D02*
X12924944Y-15579222D01*
X12924944Y-15579222D02*
X12934467Y-15598269D01*
X12934467Y-15598269D02*
X12934467Y-15645888D01*
X12934467Y-15645888D02*
X12924944Y-15664936D01*
X12924944Y-15664936D02*
X12915420Y-15674460D01*
X12915420Y-15674460D02*
X12896372Y-15683984D01*
X12896372Y-15683984D02*
X12848753Y-15683984D01*
X12848753Y-15683984D02*
X12829706Y-15674460D01*
X12829706Y-15674460D02*
X12820182Y-15664936D01*
X13001134Y-15483984D02*
X13134467Y-15483984D01*
X13134467Y-15483984D02*
X13048753Y-15683984D01*
X13201134Y-15483984D02*
X13201134Y-15522079D01*
X13277325Y-15483984D02*
X13277325Y-15522079D01*
X13572563Y-15760174D02*
X13563039Y-15750650D01*
X13563039Y-15750650D02*
X13543991Y-15722079D01*
X13543991Y-15722079D02*
X13534468Y-15703031D01*
X13534468Y-15703031D02*
X13524944Y-15674460D01*
X13524944Y-15674460D02*
X13515420Y-15626841D01*
X13515420Y-15626841D02*
X13515420Y-15588746D01*
X13515420Y-15588746D02*
X13524944Y-15541127D01*
X13524944Y-15541127D02*
X13534468Y-15512555D01*
X13534468Y-15512555D02*
X13543991Y-15493508D01*
X13543991Y-15493508D02*
X13563039Y-15464936D01*
X13563039Y-15464936D02*
X13572563Y-15455412D01*
X13753515Y-15683984D02*
X13639229Y-15683984D01*
X13696372Y-15683984D02*
X13696372Y-15483984D01*
X13696372Y-15483984D02*
X13677325Y-15512555D01*
X13677325Y-15512555D02*
X13658277Y-15531603D01*
X13658277Y-15531603D02*
X13639229Y-15541127D01*
X13820182Y-15483984D02*
X13943991Y-15483984D01*
X13943991Y-15483984D02*
X13877325Y-15560174D01*
X13877325Y-15560174D02*
X13905896Y-15560174D01*
X13905896Y-15560174D02*
X13924944Y-15569698D01*
X13924944Y-15569698D02*
X13934468Y-15579222D01*
X13934468Y-15579222D02*
X13943991Y-15598269D01*
X13943991Y-15598269D02*
X13943991Y-15645888D01*
X13943991Y-15645888D02*
X13934468Y-15664936D01*
X13934468Y-15664936D02*
X13924944Y-15674460D01*
X13924944Y-15674460D02*
X13905896Y-15683984D01*
X13905896Y-15683984D02*
X13848753Y-15683984D01*
X13848753Y-15683984D02*
X13829706Y-15674460D01*
X13829706Y-15674460D02*
X13820182Y-15664936D01*
X14067801Y-15483984D02*
X14086849Y-15483984D01*
X14086849Y-15483984D02*
X14105896Y-15493508D01*
X14105896Y-15493508D02*
X14115420Y-15503031D01*
X14115420Y-15503031D02*
X14124944Y-15522079D01*
X14124944Y-15522079D02*
X14134468Y-15560174D01*
X14134468Y-15560174D02*
X14134468Y-15607793D01*
X14134468Y-15607793D02*
X14124944Y-15645888D01*
X14124944Y-15645888D02*
X14115420Y-15664936D01*
X14115420Y-15664936D02*
X14105896Y-15674460D01*
X14105896Y-15674460D02*
X14086849Y-15683984D01*
X14086849Y-15683984D02*
X14067801Y-15683984D01*
X14067801Y-15683984D02*
X14048753Y-15674460D01*
X14048753Y-15674460D02*
X14039229Y-15664936D01*
X14039229Y-15664936D02*
X14029706Y-15645888D01*
X14029706Y-15645888D02*
X14020182Y-15607793D01*
X14020182Y-15607793D02*
X14020182Y-15560174D01*
X14020182Y-15560174D02*
X14029706Y-15522079D01*
X14029706Y-15522079D02*
X14039229Y-15503031D01*
X14039229Y-15503031D02*
X14048753Y-15493508D01*
X14048753Y-15493508D02*
X14067801Y-15483984D01*
X14372563Y-15683984D02*
X14372563Y-15483984D01*
X14458277Y-15683984D02*
X14458277Y-15579222D01*
X14458277Y-15579222D02*
X14448753Y-15560174D01*
X14448753Y-15560174D02*
X14429706Y-15550650D01*
X14429706Y-15550650D02*
X14401134Y-15550650D01*
X14401134Y-15550650D02*
X14382087Y-15560174D01*
X14382087Y-15560174D02*
X14372563Y-15569698D01*
X14582087Y-15683984D02*
X14563039Y-15674460D01*
X14563039Y-15674460D02*
X14553515Y-15664936D01*
X14553515Y-15664936D02*
X14543991Y-15645888D01*
X14543991Y-15645888D02*
X14543991Y-15588746D01*
X14543991Y-15588746D02*
X14553515Y-15569698D01*
X14553515Y-15569698D02*
X14563039Y-15560174D01*
X14563039Y-15560174D02*
X14582087Y-15550650D01*
X14582087Y-15550650D02*
X14610658Y-15550650D01*
X14610658Y-15550650D02*
X14629706Y-15560174D01*
X14629706Y-15560174D02*
X14639230Y-15569698D01*
X14639230Y-15569698D02*
X14648753Y-15588746D01*
X14648753Y-15588746D02*
X14648753Y-15645888D01*
X14648753Y-15645888D02*
X14639230Y-15664936D01*
X14639230Y-15664936D02*
X14629706Y-15674460D01*
X14629706Y-15674460D02*
X14610658Y-15683984D01*
X14610658Y-15683984D02*
X14582087Y-15683984D01*
X14763039Y-15683984D02*
X14743991Y-15674460D01*
X14743991Y-15674460D02*
X14734468Y-15655412D01*
X14734468Y-15655412D02*
X14734468Y-15483984D01*
X14915420Y-15674460D02*
X14896372Y-15683984D01*
X14896372Y-15683984D02*
X14858277Y-15683984D01*
X14858277Y-15683984D02*
X14839230Y-15674460D01*
X14839230Y-15674460D02*
X14829706Y-15655412D01*
X14829706Y-15655412D02*
X14829706Y-15579222D01*
X14829706Y-15579222D02*
X14839230Y-15560174D01*
X14839230Y-15560174D02*
X14858277Y-15550650D01*
X14858277Y-15550650D02*
X14896372Y-15550650D01*
X14896372Y-15550650D02*
X14915420Y-15560174D01*
X14915420Y-15560174D02*
X14924944Y-15579222D01*
X14924944Y-15579222D02*
X14924944Y-15598269D01*
X14924944Y-15598269D02*
X14829706Y-15617317D01*
X15001134Y-15674460D02*
X15020182Y-15683984D01*
X15020182Y-15683984D02*
X15058277Y-15683984D01*
X15058277Y-15683984D02*
X15077325Y-15674460D01*
X15077325Y-15674460D02*
X15086849Y-15655412D01*
X15086849Y-15655412D02*
X15086849Y-15645888D01*
X15086849Y-15645888D02*
X15077325Y-15626841D01*
X15077325Y-15626841D02*
X15058277Y-15617317D01*
X15058277Y-15617317D02*
X15029706Y-15617317D01*
X15029706Y-15617317D02*
X15010658Y-15607793D01*
X15010658Y-15607793D02*
X15001134Y-15588746D01*
X15001134Y-15588746D02*
X15001134Y-15579222D01*
X15001134Y-15579222D02*
X15010658Y-15560174D01*
X15010658Y-15560174D02*
X15029706Y-15550650D01*
X15029706Y-15550650D02*
X15058277Y-15550650D01*
X15058277Y-15550650D02*
X15077325Y-15560174D01*
X15153515Y-15760174D02*
X15163039Y-15750650D01*
X15163039Y-15750650D02*
X15182087Y-15722079D01*
X15182087Y-15722079D02*
X15191611Y-15703031D01*
X15191611Y-15703031D02*
X15201134Y-15674460D01*
X15201134Y-15674460D02*
X15210658Y-15626841D01*
X15210658Y-15626841D02*
X15210658Y-15588746D01*
X15210658Y-15588746D02*
X15201134Y-15541127D01*
X15201134Y-15541127D02*
X15191611Y-15512555D01*
X15191611Y-15512555D02*
X15182087Y-15493508D01*
X15182087Y-15493508D02*
X15163039Y-15464936D01*
X15163039Y-15464936D02*
X15153515Y-15455412D01*
D12*
X9997500Y-15856500D02*
G75*
G02*
X9921300Y-15856500I-38100J0D01*
G01*
X9921300Y-15856500D02*
G75*
G02*
X9997500Y-15856500I38100J0D01*
G01*
D11*
X10296372Y-15747984D02*
X10315420Y-15747984D01*
X10315420Y-15747984D02*
X10334467Y-15757508D01*
X10334467Y-15757508D02*
X10343991Y-15767031D01*
X10343991Y-15767031D02*
X10353515Y-15786079D01*
X10353515Y-15786079D02*
X10363039Y-15824174D01*
X10363039Y-15824174D02*
X10363039Y-15871793D01*
X10363039Y-15871793D02*
X10353515Y-15909888D01*
X10353515Y-15909888D02*
X10343991Y-15928936D01*
X10343991Y-15928936D02*
X10334467Y-15938460D01*
X10334467Y-15938460D02*
X10315420Y-15947984D01*
X10315420Y-15947984D02*
X10296372Y-15947984D01*
X10296372Y-15947984D02*
X10277324Y-15938460D01*
X10277324Y-15938460D02*
X10267801Y-15928936D01*
X10267801Y-15928936D02*
X10258277Y-15909888D01*
X10258277Y-15909888D02*
X10248753Y-15871793D01*
X10248753Y-15871793D02*
X10248753Y-15824174D01*
X10248753Y-15824174D02*
X10258277Y-15786079D01*
X10258277Y-15786079D02*
X10267801Y-15767031D01*
X10267801Y-15767031D02*
X10277324Y-15757508D01*
X10277324Y-15757508D02*
X10296372Y-15747984D01*
X10448753Y-15928936D02*
X10458277Y-15938460D01*
X10458277Y-15938460D02*
X10448753Y-15947984D01*
X10448753Y-15947984D02*
X10439229Y-15938460D01*
X10439229Y-15938460D02*
X10448753Y-15928936D01*
X10448753Y-15928936D02*
X10448753Y-15947984D01*
X10524944Y-15747984D02*
X10658277Y-15747984D01*
X10658277Y-15747984D02*
X10572563Y-15947984D01*
X10820182Y-15747984D02*
X10782086Y-15747984D01*
X10782086Y-15747984D02*
X10763039Y-15757508D01*
X10763039Y-15757508D02*
X10753515Y-15767031D01*
X10753515Y-15767031D02*
X10734467Y-15795603D01*
X10734467Y-15795603D02*
X10724944Y-15833698D01*
X10724944Y-15833698D02*
X10724944Y-15909888D01*
X10724944Y-15909888D02*
X10734467Y-15928936D01*
X10734467Y-15928936D02*
X10743991Y-15938460D01*
X10743991Y-15938460D02*
X10763039Y-15947984D01*
X10763039Y-15947984D02*
X10801134Y-15947984D01*
X10801134Y-15947984D02*
X10820182Y-15938460D01*
X10820182Y-15938460D02*
X10829705Y-15928936D01*
X10829705Y-15928936D02*
X10839229Y-15909888D01*
X10839229Y-15909888D02*
X10839229Y-15862269D01*
X10839229Y-15862269D02*
X10829705Y-15843222D01*
X10829705Y-15843222D02*
X10820182Y-15833698D01*
X10820182Y-15833698D02*
X10801134Y-15824174D01*
X10801134Y-15824174D02*
X10763039Y-15824174D01*
X10763039Y-15824174D02*
X10743991Y-15833698D01*
X10743991Y-15833698D02*
X10734467Y-15843222D01*
X10734467Y-15843222D02*
X10724944Y-15862269D01*
X10915420Y-15767031D02*
X10924944Y-15757508D01*
X10924944Y-15757508D02*
X10943991Y-15747984D01*
X10943991Y-15747984D02*
X10991610Y-15747984D01*
X10991610Y-15747984D02*
X11010658Y-15757508D01*
X11010658Y-15757508D02*
X11020182Y-15767031D01*
X11020182Y-15767031D02*
X11029705Y-15786079D01*
X11029705Y-15786079D02*
X11029705Y-15805127D01*
X11029705Y-15805127D02*
X11020182Y-15833698D01*
X11020182Y-15833698D02*
X10905896Y-15947984D01*
X10905896Y-15947984D02*
X11029705Y-15947984D01*
X11115420Y-15947984D02*
X11115420Y-15814650D01*
X11115420Y-15833698D02*
X11124944Y-15824174D01*
X11124944Y-15824174D02*
X11143991Y-15814650D01*
X11143991Y-15814650D02*
X11172563Y-15814650D01*
X11172563Y-15814650D02*
X11191610Y-15824174D01*
X11191610Y-15824174D02*
X11201134Y-15843222D01*
X11201134Y-15843222D02*
X11201134Y-15947984D01*
X11201134Y-15843222D02*
X11210658Y-15824174D01*
X11210658Y-15824174D02*
X11229705Y-15814650D01*
X11229705Y-15814650D02*
X11258277Y-15814650D01*
X11258277Y-15814650D02*
X11277324Y-15824174D01*
X11277324Y-15824174D02*
X11286848Y-15843222D01*
X11286848Y-15843222D02*
X11286848Y-15947984D01*
X11382086Y-15947984D02*
X11382086Y-15814650D01*
X11382086Y-15833698D02*
X11391610Y-15824174D01*
X11391610Y-15824174D02*
X11410658Y-15814650D01*
X11410658Y-15814650D02*
X11439229Y-15814650D01*
X11439229Y-15814650D02*
X11458277Y-15824174D01*
X11458277Y-15824174D02*
X11467801Y-15843222D01*
X11467801Y-15843222D02*
X11467801Y-15947984D01*
X11467801Y-15843222D02*
X11477324Y-15824174D01*
X11477324Y-15824174D02*
X11496372Y-15814650D01*
X11496372Y-15814650D02*
X11524943Y-15814650D01*
X11524943Y-15814650D02*
X11543991Y-15824174D01*
X11543991Y-15824174D02*
X11553515Y-15843222D01*
X11553515Y-15843222D02*
X11553515Y-15947984D01*
X11943991Y-15738460D02*
X11772563Y-15995603D01*
X12201134Y-15747984D02*
X12220182Y-15747984D01*
X12220182Y-15747984D02*
X12239229Y-15757508D01*
X12239229Y-15757508D02*
X12248753Y-15767031D01*
X12248753Y-15767031D02*
X12258277Y-15786079D01*
X12258277Y-15786079D02*
X12267801Y-15824174D01*
X12267801Y-15824174D02*
X12267801Y-15871793D01*
X12267801Y-15871793D02*
X12258277Y-15909888D01*
X12258277Y-15909888D02*
X12248753Y-15928936D01*
X12248753Y-15928936D02*
X12239229Y-15938460D01*
X12239229Y-15938460D02*
X12220182Y-15947984D01*
X12220182Y-15947984D02*
X12201134Y-15947984D01*
X12201134Y-15947984D02*
X12182086Y-15938460D01*
X12182086Y-15938460D02*
X12172563Y-15928936D01*
X12172563Y-15928936D02*
X12163039Y-15909888D01*
X12163039Y-15909888D02*
X12153515Y-15871793D01*
X12153515Y-15871793D02*
X12153515Y-15824174D01*
X12153515Y-15824174D02*
X12163039Y-15786079D01*
X12163039Y-15786079D02*
X12172563Y-15767031D01*
X12172563Y-15767031D02*
X12182086Y-15757508D01*
X12182086Y-15757508D02*
X12201134Y-15747984D01*
X12353515Y-15928936D02*
X12363039Y-15938460D01*
X12363039Y-15938460D02*
X12353515Y-15947984D01*
X12353515Y-15947984D02*
X12343991Y-15938460D01*
X12343991Y-15938460D02*
X12353515Y-15928936D01*
X12353515Y-15928936D02*
X12353515Y-15947984D01*
X12486848Y-15747984D02*
X12505896Y-15747984D01*
X12505896Y-15747984D02*
X12524944Y-15757508D01*
X12524944Y-15757508D02*
X12534467Y-15767031D01*
X12534467Y-15767031D02*
X12543991Y-15786079D01*
X12543991Y-15786079D02*
X12553515Y-15824174D01*
X12553515Y-15824174D02*
X12553515Y-15871793D01*
X12553515Y-15871793D02*
X12543991Y-15909888D01*
X12543991Y-15909888D02*
X12534467Y-15928936D01*
X12534467Y-15928936D02*
X12524944Y-15938460D01*
X12524944Y-15938460D02*
X12505896Y-15947984D01*
X12505896Y-15947984D02*
X12486848Y-15947984D01*
X12486848Y-15947984D02*
X12467801Y-15938460D01*
X12467801Y-15938460D02*
X12458277Y-15928936D01*
X12458277Y-15928936D02*
X12448753Y-15909888D01*
X12448753Y-15909888D02*
X12439229Y-15871793D01*
X12439229Y-15871793D02*
X12439229Y-15824174D01*
X12439229Y-15824174D02*
X12448753Y-15786079D01*
X12448753Y-15786079D02*
X12458277Y-15767031D01*
X12458277Y-15767031D02*
X12467801Y-15757508D01*
X12467801Y-15757508D02*
X12486848Y-15747984D01*
X12620182Y-15747984D02*
X12743991Y-15747984D01*
X12743991Y-15747984D02*
X12677325Y-15824174D01*
X12677325Y-15824174D02*
X12705896Y-15824174D01*
X12705896Y-15824174D02*
X12724944Y-15833698D01*
X12724944Y-15833698D02*
X12734467Y-15843222D01*
X12734467Y-15843222D02*
X12743991Y-15862269D01*
X12743991Y-15862269D02*
X12743991Y-15909888D01*
X12743991Y-15909888D02*
X12734467Y-15928936D01*
X12734467Y-15928936D02*
X12724944Y-15938460D01*
X12724944Y-15938460D02*
X12705896Y-15947984D01*
X12705896Y-15947984D02*
X12648753Y-15947984D01*
X12648753Y-15947984D02*
X12629706Y-15938460D01*
X12629706Y-15938460D02*
X12620182Y-15928936D01*
X12867801Y-15747984D02*
X12886848Y-15747984D01*
X12886848Y-15747984D02*
X12905896Y-15757508D01*
X12905896Y-15757508D02*
X12915420Y-15767031D01*
X12915420Y-15767031D02*
X12924944Y-15786079D01*
X12924944Y-15786079D02*
X12934467Y-15824174D01*
X12934467Y-15824174D02*
X12934467Y-15871793D01*
X12934467Y-15871793D02*
X12924944Y-15909888D01*
X12924944Y-15909888D02*
X12915420Y-15928936D01*
X12915420Y-15928936D02*
X12905896Y-15938460D01*
X12905896Y-15938460D02*
X12886848Y-15947984D01*
X12886848Y-15947984D02*
X12867801Y-15947984D01*
X12867801Y-15947984D02*
X12848753Y-15938460D01*
X12848753Y-15938460D02*
X12839229Y-15928936D01*
X12839229Y-15928936D02*
X12829706Y-15909888D01*
X12829706Y-15909888D02*
X12820182Y-15871793D01*
X12820182Y-15871793D02*
X12820182Y-15824174D01*
X12820182Y-15824174D02*
X12829706Y-15786079D01*
X12829706Y-15786079D02*
X12839229Y-15767031D01*
X12839229Y-15767031D02*
X12848753Y-15757508D01*
X12848753Y-15757508D02*
X12867801Y-15747984D01*
X13058277Y-15747984D02*
X13077325Y-15747984D01*
X13077325Y-15747984D02*
X13096372Y-15757508D01*
X13096372Y-15757508D02*
X13105896Y-15767031D01*
X13105896Y-15767031D02*
X13115420Y-15786079D01*
X13115420Y-15786079D02*
X13124944Y-15824174D01*
X13124944Y-15824174D02*
X13124944Y-15871793D01*
X13124944Y-15871793D02*
X13115420Y-15909888D01*
X13115420Y-15909888D02*
X13105896Y-15928936D01*
X13105896Y-15928936D02*
X13096372Y-15938460D01*
X13096372Y-15938460D02*
X13077325Y-15947984D01*
X13077325Y-15947984D02*
X13058277Y-15947984D01*
X13058277Y-15947984D02*
X13039229Y-15938460D01*
X13039229Y-15938460D02*
X13029706Y-15928936D01*
X13029706Y-15928936D02*
X13020182Y-15909888D01*
X13020182Y-15909888D02*
X13010658Y-15871793D01*
X13010658Y-15871793D02*
X13010658Y-15824174D01*
X13010658Y-15824174D02*
X13020182Y-15786079D01*
X13020182Y-15786079D02*
X13029706Y-15767031D01*
X13029706Y-15767031D02*
X13039229Y-15757508D01*
X13039229Y-15757508D02*
X13058277Y-15747984D01*
X13201134Y-15747984D02*
X13201134Y-15786079D01*
X13277325Y-15747984D02*
X13277325Y-15786079D01*
X13572563Y-16024174D02*
X13563039Y-16014650D01*
X13563039Y-16014650D02*
X13543991Y-15986079D01*
X13543991Y-15986079D02*
X13534468Y-15967031D01*
X13534468Y-15967031D02*
X13524944Y-15938460D01*
X13524944Y-15938460D02*
X13515420Y-15890841D01*
X13515420Y-15890841D02*
X13515420Y-15852746D01*
X13515420Y-15852746D02*
X13524944Y-15805127D01*
X13524944Y-15805127D02*
X13534468Y-15776555D01*
X13534468Y-15776555D02*
X13543991Y-15757508D01*
X13543991Y-15757508D02*
X13563039Y-15728936D01*
X13563039Y-15728936D02*
X13572563Y-15719412D01*
X13734468Y-15747984D02*
X13696372Y-15747984D01*
X13696372Y-15747984D02*
X13677325Y-15757508D01*
X13677325Y-15757508D02*
X13667801Y-15767031D01*
X13667801Y-15767031D02*
X13648753Y-15795603D01*
X13648753Y-15795603D02*
X13639229Y-15833698D01*
X13639229Y-15833698D02*
X13639229Y-15909888D01*
X13639229Y-15909888D02*
X13648753Y-15928936D01*
X13648753Y-15928936D02*
X13658277Y-15938460D01*
X13658277Y-15938460D02*
X13677325Y-15947984D01*
X13677325Y-15947984D02*
X13715420Y-15947984D01*
X13715420Y-15947984D02*
X13734468Y-15938460D01*
X13734468Y-15938460D02*
X13743991Y-15928936D01*
X13743991Y-15928936D02*
X13753515Y-15909888D01*
X13753515Y-15909888D02*
X13753515Y-15862269D01*
X13753515Y-15862269D02*
X13743991Y-15843222D01*
X13743991Y-15843222D02*
X13734468Y-15833698D01*
X13734468Y-15833698D02*
X13715420Y-15824174D01*
X13715420Y-15824174D02*
X13677325Y-15824174D01*
X13677325Y-15824174D02*
X13658277Y-15833698D01*
X13658277Y-15833698D02*
X13648753Y-15843222D01*
X13648753Y-15843222D02*
X13639229Y-15862269D01*
X13924944Y-15814650D02*
X13924944Y-15947984D01*
X13877325Y-15738460D02*
X13829706Y-15881317D01*
X13829706Y-15881317D02*
X13953515Y-15881317D01*
X14182087Y-15947984D02*
X14182087Y-15747984D01*
X14267801Y-15947984D02*
X14267801Y-15843222D01*
X14267801Y-15843222D02*
X14258277Y-15824174D01*
X14258277Y-15824174D02*
X14239230Y-15814650D01*
X14239230Y-15814650D02*
X14210658Y-15814650D01*
X14210658Y-15814650D02*
X14191610Y-15824174D01*
X14191610Y-15824174D02*
X14182087Y-15833698D01*
X14391610Y-15947984D02*
X14372563Y-15938460D01*
X14372563Y-15938460D02*
X14363039Y-15928936D01*
X14363039Y-15928936D02*
X14353515Y-15909888D01*
X14353515Y-15909888D02*
X14353515Y-15852746D01*
X14353515Y-15852746D02*
X14363039Y-15833698D01*
X14363039Y-15833698D02*
X14372563Y-15824174D01*
X14372563Y-15824174D02*
X14391610Y-15814650D01*
X14391610Y-15814650D02*
X14420182Y-15814650D01*
X14420182Y-15814650D02*
X14439230Y-15824174D01*
X14439230Y-15824174D02*
X14448753Y-15833698D01*
X14448753Y-15833698D02*
X14458277Y-15852746D01*
X14458277Y-15852746D02*
X14458277Y-15909888D01*
X14458277Y-15909888D02*
X14448753Y-15928936D01*
X14448753Y-15928936D02*
X14439230Y-15938460D01*
X14439230Y-15938460D02*
X14420182Y-15947984D01*
X14420182Y-15947984D02*
X14391610Y-15947984D01*
X14572563Y-15947984D02*
X14553515Y-15938460D01*
X14553515Y-15938460D02*
X14543991Y-15919412D01*
X14543991Y-15919412D02*
X14543991Y-15747984D01*
X14724944Y-15938460D02*
X14705896Y-15947984D01*
X14705896Y-15947984D02*
X14667801Y-15947984D01*
X14667801Y-15947984D02*
X14648753Y-15938460D01*
X14648753Y-15938460D02*
X14639230Y-15919412D01*
X14639230Y-15919412D02*
X14639230Y-15843222D01*
X14639230Y-15843222D02*
X14648753Y-15824174D01*
X14648753Y-15824174D02*
X14667801Y-15814650D01*
X14667801Y-15814650D02*
X14705896Y-15814650D01*
X14705896Y-15814650D02*
X14724944Y-15824174D01*
X14724944Y-15824174D02*
X14734468Y-15843222D01*
X14734468Y-15843222D02*
X14734468Y-15862269D01*
X14734468Y-15862269D02*
X14639230Y-15881317D01*
X14810658Y-15938460D02*
X14829706Y-15947984D01*
X14829706Y-15947984D02*
X14867801Y-15947984D01*
X14867801Y-15947984D02*
X14886849Y-15938460D01*
X14886849Y-15938460D02*
X14896372Y-15919412D01*
X14896372Y-15919412D02*
X14896372Y-15909888D01*
X14896372Y-15909888D02*
X14886849Y-15890841D01*
X14886849Y-15890841D02*
X14867801Y-15881317D01*
X14867801Y-15881317D02*
X14839230Y-15881317D01*
X14839230Y-15881317D02*
X14820182Y-15871793D01*
X14820182Y-15871793D02*
X14810658Y-15852746D01*
X14810658Y-15852746D02*
X14810658Y-15843222D01*
X14810658Y-15843222D02*
X14820182Y-15824174D01*
X14820182Y-15824174D02*
X14839230Y-15814650D01*
X14839230Y-15814650D02*
X14867801Y-15814650D01*
X14867801Y-15814650D02*
X14886849Y-15824174D01*
X14963039Y-16024174D02*
X14972563Y-16014650D01*
X14972563Y-16014650D02*
X14991611Y-15986079D01*
X14991611Y-15986079D02*
X15001134Y-15967031D01*
X15001134Y-15967031D02*
X15010658Y-15938460D01*
X15010658Y-15938460D02*
X15020182Y-15890841D01*
X15020182Y-15890841D02*
X15020182Y-15852746D01*
X15020182Y-15852746D02*
X15010658Y-15805127D01*
X15010658Y-15805127D02*
X15001134Y-15776555D01*
X15001134Y-15776555D02*
X14991611Y-15757508D01*
X14991611Y-15757508D02*
X14972563Y-15728936D01*
X14972563Y-15728936D02*
X14963039Y-15719412D01*
D12*
X9957500Y-16080500D02*
X9957500Y-16160500D01*
X9917500Y-16120500D02*
X9997500Y-16120500D01*
D11*
X10296372Y-16011984D02*
X10315420Y-16011984D01*
X10315420Y-16011984D02*
X10334467Y-16021508D01*
X10334467Y-16021508D02*
X10343991Y-16031031D01*
X10343991Y-16031031D02*
X10353515Y-16050079D01*
X10353515Y-16050079D02*
X10363039Y-16088174D01*
X10363039Y-16088174D02*
X10363039Y-16135793D01*
X10363039Y-16135793D02*
X10353515Y-16173888D01*
X10353515Y-16173888D02*
X10343991Y-16192936D01*
X10343991Y-16192936D02*
X10334467Y-16202460D01*
X10334467Y-16202460D02*
X10315420Y-16211984D01*
X10315420Y-16211984D02*
X10296372Y-16211984D01*
X10296372Y-16211984D02*
X10277324Y-16202460D01*
X10277324Y-16202460D02*
X10267801Y-16192936D01*
X10267801Y-16192936D02*
X10258277Y-16173888D01*
X10258277Y-16173888D02*
X10248753Y-16135793D01*
X10248753Y-16135793D02*
X10248753Y-16088174D01*
X10248753Y-16088174D02*
X10258277Y-16050079D01*
X10258277Y-16050079D02*
X10267801Y-16031031D01*
X10267801Y-16031031D02*
X10277324Y-16021508D01*
X10277324Y-16021508D02*
X10296372Y-16011984D01*
X10448753Y-16192936D02*
X10458277Y-16202460D01*
X10458277Y-16202460D02*
X10448753Y-16211984D01*
X10448753Y-16211984D02*
X10439229Y-16202460D01*
X10439229Y-16202460D02*
X10448753Y-16192936D01*
X10448753Y-16192936D02*
X10448753Y-16211984D01*
X10572563Y-16097698D02*
X10553515Y-16088174D01*
X10553515Y-16088174D02*
X10543991Y-16078650D01*
X10543991Y-16078650D02*
X10534467Y-16059603D01*
X10534467Y-16059603D02*
X10534467Y-16050079D01*
X10534467Y-16050079D02*
X10543991Y-16031031D01*
X10543991Y-16031031D02*
X10553515Y-16021508D01*
X10553515Y-16021508D02*
X10572563Y-16011984D01*
X10572563Y-16011984D02*
X10610658Y-16011984D01*
X10610658Y-16011984D02*
X10629705Y-16021508D01*
X10629705Y-16021508D02*
X10639229Y-16031031D01*
X10639229Y-16031031D02*
X10648753Y-16050079D01*
X10648753Y-16050079D02*
X10648753Y-16059603D01*
X10648753Y-16059603D02*
X10639229Y-16078650D01*
X10639229Y-16078650D02*
X10629705Y-16088174D01*
X10629705Y-16088174D02*
X10610658Y-16097698D01*
X10610658Y-16097698D02*
X10572563Y-16097698D01*
X10572563Y-16097698D02*
X10553515Y-16107222D01*
X10553515Y-16107222D02*
X10543991Y-16116746D01*
X10543991Y-16116746D02*
X10534467Y-16135793D01*
X10534467Y-16135793D02*
X10534467Y-16173888D01*
X10534467Y-16173888D02*
X10543991Y-16192936D01*
X10543991Y-16192936D02*
X10553515Y-16202460D01*
X10553515Y-16202460D02*
X10572563Y-16211984D01*
X10572563Y-16211984D02*
X10610658Y-16211984D01*
X10610658Y-16211984D02*
X10629705Y-16202460D01*
X10629705Y-16202460D02*
X10639229Y-16192936D01*
X10639229Y-16192936D02*
X10648753Y-16173888D01*
X10648753Y-16173888D02*
X10648753Y-16135793D01*
X10648753Y-16135793D02*
X10639229Y-16116746D01*
X10639229Y-16116746D02*
X10629705Y-16107222D01*
X10629705Y-16107222D02*
X10610658Y-16097698D01*
X10772563Y-16011984D02*
X10791610Y-16011984D01*
X10791610Y-16011984D02*
X10810658Y-16021508D01*
X10810658Y-16021508D02*
X10820182Y-16031031D01*
X10820182Y-16031031D02*
X10829705Y-16050079D01*
X10829705Y-16050079D02*
X10839229Y-16088174D01*
X10839229Y-16088174D02*
X10839229Y-16135793D01*
X10839229Y-16135793D02*
X10829705Y-16173888D01*
X10829705Y-16173888D02*
X10820182Y-16192936D01*
X10820182Y-16192936D02*
X10810658Y-16202460D01*
X10810658Y-16202460D02*
X10791610Y-16211984D01*
X10791610Y-16211984D02*
X10772563Y-16211984D01*
X10772563Y-16211984D02*
X10753515Y-16202460D01*
X10753515Y-16202460D02*
X10743991Y-16192936D01*
X10743991Y-16192936D02*
X10734467Y-16173888D01*
X10734467Y-16173888D02*
X10724944Y-16135793D01*
X10724944Y-16135793D02*
X10724944Y-16088174D01*
X10724944Y-16088174D02*
X10734467Y-16050079D01*
X10734467Y-16050079D02*
X10743991Y-16031031D01*
X10743991Y-16031031D02*
X10753515Y-16021508D01*
X10753515Y-16021508D02*
X10772563Y-16011984D01*
X10963039Y-16011984D02*
X10982086Y-16011984D01*
X10982086Y-16011984D02*
X11001134Y-16021508D01*
X11001134Y-16021508D02*
X11010658Y-16031031D01*
X11010658Y-16031031D02*
X11020182Y-16050079D01*
X11020182Y-16050079D02*
X11029705Y-16088174D01*
X11029705Y-16088174D02*
X11029705Y-16135793D01*
X11029705Y-16135793D02*
X11020182Y-16173888D01*
X11020182Y-16173888D02*
X11010658Y-16192936D01*
X11010658Y-16192936D02*
X11001134Y-16202460D01*
X11001134Y-16202460D02*
X10982086Y-16211984D01*
X10982086Y-16211984D02*
X10963039Y-16211984D01*
X10963039Y-16211984D02*
X10943991Y-16202460D01*
X10943991Y-16202460D02*
X10934467Y-16192936D01*
X10934467Y-16192936D02*
X10924944Y-16173888D01*
X10924944Y-16173888D02*
X10915420Y-16135793D01*
X10915420Y-16135793D02*
X10915420Y-16088174D01*
X10915420Y-16088174D02*
X10924944Y-16050079D01*
X10924944Y-16050079D02*
X10934467Y-16031031D01*
X10934467Y-16031031D02*
X10943991Y-16021508D01*
X10943991Y-16021508D02*
X10963039Y-16011984D01*
X11115420Y-16211984D02*
X11115420Y-16078650D01*
X11115420Y-16097698D02*
X11124944Y-16088174D01*
X11124944Y-16088174D02*
X11143991Y-16078650D01*
X11143991Y-16078650D02*
X11172563Y-16078650D01*
X11172563Y-16078650D02*
X11191610Y-16088174D01*
X11191610Y-16088174D02*
X11201134Y-16107222D01*
X11201134Y-16107222D02*
X11201134Y-16211984D01*
X11201134Y-16107222D02*
X11210658Y-16088174D01*
X11210658Y-16088174D02*
X11229705Y-16078650D01*
X11229705Y-16078650D02*
X11258277Y-16078650D01*
X11258277Y-16078650D02*
X11277324Y-16088174D01*
X11277324Y-16088174D02*
X11286848Y-16107222D01*
X11286848Y-16107222D02*
X11286848Y-16211984D01*
X11382086Y-16211984D02*
X11382086Y-16078650D01*
X11382086Y-16097698D02*
X11391610Y-16088174D01*
X11391610Y-16088174D02*
X11410658Y-16078650D01*
X11410658Y-16078650D02*
X11439229Y-16078650D01*
X11439229Y-16078650D02*
X11458277Y-16088174D01*
X11458277Y-16088174D02*
X11467801Y-16107222D01*
X11467801Y-16107222D02*
X11467801Y-16211984D01*
X11467801Y-16107222D02*
X11477324Y-16088174D01*
X11477324Y-16088174D02*
X11496372Y-16078650D01*
X11496372Y-16078650D02*
X11524943Y-16078650D01*
X11524943Y-16078650D02*
X11543991Y-16088174D01*
X11543991Y-16088174D02*
X11553515Y-16107222D01*
X11553515Y-16107222D02*
X11553515Y-16211984D01*
X11943991Y-16002460D02*
X11772563Y-16259603D01*
X12201134Y-16011984D02*
X12220182Y-16011984D01*
X12220182Y-16011984D02*
X12239229Y-16021508D01*
X12239229Y-16021508D02*
X12248753Y-16031031D01*
X12248753Y-16031031D02*
X12258277Y-16050079D01*
X12258277Y-16050079D02*
X12267801Y-16088174D01*
X12267801Y-16088174D02*
X12267801Y-16135793D01*
X12267801Y-16135793D02*
X12258277Y-16173888D01*
X12258277Y-16173888D02*
X12248753Y-16192936D01*
X12248753Y-16192936D02*
X12239229Y-16202460D01*
X12239229Y-16202460D02*
X12220182Y-16211984D01*
X12220182Y-16211984D02*
X12201134Y-16211984D01*
X12201134Y-16211984D02*
X12182086Y-16202460D01*
X12182086Y-16202460D02*
X12172563Y-16192936D01*
X12172563Y-16192936D02*
X12163039Y-16173888D01*
X12163039Y-16173888D02*
X12153515Y-16135793D01*
X12153515Y-16135793D02*
X12153515Y-16088174D01*
X12153515Y-16088174D02*
X12163039Y-16050079D01*
X12163039Y-16050079D02*
X12172563Y-16031031D01*
X12172563Y-16031031D02*
X12182086Y-16021508D01*
X12182086Y-16021508D02*
X12201134Y-16011984D01*
X12353515Y-16192936D02*
X12363039Y-16202460D01*
X12363039Y-16202460D02*
X12353515Y-16211984D01*
X12353515Y-16211984D02*
X12343991Y-16202460D01*
X12343991Y-16202460D02*
X12353515Y-16192936D01*
X12353515Y-16192936D02*
X12353515Y-16211984D01*
X12486848Y-16011984D02*
X12505896Y-16011984D01*
X12505896Y-16011984D02*
X12524944Y-16021508D01*
X12524944Y-16021508D02*
X12534467Y-16031031D01*
X12534467Y-16031031D02*
X12543991Y-16050079D01*
X12543991Y-16050079D02*
X12553515Y-16088174D01*
X12553515Y-16088174D02*
X12553515Y-16135793D01*
X12553515Y-16135793D02*
X12543991Y-16173888D01*
X12543991Y-16173888D02*
X12534467Y-16192936D01*
X12534467Y-16192936D02*
X12524944Y-16202460D01*
X12524944Y-16202460D02*
X12505896Y-16211984D01*
X12505896Y-16211984D02*
X12486848Y-16211984D01*
X12486848Y-16211984D02*
X12467801Y-16202460D01*
X12467801Y-16202460D02*
X12458277Y-16192936D01*
X12458277Y-16192936D02*
X12448753Y-16173888D01*
X12448753Y-16173888D02*
X12439229Y-16135793D01*
X12439229Y-16135793D02*
X12439229Y-16088174D01*
X12439229Y-16088174D02*
X12448753Y-16050079D01*
X12448753Y-16050079D02*
X12458277Y-16031031D01*
X12458277Y-16031031D02*
X12467801Y-16021508D01*
X12467801Y-16021508D02*
X12486848Y-16011984D01*
X12620182Y-16011984D02*
X12743991Y-16011984D01*
X12743991Y-16011984D02*
X12677325Y-16088174D01*
X12677325Y-16088174D02*
X12705896Y-16088174D01*
X12705896Y-16088174D02*
X12724944Y-16097698D01*
X12724944Y-16097698D02*
X12734467Y-16107222D01*
X12734467Y-16107222D02*
X12743991Y-16126269D01*
X12743991Y-16126269D02*
X12743991Y-16173888D01*
X12743991Y-16173888D02*
X12734467Y-16192936D01*
X12734467Y-16192936D02*
X12724944Y-16202460D01*
X12724944Y-16202460D02*
X12705896Y-16211984D01*
X12705896Y-16211984D02*
X12648753Y-16211984D01*
X12648753Y-16211984D02*
X12629706Y-16202460D01*
X12629706Y-16202460D02*
X12620182Y-16192936D01*
X12934467Y-16211984D02*
X12820182Y-16211984D01*
X12877325Y-16211984D02*
X12877325Y-16011984D01*
X12877325Y-16011984D02*
X12858277Y-16040555D01*
X12858277Y-16040555D02*
X12839229Y-16059603D01*
X12839229Y-16059603D02*
X12820182Y-16069127D01*
X13115420Y-16011984D02*
X13020182Y-16011984D01*
X13020182Y-16011984D02*
X13010658Y-16107222D01*
X13010658Y-16107222D02*
X13020182Y-16097698D01*
X13020182Y-16097698D02*
X13039229Y-16088174D01*
X13039229Y-16088174D02*
X13086848Y-16088174D01*
X13086848Y-16088174D02*
X13105896Y-16097698D01*
X13105896Y-16097698D02*
X13115420Y-16107222D01*
X13115420Y-16107222D02*
X13124944Y-16126269D01*
X13124944Y-16126269D02*
X13124944Y-16173888D01*
X13124944Y-16173888D02*
X13115420Y-16192936D01*
X13115420Y-16192936D02*
X13105896Y-16202460D01*
X13105896Y-16202460D02*
X13086848Y-16211984D01*
X13086848Y-16211984D02*
X13039229Y-16211984D01*
X13039229Y-16211984D02*
X13020182Y-16202460D01*
X13020182Y-16202460D02*
X13010658Y-16192936D01*
X13201134Y-16011984D02*
X13201134Y-16050079D01*
X13277325Y-16011984D02*
X13277325Y-16050079D01*
X13572563Y-16288174D02*
X13563039Y-16278650D01*
X13563039Y-16278650D02*
X13543991Y-16250079D01*
X13543991Y-16250079D02*
X13534468Y-16231031D01*
X13534468Y-16231031D02*
X13524944Y-16202460D01*
X13524944Y-16202460D02*
X13515420Y-16154841D01*
X13515420Y-16154841D02*
X13515420Y-16116746D01*
X13515420Y-16116746D02*
X13524944Y-16069127D01*
X13524944Y-16069127D02*
X13534468Y-16040555D01*
X13534468Y-16040555D02*
X13543991Y-16021508D01*
X13543991Y-16021508D02*
X13563039Y-15992936D01*
X13563039Y-15992936D02*
X13572563Y-15983412D01*
X13753515Y-16211984D02*
X13639229Y-16211984D01*
X13696372Y-16211984D02*
X13696372Y-16011984D01*
X13696372Y-16011984D02*
X13677325Y-16040555D01*
X13677325Y-16040555D02*
X13658277Y-16059603D01*
X13658277Y-16059603D02*
X13639229Y-16069127D01*
X13867801Y-16097698D02*
X13848753Y-16088174D01*
X13848753Y-16088174D02*
X13839229Y-16078650D01*
X13839229Y-16078650D02*
X13829706Y-16059603D01*
X13829706Y-16059603D02*
X13829706Y-16050079D01*
X13829706Y-16050079D02*
X13839229Y-16031031D01*
X13839229Y-16031031D02*
X13848753Y-16021508D01*
X13848753Y-16021508D02*
X13867801Y-16011984D01*
X13867801Y-16011984D02*
X13905896Y-16011984D01*
X13905896Y-16011984D02*
X13924944Y-16021508D01*
X13924944Y-16021508D02*
X13934468Y-16031031D01*
X13934468Y-16031031D02*
X13943991Y-16050079D01*
X13943991Y-16050079D02*
X13943991Y-16059603D01*
X13943991Y-16059603D02*
X13934468Y-16078650D01*
X13934468Y-16078650D02*
X13924944Y-16088174D01*
X13924944Y-16088174D02*
X13905896Y-16097698D01*
X13905896Y-16097698D02*
X13867801Y-16097698D01*
X13867801Y-16097698D02*
X13848753Y-16107222D01*
X13848753Y-16107222D02*
X13839229Y-16116746D01*
X13839229Y-16116746D02*
X13829706Y-16135793D01*
X13829706Y-16135793D02*
X13829706Y-16173888D01*
X13829706Y-16173888D02*
X13839229Y-16192936D01*
X13839229Y-16192936D02*
X13848753Y-16202460D01*
X13848753Y-16202460D02*
X13867801Y-16211984D01*
X13867801Y-16211984D02*
X13905896Y-16211984D01*
X13905896Y-16211984D02*
X13924944Y-16202460D01*
X13924944Y-16202460D02*
X13934468Y-16192936D01*
X13934468Y-16192936D02*
X13943991Y-16173888D01*
X13943991Y-16173888D02*
X13943991Y-16135793D01*
X13943991Y-16135793D02*
X13934468Y-16116746D01*
X13934468Y-16116746D02*
X13924944Y-16107222D01*
X13924944Y-16107222D02*
X13905896Y-16097698D01*
X14182087Y-16211984D02*
X14182087Y-16011984D01*
X14267801Y-16211984D02*
X14267801Y-16107222D01*
X14267801Y-16107222D02*
X14258277Y-16088174D01*
X14258277Y-16088174D02*
X14239230Y-16078650D01*
X14239230Y-16078650D02*
X14210658Y-16078650D01*
X14210658Y-16078650D02*
X14191610Y-16088174D01*
X14191610Y-16088174D02*
X14182087Y-16097698D01*
X14391610Y-16211984D02*
X14372563Y-16202460D01*
X14372563Y-16202460D02*
X14363039Y-16192936D01*
X14363039Y-16192936D02*
X14353515Y-16173888D01*
X14353515Y-16173888D02*
X14353515Y-16116746D01*
X14353515Y-16116746D02*
X14363039Y-16097698D01*
X14363039Y-16097698D02*
X14372563Y-16088174D01*
X14372563Y-16088174D02*
X14391610Y-16078650D01*
X14391610Y-16078650D02*
X14420182Y-16078650D01*
X14420182Y-16078650D02*
X14439230Y-16088174D01*
X14439230Y-16088174D02*
X14448753Y-16097698D01*
X14448753Y-16097698D02*
X14458277Y-16116746D01*
X14458277Y-16116746D02*
X14458277Y-16173888D01*
X14458277Y-16173888D02*
X14448753Y-16192936D01*
X14448753Y-16192936D02*
X14439230Y-16202460D01*
X14439230Y-16202460D02*
X14420182Y-16211984D01*
X14420182Y-16211984D02*
X14391610Y-16211984D01*
X14572563Y-16211984D02*
X14553515Y-16202460D01*
X14553515Y-16202460D02*
X14543991Y-16183412D01*
X14543991Y-16183412D02*
X14543991Y-16011984D01*
X14724944Y-16202460D02*
X14705896Y-16211984D01*
X14705896Y-16211984D02*
X14667801Y-16211984D01*
X14667801Y-16211984D02*
X14648753Y-16202460D01*
X14648753Y-16202460D02*
X14639230Y-16183412D01*
X14639230Y-16183412D02*
X14639230Y-16107222D01*
X14639230Y-16107222D02*
X14648753Y-16088174D01*
X14648753Y-16088174D02*
X14667801Y-16078650D01*
X14667801Y-16078650D02*
X14705896Y-16078650D01*
X14705896Y-16078650D02*
X14724944Y-16088174D01*
X14724944Y-16088174D02*
X14734468Y-16107222D01*
X14734468Y-16107222D02*
X14734468Y-16126269D01*
X14734468Y-16126269D02*
X14639230Y-16145317D01*
X14810658Y-16202460D02*
X14829706Y-16211984D01*
X14829706Y-16211984D02*
X14867801Y-16211984D01*
X14867801Y-16211984D02*
X14886849Y-16202460D01*
X14886849Y-16202460D02*
X14896372Y-16183412D01*
X14896372Y-16183412D02*
X14896372Y-16173888D01*
X14896372Y-16173888D02*
X14886849Y-16154841D01*
X14886849Y-16154841D02*
X14867801Y-16145317D01*
X14867801Y-16145317D02*
X14839230Y-16145317D01*
X14839230Y-16145317D02*
X14820182Y-16135793D01*
X14820182Y-16135793D02*
X14810658Y-16116746D01*
X14810658Y-16116746D02*
X14810658Y-16107222D01*
X14810658Y-16107222D02*
X14820182Y-16088174D01*
X14820182Y-16088174D02*
X14839230Y-16078650D01*
X14839230Y-16078650D02*
X14867801Y-16078650D01*
X14867801Y-16078650D02*
X14886849Y-16088174D01*
X14963039Y-16288174D02*
X14972563Y-16278650D01*
X14972563Y-16278650D02*
X14991611Y-16250079D01*
X14991611Y-16250079D02*
X15001134Y-16231031D01*
X15001134Y-16231031D02*
X15010658Y-16202460D01*
X15010658Y-16202460D02*
X15020182Y-16154841D01*
X15020182Y-16154841D02*
X15020182Y-16116746D01*
X15020182Y-16116746D02*
X15010658Y-16069127D01*
X15010658Y-16069127D02*
X15001134Y-16040555D01*
X15001134Y-16040555D02*
X14991611Y-16021508D01*
X14991611Y-16021508D02*
X14972563Y-15992936D01*
X14972563Y-15992936D02*
X14963039Y-15983412D01*
D12*
X9983588Y-16418088D02*
X9983588Y-16350912D01*
X9916412Y-16350912D01*
X9916412Y-16418088D01*
X9983588Y-16418088D01*
D11*
X10296372Y-16275984D02*
X10315420Y-16275984D01*
X10315420Y-16275984D02*
X10334467Y-16285508D01*
X10334467Y-16285508D02*
X10343991Y-16295031D01*
X10343991Y-16295031D02*
X10353515Y-16314079D01*
X10353515Y-16314079D02*
X10363039Y-16352174D01*
X10363039Y-16352174D02*
X10363039Y-16399793D01*
X10363039Y-16399793D02*
X10353515Y-16437888D01*
X10353515Y-16437888D02*
X10343991Y-16456936D01*
X10343991Y-16456936D02*
X10334467Y-16466460D01*
X10334467Y-16466460D02*
X10315420Y-16475984D01*
X10315420Y-16475984D02*
X10296372Y-16475984D01*
X10296372Y-16475984D02*
X10277324Y-16466460D01*
X10277324Y-16466460D02*
X10267801Y-16456936D01*
X10267801Y-16456936D02*
X10258277Y-16437888D01*
X10258277Y-16437888D02*
X10248753Y-16399793D01*
X10248753Y-16399793D02*
X10248753Y-16352174D01*
X10248753Y-16352174D02*
X10258277Y-16314079D01*
X10258277Y-16314079D02*
X10267801Y-16295031D01*
X10267801Y-16295031D02*
X10277324Y-16285508D01*
X10277324Y-16285508D02*
X10296372Y-16275984D01*
X10448753Y-16456936D02*
X10458277Y-16466460D01*
X10458277Y-16466460D02*
X10448753Y-16475984D01*
X10448753Y-16475984D02*
X10439229Y-16466460D01*
X10439229Y-16466460D02*
X10448753Y-16456936D01*
X10448753Y-16456936D02*
X10448753Y-16475984D01*
X10553515Y-16475984D02*
X10591610Y-16475984D01*
X10591610Y-16475984D02*
X10610658Y-16466460D01*
X10610658Y-16466460D02*
X10620182Y-16456936D01*
X10620182Y-16456936D02*
X10639229Y-16428365D01*
X10639229Y-16428365D02*
X10648753Y-16390269D01*
X10648753Y-16390269D02*
X10648753Y-16314079D01*
X10648753Y-16314079D02*
X10639229Y-16295031D01*
X10639229Y-16295031D02*
X10629705Y-16285508D01*
X10629705Y-16285508D02*
X10610658Y-16275984D01*
X10610658Y-16275984D02*
X10572563Y-16275984D01*
X10572563Y-16275984D02*
X10553515Y-16285508D01*
X10553515Y-16285508D02*
X10543991Y-16295031D01*
X10543991Y-16295031D02*
X10534467Y-16314079D01*
X10534467Y-16314079D02*
X10534467Y-16361698D01*
X10534467Y-16361698D02*
X10543991Y-16380746D01*
X10543991Y-16380746D02*
X10553515Y-16390269D01*
X10553515Y-16390269D02*
X10572563Y-16399793D01*
X10572563Y-16399793D02*
X10610658Y-16399793D01*
X10610658Y-16399793D02*
X10629705Y-16390269D01*
X10629705Y-16390269D02*
X10639229Y-16380746D01*
X10639229Y-16380746D02*
X10648753Y-16361698D01*
X10829705Y-16275984D02*
X10734467Y-16275984D01*
X10734467Y-16275984D02*
X10724944Y-16371222D01*
X10724944Y-16371222D02*
X10734467Y-16361698D01*
X10734467Y-16361698D02*
X10753515Y-16352174D01*
X10753515Y-16352174D02*
X10801134Y-16352174D01*
X10801134Y-16352174D02*
X10820182Y-16361698D01*
X10820182Y-16361698D02*
X10829705Y-16371222D01*
X10829705Y-16371222D02*
X10839229Y-16390269D01*
X10839229Y-16390269D02*
X10839229Y-16437888D01*
X10839229Y-16437888D02*
X10829705Y-16456936D01*
X10829705Y-16456936D02*
X10820182Y-16466460D01*
X10820182Y-16466460D02*
X10801134Y-16475984D01*
X10801134Y-16475984D02*
X10753515Y-16475984D01*
X10753515Y-16475984D02*
X10734467Y-16466460D01*
X10734467Y-16466460D02*
X10724944Y-16456936D01*
X10963039Y-16275984D02*
X10982086Y-16275984D01*
X10982086Y-16275984D02*
X11001134Y-16285508D01*
X11001134Y-16285508D02*
X11010658Y-16295031D01*
X11010658Y-16295031D02*
X11020182Y-16314079D01*
X11020182Y-16314079D02*
X11029705Y-16352174D01*
X11029705Y-16352174D02*
X11029705Y-16399793D01*
X11029705Y-16399793D02*
X11020182Y-16437888D01*
X11020182Y-16437888D02*
X11010658Y-16456936D01*
X11010658Y-16456936D02*
X11001134Y-16466460D01*
X11001134Y-16466460D02*
X10982086Y-16475984D01*
X10982086Y-16475984D02*
X10963039Y-16475984D01*
X10963039Y-16475984D02*
X10943991Y-16466460D01*
X10943991Y-16466460D02*
X10934467Y-16456936D01*
X10934467Y-16456936D02*
X10924944Y-16437888D01*
X10924944Y-16437888D02*
X10915420Y-16399793D01*
X10915420Y-16399793D02*
X10915420Y-16352174D01*
X10915420Y-16352174D02*
X10924944Y-16314079D01*
X10924944Y-16314079D02*
X10934467Y-16295031D01*
X10934467Y-16295031D02*
X10943991Y-16285508D01*
X10943991Y-16285508D02*
X10963039Y-16275984D01*
X11115420Y-16475984D02*
X11115420Y-16342650D01*
X11115420Y-16361698D02*
X11124944Y-16352174D01*
X11124944Y-16352174D02*
X11143991Y-16342650D01*
X11143991Y-16342650D02*
X11172563Y-16342650D01*
X11172563Y-16342650D02*
X11191610Y-16352174D01*
X11191610Y-16352174D02*
X11201134Y-16371222D01*
X11201134Y-16371222D02*
X11201134Y-16475984D01*
X11201134Y-16371222D02*
X11210658Y-16352174D01*
X11210658Y-16352174D02*
X11229705Y-16342650D01*
X11229705Y-16342650D02*
X11258277Y-16342650D01*
X11258277Y-16342650D02*
X11277324Y-16352174D01*
X11277324Y-16352174D02*
X11286848Y-16371222D01*
X11286848Y-16371222D02*
X11286848Y-16475984D01*
X11382086Y-16475984D02*
X11382086Y-16342650D01*
X11382086Y-16361698D02*
X11391610Y-16352174D01*
X11391610Y-16352174D02*
X11410658Y-16342650D01*
X11410658Y-16342650D02*
X11439229Y-16342650D01*
X11439229Y-16342650D02*
X11458277Y-16352174D01*
X11458277Y-16352174D02*
X11467801Y-16371222D01*
X11467801Y-16371222D02*
X11467801Y-16475984D01*
X11467801Y-16371222D02*
X11477324Y-16352174D01*
X11477324Y-16352174D02*
X11496372Y-16342650D01*
X11496372Y-16342650D02*
X11524943Y-16342650D01*
X11524943Y-16342650D02*
X11543991Y-16352174D01*
X11543991Y-16352174D02*
X11553515Y-16371222D01*
X11553515Y-16371222D02*
X11553515Y-16475984D01*
X11943991Y-16266460D02*
X11772563Y-16523603D01*
X12201134Y-16275984D02*
X12220182Y-16275984D01*
X12220182Y-16275984D02*
X12239229Y-16285508D01*
X12239229Y-16285508D02*
X12248753Y-16295031D01*
X12248753Y-16295031D02*
X12258277Y-16314079D01*
X12258277Y-16314079D02*
X12267801Y-16352174D01*
X12267801Y-16352174D02*
X12267801Y-16399793D01*
X12267801Y-16399793D02*
X12258277Y-16437888D01*
X12258277Y-16437888D02*
X12248753Y-16456936D01*
X12248753Y-16456936D02*
X12239229Y-16466460D01*
X12239229Y-16466460D02*
X12220182Y-16475984D01*
X12220182Y-16475984D02*
X12201134Y-16475984D01*
X12201134Y-16475984D02*
X12182086Y-16466460D01*
X12182086Y-16466460D02*
X12172563Y-16456936D01*
X12172563Y-16456936D02*
X12163039Y-16437888D01*
X12163039Y-16437888D02*
X12153515Y-16399793D01*
X12153515Y-16399793D02*
X12153515Y-16352174D01*
X12153515Y-16352174D02*
X12163039Y-16314079D01*
X12163039Y-16314079D02*
X12172563Y-16295031D01*
X12172563Y-16295031D02*
X12182086Y-16285508D01*
X12182086Y-16285508D02*
X12201134Y-16275984D01*
X12353515Y-16456936D02*
X12363039Y-16466460D01*
X12363039Y-16466460D02*
X12353515Y-16475984D01*
X12353515Y-16475984D02*
X12343991Y-16466460D01*
X12343991Y-16466460D02*
X12353515Y-16456936D01*
X12353515Y-16456936D02*
X12353515Y-16475984D01*
X12486848Y-16275984D02*
X12505896Y-16275984D01*
X12505896Y-16275984D02*
X12524944Y-16285508D01*
X12524944Y-16285508D02*
X12534467Y-16295031D01*
X12534467Y-16295031D02*
X12543991Y-16314079D01*
X12543991Y-16314079D02*
X12553515Y-16352174D01*
X12553515Y-16352174D02*
X12553515Y-16399793D01*
X12553515Y-16399793D02*
X12543991Y-16437888D01*
X12543991Y-16437888D02*
X12534467Y-16456936D01*
X12534467Y-16456936D02*
X12524944Y-16466460D01*
X12524944Y-16466460D02*
X12505896Y-16475984D01*
X12505896Y-16475984D02*
X12486848Y-16475984D01*
X12486848Y-16475984D02*
X12467801Y-16466460D01*
X12467801Y-16466460D02*
X12458277Y-16456936D01*
X12458277Y-16456936D02*
X12448753Y-16437888D01*
X12448753Y-16437888D02*
X12439229Y-16399793D01*
X12439229Y-16399793D02*
X12439229Y-16352174D01*
X12439229Y-16352174D02*
X12448753Y-16314079D01*
X12448753Y-16314079D02*
X12458277Y-16295031D01*
X12458277Y-16295031D02*
X12467801Y-16285508D01*
X12467801Y-16285508D02*
X12486848Y-16275984D01*
X12620182Y-16275984D02*
X12743991Y-16275984D01*
X12743991Y-16275984D02*
X12677325Y-16352174D01*
X12677325Y-16352174D02*
X12705896Y-16352174D01*
X12705896Y-16352174D02*
X12724944Y-16361698D01*
X12724944Y-16361698D02*
X12734467Y-16371222D01*
X12734467Y-16371222D02*
X12743991Y-16390269D01*
X12743991Y-16390269D02*
X12743991Y-16437888D01*
X12743991Y-16437888D02*
X12734467Y-16456936D01*
X12734467Y-16456936D02*
X12724944Y-16466460D01*
X12724944Y-16466460D02*
X12705896Y-16475984D01*
X12705896Y-16475984D02*
X12648753Y-16475984D01*
X12648753Y-16475984D02*
X12629706Y-16466460D01*
X12629706Y-16466460D02*
X12620182Y-16456936D01*
X12810658Y-16275984D02*
X12943991Y-16275984D01*
X12943991Y-16275984D02*
X12858277Y-16475984D01*
X13105896Y-16342650D02*
X13105896Y-16475984D01*
X13058277Y-16266460D02*
X13010658Y-16409317D01*
X13010658Y-16409317D02*
X13134467Y-16409317D01*
X13201134Y-16275984D02*
X13201134Y-16314079D01*
X13277325Y-16275984D02*
X13277325Y-16314079D01*
X13572563Y-16552174D02*
X13563039Y-16542650D01*
X13563039Y-16542650D02*
X13543991Y-16514079D01*
X13543991Y-16514079D02*
X13534468Y-16495031D01*
X13534468Y-16495031D02*
X13524944Y-16466460D01*
X13524944Y-16466460D02*
X13515420Y-16418841D01*
X13515420Y-16418841D02*
X13515420Y-16380746D01*
X13515420Y-16380746D02*
X13524944Y-16333127D01*
X13524944Y-16333127D02*
X13534468Y-16304555D01*
X13534468Y-16304555D02*
X13543991Y-16285508D01*
X13543991Y-16285508D02*
X13563039Y-16256936D01*
X13563039Y-16256936D02*
X13572563Y-16247412D01*
X13639229Y-16295031D02*
X13648753Y-16285508D01*
X13648753Y-16285508D02*
X13667801Y-16275984D01*
X13667801Y-16275984D02*
X13715420Y-16275984D01*
X13715420Y-16275984D02*
X13734468Y-16285508D01*
X13734468Y-16285508D02*
X13743991Y-16295031D01*
X13743991Y-16295031D02*
X13753515Y-16314079D01*
X13753515Y-16314079D02*
X13753515Y-16333127D01*
X13753515Y-16333127D02*
X13743991Y-16361698D01*
X13743991Y-16361698D02*
X13629706Y-16475984D01*
X13629706Y-16475984D02*
X13753515Y-16475984D01*
X13848753Y-16475984D02*
X13886848Y-16475984D01*
X13886848Y-16475984D02*
X13905896Y-16466460D01*
X13905896Y-16466460D02*
X13915420Y-16456936D01*
X13915420Y-16456936D02*
X13934468Y-16428365D01*
X13934468Y-16428365D02*
X13943991Y-16390269D01*
X13943991Y-16390269D02*
X13943991Y-16314079D01*
X13943991Y-16314079D02*
X13934468Y-16295031D01*
X13934468Y-16295031D02*
X13924944Y-16285508D01*
X13924944Y-16285508D02*
X13905896Y-16275984D01*
X13905896Y-16275984D02*
X13867801Y-16275984D01*
X13867801Y-16275984D02*
X13848753Y-16285508D01*
X13848753Y-16285508D02*
X13839229Y-16295031D01*
X13839229Y-16295031D02*
X13829706Y-16314079D01*
X13829706Y-16314079D02*
X13829706Y-16361698D01*
X13829706Y-16361698D02*
X13839229Y-16380746D01*
X13839229Y-16380746D02*
X13848753Y-16390269D01*
X13848753Y-16390269D02*
X13867801Y-16399793D01*
X13867801Y-16399793D02*
X13905896Y-16399793D01*
X13905896Y-16399793D02*
X13924944Y-16390269D01*
X13924944Y-16390269D02*
X13934468Y-16380746D01*
X13934468Y-16380746D02*
X13943991Y-16361698D01*
X14182087Y-16475984D02*
X14182087Y-16275984D01*
X14267801Y-16475984D02*
X14267801Y-16371222D01*
X14267801Y-16371222D02*
X14258277Y-16352174D01*
X14258277Y-16352174D02*
X14239230Y-16342650D01*
X14239230Y-16342650D02*
X14210658Y-16342650D01*
X14210658Y-16342650D02*
X14191610Y-16352174D01*
X14191610Y-16352174D02*
X14182087Y-16361698D01*
X14391610Y-16475984D02*
X14372563Y-16466460D01*
X14372563Y-16466460D02*
X14363039Y-16456936D01*
X14363039Y-16456936D02*
X14353515Y-16437888D01*
X14353515Y-16437888D02*
X14353515Y-16380746D01*
X14353515Y-16380746D02*
X14363039Y-16361698D01*
X14363039Y-16361698D02*
X14372563Y-16352174D01*
X14372563Y-16352174D02*
X14391610Y-16342650D01*
X14391610Y-16342650D02*
X14420182Y-16342650D01*
X14420182Y-16342650D02*
X14439230Y-16352174D01*
X14439230Y-16352174D02*
X14448753Y-16361698D01*
X14448753Y-16361698D02*
X14458277Y-16380746D01*
X14458277Y-16380746D02*
X14458277Y-16437888D01*
X14458277Y-16437888D02*
X14448753Y-16456936D01*
X14448753Y-16456936D02*
X14439230Y-16466460D01*
X14439230Y-16466460D02*
X14420182Y-16475984D01*
X14420182Y-16475984D02*
X14391610Y-16475984D01*
X14572563Y-16475984D02*
X14553515Y-16466460D01*
X14553515Y-16466460D02*
X14543991Y-16447412D01*
X14543991Y-16447412D02*
X14543991Y-16275984D01*
X14724944Y-16466460D02*
X14705896Y-16475984D01*
X14705896Y-16475984D02*
X14667801Y-16475984D01*
X14667801Y-16475984D02*
X14648753Y-16466460D01*
X14648753Y-16466460D02*
X14639230Y-16447412D01*
X14639230Y-16447412D02*
X14639230Y-16371222D01*
X14639230Y-16371222D02*
X14648753Y-16352174D01*
X14648753Y-16352174D02*
X14667801Y-16342650D01*
X14667801Y-16342650D02*
X14705896Y-16342650D01*
X14705896Y-16342650D02*
X14724944Y-16352174D01*
X14724944Y-16352174D02*
X14734468Y-16371222D01*
X14734468Y-16371222D02*
X14734468Y-16390269D01*
X14734468Y-16390269D02*
X14639230Y-16409317D01*
X14810658Y-16466460D02*
X14829706Y-16475984D01*
X14829706Y-16475984D02*
X14867801Y-16475984D01*
X14867801Y-16475984D02*
X14886849Y-16466460D01*
X14886849Y-16466460D02*
X14896372Y-16447412D01*
X14896372Y-16447412D02*
X14896372Y-16437888D01*
X14896372Y-16437888D02*
X14886849Y-16418841D01*
X14886849Y-16418841D02*
X14867801Y-16409317D01*
X14867801Y-16409317D02*
X14839230Y-16409317D01*
X14839230Y-16409317D02*
X14820182Y-16399793D01*
X14820182Y-16399793D02*
X14810658Y-16380746D01*
X14810658Y-16380746D02*
X14810658Y-16371222D01*
X14810658Y-16371222D02*
X14820182Y-16352174D01*
X14820182Y-16352174D02*
X14839230Y-16342650D01*
X14839230Y-16342650D02*
X14867801Y-16342650D01*
X14867801Y-16342650D02*
X14886849Y-16352174D01*
X14963039Y-16552174D02*
X14972563Y-16542650D01*
X14972563Y-16542650D02*
X14991611Y-16514079D01*
X14991611Y-16514079D02*
X15001134Y-16495031D01*
X15001134Y-16495031D02*
X15010658Y-16466460D01*
X15010658Y-16466460D02*
X15020182Y-16418841D01*
X15020182Y-16418841D02*
X15020182Y-16380746D01*
X15020182Y-16380746D02*
X15010658Y-16333127D01*
X15010658Y-16333127D02*
X15001134Y-16304555D01*
X15001134Y-16304555D02*
X14991611Y-16285508D01*
X14991611Y-16285508D02*
X14972563Y-16256936D01*
X14972563Y-16256936D02*
X14963039Y-16247412D01*
D12*
X9947500Y-16698500D02*
X9997500Y-16648500D01*
X9947500Y-16598500D01*
X9897500Y-16648500D01*
X9947500Y-16698500D01*
D11*
X10363039Y-16739984D02*
X10248753Y-16739984D01*
X10305896Y-16739984D02*
X10305896Y-16539984D01*
X10305896Y-16539984D02*
X10286848Y-16568555D01*
X10286848Y-16568555D02*
X10267801Y-16587603D01*
X10267801Y-16587603D02*
X10248753Y-16597127D01*
X10448753Y-16720936D02*
X10458277Y-16730460D01*
X10458277Y-16730460D02*
X10448753Y-16739984D01*
X10448753Y-16739984D02*
X10439229Y-16730460D01*
X10439229Y-16730460D02*
X10448753Y-16720936D01*
X10448753Y-16720936D02*
X10448753Y-16739984D01*
X10582086Y-16539984D02*
X10601134Y-16539984D01*
X10601134Y-16539984D02*
X10620182Y-16549508D01*
X10620182Y-16549508D02*
X10629705Y-16559031D01*
X10629705Y-16559031D02*
X10639229Y-16578079D01*
X10639229Y-16578079D02*
X10648753Y-16616174D01*
X10648753Y-16616174D02*
X10648753Y-16663793D01*
X10648753Y-16663793D02*
X10639229Y-16701888D01*
X10639229Y-16701888D02*
X10629705Y-16720936D01*
X10629705Y-16720936D02*
X10620182Y-16730460D01*
X10620182Y-16730460D02*
X10601134Y-16739984D01*
X10601134Y-16739984D02*
X10582086Y-16739984D01*
X10582086Y-16739984D02*
X10563039Y-16730460D01*
X10563039Y-16730460D02*
X10553515Y-16720936D01*
X10553515Y-16720936D02*
X10543991Y-16701888D01*
X10543991Y-16701888D02*
X10534467Y-16663793D01*
X10534467Y-16663793D02*
X10534467Y-16616174D01*
X10534467Y-16616174D02*
X10543991Y-16578079D01*
X10543991Y-16578079D02*
X10553515Y-16559031D01*
X10553515Y-16559031D02*
X10563039Y-16549508D01*
X10563039Y-16549508D02*
X10582086Y-16539984D01*
X10772563Y-16539984D02*
X10791610Y-16539984D01*
X10791610Y-16539984D02*
X10810658Y-16549508D01*
X10810658Y-16549508D02*
X10820182Y-16559031D01*
X10820182Y-16559031D02*
X10829705Y-16578079D01*
X10829705Y-16578079D02*
X10839229Y-16616174D01*
X10839229Y-16616174D02*
X10839229Y-16663793D01*
X10839229Y-16663793D02*
X10829705Y-16701888D01*
X10829705Y-16701888D02*
X10820182Y-16720936D01*
X10820182Y-16720936D02*
X10810658Y-16730460D01*
X10810658Y-16730460D02*
X10791610Y-16739984D01*
X10791610Y-16739984D02*
X10772563Y-16739984D01*
X10772563Y-16739984D02*
X10753515Y-16730460D01*
X10753515Y-16730460D02*
X10743991Y-16720936D01*
X10743991Y-16720936D02*
X10734467Y-16701888D01*
X10734467Y-16701888D02*
X10724944Y-16663793D01*
X10724944Y-16663793D02*
X10724944Y-16616174D01*
X10724944Y-16616174D02*
X10734467Y-16578079D01*
X10734467Y-16578079D02*
X10743991Y-16559031D01*
X10743991Y-16559031D02*
X10753515Y-16549508D01*
X10753515Y-16549508D02*
X10772563Y-16539984D01*
X10963039Y-16539984D02*
X10982086Y-16539984D01*
X10982086Y-16539984D02*
X11001134Y-16549508D01*
X11001134Y-16549508D02*
X11010658Y-16559031D01*
X11010658Y-16559031D02*
X11020182Y-16578079D01*
X11020182Y-16578079D02*
X11029705Y-16616174D01*
X11029705Y-16616174D02*
X11029705Y-16663793D01*
X11029705Y-16663793D02*
X11020182Y-16701888D01*
X11020182Y-16701888D02*
X11010658Y-16720936D01*
X11010658Y-16720936D02*
X11001134Y-16730460D01*
X11001134Y-16730460D02*
X10982086Y-16739984D01*
X10982086Y-16739984D02*
X10963039Y-16739984D01*
X10963039Y-16739984D02*
X10943991Y-16730460D01*
X10943991Y-16730460D02*
X10934467Y-16720936D01*
X10934467Y-16720936D02*
X10924944Y-16701888D01*
X10924944Y-16701888D02*
X10915420Y-16663793D01*
X10915420Y-16663793D02*
X10915420Y-16616174D01*
X10915420Y-16616174D02*
X10924944Y-16578079D01*
X10924944Y-16578079D02*
X10934467Y-16559031D01*
X10934467Y-16559031D02*
X10943991Y-16549508D01*
X10943991Y-16549508D02*
X10963039Y-16539984D01*
X11115420Y-16739984D02*
X11115420Y-16606650D01*
X11115420Y-16625698D02*
X11124944Y-16616174D01*
X11124944Y-16616174D02*
X11143991Y-16606650D01*
X11143991Y-16606650D02*
X11172563Y-16606650D01*
X11172563Y-16606650D02*
X11191610Y-16616174D01*
X11191610Y-16616174D02*
X11201134Y-16635222D01*
X11201134Y-16635222D02*
X11201134Y-16739984D01*
X11201134Y-16635222D02*
X11210658Y-16616174D01*
X11210658Y-16616174D02*
X11229705Y-16606650D01*
X11229705Y-16606650D02*
X11258277Y-16606650D01*
X11258277Y-16606650D02*
X11277324Y-16616174D01*
X11277324Y-16616174D02*
X11286848Y-16635222D01*
X11286848Y-16635222D02*
X11286848Y-16739984D01*
X11382086Y-16739984D02*
X11382086Y-16606650D01*
X11382086Y-16625698D02*
X11391610Y-16616174D01*
X11391610Y-16616174D02*
X11410658Y-16606650D01*
X11410658Y-16606650D02*
X11439229Y-16606650D01*
X11439229Y-16606650D02*
X11458277Y-16616174D01*
X11458277Y-16616174D02*
X11467801Y-16635222D01*
X11467801Y-16635222D02*
X11467801Y-16739984D01*
X11467801Y-16635222D02*
X11477324Y-16616174D01*
X11477324Y-16616174D02*
X11496372Y-16606650D01*
X11496372Y-16606650D02*
X11524943Y-16606650D01*
X11524943Y-16606650D02*
X11543991Y-16616174D01*
X11543991Y-16616174D02*
X11553515Y-16635222D01*
X11553515Y-16635222D02*
X11553515Y-16739984D01*
X11943991Y-16530460D02*
X11772563Y-16787603D01*
X12201134Y-16539984D02*
X12220182Y-16539984D01*
X12220182Y-16539984D02*
X12239229Y-16549508D01*
X12239229Y-16549508D02*
X12248753Y-16559031D01*
X12248753Y-16559031D02*
X12258277Y-16578079D01*
X12258277Y-16578079D02*
X12267801Y-16616174D01*
X12267801Y-16616174D02*
X12267801Y-16663793D01*
X12267801Y-16663793D02*
X12258277Y-16701888D01*
X12258277Y-16701888D02*
X12248753Y-16720936D01*
X12248753Y-16720936D02*
X12239229Y-16730460D01*
X12239229Y-16730460D02*
X12220182Y-16739984D01*
X12220182Y-16739984D02*
X12201134Y-16739984D01*
X12201134Y-16739984D02*
X12182086Y-16730460D01*
X12182086Y-16730460D02*
X12172563Y-16720936D01*
X12172563Y-16720936D02*
X12163039Y-16701888D01*
X12163039Y-16701888D02*
X12153515Y-16663793D01*
X12153515Y-16663793D02*
X12153515Y-16616174D01*
X12153515Y-16616174D02*
X12163039Y-16578079D01*
X12163039Y-16578079D02*
X12172563Y-16559031D01*
X12172563Y-16559031D02*
X12182086Y-16549508D01*
X12182086Y-16549508D02*
X12201134Y-16539984D01*
X12353515Y-16720936D02*
X12363039Y-16730460D01*
X12363039Y-16730460D02*
X12353515Y-16739984D01*
X12353515Y-16739984D02*
X12343991Y-16730460D01*
X12343991Y-16730460D02*
X12353515Y-16720936D01*
X12353515Y-16720936D02*
X12353515Y-16739984D01*
X12486848Y-16539984D02*
X12505896Y-16539984D01*
X12505896Y-16539984D02*
X12524944Y-16549508D01*
X12524944Y-16549508D02*
X12534467Y-16559031D01*
X12534467Y-16559031D02*
X12543991Y-16578079D01*
X12543991Y-16578079D02*
X12553515Y-16616174D01*
X12553515Y-16616174D02*
X12553515Y-16663793D01*
X12553515Y-16663793D02*
X12543991Y-16701888D01*
X12543991Y-16701888D02*
X12534467Y-16720936D01*
X12534467Y-16720936D02*
X12524944Y-16730460D01*
X12524944Y-16730460D02*
X12505896Y-16739984D01*
X12505896Y-16739984D02*
X12486848Y-16739984D01*
X12486848Y-16739984D02*
X12467801Y-16730460D01*
X12467801Y-16730460D02*
X12458277Y-16720936D01*
X12458277Y-16720936D02*
X12448753Y-16701888D01*
X12448753Y-16701888D02*
X12439229Y-16663793D01*
X12439229Y-16663793D02*
X12439229Y-16616174D01*
X12439229Y-16616174D02*
X12448753Y-16578079D01*
X12448753Y-16578079D02*
X12458277Y-16559031D01*
X12458277Y-16559031D02*
X12467801Y-16549508D01*
X12467801Y-16549508D02*
X12486848Y-16539984D01*
X12620182Y-16539984D02*
X12743991Y-16539984D01*
X12743991Y-16539984D02*
X12677325Y-16616174D01*
X12677325Y-16616174D02*
X12705896Y-16616174D01*
X12705896Y-16616174D02*
X12724944Y-16625698D01*
X12724944Y-16625698D02*
X12734467Y-16635222D01*
X12734467Y-16635222D02*
X12743991Y-16654269D01*
X12743991Y-16654269D02*
X12743991Y-16701888D01*
X12743991Y-16701888D02*
X12734467Y-16720936D01*
X12734467Y-16720936D02*
X12724944Y-16730460D01*
X12724944Y-16730460D02*
X12705896Y-16739984D01*
X12705896Y-16739984D02*
X12648753Y-16739984D01*
X12648753Y-16739984D02*
X12629706Y-16730460D01*
X12629706Y-16730460D02*
X12620182Y-16720936D01*
X12839229Y-16739984D02*
X12877325Y-16739984D01*
X12877325Y-16739984D02*
X12896372Y-16730460D01*
X12896372Y-16730460D02*
X12905896Y-16720936D01*
X12905896Y-16720936D02*
X12924944Y-16692365D01*
X12924944Y-16692365D02*
X12934467Y-16654269D01*
X12934467Y-16654269D02*
X12934467Y-16578079D01*
X12934467Y-16578079D02*
X12924944Y-16559031D01*
X12924944Y-16559031D02*
X12915420Y-16549508D01*
X12915420Y-16549508D02*
X12896372Y-16539984D01*
X12896372Y-16539984D02*
X12858277Y-16539984D01*
X12858277Y-16539984D02*
X12839229Y-16549508D01*
X12839229Y-16549508D02*
X12829706Y-16559031D01*
X12829706Y-16559031D02*
X12820182Y-16578079D01*
X12820182Y-16578079D02*
X12820182Y-16625698D01*
X12820182Y-16625698D02*
X12829706Y-16644746D01*
X12829706Y-16644746D02*
X12839229Y-16654269D01*
X12839229Y-16654269D02*
X12858277Y-16663793D01*
X12858277Y-16663793D02*
X12896372Y-16663793D01*
X12896372Y-16663793D02*
X12915420Y-16654269D01*
X12915420Y-16654269D02*
X12924944Y-16644746D01*
X12924944Y-16644746D02*
X12934467Y-16625698D01*
X13105896Y-16606650D02*
X13105896Y-16739984D01*
X13058277Y-16530460D02*
X13010658Y-16673317D01*
X13010658Y-16673317D02*
X13134467Y-16673317D01*
X13201134Y-16539984D02*
X13201134Y-16578079D01*
X13277325Y-16539984D02*
X13277325Y-16578079D01*
X13572563Y-16816174D02*
X13563039Y-16806650D01*
X13563039Y-16806650D02*
X13543991Y-16778079D01*
X13543991Y-16778079D02*
X13534468Y-16759031D01*
X13534468Y-16759031D02*
X13524944Y-16730460D01*
X13524944Y-16730460D02*
X13515420Y-16682841D01*
X13515420Y-16682841D02*
X13515420Y-16644746D01*
X13515420Y-16644746D02*
X13524944Y-16597127D01*
X13524944Y-16597127D02*
X13534468Y-16568555D01*
X13534468Y-16568555D02*
X13543991Y-16549508D01*
X13543991Y-16549508D02*
X13563039Y-16520936D01*
X13563039Y-16520936D02*
X13572563Y-16511412D01*
X13629706Y-16539984D02*
X13753515Y-16539984D01*
X13753515Y-16539984D02*
X13686848Y-16616174D01*
X13686848Y-16616174D02*
X13715420Y-16616174D01*
X13715420Y-16616174D02*
X13734468Y-16625698D01*
X13734468Y-16625698D02*
X13743991Y-16635222D01*
X13743991Y-16635222D02*
X13753515Y-16654269D01*
X13753515Y-16654269D02*
X13753515Y-16701888D01*
X13753515Y-16701888D02*
X13743991Y-16720936D01*
X13743991Y-16720936D02*
X13734468Y-16730460D01*
X13734468Y-16730460D02*
X13715420Y-16739984D01*
X13715420Y-16739984D02*
X13658277Y-16739984D01*
X13658277Y-16739984D02*
X13639229Y-16730460D01*
X13639229Y-16730460D02*
X13629706Y-16720936D01*
X13829706Y-16559031D02*
X13839229Y-16549508D01*
X13839229Y-16549508D02*
X13858277Y-16539984D01*
X13858277Y-16539984D02*
X13905896Y-16539984D01*
X13905896Y-16539984D02*
X13924944Y-16549508D01*
X13924944Y-16549508D02*
X13934468Y-16559031D01*
X13934468Y-16559031D02*
X13943991Y-16578079D01*
X13943991Y-16578079D02*
X13943991Y-16597127D01*
X13943991Y-16597127D02*
X13934468Y-16625698D01*
X13934468Y-16625698D02*
X13820182Y-16739984D01*
X13820182Y-16739984D02*
X13943991Y-16739984D01*
X14182087Y-16739984D02*
X14182087Y-16539984D01*
X14267801Y-16739984D02*
X14267801Y-16635222D01*
X14267801Y-16635222D02*
X14258277Y-16616174D01*
X14258277Y-16616174D02*
X14239230Y-16606650D01*
X14239230Y-16606650D02*
X14210658Y-16606650D01*
X14210658Y-16606650D02*
X14191610Y-16616174D01*
X14191610Y-16616174D02*
X14182087Y-16625698D01*
X14391610Y-16739984D02*
X14372563Y-16730460D01*
X14372563Y-16730460D02*
X14363039Y-16720936D01*
X14363039Y-16720936D02*
X14353515Y-16701888D01*
X14353515Y-16701888D02*
X14353515Y-16644746D01*
X14353515Y-16644746D02*
X14363039Y-16625698D01*
X14363039Y-16625698D02*
X14372563Y-16616174D01*
X14372563Y-16616174D02*
X14391610Y-16606650D01*
X14391610Y-16606650D02*
X14420182Y-16606650D01*
X14420182Y-16606650D02*
X14439230Y-16616174D01*
X14439230Y-16616174D02*
X14448753Y-16625698D01*
X14448753Y-16625698D02*
X14458277Y-16644746D01*
X14458277Y-16644746D02*
X14458277Y-16701888D01*
X14458277Y-16701888D02*
X14448753Y-16720936D01*
X14448753Y-16720936D02*
X14439230Y-16730460D01*
X14439230Y-16730460D02*
X14420182Y-16739984D01*
X14420182Y-16739984D02*
X14391610Y-16739984D01*
X14572563Y-16739984D02*
X14553515Y-16730460D01*
X14553515Y-16730460D02*
X14543991Y-16711412D01*
X14543991Y-16711412D02*
X14543991Y-16539984D01*
X14724944Y-16730460D02*
X14705896Y-16739984D01*
X14705896Y-16739984D02*
X14667801Y-16739984D01*
X14667801Y-16739984D02*
X14648753Y-16730460D01*
X14648753Y-16730460D02*
X14639230Y-16711412D01*
X14639230Y-16711412D02*
X14639230Y-16635222D01*
X14639230Y-16635222D02*
X14648753Y-16616174D01*
X14648753Y-16616174D02*
X14667801Y-16606650D01*
X14667801Y-16606650D02*
X14705896Y-16606650D01*
X14705896Y-16606650D02*
X14724944Y-16616174D01*
X14724944Y-16616174D02*
X14734468Y-16635222D01*
X14734468Y-16635222D02*
X14734468Y-16654269D01*
X14734468Y-16654269D02*
X14639230Y-16673317D01*
X14810658Y-16730460D02*
X14829706Y-16739984D01*
X14829706Y-16739984D02*
X14867801Y-16739984D01*
X14867801Y-16739984D02*
X14886849Y-16730460D01*
X14886849Y-16730460D02*
X14896372Y-16711412D01*
X14896372Y-16711412D02*
X14896372Y-16701888D01*
X14896372Y-16701888D02*
X14886849Y-16682841D01*
X14886849Y-16682841D02*
X14867801Y-16673317D01*
X14867801Y-16673317D02*
X14839230Y-16673317D01*
X14839230Y-16673317D02*
X14820182Y-16663793D01*
X14820182Y-16663793D02*
X14810658Y-16644746D01*
X14810658Y-16644746D02*
X14810658Y-16635222D01*
X14810658Y-16635222D02*
X14820182Y-16616174D01*
X14820182Y-16616174D02*
X14839230Y-16606650D01*
X14839230Y-16606650D02*
X14867801Y-16606650D01*
X14867801Y-16606650D02*
X14886849Y-16616174D01*
X14963039Y-16816174D02*
X14972563Y-16806650D01*
X14972563Y-16806650D02*
X14991611Y-16778079D01*
X14991611Y-16778079D02*
X15001134Y-16759031D01*
X15001134Y-16759031D02*
X15010658Y-16730460D01*
X15010658Y-16730460D02*
X15020182Y-16682841D01*
X15020182Y-16682841D02*
X15020182Y-16644746D01*
X15020182Y-16644746D02*
X15010658Y-16597127D01*
X15010658Y-16597127D02*
X15001134Y-16568555D01*
X15001134Y-16568555D02*
X14991611Y-16549508D01*
X14991611Y-16549508D02*
X14972563Y-16520936D01*
X14972563Y-16520936D02*
X14963039Y-16511412D01*
M02*
