M48
; DRILL file {KiCad 8.0.4} date 2024-09-04T05:55:10+0900
; FORMAT={-:-/ absolute / metric / decimal}
; #@! TF.CreationDate,2024-09-04T05:55:10+09:00
; #@! TF.GenerationSoftware,Kicad,Pcbnew,8.0.4
; #@! TF.FileFunction,Plated,1,2,PTH
FMAT,2
METRIC
; #@! TA.AperFunction,Plated,PTH,ViaDrill
T1C0.400
; #@! TA.AperFunction,Plated,PTH,ComponentDrill
T2C0.762
; #@! TA.AperFunction,Plated,PTH,ComponentDrill
T3C0.800
; #@! TA.AperFunction,Plated,PTH,ComponentDrill
T4C0.950
; #@! TA.AperFunction,Plated,PTH,ComponentDrill
T5C1.000
%
G90
G05
T1
X102.0Y-118.5
X102.5Y-131.5
X103.0Y-105.5
X104.0Y-95.5
X105.5Y-138.0
X110.5Y-89.5
X111.0Y-84.5
X111.0Y-118.5
X113.0Y-102.5
X113.0Y-108.5
X115.0Y-124.5
X115.5Y-111.0
X116.0Y-97.0
X116.0Y-102.5
X116.5Y-106.0
X117.5Y-90.0
X118.0Y-104.5
X118.0Y-108.0
X118.0Y-117.0
X118.0Y-122.5
X118.5Y-111.0
X118.5Y-133.5
X119.5Y-106.0
X125.0Y-130.5
X125.0Y-137.0
X125.5Y-107.5
X126.0Y-123.0
X126.5Y-96.0
X127.5Y-119.0
X128.0Y-104.0
X128.0Y-111.0
X129.0Y-115.0
X129.0Y-124.0
X129.75Y-99.75
X130.0Y-96.0
X131.5Y-101.5
X131.5Y-109.0
X131.5Y-123.0
X131.5Y-144.5
X132.5Y-116.5
X132.5Y-128.0
X132.5Y-130.0
X132.9Y-100.0
X134.0Y-136.0
X134.5Y-98.0
X134.5Y-118.5
X134.5Y-123.0
X135.0Y-111.0
X135.0Y-131.0
X136.0Y-96.0
X136.5Y-92.5
X137.0Y-118.5
X137.0Y-134.5
X138.0Y-128.5
X138.5Y-95.0
X138.5Y-107.3
X139.0Y-141.0
X139.5Y-103.5
X139.5Y-110.0
X140.5Y-99.5
X140.5Y-121.0
X140.5Y-125.0
X140.5Y-128.5
X141.0Y-116.0
X141.0Y-141.0
X142.0Y-101.0
X142.0Y-110.0
X142.5Y-136.5
X142.5Y-143.0
X144.0Y-99.0
X144.0Y-103.5
X144.0Y-132.5
X144.0Y-141.0
X144.5Y-119.5
X144.5Y-136.5
X144.5Y-143.5
X148.0Y-95.5
X149.5Y-105.0
X150.0Y-124.0
X151.0Y-141.0
X151.5Y-105.0
X151.5Y-121.0
X152.0Y-104.0
X152.0Y-132.5
X152.5Y-118.0
X153.5Y-135.0
X154.5Y-98.5
X154.5Y-110.5
X154.5Y-145.0
X155.0Y-123.5
X155.5Y-127.0
X155.5Y-131.5
X155.5Y-140.0
X156.5Y-94.5
X157.0Y-141.5
X157.5Y-136.0
X158.0Y-98.0
X158.0Y-125.5
X158.0Y-140.0
X158.5Y-102.5
X158.5Y-134.5
X158.5Y-138.5
X159.5Y-141.5
X160.0Y-103.0
X160.5Y-106.0
X162.0Y-103.5
X162.0Y-106.0
X165.0Y-136.0
X166.0Y-115.5
X166.5Y-131.0
X167.5Y-147.5
X168.5Y-94.5
X170.0Y-115.5
X172.0Y-97.0
X179.0Y-133.5
X179.0Y-138.0
X179.5Y-124.0
X180.0Y-127.5
X180.5Y-115.5
X182.0Y-81.0
X182.0Y-103.0
X185.5Y-127.5
X186.0Y-124.0
X186.0Y-142.5
X194.0Y-94.025
X194.0Y-102.525
X194.0Y-111.025
X194.0Y-119.525
X195.5Y-123.0
X196.5Y-134.5
T2
X107.0Y-112.25
X107.0Y-114.75
X107.0Y-117.25
X107.0Y-119.75
X107.0Y-125.0
X107.0Y-127.5
X107.0Y-130.0
X107.0Y-132.5
X109.0Y-100.5
X109.0Y-103.0
X109.0Y-105.5
X109.0Y-108.0
X121.5Y-101.0
X121.5Y-103.5
X121.5Y-106.0
X121.5Y-108.5
X121.5Y-111.0
X121.5Y-113.5
X121.5Y-116.0
X121.5Y-118.5
X121.5Y-121.0
X121.5Y-123.5
X121.5Y-126.0
X121.5Y-128.5
X121.5Y-131.0
X121.5Y-133.5
X121.5Y-136.0
X121.5Y-138.5
X121.5Y-141.0
X121.5Y-143.5
X121.5Y-146.0
X146.5Y-101.0
X146.5Y-103.5
X146.5Y-106.0
X146.5Y-108.5
X146.5Y-111.0
X146.5Y-113.5
X146.5Y-116.0
X146.5Y-118.5
X146.5Y-121.0
X146.5Y-123.5
X146.5Y-126.0
X146.5Y-128.5
X146.5Y-131.0
X146.5Y-133.5
X146.5Y-136.0
X146.5Y-138.5
X146.5Y-141.0
X146.5Y-143.5
X146.5Y-146.0
X162.0Y-114.5
X162.0Y-117.0
X162.0Y-119.5
X162.0Y-122.0
X162.0Y-124.5
X162.0Y-127.0
X162.0Y-130.25
X162.0Y-132.75
X162.0Y-135.25
X162.0Y-137.75
X162.0Y-140.25
X162.0Y-142.75
X162.0Y-145.25
X162.0Y-147.75
T3
X182.7Y-122.85
X182.7Y-125.39
X182.7Y-127.93
X182.7Y-130.47
X182.7Y-133.01
X182.7Y-135.55
X182.7Y-138.09
X182.7Y-140.63
X182.7Y-143.17
X190.32Y-122.85
X190.32Y-125.39
X190.32Y-127.93
X190.32Y-130.47
X190.32Y-133.01
X190.32Y-135.55
X190.32Y-138.09
X190.32Y-140.63
X190.32Y-143.17
T4
X124.5Y-85.5
X124.5Y-88.0
X124.5Y-90.5
X133.1Y-85.5
X133.1Y-88.0
X133.1Y-90.5
X141.5Y-85.5
X141.5Y-88.0
X141.5Y-90.5
X150.0Y-85.5
X150.0Y-88.0
X150.0Y-90.5
X158.5Y-85.5
X158.5Y-88.0
X158.5Y-90.5
X167.0Y-85.5
X167.0Y-88.0
X167.0Y-90.5
X167.0Y-103.0
X167.0Y-105.5
X167.0Y-108.0
X167.0Y-110.5
X175.5Y-86.5
X177.5Y-103.0
X177.5Y-105.5
X177.5Y-108.0
X177.5Y-110.5
X178.0Y-86.5
X180.5Y-86.5
T5
X110.96Y-139.69
X110.96Y-147.31
X116.04Y-139.69
X116.04Y-147.31
X167.96Y-121.0
X167.96Y-128.5
X167.96Y-136.0
X167.96Y-143.5
X170.5Y-121.0
X170.5Y-128.5
X170.5Y-136.0
X170.5Y-143.5
X173.04Y-121.0
X173.04Y-128.5
X173.04Y-136.0
X173.04Y-143.5
X175.58Y-121.0
X175.58Y-128.5
X175.58Y-136.0
X175.58Y-143.5
X178.12Y-121.0
X178.12Y-128.5
X178.12Y-136.0
X178.12Y-143.5
X187.5Y-98.0
X187.5Y-106.5
X187.5Y-115.0
X187.65Y-89.5
X190.0Y-98.0
X190.0Y-106.5
X190.0Y-115.0
X190.15Y-89.5
M30
