G04 #@! TF.GenerationSoftware,KiCad,Pcbnew,8.0.4*
G04 #@! TF.CreationDate,2024-09-04T06:00:41+09:00*
G04 #@! TF.ProjectId,circuit-esp32-base,63697263-7569-4742-9d65-737033322d62,rev?*
G04 #@! TF.SameCoordinates,Original*
G04 #@! TF.FileFunction,Legend,Top*
G04 #@! TF.FilePolarity,Positive*
%FSLAX46Y46*%
G04 Gerber Fmt 4.6, Leading zero omitted, Abs format (unit mm)*
G04 Created by KiCad (PCBNEW 8.0.4) date 2024-09-04 06:00:41*
%MOMM*%
%LPD*%
G01*
G04 APERTURE LIST*
G04 Aperture macros list*
%AMRoundRect*
0 Rectangle with rounded corners*
0 $1 Rounding radius*
0 $2 $3 $4 $5 $6 $7 $8 $9 X,Y pos of 4 corners*
0 Add a 4 corners polygon primitive as box body*
4,1,4,$2,$3,$4,$5,$6,$7,$8,$9,$2,$3,0*
0 Add four circle primitives for the rounded corners*
1,1,$1+$1,$2,$3*
1,1,$1+$1,$4,$5*
1,1,$1+$1,$6,$7*
1,1,$1+$1,$8,$9*
0 Add four rect primitives between the rounded corners*
20,1,$1+$1,$2,$3,$4,$5,0*
20,1,$1+$1,$4,$5,$6,$7,0*
20,1,$1+$1,$6,$7,$8,$9,0*
20,1,$1+$1,$8,$9,$2,$3,0*%
G04 Aperture macros list end*
%ADD10C,0.187500*%
%ADD11C,0.300000*%
%ADD12C,0.150000*%
%ADD13C,0.100000*%
%ADD14C,0.120000*%
%ADD15C,0.010000*%
%ADD16O,1.500000X2.500000*%
%ADD17C,1.500000*%
%ADD18C,1.524000*%
%ADD19RoundRect,0.250000X0.725000X-0.600000X0.725000X0.600000X-0.725000X0.600000X-0.725000X-0.600000X0*%
%ADD20O,1.950000X1.700000*%
%ADD21RoundRect,0.250000X-0.725000X0.600000X-0.725000X-0.600000X0.725000X-0.600000X0.725000X0.600000X0*%
%ADD22RoundRect,0.218750X0.218750X0.256250X-0.218750X0.256250X-0.218750X-0.256250X0.218750X-0.256250X0*%
%ADD23RoundRect,0.200000X0.200000X0.275000X-0.200000X0.275000X-0.200000X-0.275000X0.200000X-0.275000X0*%
%ADD24R,0.650000X0.350000*%
%ADD25R,1.550000X2.400000*%
%ADD26RoundRect,0.250000X-0.600000X-0.750000X0.600000X-0.750000X0.600000X0.750000X-0.600000X0.750000X0*%
%ADD27O,1.700000X2.000000*%
%ADD28RoundRect,0.250000X0.512000X-0.512000X0.512000X0.512000X-0.512000X0.512000X-0.512000X-0.512000X0*%
%ADD29C,7.200000*%
%ADD30R,1.600000X1.600000*%
%ADD31O,1.600000X1.600000*%
%ADD32RoundRect,0.250000X0.600000X0.725000X-0.600000X0.725000X-0.600000X-0.725000X0.600000X-0.725000X0*%
%ADD33O,1.700000X1.950000*%
G04 APERTURE END LIST*
D10*
X117480497Y-81806678D02*
X117480497Y-80306678D01*
X118123355Y-81806678D02*
X118123355Y-81020964D01*
X118123355Y-81020964D02*
X118051926Y-80878107D01*
X118051926Y-80878107D02*
X117909069Y-80806678D01*
X117909069Y-80806678D02*
X117694783Y-80806678D01*
X117694783Y-80806678D02*
X117551926Y-80878107D01*
X117551926Y-80878107D02*
X117480497Y-80949535D01*
X118623355Y-80806678D02*
X119194783Y-80806678D01*
X118837640Y-80306678D02*
X118837640Y-81592392D01*
X118837640Y-81592392D02*
X118909069Y-81735250D01*
X118909069Y-81735250D02*
X119051926Y-81806678D01*
X119051926Y-81806678D02*
X119194783Y-81806678D01*
X119480498Y-80806678D02*
X120051926Y-80806678D01*
X119694783Y-80306678D02*
X119694783Y-81592392D01*
X119694783Y-81592392D02*
X119766212Y-81735250D01*
X119766212Y-81735250D02*
X119909069Y-81806678D01*
X119909069Y-81806678D02*
X120051926Y-81806678D01*
X120551926Y-80806678D02*
X120551926Y-82306678D01*
X120551926Y-80878107D02*
X120694784Y-80806678D01*
X120694784Y-80806678D02*
X120980498Y-80806678D01*
X120980498Y-80806678D02*
X121123355Y-80878107D01*
X121123355Y-80878107D02*
X121194784Y-80949535D01*
X121194784Y-80949535D02*
X121266212Y-81092392D01*
X121266212Y-81092392D02*
X121266212Y-81520964D01*
X121266212Y-81520964D02*
X121194784Y-81663821D01*
X121194784Y-81663821D02*
X121123355Y-81735250D01*
X121123355Y-81735250D02*
X120980498Y-81806678D01*
X120980498Y-81806678D02*
X120694784Y-81806678D01*
X120694784Y-81806678D02*
X120551926Y-81735250D01*
X121837641Y-81735250D02*
X121980498Y-81806678D01*
X121980498Y-81806678D02*
X122266212Y-81806678D01*
X122266212Y-81806678D02*
X122409069Y-81735250D01*
X122409069Y-81735250D02*
X122480498Y-81592392D01*
X122480498Y-81592392D02*
X122480498Y-81520964D01*
X122480498Y-81520964D02*
X122409069Y-81378107D01*
X122409069Y-81378107D02*
X122266212Y-81306678D01*
X122266212Y-81306678D02*
X122051927Y-81306678D01*
X122051927Y-81306678D02*
X121909069Y-81235250D01*
X121909069Y-81235250D02*
X121837641Y-81092392D01*
X121837641Y-81092392D02*
X121837641Y-81020964D01*
X121837641Y-81020964D02*
X121909069Y-80878107D01*
X121909069Y-80878107D02*
X122051927Y-80806678D01*
X122051927Y-80806678D02*
X122266212Y-80806678D01*
X122266212Y-80806678D02*
X122409069Y-80878107D01*
X123123355Y-81663821D02*
X123194784Y-81735250D01*
X123194784Y-81735250D02*
X123123355Y-81806678D01*
X123123355Y-81806678D02*
X123051927Y-81735250D01*
X123051927Y-81735250D02*
X123123355Y-81663821D01*
X123123355Y-81663821D02*
X123123355Y-81806678D01*
X123123355Y-80878107D02*
X123194784Y-80949535D01*
X123194784Y-80949535D02*
X123123355Y-81020964D01*
X123123355Y-81020964D02*
X123051927Y-80949535D01*
X123051927Y-80949535D02*
X123123355Y-80878107D01*
X123123355Y-80878107D02*
X123123355Y-81020964D01*
X124909070Y-80235250D02*
X123623356Y-82163821D01*
X126480499Y-80235250D02*
X125194785Y-82163821D01*
X127623357Y-80806678D02*
X127623357Y-82020964D01*
X127623357Y-82020964D02*
X127551928Y-82163821D01*
X127551928Y-82163821D02*
X127480499Y-82235250D01*
X127480499Y-82235250D02*
X127337642Y-82306678D01*
X127337642Y-82306678D02*
X127123357Y-82306678D01*
X127123357Y-82306678D02*
X126980499Y-82235250D01*
X127623357Y-81735250D02*
X127480499Y-81806678D01*
X127480499Y-81806678D02*
X127194785Y-81806678D01*
X127194785Y-81806678D02*
X127051928Y-81735250D01*
X127051928Y-81735250D02*
X126980499Y-81663821D01*
X126980499Y-81663821D02*
X126909071Y-81520964D01*
X126909071Y-81520964D02*
X126909071Y-81092392D01*
X126909071Y-81092392D02*
X126980499Y-80949535D01*
X126980499Y-80949535D02*
X127051928Y-80878107D01*
X127051928Y-80878107D02*
X127194785Y-80806678D01*
X127194785Y-80806678D02*
X127480499Y-80806678D01*
X127480499Y-80806678D02*
X127623357Y-80878107D01*
X128337642Y-81806678D02*
X128337642Y-80806678D01*
X128337642Y-80306678D02*
X128266214Y-80378107D01*
X128266214Y-80378107D02*
X128337642Y-80449535D01*
X128337642Y-80449535D02*
X128409071Y-80378107D01*
X128409071Y-80378107D02*
X128337642Y-80306678D01*
X128337642Y-80306678D02*
X128337642Y-80449535D01*
X128837643Y-80806678D02*
X129409071Y-80806678D01*
X129051928Y-80306678D02*
X129051928Y-81592392D01*
X129051928Y-81592392D02*
X129123357Y-81735250D01*
X129123357Y-81735250D02*
X129266214Y-81806678D01*
X129266214Y-81806678D02*
X129409071Y-81806678D01*
X129909071Y-81806678D02*
X129909071Y-80306678D01*
X130551929Y-81806678D02*
X130551929Y-81020964D01*
X130551929Y-81020964D02*
X130480500Y-80878107D01*
X130480500Y-80878107D02*
X130337643Y-80806678D01*
X130337643Y-80806678D02*
X130123357Y-80806678D01*
X130123357Y-80806678D02*
X129980500Y-80878107D01*
X129980500Y-80878107D02*
X129909071Y-80949535D01*
X131909072Y-80806678D02*
X131909072Y-81806678D01*
X131266214Y-80806678D02*
X131266214Y-81592392D01*
X131266214Y-81592392D02*
X131337643Y-81735250D01*
X131337643Y-81735250D02*
X131480500Y-81806678D01*
X131480500Y-81806678D02*
X131694786Y-81806678D01*
X131694786Y-81806678D02*
X131837643Y-81735250D01*
X131837643Y-81735250D02*
X131909072Y-81663821D01*
X132623357Y-81806678D02*
X132623357Y-80306678D01*
X132623357Y-80878107D02*
X132766215Y-80806678D01*
X132766215Y-80806678D02*
X133051929Y-80806678D01*
X133051929Y-80806678D02*
X133194786Y-80878107D01*
X133194786Y-80878107D02*
X133266215Y-80949535D01*
X133266215Y-80949535D02*
X133337643Y-81092392D01*
X133337643Y-81092392D02*
X133337643Y-81520964D01*
X133337643Y-81520964D02*
X133266215Y-81663821D01*
X133266215Y-81663821D02*
X133194786Y-81735250D01*
X133194786Y-81735250D02*
X133051929Y-81806678D01*
X133051929Y-81806678D02*
X132766215Y-81806678D01*
X132766215Y-81806678D02*
X132623357Y-81735250D01*
X133980500Y-81663821D02*
X134051929Y-81735250D01*
X134051929Y-81735250D02*
X133980500Y-81806678D01*
X133980500Y-81806678D02*
X133909072Y-81735250D01*
X133909072Y-81735250D02*
X133980500Y-81663821D01*
X133980500Y-81663821D02*
X133980500Y-81806678D01*
X135337644Y-81735250D02*
X135194786Y-81806678D01*
X135194786Y-81806678D02*
X134909072Y-81806678D01*
X134909072Y-81806678D02*
X134766215Y-81735250D01*
X134766215Y-81735250D02*
X134694786Y-81663821D01*
X134694786Y-81663821D02*
X134623358Y-81520964D01*
X134623358Y-81520964D02*
X134623358Y-81092392D01*
X134623358Y-81092392D02*
X134694786Y-80949535D01*
X134694786Y-80949535D02*
X134766215Y-80878107D01*
X134766215Y-80878107D02*
X134909072Y-80806678D01*
X134909072Y-80806678D02*
X135194786Y-80806678D01*
X135194786Y-80806678D02*
X135337644Y-80878107D01*
X136194786Y-81806678D02*
X136051929Y-81735250D01*
X136051929Y-81735250D02*
X135980500Y-81663821D01*
X135980500Y-81663821D02*
X135909072Y-81520964D01*
X135909072Y-81520964D02*
X135909072Y-81092392D01*
X135909072Y-81092392D02*
X135980500Y-80949535D01*
X135980500Y-80949535D02*
X136051929Y-80878107D01*
X136051929Y-80878107D02*
X136194786Y-80806678D01*
X136194786Y-80806678D02*
X136409072Y-80806678D01*
X136409072Y-80806678D02*
X136551929Y-80878107D01*
X136551929Y-80878107D02*
X136623358Y-80949535D01*
X136623358Y-80949535D02*
X136694786Y-81092392D01*
X136694786Y-81092392D02*
X136694786Y-81520964D01*
X136694786Y-81520964D02*
X136623358Y-81663821D01*
X136623358Y-81663821D02*
X136551929Y-81735250D01*
X136551929Y-81735250D02*
X136409072Y-81806678D01*
X136409072Y-81806678D02*
X136194786Y-81806678D01*
X137337643Y-81806678D02*
X137337643Y-80806678D01*
X137337643Y-80949535D02*
X137409072Y-80878107D01*
X137409072Y-80878107D02*
X137551929Y-80806678D01*
X137551929Y-80806678D02*
X137766215Y-80806678D01*
X137766215Y-80806678D02*
X137909072Y-80878107D01*
X137909072Y-80878107D02*
X137980501Y-81020964D01*
X137980501Y-81020964D02*
X137980501Y-81806678D01*
X137980501Y-81020964D02*
X138051929Y-80878107D01*
X138051929Y-80878107D02*
X138194786Y-80806678D01*
X138194786Y-80806678D02*
X138409072Y-80806678D01*
X138409072Y-80806678D02*
X138551929Y-80878107D01*
X138551929Y-80878107D02*
X138623358Y-81020964D01*
X138623358Y-81020964D02*
X138623358Y-81806678D01*
X140409072Y-80235250D02*
X139123358Y-82163821D01*
X140909072Y-81806678D02*
X140909072Y-80806678D01*
X140909072Y-80949535D02*
X140980501Y-80878107D01*
X140980501Y-80878107D02*
X141123358Y-80806678D01*
X141123358Y-80806678D02*
X141337644Y-80806678D01*
X141337644Y-80806678D02*
X141480501Y-80878107D01*
X141480501Y-80878107D02*
X141551930Y-81020964D01*
X141551930Y-81020964D02*
X141551930Y-81806678D01*
X141551930Y-81020964D02*
X141623358Y-80878107D01*
X141623358Y-80878107D02*
X141766215Y-80806678D01*
X141766215Y-80806678D02*
X141980501Y-80806678D01*
X141980501Y-80806678D02*
X142123358Y-80878107D01*
X142123358Y-80878107D02*
X142194787Y-81020964D01*
X142194787Y-81020964D02*
X142194787Y-81806678D01*
X142837644Y-81735250D02*
X142980501Y-81806678D01*
X142980501Y-81806678D02*
X143266215Y-81806678D01*
X143266215Y-81806678D02*
X143409072Y-81735250D01*
X143409072Y-81735250D02*
X143480501Y-81592392D01*
X143480501Y-81592392D02*
X143480501Y-81520964D01*
X143480501Y-81520964D02*
X143409072Y-81378107D01*
X143409072Y-81378107D02*
X143266215Y-81306678D01*
X143266215Y-81306678D02*
X143051930Y-81306678D01*
X143051930Y-81306678D02*
X142909072Y-81235250D01*
X142909072Y-81235250D02*
X142837644Y-81092392D01*
X142837644Y-81092392D02*
X142837644Y-81020964D01*
X142837644Y-81020964D02*
X142909072Y-80878107D01*
X142909072Y-80878107D02*
X143051930Y-80806678D01*
X143051930Y-80806678D02*
X143266215Y-80806678D01*
X143266215Y-80806678D02*
X143409072Y-80878107D01*
X144409073Y-80306678D02*
X144551930Y-80306678D01*
X144551930Y-80306678D02*
X144694787Y-80378107D01*
X144694787Y-80378107D02*
X144766216Y-80449535D01*
X144766216Y-80449535D02*
X144837644Y-80592392D01*
X144837644Y-80592392D02*
X144909073Y-80878107D01*
X144909073Y-80878107D02*
X144909073Y-81235250D01*
X144909073Y-81235250D02*
X144837644Y-81520964D01*
X144837644Y-81520964D02*
X144766216Y-81663821D01*
X144766216Y-81663821D02*
X144694787Y-81735250D01*
X144694787Y-81735250D02*
X144551930Y-81806678D01*
X144551930Y-81806678D02*
X144409073Y-81806678D01*
X144409073Y-81806678D02*
X144266216Y-81735250D01*
X144266216Y-81735250D02*
X144194787Y-81663821D01*
X144194787Y-81663821D02*
X144123358Y-81520964D01*
X144123358Y-81520964D02*
X144051930Y-81235250D01*
X144051930Y-81235250D02*
X144051930Y-80878107D01*
X144051930Y-80878107D02*
X144123358Y-80592392D01*
X144123358Y-80592392D02*
X144194787Y-80449535D01*
X144194787Y-80449535D02*
X144266216Y-80378107D01*
X144266216Y-80378107D02*
X144409073Y-80306678D01*
X146266215Y-80306678D02*
X145551929Y-80306678D01*
X145551929Y-80306678D02*
X145480501Y-81020964D01*
X145480501Y-81020964D02*
X145551929Y-80949535D01*
X145551929Y-80949535D02*
X145694787Y-80878107D01*
X145694787Y-80878107D02*
X146051929Y-80878107D01*
X146051929Y-80878107D02*
X146194787Y-80949535D01*
X146194787Y-80949535D02*
X146266215Y-81020964D01*
X146266215Y-81020964D02*
X146337644Y-81163821D01*
X146337644Y-81163821D02*
X146337644Y-81520964D01*
X146337644Y-81520964D02*
X146266215Y-81663821D01*
X146266215Y-81663821D02*
X146194787Y-81735250D01*
X146194787Y-81735250D02*
X146051929Y-81806678D01*
X146051929Y-81806678D02*
X145694787Y-81806678D01*
X145694787Y-81806678D02*
X145551929Y-81735250D01*
X145551929Y-81735250D02*
X145480501Y-81663821D01*
X147266215Y-80306678D02*
X147409072Y-80306678D01*
X147409072Y-80306678D02*
X147551929Y-80378107D01*
X147551929Y-80378107D02*
X147623358Y-80449535D01*
X147623358Y-80449535D02*
X147694786Y-80592392D01*
X147694786Y-80592392D02*
X147766215Y-80878107D01*
X147766215Y-80878107D02*
X147766215Y-81235250D01*
X147766215Y-81235250D02*
X147694786Y-81520964D01*
X147694786Y-81520964D02*
X147623358Y-81663821D01*
X147623358Y-81663821D02*
X147551929Y-81735250D01*
X147551929Y-81735250D02*
X147409072Y-81806678D01*
X147409072Y-81806678D02*
X147266215Y-81806678D01*
X147266215Y-81806678D02*
X147123358Y-81735250D01*
X147123358Y-81735250D02*
X147051929Y-81663821D01*
X147051929Y-81663821D02*
X146980500Y-81520964D01*
X146980500Y-81520964D02*
X146909072Y-81235250D01*
X146909072Y-81235250D02*
X146909072Y-80878107D01*
X146909072Y-80878107D02*
X146980500Y-80592392D01*
X146980500Y-80592392D02*
X147051929Y-80449535D01*
X147051929Y-80449535D02*
X147123358Y-80378107D01*
X147123358Y-80378107D02*
X147266215Y-80306678D01*
X148266214Y-80306678D02*
X149194786Y-80306678D01*
X149194786Y-80306678D02*
X148694786Y-80878107D01*
X148694786Y-80878107D02*
X148909071Y-80878107D01*
X148909071Y-80878107D02*
X149051929Y-80949535D01*
X149051929Y-80949535D02*
X149123357Y-81020964D01*
X149123357Y-81020964D02*
X149194786Y-81163821D01*
X149194786Y-81163821D02*
X149194786Y-81520964D01*
X149194786Y-81520964D02*
X149123357Y-81663821D01*
X149123357Y-81663821D02*
X149051929Y-81735250D01*
X149051929Y-81735250D02*
X148909071Y-81806678D01*
X148909071Y-81806678D02*
X148480500Y-81806678D01*
X148480500Y-81806678D02*
X148337643Y-81735250D01*
X148337643Y-81735250D02*
X148266214Y-81663821D01*
X150909071Y-80235250D02*
X149623357Y-82163821D01*
X152051929Y-81735250D02*
X151909071Y-81806678D01*
X151909071Y-81806678D02*
X151623357Y-81806678D01*
X151623357Y-81806678D02*
X151480500Y-81735250D01*
X151480500Y-81735250D02*
X151409071Y-81663821D01*
X151409071Y-81663821D02*
X151337643Y-81520964D01*
X151337643Y-81520964D02*
X151337643Y-81092392D01*
X151337643Y-81092392D02*
X151409071Y-80949535D01*
X151409071Y-80949535D02*
X151480500Y-80878107D01*
X151480500Y-80878107D02*
X151623357Y-80806678D01*
X151623357Y-80806678D02*
X151909071Y-80806678D01*
X151909071Y-80806678D02*
X152051929Y-80878107D01*
X152694785Y-81806678D02*
X152694785Y-80806678D01*
X152694785Y-80306678D02*
X152623357Y-80378107D01*
X152623357Y-80378107D02*
X152694785Y-80449535D01*
X152694785Y-80449535D02*
X152766214Y-80378107D01*
X152766214Y-80378107D02*
X152694785Y-80306678D01*
X152694785Y-80306678D02*
X152694785Y-80449535D01*
X153409071Y-81806678D02*
X153409071Y-80806678D01*
X153409071Y-81092392D02*
X153480500Y-80949535D01*
X153480500Y-80949535D02*
X153551929Y-80878107D01*
X153551929Y-80878107D02*
X153694786Y-80806678D01*
X153694786Y-80806678D02*
X153837643Y-80806678D01*
X154980500Y-81735250D02*
X154837642Y-81806678D01*
X154837642Y-81806678D02*
X154551928Y-81806678D01*
X154551928Y-81806678D02*
X154409071Y-81735250D01*
X154409071Y-81735250D02*
X154337642Y-81663821D01*
X154337642Y-81663821D02*
X154266214Y-81520964D01*
X154266214Y-81520964D02*
X154266214Y-81092392D01*
X154266214Y-81092392D02*
X154337642Y-80949535D01*
X154337642Y-80949535D02*
X154409071Y-80878107D01*
X154409071Y-80878107D02*
X154551928Y-80806678D01*
X154551928Y-80806678D02*
X154837642Y-80806678D01*
X154837642Y-80806678D02*
X154980500Y-80878107D01*
X156266214Y-80806678D02*
X156266214Y-81806678D01*
X155623356Y-80806678D02*
X155623356Y-81592392D01*
X155623356Y-81592392D02*
X155694785Y-81735250D01*
X155694785Y-81735250D02*
X155837642Y-81806678D01*
X155837642Y-81806678D02*
X156051928Y-81806678D01*
X156051928Y-81806678D02*
X156194785Y-81735250D01*
X156194785Y-81735250D02*
X156266214Y-81663821D01*
X156980499Y-81806678D02*
X156980499Y-80806678D01*
X156980499Y-80306678D02*
X156909071Y-80378107D01*
X156909071Y-80378107D02*
X156980499Y-80449535D01*
X156980499Y-80449535D02*
X157051928Y-80378107D01*
X157051928Y-80378107D02*
X156980499Y-80306678D01*
X156980499Y-80306678D02*
X156980499Y-80449535D01*
X157480500Y-80806678D02*
X158051928Y-80806678D01*
X157694785Y-80306678D02*
X157694785Y-81592392D01*
X157694785Y-81592392D02*
X157766214Y-81735250D01*
X157766214Y-81735250D02*
X157909071Y-81806678D01*
X157909071Y-81806678D02*
X158051928Y-81806678D01*
X158551928Y-81235250D02*
X159694786Y-81235250D01*
X160980500Y-81735250D02*
X160837643Y-81806678D01*
X160837643Y-81806678D02*
X160551929Y-81806678D01*
X160551929Y-81806678D02*
X160409071Y-81735250D01*
X160409071Y-81735250D02*
X160337643Y-81592392D01*
X160337643Y-81592392D02*
X160337643Y-81020964D01*
X160337643Y-81020964D02*
X160409071Y-80878107D01*
X160409071Y-80878107D02*
X160551929Y-80806678D01*
X160551929Y-80806678D02*
X160837643Y-80806678D01*
X160837643Y-80806678D02*
X160980500Y-80878107D01*
X160980500Y-80878107D02*
X161051929Y-81020964D01*
X161051929Y-81020964D02*
X161051929Y-81163821D01*
X161051929Y-81163821D02*
X160337643Y-81306678D01*
X161623357Y-81735250D02*
X161766214Y-81806678D01*
X161766214Y-81806678D02*
X162051928Y-81806678D01*
X162051928Y-81806678D02*
X162194785Y-81735250D01*
X162194785Y-81735250D02*
X162266214Y-81592392D01*
X162266214Y-81592392D02*
X162266214Y-81520964D01*
X162266214Y-81520964D02*
X162194785Y-81378107D01*
X162194785Y-81378107D02*
X162051928Y-81306678D01*
X162051928Y-81306678D02*
X161837643Y-81306678D01*
X161837643Y-81306678D02*
X161694785Y-81235250D01*
X161694785Y-81235250D02*
X161623357Y-81092392D01*
X161623357Y-81092392D02*
X161623357Y-81020964D01*
X161623357Y-81020964D02*
X161694785Y-80878107D01*
X161694785Y-80878107D02*
X161837643Y-80806678D01*
X161837643Y-80806678D02*
X162051928Y-80806678D01*
X162051928Y-80806678D02*
X162194785Y-80878107D01*
X162909071Y-80806678D02*
X162909071Y-82306678D01*
X162909071Y-80878107D02*
X163051929Y-80806678D01*
X163051929Y-80806678D02*
X163337643Y-80806678D01*
X163337643Y-80806678D02*
X163480500Y-80878107D01*
X163480500Y-80878107D02*
X163551929Y-80949535D01*
X163551929Y-80949535D02*
X163623357Y-81092392D01*
X163623357Y-81092392D02*
X163623357Y-81520964D01*
X163623357Y-81520964D02*
X163551929Y-81663821D01*
X163551929Y-81663821D02*
X163480500Y-81735250D01*
X163480500Y-81735250D02*
X163337643Y-81806678D01*
X163337643Y-81806678D02*
X163051929Y-81806678D01*
X163051929Y-81806678D02*
X162909071Y-81735250D01*
X164123357Y-80306678D02*
X165051929Y-80306678D01*
X165051929Y-80306678D02*
X164551929Y-80878107D01*
X164551929Y-80878107D02*
X164766214Y-80878107D01*
X164766214Y-80878107D02*
X164909072Y-80949535D01*
X164909072Y-80949535D02*
X164980500Y-81020964D01*
X164980500Y-81020964D02*
X165051929Y-81163821D01*
X165051929Y-81163821D02*
X165051929Y-81520964D01*
X165051929Y-81520964D02*
X164980500Y-81663821D01*
X164980500Y-81663821D02*
X164909072Y-81735250D01*
X164909072Y-81735250D02*
X164766214Y-81806678D01*
X164766214Y-81806678D02*
X164337643Y-81806678D01*
X164337643Y-81806678D02*
X164194786Y-81735250D01*
X164194786Y-81735250D02*
X164123357Y-81663821D01*
X165623357Y-80449535D02*
X165694785Y-80378107D01*
X165694785Y-80378107D02*
X165837643Y-80306678D01*
X165837643Y-80306678D02*
X166194785Y-80306678D01*
X166194785Y-80306678D02*
X166337643Y-80378107D01*
X166337643Y-80378107D02*
X166409071Y-80449535D01*
X166409071Y-80449535D02*
X166480500Y-80592392D01*
X166480500Y-80592392D02*
X166480500Y-80735250D01*
X166480500Y-80735250D02*
X166409071Y-80949535D01*
X166409071Y-80949535D02*
X165551928Y-81806678D01*
X165551928Y-81806678D02*
X166480500Y-81806678D01*
X167123356Y-81235250D02*
X168266214Y-81235250D01*
X168980499Y-81806678D02*
X168980499Y-80306678D01*
X168980499Y-80878107D02*
X169123357Y-80806678D01*
X169123357Y-80806678D02*
X169409071Y-80806678D01*
X169409071Y-80806678D02*
X169551928Y-80878107D01*
X169551928Y-80878107D02*
X169623357Y-80949535D01*
X169623357Y-80949535D02*
X169694785Y-81092392D01*
X169694785Y-81092392D02*
X169694785Y-81520964D01*
X169694785Y-81520964D02*
X169623357Y-81663821D01*
X169623357Y-81663821D02*
X169551928Y-81735250D01*
X169551928Y-81735250D02*
X169409071Y-81806678D01*
X169409071Y-81806678D02*
X169123357Y-81806678D01*
X169123357Y-81806678D02*
X168980499Y-81735250D01*
X170980500Y-81806678D02*
X170980500Y-81020964D01*
X170980500Y-81020964D02*
X170909071Y-80878107D01*
X170909071Y-80878107D02*
X170766214Y-80806678D01*
X170766214Y-80806678D02*
X170480500Y-80806678D01*
X170480500Y-80806678D02*
X170337642Y-80878107D01*
X170980500Y-81735250D02*
X170837642Y-81806678D01*
X170837642Y-81806678D02*
X170480500Y-81806678D01*
X170480500Y-81806678D02*
X170337642Y-81735250D01*
X170337642Y-81735250D02*
X170266214Y-81592392D01*
X170266214Y-81592392D02*
X170266214Y-81449535D01*
X170266214Y-81449535D02*
X170337642Y-81306678D01*
X170337642Y-81306678D02*
X170480500Y-81235250D01*
X170480500Y-81235250D02*
X170837642Y-81235250D01*
X170837642Y-81235250D02*
X170980500Y-81163821D01*
X171623357Y-81735250D02*
X171766214Y-81806678D01*
X171766214Y-81806678D02*
X172051928Y-81806678D01*
X172051928Y-81806678D02*
X172194785Y-81735250D01*
X172194785Y-81735250D02*
X172266214Y-81592392D01*
X172266214Y-81592392D02*
X172266214Y-81520964D01*
X172266214Y-81520964D02*
X172194785Y-81378107D01*
X172194785Y-81378107D02*
X172051928Y-81306678D01*
X172051928Y-81306678D02*
X171837643Y-81306678D01*
X171837643Y-81306678D02*
X171694785Y-81235250D01*
X171694785Y-81235250D02*
X171623357Y-81092392D01*
X171623357Y-81092392D02*
X171623357Y-81020964D01*
X171623357Y-81020964D02*
X171694785Y-80878107D01*
X171694785Y-80878107D02*
X171837643Y-80806678D01*
X171837643Y-80806678D02*
X172051928Y-80806678D01*
X172051928Y-80806678D02*
X172194785Y-80878107D01*
X173480500Y-81735250D02*
X173337643Y-81806678D01*
X173337643Y-81806678D02*
X173051929Y-81806678D01*
X173051929Y-81806678D02*
X172909071Y-81735250D01*
X172909071Y-81735250D02*
X172837643Y-81592392D01*
X172837643Y-81592392D02*
X172837643Y-81020964D01*
X172837643Y-81020964D02*
X172909071Y-80878107D01*
X172909071Y-80878107D02*
X173051929Y-80806678D01*
X173051929Y-80806678D02*
X173337643Y-80806678D01*
X173337643Y-80806678D02*
X173480500Y-80878107D01*
X173480500Y-80878107D02*
X173551929Y-81020964D01*
X173551929Y-81020964D02*
X173551929Y-81163821D01*
X173551929Y-81163821D02*
X172837643Y-81306678D01*
D11*
G36*
X118886147Y-98490000D02*
G01*
X120742882Y-98490000D01*
X120742882Y-97969762D01*
X119507501Y-97969762D01*
X119507501Y-97364528D01*
X120520132Y-97364528D01*
X120520132Y-96847955D01*
X119507501Y-96847955D01*
X119507501Y-96291081D01*
X120700383Y-96291081D01*
X120700383Y-95770111D01*
X118886147Y-95770111D01*
X118886147Y-98490000D01*
G37*
G36*
X121932833Y-98490000D02*
G01*
X122642847Y-98490000D01*
X123407083Y-96426636D01*
X122815038Y-96426636D01*
X122487508Y-97397501D01*
X122439079Y-97553847D01*
X122393536Y-97711842D01*
X122348816Y-97871485D01*
X122308743Y-98012525D01*
X122302861Y-98032777D01*
X122286008Y-98032777D01*
X122245065Y-97891556D01*
X122198676Y-97731707D01*
X122151729Y-97573506D01*
X122103194Y-97416954D01*
X122096964Y-97397501D01*
X121769434Y-96426636D01*
X121147348Y-96426636D01*
X121932833Y-98490000D01*
G37*
G36*
X124909181Y-96334106D02*
G01*
X125076543Y-96352540D01*
X125227700Y-96391768D01*
X125362468Y-96450256D01*
X125516344Y-96555553D01*
X125640317Y-96688735D01*
X125733949Y-96846171D01*
X125796802Y-97024227D01*
X125823480Y-97169117D01*
X125832414Y-97322030D01*
X125825266Y-97446438D01*
X125803105Y-97599002D01*
X124383077Y-97599002D01*
X124404040Y-97685366D01*
X124470903Y-97830304D01*
X124569494Y-97939394D01*
X124697987Y-98014084D01*
X124854558Y-98055824D01*
X125005163Y-98066482D01*
X125109110Y-98060865D01*
X125259007Y-98031601D01*
X125407328Y-97977765D01*
X125542986Y-97909678D01*
X125748150Y-98293628D01*
X125702546Y-98321235D01*
X125557171Y-98395317D01*
X125402175Y-98455258D01*
X125241702Y-98499722D01*
X125079895Y-98527379D01*
X124920900Y-98536894D01*
X124800705Y-98532241D01*
X124627999Y-98507979D01*
X124465967Y-98463301D01*
X124316377Y-98398568D01*
X124180997Y-98314144D01*
X124061595Y-98210390D01*
X123959938Y-98087669D01*
X123877794Y-97946342D01*
X123816931Y-97786773D01*
X123779117Y-97609322D01*
X123766120Y-97414354D01*
X123772148Y-97291239D01*
X123791200Y-97183545D01*
X124391870Y-97183545D01*
X125282135Y-97183545D01*
X125246773Y-97037217D01*
X125167790Y-96912662D01*
X125031645Y-96828263D01*
X124870341Y-96803991D01*
X124847745Y-96804360D01*
X124682800Y-96833931D01*
X124548527Y-96910917D01*
X124448497Y-97035456D01*
X124391870Y-97183545D01*
X123791200Y-97183545D01*
X123802675Y-97118681D01*
X123856829Y-96961287D01*
X123932187Y-96819765D01*
X124026325Y-96694821D01*
X124136820Y-96587161D01*
X124261248Y-96497492D01*
X124397186Y-96426519D01*
X124542211Y-96374950D01*
X124693898Y-96343490D01*
X124849825Y-96332847D01*
X124909181Y-96334106D01*
G37*
G36*
X126539497Y-98490000D02*
G01*
X127157187Y-98490000D01*
X127157187Y-97390907D01*
X127227529Y-97259768D01*
X127325744Y-97126007D01*
X127433137Y-97023472D01*
X127570721Y-96938204D01*
X127713869Y-96890145D01*
X127858408Y-96875066D01*
X128009684Y-96883837D01*
X128159231Y-96915184D01*
X128228436Y-96935150D01*
X128354466Y-96417110D01*
X128210995Y-96363392D01*
X128061199Y-96337098D01*
X127951465Y-96332847D01*
X127797990Y-96344913D01*
X127649909Y-96381290D01*
X127508965Y-96442246D01*
X127376903Y-96528050D01*
X127255467Y-96638970D01*
X127146401Y-96775274D01*
X127106629Y-96836964D01*
X127094173Y-96836964D01*
X127043614Y-96426636D01*
X126539497Y-96426636D01*
X126539497Y-98490000D01*
G37*
G36*
X129170725Y-99287208D02*
G01*
X129355172Y-99274669D01*
X129516298Y-99237177D01*
X129656816Y-99174920D01*
X129779439Y-99088089D01*
X129886882Y-98976872D01*
X129981856Y-98841457D01*
X130067076Y-98682034D01*
X130126221Y-98546826D01*
X130145254Y-98498792D01*
X130968841Y-96426636D01*
X130384856Y-96426636D01*
X130077843Y-97308108D01*
X130029449Y-97461157D01*
X129980299Y-97615854D01*
X129932660Y-97770552D01*
X129888799Y-97923600D01*
X129872679Y-97923600D01*
X129828356Y-97783913D01*
X129777052Y-97627459D01*
X129724331Y-97474800D01*
X129669438Y-97326348D01*
X129662386Y-97308108D01*
X129313607Y-96426636D01*
X128700314Y-96426636D01*
X129603768Y-98424054D01*
X129561270Y-98531765D01*
X129478696Y-98665565D01*
X129350453Y-98758095D01*
X129189110Y-98797881D01*
X129124563Y-98800676D01*
X128976433Y-98780103D01*
X128961165Y-98775764D01*
X128851988Y-99240314D01*
X128998717Y-99271180D01*
X129148067Y-99282616D01*
X129170725Y-99282812D01*
X129170725Y-99287208D01*
G37*
G36*
X133305512Y-98490000D02*
G01*
X132801395Y-98490000D01*
X132755233Y-98272379D01*
X132742777Y-98272379D01*
X132616255Y-98377697D01*
X132473591Y-98461515D01*
X132320622Y-98516893D01*
X132163189Y-98536894D01*
X132163189Y-98540558D01*
X131973581Y-98521296D01*
X131802846Y-98464640D01*
X131652961Y-98372281D01*
X131525898Y-98245909D01*
X131423634Y-98087218D01*
X131364397Y-97948007D01*
X131321054Y-97792280D01*
X131294437Y-97620753D01*
X131285380Y-97434138D01*
X131285819Y-97426810D01*
X131919923Y-97426810D01*
X131930516Y-97606227D01*
X131961738Y-97752829D01*
X132038507Y-97904638D01*
X132170786Y-98004642D01*
X132322923Y-98030579D01*
X132322923Y-98033510D01*
X132447101Y-98016278D01*
X132583268Y-97944785D01*
X132688555Y-97836406D01*
X132688555Y-96978381D01*
X132635287Y-96934869D01*
X132495466Y-96861350D01*
X132339776Y-96836964D01*
X132318587Y-96837516D01*
X132159815Y-96882205D01*
X132044670Y-96981311D01*
X131971550Y-97112079D01*
X131933433Y-97254113D01*
X131919923Y-97426810D01*
X131285819Y-97426810D01*
X131296549Y-97247649D01*
X131328671Y-97076468D01*
X131379672Y-96921258D01*
X131447475Y-96782680D01*
X131560428Y-96624931D01*
X131694642Y-96499501D01*
X131845196Y-96407963D01*
X132007170Y-96351888D01*
X132175645Y-96332847D01*
X132297970Y-96341159D01*
X132440452Y-96377297D01*
X132578719Y-96450368D01*
X132701011Y-96555596D01*
X132717864Y-96555596D01*
X132688555Y-96233928D01*
X132688555Y-95535638D01*
X133305512Y-95535638D01*
X133305512Y-98490000D01*
G37*
G36*
X135069803Y-96340861D02*
G01*
X135215333Y-96365043D01*
X135388634Y-96422801D01*
X135536841Y-96510174D01*
X135658434Y-96627660D01*
X135751892Y-96775758D01*
X135815696Y-96954965D01*
X135843175Y-97110086D01*
X135852477Y-97283196D01*
X135852477Y-98490000D01*
X135348360Y-98490000D01*
X135302198Y-98251863D01*
X135285345Y-98251863D01*
X135245462Y-98281387D01*
X135119245Y-98363787D01*
X134984526Y-98434131D01*
X134843046Y-98488826D01*
X134696542Y-98524278D01*
X134546755Y-98536894D01*
X134546755Y-98540558D01*
X134469750Y-98537319D01*
X134294285Y-98502404D01*
X134145156Y-98432907D01*
X134024847Y-98333491D01*
X133935839Y-98208818D01*
X133880613Y-98063551D01*
X133861653Y-97902351D01*
X133862793Y-97858738D01*
X133863109Y-97856922D01*
X134453698Y-97856922D01*
X134474203Y-97946166D01*
X134598312Y-98038333D01*
X134743859Y-98055491D01*
X134743859Y-98058422D01*
X134828635Y-98052356D01*
X134972946Y-98013858D01*
X135108020Y-97946236D01*
X135235519Y-97856922D01*
X135235519Y-97505212D01*
X135125671Y-97512817D01*
X134935630Y-97534698D01*
X134782429Y-97565002D01*
X134637804Y-97613865D01*
X134499836Y-97714817D01*
X134453698Y-97856922D01*
X133863109Y-97856922D01*
X133890803Y-97697971D01*
X133958206Y-97558571D01*
X134067501Y-97439823D01*
X134221187Y-97341016D01*
X134367086Y-97279568D01*
X134540414Y-97228634D01*
X134742227Y-97187915D01*
X134893113Y-97166295D01*
X135057440Y-97148992D01*
X135235519Y-97135917D01*
X135196513Y-97005343D01*
X135096143Y-96897637D01*
X134954964Y-96840916D01*
X134790020Y-96824508D01*
X134752272Y-96825409D01*
X134600935Y-96846234D01*
X134446163Y-96892234D01*
X134304896Y-96950652D01*
X134155478Y-97023810D01*
X133937124Y-96614947D01*
X133991241Y-96584731D01*
X134131061Y-96514614D01*
X134276963Y-96453561D01*
X134428459Y-96403214D01*
X134585064Y-96365217D01*
X134746291Y-96341213D01*
X134911653Y-96332847D01*
X135069803Y-96340861D01*
G37*
G36*
X136723691Y-99287208D02*
G01*
X136908138Y-99274669D01*
X137069264Y-99237177D01*
X137209782Y-99174920D01*
X137332405Y-99088089D01*
X137439847Y-98976872D01*
X137534822Y-98841457D01*
X137620041Y-98682034D01*
X137679187Y-98546826D01*
X137698220Y-98498792D01*
X138521807Y-96426636D01*
X137937822Y-96426636D01*
X137630809Y-97308108D01*
X137582415Y-97461157D01*
X137533265Y-97615854D01*
X137485626Y-97770552D01*
X137441765Y-97923600D01*
X137425645Y-97923600D01*
X137381322Y-97783913D01*
X137330018Y-97627459D01*
X137277297Y-97474800D01*
X137222404Y-97326348D01*
X137215352Y-97308108D01*
X136866573Y-96426636D01*
X136253279Y-96426636D01*
X137156734Y-98424054D01*
X137114235Y-98531765D01*
X137031662Y-98665565D01*
X136903418Y-98758095D01*
X136742076Y-98797881D01*
X136677529Y-98800676D01*
X136529399Y-98780103D01*
X136514131Y-98775764D01*
X136404954Y-99240314D01*
X136551683Y-99271180D01*
X136701033Y-99282616D01*
X136723691Y-99282812D01*
X136723691Y-99287208D01*
G37*
G36*
X142410397Y-98536894D02*
G01*
X142593725Y-98526772D01*
X142760946Y-98497496D01*
X142911638Y-98450699D01*
X143045381Y-98388014D01*
X143196615Y-98282546D01*
X143315975Y-98155611D01*
X143402466Y-98011081D01*
X143455091Y-97852830D01*
X143472854Y-97684731D01*
X143456620Y-97513453D01*
X143409317Y-97364615D01*
X143333040Y-97236505D01*
X143229887Y-97127413D01*
X143101953Y-97035629D01*
X142951335Y-96959442D01*
X142885205Y-96932951D01*
X142553279Y-96787871D01*
X142413536Y-96735715D01*
X142277206Y-96676700D01*
X142154452Y-96590619D01*
X142103384Y-96461074D01*
X142149589Y-96320680D01*
X142276657Y-96235986D01*
X142428663Y-96210740D01*
X142447766Y-96210481D01*
X142611544Y-96221829D01*
X142754685Y-96254984D01*
X142902156Y-96317865D01*
X143042637Y-96405492D01*
X143077913Y-96431032D01*
X143392986Y-96037557D01*
X143271044Y-95935365D01*
X143138688Y-95849551D01*
X142997845Y-95780502D01*
X142850445Y-95728602D01*
X142698416Y-95694238D01*
X142543687Y-95677795D01*
X142481472Y-95676322D01*
X142319903Y-95685628D01*
X142168984Y-95712672D01*
X141986304Y-95774058D01*
X141827306Y-95861538D01*
X141694704Y-95972005D01*
X141591210Y-96102350D01*
X141519539Y-96249464D01*
X141482403Y-96410240D01*
X141477634Y-96494780D01*
X141497023Y-96672063D01*
X141551390Y-96826062D01*
X141635031Y-96957749D01*
X141742246Y-97068097D01*
X141867332Y-97158078D01*
X142004587Y-97228666D01*
X142061618Y-97251688D01*
X142414061Y-97404829D01*
X142550077Y-97461808D01*
X142694947Y-97532421D01*
X142808704Y-97638832D01*
X142838311Y-97761667D01*
X142785876Y-97899676D01*
X142658934Y-97975575D01*
X142500090Y-98002290D01*
X142452163Y-98003468D01*
X142304503Y-97991393D01*
X142160225Y-97956945D01*
X142021008Y-97902791D01*
X141888534Y-97831597D01*
X141764484Y-97746029D01*
X141725296Y-97714773D01*
X141368457Y-98142686D01*
X141512007Y-98255355D01*
X141665787Y-98349379D01*
X141827683Y-98424572D01*
X141995584Y-98480750D01*
X142167376Y-98517729D01*
X142340945Y-98535325D01*
X142410397Y-98536894D01*
G37*
G36*
X143978436Y-98490000D02*
G01*
X144596127Y-98490000D01*
X144596127Y-97080230D01*
X144713503Y-96974185D01*
X144838414Y-96895716D01*
X144989578Y-96859112D01*
X145020376Y-96858213D01*
X145178120Y-96889180D01*
X145282643Y-96998890D01*
X145320553Y-97146598D01*
X145326657Y-97267076D01*
X145326657Y-98490000D01*
X145944347Y-98490000D01*
X145944347Y-97186475D01*
X145934401Y-96997696D01*
X145904207Y-96829602D01*
X145853234Y-96683576D01*
X145759485Y-96534182D01*
X145631396Y-96424129D01*
X145467927Y-96356117D01*
X145310980Y-96333792D01*
X145268039Y-96332847D01*
X145100383Y-96347897D01*
X144951216Y-96389261D01*
X144799243Y-96463199D01*
X144669529Y-96556202D01*
X144574877Y-96644256D01*
X144562421Y-96644256D01*
X144596127Y-96246385D01*
X144596127Y-95535638D01*
X143978436Y-95535638D01*
X143978436Y-98490000D01*
G37*
G36*
X147130635Y-98536894D02*
G01*
X147290264Y-98522733D01*
X147434873Y-98482025D01*
X147587033Y-98404540D01*
X147705359Y-98315463D01*
X147814445Y-98208284D01*
X147831856Y-98188848D01*
X147848709Y-98188848D01*
X147894870Y-98490000D01*
X148398988Y-98490000D01*
X148398988Y-96426636D01*
X147781297Y-96426636D01*
X147781297Y-97782916D01*
X147679208Y-97892940D01*
X147557963Y-97975778D01*
X147402505Y-98011617D01*
X147373900Y-98012260D01*
X147215088Y-97982179D01*
X147113151Y-97875612D01*
X147077560Y-97732140D01*
X147072016Y-97615122D01*
X147072016Y-96426636D01*
X146454326Y-96426636D01*
X146454326Y-97693524D01*
X146463912Y-97879127D01*
X146493229Y-98044775D01*
X146543121Y-98188991D01*
X146635699Y-98336872D01*
X146763381Y-98446072D01*
X146927812Y-98513708D01*
X147086920Y-98535951D01*
X147130635Y-98536894D01*
G37*
G36*
X148858408Y-98490000D02*
G01*
X149446789Y-98490000D01*
X149446789Y-97062644D01*
X149513269Y-96930283D01*
X149631437Y-96858213D01*
X149739692Y-96957281D01*
X149748674Y-97050188D01*
X149748674Y-98490000D01*
X150232274Y-98490000D01*
X150232274Y-97062644D01*
X150303307Y-96930283D01*
X150421318Y-96858213D01*
X150528274Y-96966096D01*
X150534159Y-97050188D01*
X150534159Y-98490000D01*
X151122540Y-98490000D01*
X151122540Y-97007690D01*
X151114747Y-96858569D01*
X151083552Y-96695205D01*
X151015782Y-96535810D01*
X150916311Y-96419919D01*
X150786620Y-96351269D01*
X150656524Y-96332847D01*
X150493813Y-96359500D01*
X150363799Y-96432315D01*
X150264560Y-96540575D01*
X150194173Y-96673565D01*
X150141851Y-96526356D01*
X150050768Y-96409251D01*
X149913911Y-96341437D01*
X149832937Y-96332847D01*
X149672287Y-96357221D01*
X149533376Y-96434131D01*
X149432719Y-96549219D01*
X149383775Y-96639860D01*
X149366922Y-96639860D01*
X149324424Y-96426636D01*
X148858408Y-96426636D01*
X148858408Y-98490000D01*
G37*
G36*
X152693390Y-96340861D02*
G01*
X152838920Y-96365043D01*
X153012221Y-96422801D01*
X153160428Y-96510174D01*
X153282021Y-96627660D01*
X153375479Y-96775758D01*
X153439283Y-96954965D01*
X153466762Y-97110086D01*
X153476064Y-97283196D01*
X153476064Y-98490000D01*
X152971946Y-98490000D01*
X152925785Y-98251863D01*
X152908932Y-98251863D01*
X152869049Y-98281387D01*
X152742831Y-98363787D01*
X152608113Y-98434131D01*
X152466633Y-98488826D01*
X152320129Y-98524278D01*
X152170341Y-98536894D01*
X152170341Y-98540558D01*
X152093337Y-98537319D01*
X151917872Y-98502404D01*
X151768743Y-98432907D01*
X151648434Y-98333491D01*
X151559425Y-98208818D01*
X151504200Y-98063551D01*
X151485240Y-97902351D01*
X151486380Y-97858738D01*
X151486696Y-97856922D01*
X152077285Y-97856922D01*
X152097790Y-97946166D01*
X152221899Y-98038333D01*
X152367445Y-98055491D01*
X152367445Y-98058422D01*
X152452222Y-98052356D01*
X152596533Y-98013858D01*
X152731607Y-97946236D01*
X152859106Y-97856922D01*
X152859106Y-97505212D01*
X152749258Y-97512817D01*
X152559217Y-97534698D01*
X152406016Y-97565002D01*
X152261391Y-97613865D01*
X152123423Y-97714817D01*
X152077285Y-97856922D01*
X151486696Y-97856922D01*
X151514390Y-97697971D01*
X151581793Y-97558571D01*
X151691088Y-97439823D01*
X151844774Y-97341016D01*
X151990673Y-97279568D01*
X152164001Y-97228634D01*
X152365814Y-97187915D01*
X152516700Y-97166295D01*
X152681027Y-97148992D01*
X152859106Y-97135917D01*
X152820100Y-97005343D01*
X152719730Y-96897637D01*
X152578551Y-96840916D01*
X152413607Y-96824508D01*
X152375859Y-96825409D01*
X152224522Y-96846234D01*
X152069750Y-96892234D01*
X151928483Y-96950652D01*
X151779064Y-97023810D01*
X151560711Y-96614947D01*
X151614828Y-96584731D01*
X151754648Y-96514614D01*
X151900550Y-96453561D01*
X152052046Y-96403214D01*
X152208651Y-96365217D01*
X152369878Y-96341213D01*
X152535240Y-96332847D01*
X152693390Y-96340861D01*
G37*
G36*
X154914410Y-98490000D02*
G01*
X155532100Y-98490000D01*
X155532100Y-96426636D01*
X154078367Y-96426636D01*
X154078367Y-96910237D01*
X154914410Y-96910237D01*
X154914410Y-98490000D01*
G37*
G36*
X155195778Y-96098374D02*
G01*
X155342243Y-96078027D01*
X155477490Y-96008566D01*
X155576922Y-95878898D01*
X155607571Y-95724682D01*
X155576922Y-95568828D01*
X155491525Y-95446703D01*
X155361203Y-95367030D01*
X155195778Y-95338534D01*
X155049313Y-95360491D01*
X154914065Y-95434243D01*
X154822515Y-95551539D01*
X154784485Y-95703654D01*
X154783984Y-95724682D01*
X154814633Y-95878898D01*
X154914065Y-96008566D01*
X155049313Y-96078027D01*
X155195778Y-96098374D01*
G37*
G36*
X160122850Y-95770760D02*
G01*
X160283670Y-95780814D01*
X160436095Y-95803886D01*
X160578322Y-95841072D01*
X160748976Y-95914506D01*
X160894015Y-96017586D01*
X161009165Y-96152913D01*
X161090148Y-96323088D01*
X161125891Y-96475155D01*
X161138206Y-96649385D01*
X161136780Y-96708320D01*
X161115979Y-96872806D01*
X161071942Y-97019078D01*
X160980516Y-97186358D01*
X160856029Y-97322654D01*
X160703195Y-97428766D01*
X160526728Y-97505492D01*
X160381706Y-97544233D01*
X160228030Y-97567231D01*
X160067690Y-97574822D01*
X159714515Y-97574822D01*
X159714515Y-98490000D01*
X159096824Y-98490000D01*
X159096824Y-97083161D01*
X159714515Y-97083161D01*
X160029588Y-97083161D01*
X160176121Y-97072269D01*
X160318335Y-97030768D01*
X160451655Y-96928139D01*
X160516317Y-96794987D01*
X160533705Y-96649385D01*
X160529070Y-96574304D01*
X160472148Y-96417530D01*
X160352311Y-96318348D01*
X160197734Y-96273243D01*
X160029588Y-96261772D01*
X159714515Y-96261772D01*
X159714515Y-97083161D01*
X159096824Y-97083161D01*
X159096824Y-95770111D01*
X160067690Y-95770111D01*
X160122850Y-95770760D01*
G37*
G36*
X162764011Y-96340861D02*
G01*
X162909541Y-96365043D01*
X163082842Y-96422801D01*
X163231049Y-96510174D01*
X163352642Y-96627660D01*
X163446100Y-96775758D01*
X163509904Y-96954965D01*
X163537383Y-97110086D01*
X163546685Y-97283196D01*
X163546685Y-98490000D01*
X163042568Y-98490000D01*
X162996406Y-98251863D01*
X162979553Y-98251863D01*
X162939670Y-98281387D01*
X162813452Y-98363787D01*
X162678734Y-98434131D01*
X162537254Y-98488826D01*
X162390750Y-98524278D01*
X162240963Y-98536894D01*
X162240963Y-98540558D01*
X162163958Y-98537319D01*
X161988493Y-98502404D01*
X161839364Y-98432907D01*
X161719055Y-98333491D01*
X161630047Y-98208818D01*
X161574821Y-98063551D01*
X161555861Y-97902351D01*
X161557001Y-97858738D01*
X161557317Y-97856922D01*
X162147906Y-97856922D01*
X162168411Y-97946166D01*
X162292520Y-98038333D01*
X162438066Y-98055491D01*
X162438066Y-98058422D01*
X162522843Y-98052356D01*
X162667154Y-98013858D01*
X162802228Y-97946236D01*
X162929727Y-97856922D01*
X162929727Y-97505212D01*
X162819879Y-97512817D01*
X162629838Y-97534698D01*
X162476637Y-97565002D01*
X162332012Y-97613865D01*
X162194044Y-97714817D01*
X162147906Y-97856922D01*
X161557317Y-97856922D01*
X161585011Y-97697971D01*
X161652414Y-97558571D01*
X161761709Y-97439823D01*
X161915395Y-97341016D01*
X162061294Y-97279568D01*
X162234622Y-97228634D01*
X162436435Y-97187915D01*
X162587321Y-97166295D01*
X162751648Y-97148992D01*
X162929727Y-97135917D01*
X162890721Y-97005343D01*
X162790351Y-96897637D01*
X162649172Y-96840916D01*
X162484228Y-96824508D01*
X162446480Y-96825409D01*
X162295143Y-96846234D01*
X162140371Y-96892234D01*
X161999104Y-96950652D01*
X161849685Y-97023810D01*
X161631332Y-96614947D01*
X161685449Y-96584731D01*
X161825269Y-96514614D01*
X161971171Y-96453561D01*
X162122667Y-96403214D01*
X162279272Y-96365217D01*
X162440499Y-96341213D01*
X162605861Y-96332847D01*
X162764011Y-96340861D01*
G37*
G36*
X164304326Y-98490000D02*
G01*
X164922016Y-98490000D01*
X164922016Y-97390907D01*
X164992358Y-97259768D01*
X165090574Y-97126007D01*
X165197966Y-97023472D01*
X165335550Y-96938204D01*
X165478698Y-96890145D01*
X165623237Y-96875066D01*
X165774513Y-96883837D01*
X165924060Y-96915184D01*
X165993265Y-96935150D01*
X166119295Y-96417110D01*
X165975824Y-96363392D01*
X165826028Y-96337098D01*
X165716294Y-96332847D01*
X165562819Y-96344913D01*
X165414738Y-96381290D01*
X165273794Y-96442246D01*
X165141732Y-96528050D01*
X165020296Y-96638970D01*
X164911230Y-96775274D01*
X164871458Y-96836964D01*
X164859002Y-96836964D01*
X164808443Y-96426636D01*
X164304326Y-96426636D01*
X164304326Y-98490000D01*
G37*
G36*
X167965038Y-98536894D02*
G01*
X168114816Y-98531127D01*
X168275244Y-98512096D01*
X168421748Y-98483585D01*
X168574139Y-98444470D01*
X168645010Y-98424054D01*
X168535833Y-97980020D01*
X168391346Y-98021468D01*
X168236811Y-98048233D01*
X168124773Y-98054026D01*
X167970060Y-98040971D01*
X167817862Y-97979615D01*
X167724139Y-97862052D01*
X167687238Y-97707945D01*
X167683670Y-97626113D01*
X167683670Y-96910237D01*
X168565143Y-96910237D01*
X168565143Y-96426636D01*
X167683670Y-96426636D01*
X167683670Y-95788429D01*
X167175157Y-95788429D01*
X167095289Y-96426636D01*
X166540614Y-96452281D01*
X166540614Y-96910237D01*
X167065980Y-96910237D01*
X167065980Y-97630509D01*
X167072341Y-97776975D01*
X167101770Y-97956777D01*
X167157216Y-98116716D01*
X167240947Y-98254431D01*
X167355229Y-98367560D01*
X167502329Y-98453741D01*
X167684514Y-98510615D01*
X167845542Y-98532616D01*
X167965038Y-98536894D01*
G37*
G36*
X169453210Y-99287208D02*
G01*
X169637657Y-99274669D01*
X169798783Y-99237177D01*
X169939301Y-99174920D01*
X170061924Y-99088089D01*
X170169366Y-98976872D01*
X170264340Y-98841457D01*
X170349560Y-98682034D01*
X170408706Y-98546826D01*
X170427739Y-98498792D01*
X171251325Y-96426636D01*
X170667341Y-96426636D01*
X170360327Y-97308108D01*
X170311933Y-97461157D01*
X170262783Y-97615854D01*
X170215144Y-97770552D01*
X170171284Y-97923600D01*
X170155163Y-97923600D01*
X170110841Y-97783913D01*
X170059537Y-97627459D01*
X170006816Y-97474800D01*
X169951922Y-97326348D01*
X169944870Y-97308108D01*
X169596092Y-96426636D01*
X168982798Y-96426636D01*
X169886252Y-98424054D01*
X169843754Y-98531765D01*
X169761181Y-98665565D01*
X169632937Y-98758095D01*
X169471595Y-98797881D01*
X169407048Y-98800676D01*
X169258917Y-98780103D01*
X169243649Y-98775764D01*
X169134473Y-99240314D01*
X169281202Y-99271180D01*
X169430551Y-99282616D01*
X169453210Y-99282812D01*
X169453210Y-99287208D01*
G37*
G36*
X172428820Y-97415819D02*
G01*
X172831821Y-97415819D01*
X172916085Y-96230997D01*
X172937334Y-95672658D01*
X172324040Y-95672658D01*
X172344556Y-96230997D01*
X172428820Y-97415819D01*
G37*
G36*
X172630321Y-98536894D02*
G01*
X172777774Y-98512692D01*
X172915686Y-98431238D01*
X173010089Y-98301355D01*
X173048091Y-98155324D01*
X173050174Y-98108981D01*
X173025564Y-97958299D01*
X172943808Y-97820416D01*
X172815711Y-97727837D01*
X172652606Y-97689629D01*
X172630321Y-97689127D01*
X172482867Y-97712834D01*
X172344955Y-97792670D01*
X172250552Y-97920077D01*
X172212550Y-98063452D01*
X172210467Y-98108981D01*
X172235077Y-98262412D01*
X172316833Y-98402942D01*
X172444930Y-98497380D01*
X172608035Y-98536382D01*
X172630321Y-98536894D01*
G37*
G36*
X174946475Y-97415819D02*
G01*
X175349476Y-97415819D01*
X175433740Y-96230997D01*
X175454989Y-95672658D01*
X174841695Y-95672658D01*
X174862212Y-96230997D01*
X174946475Y-97415819D01*
G37*
G36*
X175147976Y-98536894D02*
G01*
X175295429Y-98512692D01*
X175433341Y-98431238D01*
X175527744Y-98301355D01*
X175565746Y-98155324D01*
X175567829Y-98108981D01*
X175543219Y-97958299D01*
X175461464Y-97820416D01*
X175333366Y-97727837D01*
X175170261Y-97689629D01*
X175147976Y-97689127D01*
X175000522Y-97712834D01*
X174862610Y-97792670D01*
X174768207Y-97920077D01*
X174730205Y-98063452D01*
X174728122Y-98108981D01*
X174752733Y-98262412D01*
X174834488Y-98402942D01*
X174962585Y-98497380D01*
X175125691Y-98536382D01*
X175147976Y-98536894D01*
G37*
G36*
X177464131Y-97415819D02*
G01*
X177867131Y-97415819D01*
X177951395Y-96230997D01*
X177972644Y-95672658D01*
X177359351Y-95672658D01*
X177379867Y-96230997D01*
X177464131Y-97415819D01*
G37*
G36*
X177665631Y-98536894D02*
G01*
X177813084Y-98512692D01*
X177950996Y-98431238D01*
X178045400Y-98301355D01*
X178083402Y-98155324D01*
X178085484Y-98108981D01*
X178060874Y-97958299D01*
X177979119Y-97820416D01*
X177851021Y-97727837D01*
X177687916Y-97689629D01*
X177665631Y-97689127D01*
X177518178Y-97712834D01*
X177380266Y-97792670D01*
X177285862Y-97920077D01*
X177247860Y-98063452D01*
X177245778Y-98108981D01*
X177270388Y-98262412D01*
X177352143Y-98402942D01*
X177480241Y-98497380D01*
X177643346Y-98536382D01*
X177665631Y-98536894D01*
G37*
G36*
X179981786Y-97415819D02*
G01*
X180384787Y-97415819D01*
X180469050Y-96230997D01*
X180490300Y-95672658D01*
X179877006Y-95672658D01*
X179897522Y-96230997D01*
X179981786Y-97415819D01*
G37*
G36*
X180183286Y-98536894D02*
G01*
X180330740Y-98512692D01*
X180468652Y-98431238D01*
X180563055Y-98301355D01*
X180601057Y-98155324D01*
X180603140Y-98108981D01*
X180578529Y-97958299D01*
X180496774Y-97820416D01*
X180368677Y-97727837D01*
X180205571Y-97689629D01*
X180183286Y-97689127D01*
X180035833Y-97712834D01*
X179897921Y-97792670D01*
X179803518Y-97920077D01*
X179765516Y-98063452D01*
X179763433Y-98108981D01*
X179788043Y-98262412D01*
X179869798Y-98402942D01*
X179997896Y-98497380D01*
X180161001Y-98536382D01*
X180183286Y-98536894D01*
G37*
G36*
X182499441Y-97415819D02*
G01*
X182902442Y-97415819D01*
X182986706Y-96230997D01*
X183007955Y-95672658D01*
X182394661Y-95672658D01*
X182415177Y-96230997D01*
X182499441Y-97415819D01*
G37*
G36*
X182700942Y-98536894D02*
G01*
X182848395Y-98512692D01*
X182986307Y-98431238D01*
X183080710Y-98301355D01*
X183118712Y-98155324D01*
X183120795Y-98108981D01*
X183096185Y-97958299D01*
X183014429Y-97820416D01*
X182886332Y-97727837D01*
X182723227Y-97689629D01*
X182700942Y-97689127D01*
X182553488Y-97712834D01*
X182415576Y-97792670D01*
X182321173Y-97920077D01*
X182283171Y-98063452D01*
X182281088Y-98108981D01*
X182305699Y-98262412D01*
X182387454Y-98402942D01*
X182515551Y-98497380D01*
X182678656Y-98536382D01*
X182700942Y-98536894D01*
G37*
D12*
X120404819Y-88333333D02*
X121119104Y-88333333D01*
X121119104Y-88333333D02*
X121261961Y-88380952D01*
X121261961Y-88380952D02*
X121357200Y-88476190D01*
X121357200Y-88476190D02*
X121404819Y-88619047D01*
X121404819Y-88619047D02*
X121404819Y-88714285D01*
X120404819Y-87428571D02*
X120404819Y-87619047D01*
X120404819Y-87619047D02*
X120452438Y-87714285D01*
X120452438Y-87714285D02*
X120500057Y-87761904D01*
X120500057Y-87761904D02*
X120642914Y-87857142D01*
X120642914Y-87857142D02*
X120833390Y-87904761D01*
X120833390Y-87904761D02*
X121214342Y-87904761D01*
X121214342Y-87904761D02*
X121309580Y-87857142D01*
X121309580Y-87857142D02*
X121357200Y-87809523D01*
X121357200Y-87809523D02*
X121404819Y-87714285D01*
X121404819Y-87714285D02*
X121404819Y-87523809D01*
X121404819Y-87523809D02*
X121357200Y-87428571D01*
X121357200Y-87428571D02*
X121309580Y-87380952D01*
X121309580Y-87380952D02*
X121214342Y-87333333D01*
X121214342Y-87333333D02*
X120976247Y-87333333D01*
X120976247Y-87333333D02*
X120881009Y-87380952D01*
X120881009Y-87380952D02*
X120833390Y-87428571D01*
X120833390Y-87428571D02*
X120785771Y-87523809D01*
X120785771Y-87523809D02*
X120785771Y-87714285D01*
X120785771Y-87714285D02*
X120833390Y-87809523D01*
X120833390Y-87809523D02*
X120881009Y-87857142D01*
X120881009Y-87857142D02*
X120976247Y-87904761D01*
X170854819Y-107083333D02*
X171569104Y-107083333D01*
X171569104Y-107083333D02*
X171711961Y-107130952D01*
X171711961Y-107130952D02*
X171807200Y-107226190D01*
X171807200Y-107226190D02*
X171854819Y-107369047D01*
X171854819Y-107369047D02*
X171854819Y-107464285D01*
X170854819Y-106130952D02*
X170854819Y-106607142D01*
X170854819Y-106607142D02*
X171331009Y-106654761D01*
X171331009Y-106654761D02*
X171283390Y-106607142D01*
X171283390Y-106607142D02*
X171235771Y-106511904D01*
X171235771Y-106511904D02*
X171235771Y-106273809D01*
X171235771Y-106273809D02*
X171283390Y-106178571D01*
X171283390Y-106178571D02*
X171331009Y-106130952D01*
X171331009Y-106130952D02*
X171426247Y-106083333D01*
X171426247Y-106083333D02*
X171664342Y-106083333D01*
X171664342Y-106083333D02*
X171759580Y-106130952D01*
X171759580Y-106130952D02*
X171807200Y-106178571D01*
X171807200Y-106178571D02*
X171854819Y-106273809D01*
X171854819Y-106273809D02*
X171854819Y-106511904D01*
X171854819Y-106511904D02*
X171807200Y-106607142D01*
X171807200Y-106607142D02*
X171759580Y-106654761D01*
X145904819Y-88333333D02*
X146619104Y-88333333D01*
X146619104Y-88333333D02*
X146761961Y-88380952D01*
X146761961Y-88380952D02*
X146857200Y-88476190D01*
X146857200Y-88476190D02*
X146904819Y-88619047D01*
X146904819Y-88619047D02*
X146904819Y-88714285D01*
X146904819Y-87809523D02*
X146904819Y-87619047D01*
X146904819Y-87619047D02*
X146857200Y-87523809D01*
X146857200Y-87523809D02*
X146809580Y-87476190D01*
X146809580Y-87476190D02*
X146666723Y-87380952D01*
X146666723Y-87380952D02*
X146476247Y-87333333D01*
X146476247Y-87333333D02*
X146095295Y-87333333D01*
X146095295Y-87333333D02*
X146000057Y-87380952D01*
X146000057Y-87380952D02*
X145952438Y-87428571D01*
X145952438Y-87428571D02*
X145904819Y-87523809D01*
X145904819Y-87523809D02*
X145904819Y-87714285D01*
X145904819Y-87714285D02*
X145952438Y-87809523D01*
X145952438Y-87809523D02*
X146000057Y-87857142D01*
X146000057Y-87857142D02*
X146095295Y-87904761D01*
X146095295Y-87904761D02*
X146333390Y-87904761D01*
X146333390Y-87904761D02*
X146428628Y-87857142D01*
X146428628Y-87857142D02*
X146476247Y-87809523D01*
X146476247Y-87809523D02*
X146523866Y-87714285D01*
X146523866Y-87714285D02*
X146523866Y-87523809D01*
X146523866Y-87523809D02*
X146476247Y-87428571D01*
X146476247Y-87428571D02*
X146428628Y-87380952D01*
X146428628Y-87380952D02*
X146333390Y-87333333D01*
X103590475Y-94454819D02*
X103590475Y-93454819D01*
X103590475Y-93454819D02*
X103923808Y-94169104D01*
X103923808Y-94169104D02*
X104257141Y-93454819D01*
X104257141Y-93454819D02*
X104257141Y-94454819D01*
X105114284Y-94407200D02*
X105019046Y-94454819D01*
X105019046Y-94454819D02*
X104828570Y-94454819D01*
X104828570Y-94454819D02*
X104733332Y-94407200D01*
X104733332Y-94407200D02*
X104685713Y-94311961D01*
X104685713Y-94311961D02*
X104685713Y-93931009D01*
X104685713Y-93931009D02*
X104733332Y-93835771D01*
X104733332Y-93835771D02*
X104828570Y-93788152D01*
X104828570Y-93788152D02*
X105019046Y-93788152D01*
X105019046Y-93788152D02*
X105114284Y-93835771D01*
X105114284Y-93835771D02*
X105161903Y-93931009D01*
X105161903Y-93931009D02*
X105161903Y-94026247D01*
X105161903Y-94026247D02*
X104685713Y-94121485D01*
X106019046Y-94407200D02*
X105923808Y-94454819D01*
X105923808Y-94454819D02*
X105733332Y-94454819D01*
X105733332Y-94454819D02*
X105638094Y-94407200D01*
X105638094Y-94407200D02*
X105590475Y-94359580D01*
X105590475Y-94359580D02*
X105542856Y-94264342D01*
X105542856Y-94264342D02*
X105542856Y-93978628D01*
X105542856Y-93978628D02*
X105590475Y-93883390D01*
X105590475Y-93883390D02*
X105638094Y-93835771D01*
X105638094Y-93835771D02*
X105733332Y-93788152D01*
X105733332Y-93788152D02*
X105923808Y-93788152D01*
X105923808Y-93788152D02*
X106019046Y-93835771D01*
X106447618Y-94454819D02*
X106447618Y-93454819D01*
X106876189Y-94454819D02*
X106876189Y-93931009D01*
X106876189Y-93931009D02*
X106828570Y-93835771D01*
X106828570Y-93835771D02*
X106733332Y-93788152D01*
X106733332Y-93788152D02*
X106590475Y-93788152D01*
X106590475Y-93788152D02*
X106495237Y-93835771D01*
X106495237Y-93835771D02*
X106447618Y-93883390D01*
X107780951Y-94454819D02*
X107780951Y-93931009D01*
X107780951Y-93931009D02*
X107733332Y-93835771D01*
X107733332Y-93835771D02*
X107638094Y-93788152D01*
X107638094Y-93788152D02*
X107447618Y-93788152D01*
X107447618Y-93788152D02*
X107352380Y-93835771D01*
X107780951Y-94407200D02*
X107685713Y-94454819D01*
X107685713Y-94454819D02*
X107447618Y-94454819D01*
X107447618Y-94454819D02*
X107352380Y-94407200D01*
X107352380Y-94407200D02*
X107304761Y-94311961D01*
X107304761Y-94311961D02*
X107304761Y-94216723D01*
X107304761Y-94216723D02*
X107352380Y-94121485D01*
X107352380Y-94121485D02*
X107447618Y-94073866D01*
X107447618Y-94073866D02*
X107685713Y-94073866D01*
X107685713Y-94073866D02*
X107780951Y-94026247D01*
X108114285Y-93788152D02*
X108495237Y-93788152D01*
X108257142Y-93454819D02*
X108257142Y-94311961D01*
X108257142Y-94311961D02*
X108304761Y-94407200D01*
X108304761Y-94407200D02*
X108399999Y-94454819D01*
X108399999Y-94454819D02*
X108495237Y-94454819D01*
X108971428Y-94454819D02*
X108876190Y-94407200D01*
X108876190Y-94407200D02*
X108828571Y-94359580D01*
X108828571Y-94359580D02*
X108780952Y-94264342D01*
X108780952Y-94264342D02*
X108780952Y-93978628D01*
X108780952Y-93978628D02*
X108828571Y-93883390D01*
X108828571Y-93883390D02*
X108876190Y-93835771D01*
X108876190Y-93835771D02*
X108971428Y-93788152D01*
X108971428Y-93788152D02*
X109114285Y-93788152D01*
X109114285Y-93788152D02*
X109209523Y-93835771D01*
X109209523Y-93835771D02*
X109257142Y-93883390D01*
X109257142Y-93883390D02*
X109304761Y-93978628D01*
X109304761Y-93978628D02*
X109304761Y-94264342D01*
X109304761Y-94264342D02*
X109257142Y-94359580D01*
X109257142Y-94359580D02*
X109209523Y-94407200D01*
X109209523Y-94407200D02*
X109114285Y-94454819D01*
X109114285Y-94454819D02*
X108971428Y-94454819D01*
X109733333Y-94454819D02*
X109733333Y-93788152D01*
X109733333Y-93978628D02*
X109780952Y-93883390D01*
X109780952Y-93883390D02*
X109828571Y-93835771D01*
X109828571Y-93835771D02*
X109923809Y-93788152D01*
X109923809Y-93788152D02*
X110019047Y-93788152D01*
X110495238Y-94454819D02*
X110400000Y-94407200D01*
X110400000Y-94407200D02*
X110352381Y-94359580D01*
X110352381Y-94359580D02*
X110304762Y-94264342D01*
X110304762Y-94264342D02*
X110304762Y-93978628D01*
X110304762Y-93978628D02*
X110352381Y-93883390D01*
X110352381Y-93883390D02*
X110400000Y-93835771D01*
X110400000Y-93835771D02*
X110495238Y-93788152D01*
X110495238Y-93788152D02*
X110638095Y-93788152D01*
X110638095Y-93788152D02*
X110733333Y-93835771D01*
X110733333Y-93835771D02*
X110780952Y-93883390D01*
X110780952Y-93883390D02*
X110828571Y-93978628D01*
X110828571Y-93978628D02*
X110828571Y-94264342D01*
X110828571Y-94264342D02*
X110780952Y-94359580D01*
X110780952Y-94359580D02*
X110733333Y-94407200D01*
X110733333Y-94407200D02*
X110638095Y-94454819D01*
X110638095Y-94454819D02*
X110495238Y-94454819D01*
X111257143Y-93788152D02*
X111257143Y-94454819D01*
X111257143Y-93883390D02*
X111304762Y-93835771D01*
X111304762Y-93835771D02*
X111400000Y-93788152D01*
X111400000Y-93788152D02*
X111542857Y-93788152D01*
X111542857Y-93788152D02*
X111638095Y-93835771D01*
X111638095Y-93835771D02*
X111685714Y-93931009D01*
X111685714Y-93931009D02*
X111685714Y-94454819D01*
X112161905Y-94454819D02*
X112161905Y-93788152D01*
X112161905Y-93454819D02*
X112114286Y-93502438D01*
X112114286Y-93502438D02*
X112161905Y-93550057D01*
X112161905Y-93550057D02*
X112209524Y-93502438D01*
X112209524Y-93502438D02*
X112161905Y-93454819D01*
X112161905Y-93454819D02*
X112161905Y-93550057D01*
X113066666Y-94407200D02*
X112971428Y-94454819D01*
X112971428Y-94454819D02*
X112780952Y-94454819D01*
X112780952Y-94454819D02*
X112685714Y-94407200D01*
X112685714Y-94407200D02*
X112638095Y-94359580D01*
X112638095Y-94359580D02*
X112590476Y-94264342D01*
X112590476Y-94264342D02*
X112590476Y-93978628D01*
X112590476Y-93978628D02*
X112638095Y-93883390D01*
X112638095Y-93883390D02*
X112685714Y-93835771D01*
X112685714Y-93835771D02*
X112780952Y-93788152D01*
X112780952Y-93788152D02*
X112971428Y-93788152D01*
X112971428Y-93788152D02*
X113066666Y-93835771D01*
X113447619Y-94407200D02*
X113542857Y-94454819D01*
X113542857Y-94454819D02*
X113733333Y-94454819D01*
X113733333Y-94454819D02*
X113828571Y-94407200D01*
X113828571Y-94407200D02*
X113876190Y-94311961D01*
X113876190Y-94311961D02*
X113876190Y-94264342D01*
X113876190Y-94264342D02*
X113828571Y-94169104D01*
X113828571Y-94169104D02*
X113733333Y-94121485D01*
X113733333Y-94121485D02*
X113590476Y-94121485D01*
X113590476Y-94121485D02*
X113495238Y-94073866D01*
X113495238Y-94073866D02*
X113447619Y-93978628D01*
X113447619Y-93978628D02*
X113447619Y-93931009D01*
X113447619Y-93931009D02*
X113495238Y-93835771D01*
X113495238Y-93835771D02*
X113590476Y-93788152D01*
X113590476Y-93788152D02*
X113733333Y-93788152D01*
X113733333Y-93788152D02*
X113828571Y-93835771D01*
X115542857Y-94454819D02*
X115066667Y-94454819D01*
X115066667Y-94454819D02*
X115066667Y-93454819D01*
X116304762Y-94454819D02*
X116304762Y-93931009D01*
X116304762Y-93931009D02*
X116257143Y-93835771D01*
X116257143Y-93835771D02*
X116161905Y-93788152D01*
X116161905Y-93788152D02*
X115971429Y-93788152D01*
X115971429Y-93788152D02*
X115876191Y-93835771D01*
X116304762Y-94407200D02*
X116209524Y-94454819D01*
X116209524Y-94454819D02*
X115971429Y-94454819D01*
X115971429Y-94454819D02*
X115876191Y-94407200D01*
X115876191Y-94407200D02*
X115828572Y-94311961D01*
X115828572Y-94311961D02*
X115828572Y-94216723D01*
X115828572Y-94216723D02*
X115876191Y-94121485D01*
X115876191Y-94121485D02*
X115971429Y-94073866D01*
X115971429Y-94073866D02*
X116209524Y-94073866D01*
X116209524Y-94073866D02*
X116304762Y-94026247D01*
X116780953Y-94454819D02*
X116780953Y-93454819D01*
X116780953Y-93835771D02*
X116876191Y-93788152D01*
X116876191Y-93788152D02*
X117066667Y-93788152D01*
X117066667Y-93788152D02*
X117161905Y-93835771D01*
X117161905Y-93835771D02*
X117209524Y-93883390D01*
X117209524Y-93883390D02*
X117257143Y-93978628D01*
X117257143Y-93978628D02*
X117257143Y-94264342D01*
X117257143Y-94264342D02*
X117209524Y-94359580D01*
X117209524Y-94359580D02*
X117161905Y-94407200D01*
X117161905Y-94407200D02*
X117066667Y-94454819D01*
X117066667Y-94454819D02*
X116876191Y-94454819D01*
X116876191Y-94454819D02*
X116780953Y-94407200D01*
X103138095Y-93007200D02*
X103280952Y-93054819D01*
X103280952Y-93054819D02*
X103519047Y-93054819D01*
X103519047Y-93054819D02*
X103614285Y-93007200D01*
X103614285Y-93007200D02*
X103661904Y-92959580D01*
X103661904Y-92959580D02*
X103709523Y-92864342D01*
X103709523Y-92864342D02*
X103709523Y-92769104D01*
X103709523Y-92769104D02*
X103661904Y-92673866D01*
X103661904Y-92673866D02*
X103614285Y-92626247D01*
X103614285Y-92626247D02*
X103519047Y-92578628D01*
X103519047Y-92578628D02*
X103328571Y-92531009D01*
X103328571Y-92531009D02*
X103233333Y-92483390D01*
X103233333Y-92483390D02*
X103185714Y-92435771D01*
X103185714Y-92435771D02*
X103138095Y-92340533D01*
X103138095Y-92340533D02*
X103138095Y-92245295D01*
X103138095Y-92245295D02*
X103185714Y-92150057D01*
X103185714Y-92150057D02*
X103233333Y-92102438D01*
X103233333Y-92102438D02*
X103328571Y-92054819D01*
X103328571Y-92054819D02*
X103566666Y-92054819D01*
X103566666Y-92054819D02*
X103709523Y-92102438D01*
X104138095Y-93054819D02*
X104138095Y-92054819D01*
X104138095Y-92054819D02*
X104709523Y-93054819D01*
X104709523Y-93054819D02*
X104709523Y-92054819D01*
X105757142Y-92959580D02*
X105709523Y-93007200D01*
X105709523Y-93007200D02*
X105566666Y-93054819D01*
X105566666Y-93054819D02*
X105471428Y-93054819D01*
X105471428Y-93054819D02*
X105328571Y-93007200D01*
X105328571Y-93007200D02*
X105233333Y-92911961D01*
X105233333Y-92911961D02*
X105185714Y-92816723D01*
X105185714Y-92816723D02*
X105138095Y-92626247D01*
X105138095Y-92626247D02*
X105138095Y-92483390D01*
X105138095Y-92483390D02*
X105185714Y-92292914D01*
X105185714Y-92292914D02*
X105233333Y-92197676D01*
X105233333Y-92197676D02*
X105328571Y-92102438D01*
X105328571Y-92102438D02*
X105471428Y-92054819D01*
X105471428Y-92054819D02*
X105566666Y-92054819D01*
X105566666Y-92054819D02*
X105709523Y-92102438D01*
X105709523Y-92102438D02*
X105757142Y-92150057D01*
X106042857Y-92054819D02*
X106614285Y-92054819D01*
X106328571Y-93054819D02*
X106328571Y-92054819D01*
X107709524Y-93054819D02*
X107709524Y-92054819D01*
X107709524Y-92054819D02*
X108280952Y-93054819D01*
X108280952Y-93054819D02*
X108280952Y-92054819D01*
X109185714Y-93054819D02*
X109185714Y-92531009D01*
X109185714Y-92531009D02*
X109138095Y-92435771D01*
X109138095Y-92435771D02*
X109042857Y-92388152D01*
X109042857Y-92388152D02*
X108852381Y-92388152D01*
X108852381Y-92388152D02*
X108757143Y-92435771D01*
X109185714Y-93007200D02*
X109090476Y-93054819D01*
X109090476Y-93054819D02*
X108852381Y-93054819D01*
X108852381Y-93054819D02*
X108757143Y-93007200D01*
X108757143Y-93007200D02*
X108709524Y-92911961D01*
X108709524Y-92911961D02*
X108709524Y-92816723D01*
X108709524Y-92816723D02*
X108757143Y-92721485D01*
X108757143Y-92721485D02*
X108852381Y-92673866D01*
X108852381Y-92673866D02*
X109090476Y-92673866D01*
X109090476Y-92673866D02*
X109185714Y-92626247D01*
X109519048Y-92388152D02*
X109900000Y-92388152D01*
X109661905Y-92054819D02*
X109661905Y-92911961D01*
X109661905Y-92911961D02*
X109709524Y-93007200D01*
X109709524Y-93007200D02*
X109804762Y-93054819D01*
X109804762Y-93054819D02*
X109900000Y-93054819D01*
X110376191Y-93054819D02*
X110280953Y-93007200D01*
X110280953Y-93007200D02*
X110233334Y-92959580D01*
X110233334Y-92959580D02*
X110185715Y-92864342D01*
X110185715Y-92864342D02*
X110185715Y-92578628D01*
X110185715Y-92578628D02*
X110233334Y-92483390D01*
X110233334Y-92483390D02*
X110280953Y-92435771D01*
X110280953Y-92435771D02*
X110376191Y-92388152D01*
X110376191Y-92388152D02*
X110519048Y-92388152D01*
X110519048Y-92388152D02*
X110614286Y-92435771D01*
X110614286Y-92435771D02*
X110661905Y-92483390D01*
X110661905Y-92483390D02*
X110709524Y-92578628D01*
X110709524Y-92578628D02*
X110709524Y-92864342D01*
X110709524Y-92864342D02*
X110661905Y-92959580D01*
X110661905Y-92959580D02*
X110614286Y-93007200D01*
X110614286Y-93007200D02*
X110519048Y-93054819D01*
X110519048Y-93054819D02*
X110376191Y-93054819D01*
X111138096Y-93054819D02*
X111138096Y-92388152D01*
X111138096Y-92578628D02*
X111185715Y-92483390D01*
X111185715Y-92483390D02*
X111233334Y-92435771D01*
X111233334Y-92435771D02*
X111328572Y-92388152D01*
X111328572Y-92388152D02*
X111423810Y-92388152D01*
X111757144Y-93054819D02*
X111757144Y-92388152D01*
X111757144Y-92054819D02*
X111709525Y-92102438D01*
X111709525Y-92102438D02*
X111757144Y-92150057D01*
X111757144Y-92150057D02*
X111804763Y-92102438D01*
X111804763Y-92102438D02*
X111757144Y-92054819D01*
X111757144Y-92054819D02*
X111757144Y-92150057D01*
X112804762Y-92959580D02*
X112757143Y-93007200D01*
X112757143Y-93007200D02*
X112614286Y-93054819D01*
X112614286Y-93054819D02*
X112519048Y-93054819D01*
X112519048Y-93054819D02*
X112376191Y-93007200D01*
X112376191Y-93007200D02*
X112280953Y-92911961D01*
X112280953Y-92911961D02*
X112233334Y-92816723D01*
X112233334Y-92816723D02*
X112185715Y-92626247D01*
X112185715Y-92626247D02*
X112185715Y-92483390D01*
X112185715Y-92483390D02*
X112233334Y-92292914D01*
X112233334Y-92292914D02*
X112280953Y-92197676D01*
X112280953Y-92197676D02*
X112376191Y-92102438D01*
X112376191Y-92102438D02*
X112519048Y-92054819D01*
X112519048Y-92054819D02*
X112614286Y-92054819D01*
X112614286Y-92054819D02*
X112757143Y-92102438D01*
X112757143Y-92102438D02*
X112804762Y-92150057D01*
X113661905Y-93054819D02*
X113661905Y-92531009D01*
X113661905Y-92531009D02*
X113614286Y-92435771D01*
X113614286Y-92435771D02*
X113519048Y-92388152D01*
X113519048Y-92388152D02*
X113328572Y-92388152D01*
X113328572Y-92388152D02*
X113233334Y-92435771D01*
X113661905Y-93007200D02*
X113566667Y-93054819D01*
X113566667Y-93054819D02*
X113328572Y-93054819D01*
X113328572Y-93054819D02*
X113233334Y-93007200D01*
X113233334Y-93007200D02*
X113185715Y-92911961D01*
X113185715Y-92911961D02*
X113185715Y-92816723D01*
X113185715Y-92816723D02*
X113233334Y-92721485D01*
X113233334Y-92721485D02*
X113328572Y-92673866D01*
X113328572Y-92673866D02*
X113566667Y-92673866D01*
X113566667Y-92673866D02*
X113661905Y-92626247D01*
X114138096Y-93054819D02*
X114138096Y-92388152D01*
X114138096Y-92483390D02*
X114185715Y-92435771D01*
X114185715Y-92435771D02*
X114280953Y-92388152D01*
X114280953Y-92388152D02*
X114423810Y-92388152D01*
X114423810Y-92388152D02*
X114519048Y-92435771D01*
X114519048Y-92435771D02*
X114566667Y-92531009D01*
X114566667Y-92531009D02*
X114566667Y-93054819D01*
X114566667Y-92531009D02*
X114614286Y-92435771D01*
X114614286Y-92435771D02*
X114709524Y-92388152D01*
X114709524Y-92388152D02*
X114852381Y-92388152D01*
X114852381Y-92388152D02*
X114947620Y-92435771D01*
X114947620Y-92435771D02*
X114995239Y-92531009D01*
X114995239Y-92531009D02*
X114995239Y-93054819D01*
X115471429Y-92388152D02*
X115471429Y-93388152D01*
X115471429Y-92435771D02*
X115566667Y-92388152D01*
X115566667Y-92388152D02*
X115757143Y-92388152D01*
X115757143Y-92388152D02*
X115852381Y-92435771D01*
X115852381Y-92435771D02*
X115900000Y-92483390D01*
X115900000Y-92483390D02*
X115947619Y-92578628D01*
X115947619Y-92578628D02*
X115947619Y-92864342D01*
X115947619Y-92864342D02*
X115900000Y-92959580D01*
X115900000Y-92959580D02*
X115852381Y-93007200D01*
X115852381Y-93007200D02*
X115757143Y-93054819D01*
X115757143Y-93054819D02*
X115566667Y-93054819D01*
X115566667Y-93054819D02*
X115471429Y-93007200D01*
X116804762Y-92388152D02*
X116804762Y-93054819D01*
X116376191Y-92388152D02*
X116376191Y-92911961D01*
X116376191Y-92911961D02*
X116423810Y-93007200D01*
X116423810Y-93007200D02*
X116519048Y-93054819D01*
X116519048Y-93054819D02*
X116661905Y-93054819D01*
X116661905Y-93054819D02*
X116757143Y-93007200D01*
X116757143Y-93007200D02*
X116804762Y-92959580D01*
X117233334Y-93007200D02*
X117328572Y-93054819D01*
X117328572Y-93054819D02*
X117519048Y-93054819D01*
X117519048Y-93054819D02*
X117614286Y-93007200D01*
X117614286Y-93007200D02*
X117661905Y-92911961D01*
X117661905Y-92911961D02*
X117661905Y-92864342D01*
X117661905Y-92864342D02*
X117614286Y-92769104D01*
X117614286Y-92769104D02*
X117519048Y-92721485D01*
X117519048Y-92721485D02*
X117376191Y-92721485D01*
X117376191Y-92721485D02*
X117280953Y-92673866D01*
X117280953Y-92673866D02*
X117233334Y-92578628D01*
X117233334Y-92578628D02*
X117233334Y-92531009D01*
X117233334Y-92531009D02*
X117280953Y-92435771D01*
X117280953Y-92435771D02*
X117376191Y-92388152D01*
X117376191Y-92388152D02*
X117519048Y-92388152D01*
X117519048Y-92388152D02*
X117614286Y-92435771D01*
X194974405Y-111479819D02*
X194974405Y-110479819D01*
X194974405Y-110479819D02*
X195212500Y-110479819D01*
X195212500Y-110479819D02*
X195355357Y-110527438D01*
X195355357Y-110527438D02*
X195450595Y-110622676D01*
X195450595Y-110622676D02*
X195498214Y-110717914D01*
X195498214Y-110717914D02*
X195545833Y-110908390D01*
X195545833Y-110908390D02*
X195545833Y-111051247D01*
X195545833Y-111051247D02*
X195498214Y-111241723D01*
X195498214Y-111241723D02*
X195450595Y-111336961D01*
X195450595Y-111336961D02*
X195355357Y-111432200D01*
X195355357Y-111432200D02*
X195212500Y-111479819D01*
X195212500Y-111479819D02*
X194974405Y-111479819D01*
X195926786Y-110575057D02*
X195974405Y-110527438D01*
X195974405Y-110527438D02*
X196069643Y-110479819D01*
X196069643Y-110479819D02*
X196307738Y-110479819D01*
X196307738Y-110479819D02*
X196402976Y-110527438D01*
X196402976Y-110527438D02*
X196450595Y-110575057D01*
X196450595Y-110575057D02*
X196498214Y-110670295D01*
X196498214Y-110670295D02*
X196498214Y-110765533D01*
X196498214Y-110765533D02*
X196450595Y-110908390D01*
X196450595Y-110908390D02*
X195879167Y-111479819D01*
X195879167Y-111479819D02*
X196498214Y-111479819D01*
X194974405Y-119979819D02*
X194974405Y-118979819D01*
X194974405Y-118979819D02*
X195212500Y-118979819D01*
X195212500Y-118979819D02*
X195355357Y-119027438D01*
X195355357Y-119027438D02*
X195450595Y-119122676D01*
X195450595Y-119122676D02*
X195498214Y-119217914D01*
X195498214Y-119217914D02*
X195545833Y-119408390D01*
X195545833Y-119408390D02*
X195545833Y-119551247D01*
X195545833Y-119551247D02*
X195498214Y-119741723D01*
X195498214Y-119741723D02*
X195450595Y-119836961D01*
X195450595Y-119836961D02*
X195355357Y-119932200D01*
X195355357Y-119932200D02*
X195212500Y-119979819D01*
X195212500Y-119979819D02*
X194974405Y-119979819D01*
X196498214Y-119979819D02*
X195926786Y-119979819D01*
X196212500Y-119979819D02*
X196212500Y-118979819D01*
X196212500Y-118979819D02*
X196117262Y-119122676D01*
X196117262Y-119122676D02*
X196022024Y-119217914D01*
X196022024Y-119217914D02*
X195926786Y-119265533D01*
X195545833Y-116909819D02*
X195212500Y-116433628D01*
X194974405Y-116909819D02*
X194974405Y-115909819D01*
X194974405Y-115909819D02*
X195355357Y-115909819D01*
X195355357Y-115909819D02*
X195450595Y-115957438D01*
X195450595Y-115957438D02*
X195498214Y-116005057D01*
X195498214Y-116005057D02*
X195545833Y-116100295D01*
X195545833Y-116100295D02*
X195545833Y-116243152D01*
X195545833Y-116243152D02*
X195498214Y-116338390D01*
X195498214Y-116338390D02*
X195450595Y-116386009D01*
X195450595Y-116386009D02*
X195355357Y-116433628D01*
X195355357Y-116433628D02*
X194974405Y-116433628D01*
X196498214Y-116909819D02*
X195926786Y-116909819D01*
X196212500Y-116909819D02*
X196212500Y-115909819D01*
X196212500Y-115909819D02*
X196117262Y-116052676D01*
X196117262Y-116052676D02*
X196022024Y-116147914D01*
X196022024Y-116147914D02*
X195926786Y-116195533D01*
X195550833Y-99909819D02*
X195217500Y-99433628D01*
X194979405Y-99909819D02*
X194979405Y-98909819D01*
X194979405Y-98909819D02*
X195360357Y-98909819D01*
X195360357Y-98909819D02*
X195455595Y-98957438D01*
X195455595Y-98957438D02*
X195503214Y-99005057D01*
X195503214Y-99005057D02*
X195550833Y-99100295D01*
X195550833Y-99100295D02*
X195550833Y-99243152D01*
X195550833Y-99243152D02*
X195503214Y-99338390D01*
X195503214Y-99338390D02*
X195455595Y-99386009D01*
X195455595Y-99386009D02*
X195360357Y-99433628D01*
X195360357Y-99433628D02*
X194979405Y-99433628D01*
X195884167Y-98909819D02*
X196503214Y-98909819D01*
X196503214Y-98909819D02*
X196169881Y-99290771D01*
X196169881Y-99290771D02*
X196312738Y-99290771D01*
X196312738Y-99290771D02*
X196407976Y-99338390D01*
X196407976Y-99338390D02*
X196455595Y-99386009D01*
X196455595Y-99386009D02*
X196503214Y-99481247D01*
X196503214Y-99481247D02*
X196503214Y-99719342D01*
X196503214Y-99719342D02*
X196455595Y-99814580D01*
X196455595Y-99814580D02*
X196407976Y-99862200D01*
X196407976Y-99862200D02*
X196312738Y-99909819D01*
X196312738Y-99909819D02*
X196027024Y-99909819D01*
X196027024Y-99909819D02*
X195931786Y-99862200D01*
X195931786Y-99862200D02*
X195884167Y-99814580D01*
X154404819Y-88809523D02*
X155119104Y-88809523D01*
X155119104Y-88809523D02*
X155261961Y-88857142D01*
X155261961Y-88857142D02*
X155357200Y-88952380D01*
X155357200Y-88952380D02*
X155404819Y-89095237D01*
X155404819Y-89095237D02*
X155404819Y-89190475D01*
X155404819Y-87809523D02*
X155404819Y-88380951D01*
X155404819Y-88095237D02*
X154404819Y-88095237D01*
X154404819Y-88095237D02*
X154547676Y-88190475D01*
X154547676Y-88190475D02*
X154642914Y-88285713D01*
X154642914Y-88285713D02*
X154690533Y-88380951D01*
X154404819Y-87190475D02*
X154404819Y-87095237D01*
X154404819Y-87095237D02*
X154452438Y-86999999D01*
X154452438Y-86999999D02*
X154500057Y-86952380D01*
X154500057Y-86952380D02*
X154595295Y-86904761D01*
X154595295Y-86904761D02*
X154785771Y-86857142D01*
X154785771Y-86857142D02*
X155023866Y-86857142D01*
X155023866Y-86857142D02*
X155214342Y-86904761D01*
X155214342Y-86904761D02*
X155309580Y-86952380D01*
X155309580Y-86952380D02*
X155357200Y-86999999D01*
X155357200Y-86999999D02*
X155404819Y-87095237D01*
X155404819Y-87095237D02*
X155404819Y-87190475D01*
X155404819Y-87190475D02*
X155357200Y-87285713D01*
X155357200Y-87285713D02*
X155309580Y-87333332D01*
X155309580Y-87333332D02*
X155214342Y-87380951D01*
X155214342Y-87380951D02*
X155023866Y-87428570D01*
X155023866Y-87428570D02*
X154785771Y-87428570D01*
X154785771Y-87428570D02*
X154595295Y-87380951D01*
X154595295Y-87380951D02*
X154500057Y-87333332D01*
X154500057Y-87333332D02*
X154452438Y-87285713D01*
X154452438Y-87285713D02*
X154404819Y-87190475D01*
X194974405Y-94479819D02*
X194974405Y-93479819D01*
X194974405Y-93479819D02*
X195212500Y-93479819D01*
X195212500Y-93479819D02*
X195355357Y-93527438D01*
X195355357Y-93527438D02*
X195450595Y-93622676D01*
X195450595Y-93622676D02*
X195498214Y-93717914D01*
X195498214Y-93717914D02*
X195545833Y-93908390D01*
X195545833Y-93908390D02*
X195545833Y-94051247D01*
X195545833Y-94051247D02*
X195498214Y-94241723D01*
X195498214Y-94241723D02*
X195450595Y-94336961D01*
X195450595Y-94336961D02*
X195355357Y-94432200D01*
X195355357Y-94432200D02*
X195212500Y-94479819D01*
X195212500Y-94479819D02*
X194974405Y-94479819D01*
X196402976Y-93813152D02*
X196402976Y-94479819D01*
X196164881Y-93432200D02*
X195926786Y-94146485D01*
X195926786Y-94146485D02*
X196545833Y-94146485D01*
X175516667Y-147717200D02*
X175659524Y-147764819D01*
X175659524Y-147764819D02*
X175897619Y-147764819D01*
X175897619Y-147764819D02*
X175992857Y-147717200D01*
X175992857Y-147717200D02*
X176040476Y-147669580D01*
X176040476Y-147669580D02*
X176088095Y-147574342D01*
X176088095Y-147574342D02*
X176088095Y-147479104D01*
X176088095Y-147479104D02*
X176040476Y-147383866D01*
X176040476Y-147383866D02*
X175992857Y-147336247D01*
X175992857Y-147336247D02*
X175897619Y-147288628D01*
X175897619Y-147288628D02*
X175707143Y-147241009D01*
X175707143Y-147241009D02*
X175611905Y-147193390D01*
X175611905Y-147193390D02*
X175564286Y-147145771D01*
X175564286Y-147145771D02*
X175516667Y-147050533D01*
X175516667Y-147050533D02*
X175516667Y-146955295D01*
X175516667Y-146955295D02*
X175564286Y-146860057D01*
X175564286Y-146860057D02*
X175611905Y-146812438D01*
X175611905Y-146812438D02*
X175707143Y-146764819D01*
X175707143Y-146764819D02*
X175945238Y-146764819D01*
X175945238Y-146764819D02*
X176088095Y-146812438D01*
X176421429Y-146764819D02*
X176659524Y-147764819D01*
X176659524Y-147764819D02*
X176850000Y-147050533D01*
X176850000Y-147050533D02*
X177040476Y-147764819D01*
X177040476Y-147764819D02*
X177278572Y-146764819D01*
X178135714Y-146764819D02*
X177659524Y-146764819D01*
X177659524Y-146764819D02*
X177611905Y-147241009D01*
X177611905Y-147241009D02*
X177659524Y-147193390D01*
X177659524Y-147193390D02*
X177754762Y-147145771D01*
X177754762Y-147145771D02*
X177992857Y-147145771D01*
X177992857Y-147145771D02*
X178088095Y-147193390D01*
X178088095Y-147193390D02*
X178135714Y-147241009D01*
X178135714Y-147241009D02*
X178183333Y-147336247D01*
X178183333Y-147336247D02*
X178183333Y-147574342D01*
X178183333Y-147574342D02*
X178135714Y-147669580D01*
X178135714Y-147669580D02*
X178088095Y-147717200D01*
X178088095Y-147717200D02*
X177992857Y-147764819D01*
X177992857Y-147764819D02*
X177754762Y-147764819D01*
X177754762Y-147764819D02*
X177659524Y-147717200D01*
X177659524Y-147717200D02*
X177611905Y-147669580D01*
X110097200Y-146103332D02*
X110144819Y-145960475D01*
X110144819Y-145960475D02*
X110144819Y-145722380D01*
X110144819Y-145722380D02*
X110097200Y-145627142D01*
X110097200Y-145627142D02*
X110049580Y-145579523D01*
X110049580Y-145579523D02*
X109954342Y-145531904D01*
X109954342Y-145531904D02*
X109859104Y-145531904D01*
X109859104Y-145531904D02*
X109763866Y-145579523D01*
X109763866Y-145579523D02*
X109716247Y-145627142D01*
X109716247Y-145627142D02*
X109668628Y-145722380D01*
X109668628Y-145722380D02*
X109621009Y-145912856D01*
X109621009Y-145912856D02*
X109573390Y-146008094D01*
X109573390Y-146008094D02*
X109525771Y-146055713D01*
X109525771Y-146055713D02*
X109430533Y-146103332D01*
X109430533Y-146103332D02*
X109335295Y-146103332D01*
X109335295Y-146103332D02*
X109240057Y-146055713D01*
X109240057Y-146055713D02*
X109192438Y-146008094D01*
X109192438Y-146008094D02*
X109144819Y-145912856D01*
X109144819Y-145912856D02*
X109144819Y-145674761D01*
X109144819Y-145674761D02*
X109192438Y-145531904D01*
X109144819Y-145198570D02*
X110144819Y-144960475D01*
X110144819Y-144960475D02*
X109430533Y-144769999D01*
X109430533Y-144769999D02*
X110144819Y-144579523D01*
X110144819Y-144579523D02*
X109144819Y-144341428D01*
X110144819Y-143436666D02*
X110144819Y-144008094D01*
X110144819Y-143722380D02*
X109144819Y-143722380D01*
X109144819Y-143722380D02*
X109287676Y-143817618D01*
X109287676Y-143817618D02*
X109382914Y-143912856D01*
X109382914Y-143912856D02*
X109430533Y-144008094D01*
X155788095Y-101679819D02*
X155788095Y-102489342D01*
X155788095Y-102489342D02*
X155835714Y-102584580D01*
X155835714Y-102584580D02*
X155883333Y-102632200D01*
X155883333Y-102632200D02*
X155978571Y-102679819D01*
X155978571Y-102679819D02*
X156169047Y-102679819D01*
X156169047Y-102679819D02*
X156264285Y-102632200D01*
X156264285Y-102632200D02*
X156311904Y-102584580D01*
X156311904Y-102584580D02*
X156359523Y-102489342D01*
X156359523Y-102489342D02*
X156359523Y-101679819D01*
X156788095Y-101775057D02*
X156835714Y-101727438D01*
X156835714Y-101727438D02*
X156930952Y-101679819D01*
X156930952Y-101679819D02*
X157169047Y-101679819D01*
X157169047Y-101679819D02*
X157264285Y-101727438D01*
X157264285Y-101727438D02*
X157311904Y-101775057D01*
X157311904Y-101775057D02*
X157359523Y-101870295D01*
X157359523Y-101870295D02*
X157359523Y-101965533D01*
X157359523Y-101965533D02*
X157311904Y-102108390D01*
X157311904Y-102108390D02*
X156740476Y-102679819D01*
X156740476Y-102679819D02*
X157359523Y-102679819D01*
X106284819Y-105059523D02*
X106999104Y-105059523D01*
X106999104Y-105059523D02*
X107141961Y-105107142D01*
X107141961Y-105107142D02*
X107237200Y-105202380D01*
X107237200Y-105202380D02*
X107284819Y-105345237D01*
X107284819Y-105345237D02*
X107284819Y-105440475D01*
X107284819Y-104059523D02*
X107284819Y-104630951D01*
X107284819Y-104345237D02*
X106284819Y-104345237D01*
X106284819Y-104345237D02*
X106427676Y-104440475D01*
X106427676Y-104440475D02*
X106522914Y-104535713D01*
X106522914Y-104535713D02*
X106570533Y-104630951D01*
X106380057Y-103678570D02*
X106332438Y-103630951D01*
X106332438Y-103630951D02*
X106284819Y-103535713D01*
X106284819Y-103535713D02*
X106284819Y-103297618D01*
X106284819Y-103297618D02*
X106332438Y-103202380D01*
X106332438Y-103202380D02*
X106380057Y-103154761D01*
X106380057Y-103154761D02*
X106475295Y-103107142D01*
X106475295Y-103107142D02*
X106570533Y-103107142D01*
X106570533Y-103107142D02*
X106713390Y-103154761D01*
X106713390Y-103154761D02*
X107284819Y-103726189D01*
X107284819Y-103726189D02*
X107284819Y-103107142D01*
X175516667Y-132717200D02*
X175659524Y-132764819D01*
X175659524Y-132764819D02*
X175897619Y-132764819D01*
X175897619Y-132764819D02*
X175992857Y-132717200D01*
X175992857Y-132717200D02*
X176040476Y-132669580D01*
X176040476Y-132669580D02*
X176088095Y-132574342D01*
X176088095Y-132574342D02*
X176088095Y-132479104D01*
X176088095Y-132479104D02*
X176040476Y-132383866D01*
X176040476Y-132383866D02*
X175992857Y-132336247D01*
X175992857Y-132336247D02*
X175897619Y-132288628D01*
X175897619Y-132288628D02*
X175707143Y-132241009D01*
X175707143Y-132241009D02*
X175611905Y-132193390D01*
X175611905Y-132193390D02*
X175564286Y-132145771D01*
X175564286Y-132145771D02*
X175516667Y-132050533D01*
X175516667Y-132050533D02*
X175516667Y-131955295D01*
X175516667Y-131955295D02*
X175564286Y-131860057D01*
X175564286Y-131860057D02*
X175611905Y-131812438D01*
X175611905Y-131812438D02*
X175707143Y-131764819D01*
X175707143Y-131764819D02*
X175945238Y-131764819D01*
X175945238Y-131764819D02*
X176088095Y-131812438D01*
X176421429Y-131764819D02*
X176659524Y-132764819D01*
X176659524Y-132764819D02*
X176850000Y-132050533D01*
X176850000Y-132050533D02*
X177040476Y-132764819D01*
X177040476Y-132764819D02*
X177278572Y-131764819D01*
X177564286Y-131764819D02*
X178183333Y-131764819D01*
X178183333Y-131764819D02*
X177850000Y-132145771D01*
X177850000Y-132145771D02*
X177992857Y-132145771D01*
X177992857Y-132145771D02*
X178088095Y-132193390D01*
X178088095Y-132193390D02*
X178135714Y-132241009D01*
X178135714Y-132241009D02*
X178183333Y-132336247D01*
X178183333Y-132336247D02*
X178183333Y-132574342D01*
X178183333Y-132574342D02*
X178135714Y-132669580D01*
X178135714Y-132669580D02*
X178088095Y-132717200D01*
X178088095Y-132717200D02*
X177992857Y-132764819D01*
X177992857Y-132764819D02*
X177707143Y-132764819D01*
X177707143Y-132764819D02*
X177611905Y-132717200D01*
X177611905Y-132717200D02*
X177564286Y-132669580D01*
X159284819Y-121559523D02*
X159999104Y-121559523D01*
X159999104Y-121559523D02*
X160141961Y-121607142D01*
X160141961Y-121607142D02*
X160237200Y-121702380D01*
X160237200Y-121702380D02*
X160284819Y-121845237D01*
X160284819Y-121845237D02*
X160284819Y-121940475D01*
X160284819Y-120559523D02*
X160284819Y-121130951D01*
X160284819Y-120845237D02*
X159284819Y-120845237D01*
X159284819Y-120845237D02*
X159427676Y-120940475D01*
X159427676Y-120940475D02*
X159522914Y-121035713D01*
X159522914Y-121035713D02*
X159570533Y-121130951D01*
X159618152Y-119702380D02*
X160284819Y-119702380D01*
X159237200Y-119940475D02*
X159951485Y-120178570D01*
X159951485Y-120178570D02*
X159951485Y-119559523D01*
X129004819Y-88333333D02*
X129719104Y-88333333D01*
X129719104Y-88333333D02*
X129861961Y-88380952D01*
X129861961Y-88380952D02*
X129957200Y-88476190D01*
X129957200Y-88476190D02*
X130004819Y-88619047D01*
X130004819Y-88619047D02*
X130004819Y-88714285D01*
X129004819Y-87952380D02*
X129004819Y-87285714D01*
X129004819Y-87285714D02*
X130004819Y-87714285D01*
X181454819Y-107083333D02*
X182169104Y-107083333D01*
X182169104Y-107083333D02*
X182311961Y-107130952D01*
X182311961Y-107130952D02*
X182407200Y-107226190D01*
X182407200Y-107226190D02*
X182454819Y-107369047D01*
X182454819Y-107369047D02*
X182454819Y-107464285D01*
X181788152Y-106178571D02*
X182454819Y-106178571D01*
X181407200Y-106416666D02*
X182121485Y-106654761D01*
X182121485Y-106654761D02*
X182121485Y-106035714D01*
X194974405Y-102979819D02*
X194974405Y-101979819D01*
X194974405Y-101979819D02*
X195212500Y-101979819D01*
X195212500Y-101979819D02*
X195355357Y-102027438D01*
X195355357Y-102027438D02*
X195450595Y-102122676D01*
X195450595Y-102122676D02*
X195498214Y-102217914D01*
X195498214Y-102217914D02*
X195545833Y-102408390D01*
X195545833Y-102408390D02*
X195545833Y-102551247D01*
X195545833Y-102551247D02*
X195498214Y-102741723D01*
X195498214Y-102741723D02*
X195450595Y-102836961D01*
X195450595Y-102836961D02*
X195355357Y-102932200D01*
X195355357Y-102932200D02*
X195212500Y-102979819D01*
X195212500Y-102979819D02*
X194974405Y-102979819D01*
X195879167Y-101979819D02*
X196498214Y-101979819D01*
X196498214Y-101979819D02*
X196164881Y-102360771D01*
X196164881Y-102360771D02*
X196307738Y-102360771D01*
X196307738Y-102360771D02*
X196402976Y-102408390D01*
X196402976Y-102408390D02*
X196450595Y-102456009D01*
X196450595Y-102456009D02*
X196498214Y-102551247D01*
X196498214Y-102551247D02*
X196498214Y-102789342D01*
X196498214Y-102789342D02*
X196450595Y-102884580D01*
X196450595Y-102884580D02*
X196402976Y-102932200D01*
X196402976Y-102932200D02*
X196307738Y-102979819D01*
X196307738Y-102979819D02*
X196022024Y-102979819D01*
X196022024Y-102979819D02*
X195926786Y-102932200D01*
X195926786Y-102932200D02*
X195879167Y-102884580D01*
X187940476Y-102404819D02*
X187940476Y-103119104D01*
X187940476Y-103119104D02*
X187892857Y-103261961D01*
X187892857Y-103261961D02*
X187797619Y-103357200D01*
X187797619Y-103357200D02*
X187654762Y-103404819D01*
X187654762Y-103404819D02*
X187559524Y-103404819D01*
X188940476Y-103404819D02*
X188369048Y-103404819D01*
X188654762Y-103404819D02*
X188654762Y-102404819D01*
X188654762Y-102404819D02*
X188559524Y-102547676D01*
X188559524Y-102547676D02*
X188464286Y-102642914D01*
X188464286Y-102642914D02*
X188369048Y-102690533D01*
X189797619Y-102404819D02*
X189607143Y-102404819D01*
X189607143Y-102404819D02*
X189511905Y-102452438D01*
X189511905Y-102452438D02*
X189464286Y-102500057D01*
X189464286Y-102500057D02*
X189369048Y-102642914D01*
X189369048Y-102642914D02*
X189321429Y-102833390D01*
X189321429Y-102833390D02*
X189321429Y-103214342D01*
X189321429Y-103214342D02*
X189369048Y-103309580D01*
X189369048Y-103309580D02*
X189416667Y-103357200D01*
X189416667Y-103357200D02*
X189511905Y-103404819D01*
X189511905Y-103404819D02*
X189702381Y-103404819D01*
X189702381Y-103404819D02*
X189797619Y-103357200D01*
X189797619Y-103357200D02*
X189845238Y-103309580D01*
X189845238Y-103309580D02*
X189892857Y-103214342D01*
X189892857Y-103214342D02*
X189892857Y-102976247D01*
X189892857Y-102976247D02*
X189845238Y-102881009D01*
X189845238Y-102881009D02*
X189797619Y-102833390D01*
X189797619Y-102833390D02*
X189702381Y-102785771D01*
X189702381Y-102785771D02*
X189511905Y-102785771D01*
X189511905Y-102785771D02*
X189416667Y-102833390D01*
X189416667Y-102833390D02*
X189369048Y-102881009D01*
X189369048Y-102881009D02*
X189321429Y-102976247D01*
X162904819Y-88809523D02*
X163619104Y-88809523D01*
X163619104Y-88809523D02*
X163761961Y-88857142D01*
X163761961Y-88857142D02*
X163857200Y-88952380D01*
X163857200Y-88952380D02*
X163904819Y-89095237D01*
X163904819Y-89095237D02*
X163904819Y-89190475D01*
X163904819Y-87809523D02*
X163904819Y-88380951D01*
X163904819Y-88095237D02*
X162904819Y-88095237D01*
X162904819Y-88095237D02*
X163047676Y-88190475D01*
X163047676Y-88190475D02*
X163142914Y-88285713D01*
X163142914Y-88285713D02*
X163190533Y-88380951D01*
X163904819Y-86857142D02*
X163904819Y-87428570D01*
X163904819Y-87142856D02*
X162904819Y-87142856D01*
X162904819Y-87142856D02*
X163047676Y-87238094D01*
X163047676Y-87238094D02*
X163142914Y-87333332D01*
X163142914Y-87333332D02*
X163190533Y-87428570D01*
X137404819Y-88333333D02*
X138119104Y-88333333D01*
X138119104Y-88333333D02*
X138261961Y-88380952D01*
X138261961Y-88380952D02*
X138357200Y-88476190D01*
X138357200Y-88476190D02*
X138404819Y-88619047D01*
X138404819Y-88619047D02*
X138404819Y-88714285D01*
X137833390Y-87714285D02*
X137785771Y-87809523D01*
X137785771Y-87809523D02*
X137738152Y-87857142D01*
X137738152Y-87857142D02*
X137642914Y-87904761D01*
X137642914Y-87904761D02*
X137595295Y-87904761D01*
X137595295Y-87904761D02*
X137500057Y-87857142D01*
X137500057Y-87857142D02*
X137452438Y-87809523D01*
X137452438Y-87809523D02*
X137404819Y-87714285D01*
X137404819Y-87714285D02*
X137404819Y-87523809D01*
X137404819Y-87523809D02*
X137452438Y-87428571D01*
X137452438Y-87428571D02*
X137500057Y-87380952D01*
X137500057Y-87380952D02*
X137595295Y-87333333D01*
X137595295Y-87333333D02*
X137642914Y-87333333D01*
X137642914Y-87333333D02*
X137738152Y-87380952D01*
X137738152Y-87380952D02*
X137785771Y-87428571D01*
X137785771Y-87428571D02*
X137833390Y-87523809D01*
X137833390Y-87523809D02*
X137833390Y-87714285D01*
X137833390Y-87714285D02*
X137881009Y-87809523D01*
X137881009Y-87809523D02*
X137928628Y-87857142D01*
X137928628Y-87857142D02*
X138023866Y-87904761D01*
X138023866Y-87904761D02*
X138214342Y-87904761D01*
X138214342Y-87904761D02*
X138309580Y-87857142D01*
X138309580Y-87857142D02*
X138357200Y-87809523D01*
X138357200Y-87809523D02*
X138404819Y-87714285D01*
X138404819Y-87714285D02*
X138404819Y-87523809D01*
X138404819Y-87523809D02*
X138357200Y-87428571D01*
X138357200Y-87428571D02*
X138309580Y-87380952D01*
X138309580Y-87380952D02*
X138214342Y-87333333D01*
X138214342Y-87333333D02*
X138023866Y-87333333D01*
X138023866Y-87333333D02*
X137928628Y-87380952D01*
X137928628Y-87380952D02*
X137881009Y-87428571D01*
X137881009Y-87428571D02*
X137833390Y-87523809D01*
X175516667Y-140217200D02*
X175659524Y-140264819D01*
X175659524Y-140264819D02*
X175897619Y-140264819D01*
X175897619Y-140264819D02*
X175992857Y-140217200D01*
X175992857Y-140217200D02*
X176040476Y-140169580D01*
X176040476Y-140169580D02*
X176088095Y-140074342D01*
X176088095Y-140074342D02*
X176088095Y-139979104D01*
X176088095Y-139979104D02*
X176040476Y-139883866D01*
X176040476Y-139883866D02*
X175992857Y-139836247D01*
X175992857Y-139836247D02*
X175897619Y-139788628D01*
X175897619Y-139788628D02*
X175707143Y-139741009D01*
X175707143Y-139741009D02*
X175611905Y-139693390D01*
X175611905Y-139693390D02*
X175564286Y-139645771D01*
X175564286Y-139645771D02*
X175516667Y-139550533D01*
X175516667Y-139550533D02*
X175516667Y-139455295D01*
X175516667Y-139455295D02*
X175564286Y-139360057D01*
X175564286Y-139360057D02*
X175611905Y-139312438D01*
X175611905Y-139312438D02*
X175707143Y-139264819D01*
X175707143Y-139264819D02*
X175945238Y-139264819D01*
X175945238Y-139264819D02*
X176088095Y-139312438D01*
X176421429Y-139264819D02*
X176659524Y-140264819D01*
X176659524Y-140264819D02*
X176850000Y-139550533D01*
X176850000Y-139550533D02*
X177040476Y-140264819D01*
X177040476Y-140264819D02*
X177278572Y-139264819D01*
X178088095Y-139598152D02*
X178088095Y-140264819D01*
X177850000Y-139217200D02*
X177611905Y-139931485D01*
X177611905Y-139931485D02*
X178230952Y-139931485D01*
D13*
X102457419Y-116333333D02*
X103171704Y-116333333D01*
X103171704Y-116333333D02*
X103314561Y-116380952D01*
X103314561Y-116380952D02*
X103409800Y-116476190D01*
X103409800Y-116476190D02*
X103457419Y-116619047D01*
X103457419Y-116619047D02*
X103457419Y-116714285D01*
X102552657Y-115904761D02*
X102505038Y-115857142D01*
X102505038Y-115857142D02*
X102457419Y-115761904D01*
X102457419Y-115761904D02*
X102457419Y-115523809D01*
X102457419Y-115523809D02*
X102505038Y-115428571D01*
X102505038Y-115428571D02*
X102552657Y-115380952D01*
X102552657Y-115380952D02*
X102647895Y-115333333D01*
X102647895Y-115333333D02*
X102743133Y-115333333D01*
X102743133Y-115333333D02*
X102885990Y-115380952D01*
X102885990Y-115380952D02*
X103457419Y-115952380D01*
X103457419Y-115952380D02*
X103457419Y-115333333D01*
D12*
X188090476Y-85404819D02*
X188090476Y-86119104D01*
X188090476Y-86119104D02*
X188042857Y-86261961D01*
X188042857Y-86261961D02*
X187947619Y-86357200D01*
X187947619Y-86357200D02*
X187804762Y-86404819D01*
X187804762Y-86404819D02*
X187709524Y-86404819D01*
X189090476Y-86404819D02*
X188519048Y-86404819D01*
X188804762Y-86404819D02*
X188804762Y-85404819D01*
X188804762Y-85404819D02*
X188709524Y-85547676D01*
X188709524Y-85547676D02*
X188614286Y-85642914D01*
X188614286Y-85642914D02*
X188519048Y-85690533D01*
X189661905Y-85833390D02*
X189566667Y-85785771D01*
X189566667Y-85785771D02*
X189519048Y-85738152D01*
X189519048Y-85738152D02*
X189471429Y-85642914D01*
X189471429Y-85642914D02*
X189471429Y-85595295D01*
X189471429Y-85595295D02*
X189519048Y-85500057D01*
X189519048Y-85500057D02*
X189566667Y-85452438D01*
X189566667Y-85452438D02*
X189661905Y-85404819D01*
X189661905Y-85404819D02*
X189852381Y-85404819D01*
X189852381Y-85404819D02*
X189947619Y-85452438D01*
X189947619Y-85452438D02*
X189995238Y-85500057D01*
X189995238Y-85500057D02*
X190042857Y-85595295D01*
X190042857Y-85595295D02*
X190042857Y-85642914D01*
X190042857Y-85642914D02*
X189995238Y-85738152D01*
X189995238Y-85738152D02*
X189947619Y-85785771D01*
X189947619Y-85785771D02*
X189852381Y-85833390D01*
X189852381Y-85833390D02*
X189661905Y-85833390D01*
X189661905Y-85833390D02*
X189566667Y-85881009D01*
X189566667Y-85881009D02*
X189519048Y-85928628D01*
X189519048Y-85928628D02*
X189471429Y-86023866D01*
X189471429Y-86023866D02*
X189471429Y-86214342D01*
X189471429Y-86214342D02*
X189519048Y-86309580D01*
X189519048Y-86309580D02*
X189566667Y-86357200D01*
X189566667Y-86357200D02*
X189661905Y-86404819D01*
X189661905Y-86404819D02*
X189852381Y-86404819D01*
X189852381Y-86404819D02*
X189947619Y-86357200D01*
X189947619Y-86357200D02*
X189995238Y-86309580D01*
X189995238Y-86309580D02*
X190042857Y-86214342D01*
X190042857Y-86214342D02*
X190042857Y-86023866D01*
X190042857Y-86023866D02*
X189995238Y-85928628D01*
X189995238Y-85928628D02*
X189947619Y-85881009D01*
X189947619Y-85881009D02*
X189852381Y-85833390D01*
X195508333Y-91444819D02*
X195175000Y-90968628D01*
X194936905Y-91444819D02*
X194936905Y-90444819D01*
X194936905Y-90444819D02*
X195317857Y-90444819D01*
X195317857Y-90444819D02*
X195413095Y-90492438D01*
X195413095Y-90492438D02*
X195460714Y-90540057D01*
X195460714Y-90540057D02*
X195508333Y-90635295D01*
X195508333Y-90635295D02*
X195508333Y-90778152D01*
X195508333Y-90778152D02*
X195460714Y-90873390D01*
X195460714Y-90873390D02*
X195413095Y-90921009D01*
X195413095Y-90921009D02*
X195317857Y-90968628D01*
X195317857Y-90968628D02*
X194936905Y-90968628D01*
X196365476Y-90778152D02*
X196365476Y-91444819D01*
X196127381Y-90397200D02*
X195889286Y-91111485D01*
X195889286Y-91111485D02*
X196508333Y-91111485D01*
D13*
X133238095Y-91457419D02*
X133238095Y-92266942D01*
X133238095Y-92266942D02*
X133285714Y-92362180D01*
X133285714Y-92362180D02*
X133333333Y-92409800D01*
X133333333Y-92409800D02*
X133428571Y-92457419D01*
X133428571Y-92457419D02*
X133619047Y-92457419D01*
X133619047Y-92457419D02*
X133714285Y-92409800D01*
X133714285Y-92409800D02*
X133761904Y-92362180D01*
X133761904Y-92362180D02*
X133809523Y-92266942D01*
X133809523Y-92266942D02*
X133809523Y-91457419D01*
X134809523Y-92457419D02*
X134238095Y-92457419D01*
X134523809Y-92457419D02*
X134523809Y-91457419D01*
X134523809Y-91457419D02*
X134428571Y-91600276D01*
X134428571Y-91600276D02*
X134333333Y-91695514D01*
X134333333Y-91695514D02*
X134238095Y-91743133D01*
D12*
X185748095Y-119974819D02*
X185748095Y-120784342D01*
X185748095Y-120784342D02*
X185795714Y-120879580D01*
X185795714Y-120879580D02*
X185843333Y-120927200D01*
X185843333Y-120927200D02*
X185938571Y-120974819D01*
X185938571Y-120974819D02*
X186129047Y-120974819D01*
X186129047Y-120974819D02*
X186224285Y-120927200D01*
X186224285Y-120927200D02*
X186271904Y-120879580D01*
X186271904Y-120879580D02*
X186319523Y-120784342D01*
X186319523Y-120784342D02*
X186319523Y-119974819D01*
X186700476Y-119974819D02*
X187319523Y-119974819D01*
X187319523Y-119974819D02*
X186986190Y-120355771D01*
X186986190Y-120355771D02*
X187129047Y-120355771D01*
X187129047Y-120355771D02*
X187224285Y-120403390D01*
X187224285Y-120403390D02*
X187271904Y-120451009D01*
X187271904Y-120451009D02*
X187319523Y-120546247D01*
X187319523Y-120546247D02*
X187319523Y-120784342D01*
X187319523Y-120784342D02*
X187271904Y-120879580D01*
X187271904Y-120879580D02*
X187224285Y-120927200D01*
X187224285Y-120927200D02*
X187129047Y-120974819D01*
X187129047Y-120974819D02*
X186843333Y-120974819D01*
X186843333Y-120974819D02*
X186748095Y-120927200D01*
X186748095Y-120927200D02*
X186700476Y-120879580D01*
D13*
X102457419Y-129083333D02*
X103171704Y-129083333D01*
X103171704Y-129083333D02*
X103314561Y-129130952D01*
X103314561Y-129130952D02*
X103409800Y-129226190D01*
X103409800Y-129226190D02*
X103457419Y-129369047D01*
X103457419Y-129369047D02*
X103457419Y-129464285D01*
X102457419Y-128702380D02*
X102457419Y-128083333D01*
X102457419Y-128083333D02*
X102838371Y-128416666D01*
X102838371Y-128416666D02*
X102838371Y-128273809D01*
X102838371Y-128273809D02*
X102885990Y-128178571D01*
X102885990Y-128178571D02*
X102933609Y-128130952D01*
X102933609Y-128130952D02*
X103028847Y-128083333D01*
X103028847Y-128083333D02*
X103266942Y-128083333D01*
X103266942Y-128083333D02*
X103362180Y-128130952D01*
X103362180Y-128130952D02*
X103409800Y-128178571D01*
X103409800Y-128178571D02*
X103457419Y-128273809D01*
X103457419Y-128273809D02*
X103457419Y-128559523D01*
X103457419Y-128559523D02*
X103409800Y-128654761D01*
X103409800Y-128654761D02*
X103362180Y-128702380D01*
D12*
X195550833Y-108284819D02*
X195217500Y-107808628D01*
X194979405Y-108284819D02*
X194979405Y-107284819D01*
X194979405Y-107284819D02*
X195360357Y-107284819D01*
X195360357Y-107284819D02*
X195455595Y-107332438D01*
X195455595Y-107332438D02*
X195503214Y-107380057D01*
X195503214Y-107380057D02*
X195550833Y-107475295D01*
X195550833Y-107475295D02*
X195550833Y-107618152D01*
X195550833Y-107618152D02*
X195503214Y-107713390D01*
X195503214Y-107713390D02*
X195455595Y-107761009D01*
X195455595Y-107761009D02*
X195360357Y-107808628D01*
X195360357Y-107808628D02*
X194979405Y-107808628D01*
X195931786Y-107380057D02*
X195979405Y-107332438D01*
X195979405Y-107332438D02*
X196074643Y-107284819D01*
X196074643Y-107284819D02*
X196312738Y-107284819D01*
X196312738Y-107284819D02*
X196407976Y-107332438D01*
X196407976Y-107332438D02*
X196455595Y-107380057D01*
X196455595Y-107380057D02*
X196503214Y-107475295D01*
X196503214Y-107475295D02*
X196503214Y-107570533D01*
X196503214Y-107570533D02*
X196455595Y-107713390D01*
X196455595Y-107713390D02*
X195884167Y-108284819D01*
X195884167Y-108284819D02*
X196503214Y-108284819D01*
X175516667Y-125217200D02*
X175659524Y-125264819D01*
X175659524Y-125264819D02*
X175897619Y-125264819D01*
X175897619Y-125264819D02*
X175992857Y-125217200D01*
X175992857Y-125217200D02*
X176040476Y-125169580D01*
X176040476Y-125169580D02*
X176088095Y-125074342D01*
X176088095Y-125074342D02*
X176088095Y-124979104D01*
X176088095Y-124979104D02*
X176040476Y-124883866D01*
X176040476Y-124883866D02*
X175992857Y-124836247D01*
X175992857Y-124836247D02*
X175897619Y-124788628D01*
X175897619Y-124788628D02*
X175707143Y-124741009D01*
X175707143Y-124741009D02*
X175611905Y-124693390D01*
X175611905Y-124693390D02*
X175564286Y-124645771D01*
X175564286Y-124645771D02*
X175516667Y-124550533D01*
X175516667Y-124550533D02*
X175516667Y-124455295D01*
X175516667Y-124455295D02*
X175564286Y-124360057D01*
X175564286Y-124360057D02*
X175611905Y-124312438D01*
X175611905Y-124312438D02*
X175707143Y-124264819D01*
X175707143Y-124264819D02*
X175945238Y-124264819D01*
X175945238Y-124264819D02*
X176088095Y-124312438D01*
X176421429Y-124264819D02*
X176659524Y-125264819D01*
X176659524Y-125264819D02*
X176850000Y-124550533D01*
X176850000Y-124550533D02*
X177040476Y-125264819D01*
X177040476Y-125264819D02*
X177278572Y-124264819D01*
X177611905Y-124360057D02*
X177659524Y-124312438D01*
X177659524Y-124312438D02*
X177754762Y-124264819D01*
X177754762Y-124264819D02*
X177992857Y-124264819D01*
X177992857Y-124264819D02*
X178088095Y-124312438D01*
X178088095Y-124312438D02*
X178135714Y-124360057D01*
X178135714Y-124360057D02*
X178183333Y-124455295D01*
X178183333Y-124455295D02*
X178183333Y-124550533D01*
X178183333Y-124550533D02*
X178135714Y-124693390D01*
X178135714Y-124693390D02*
X177564286Y-125264819D01*
X177564286Y-125264819D02*
X178183333Y-125264819D01*
X163624819Y-139809523D02*
X164339104Y-139809523D01*
X164339104Y-139809523D02*
X164481961Y-139857142D01*
X164481961Y-139857142D02*
X164577200Y-139952380D01*
X164577200Y-139952380D02*
X164624819Y-140095237D01*
X164624819Y-140095237D02*
X164624819Y-140190475D01*
X164624819Y-138809523D02*
X164624819Y-139380951D01*
X164624819Y-139095237D02*
X163624819Y-139095237D01*
X163624819Y-139095237D02*
X163767676Y-139190475D01*
X163767676Y-139190475D02*
X163862914Y-139285713D01*
X163862914Y-139285713D02*
X163910533Y-139380951D01*
X163624819Y-138476189D02*
X163624819Y-137857142D01*
X163624819Y-137857142D02*
X164005771Y-138190475D01*
X164005771Y-138190475D02*
X164005771Y-138047618D01*
X164005771Y-138047618D02*
X164053390Y-137952380D01*
X164053390Y-137952380D02*
X164101009Y-137904761D01*
X164101009Y-137904761D02*
X164196247Y-137857142D01*
X164196247Y-137857142D02*
X164434342Y-137857142D01*
X164434342Y-137857142D02*
X164529580Y-137904761D01*
X164529580Y-137904761D02*
X164577200Y-137952380D01*
X164577200Y-137952380D02*
X164624819Y-138047618D01*
X164624819Y-138047618D02*
X164624819Y-138333332D01*
X164624819Y-138333332D02*
X164577200Y-138428570D01*
X164577200Y-138428570D02*
X164529580Y-138476189D01*
X177666666Y-91004819D02*
X177666666Y-91719104D01*
X177666666Y-91719104D02*
X177619047Y-91861961D01*
X177619047Y-91861961D02*
X177523809Y-91957200D01*
X177523809Y-91957200D02*
X177380952Y-92004819D01*
X177380952Y-92004819D02*
X177285714Y-92004819D01*
X178666666Y-92004819D02*
X178095238Y-92004819D01*
X178380952Y-92004819D02*
X178380952Y-91004819D01*
X178380952Y-91004819D02*
X178285714Y-91147676D01*
X178285714Y-91147676D02*
X178190476Y-91242914D01*
X178190476Y-91242914D02*
X178095238Y-91290533D01*
X187940476Y-93904819D02*
X187940476Y-94619104D01*
X187940476Y-94619104D02*
X187892857Y-94761961D01*
X187892857Y-94761961D02*
X187797619Y-94857200D01*
X187797619Y-94857200D02*
X187654762Y-94904819D01*
X187654762Y-94904819D02*
X187559524Y-94904819D01*
X188940476Y-94904819D02*
X188369048Y-94904819D01*
X188654762Y-94904819D02*
X188654762Y-93904819D01*
X188654762Y-93904819D02*
X188559524Y-94047676D01*
X188559524Y-94047676D02*
X188464286Y-94142914D01*
X188464286Y-94142914D02*
X188369048Y-94190533D01*
X189273810Y-93904819D02*
X189940476Y-93904819D01*
X189940476Y-93904819D02*
X189511905Y-94904819D01*
X187940476Y-110904819D02*
X187940476Y-111619104D01*
X187940476Y-111619104D02*
X187892857Y-111761961D01*
X187892857Y-111761961D02*
X187797619Y-111857200D01*
X187797619Y-111857200D02*
X187654762Y-111904819D01*
X187654762Y-111904819D02*
X187559524Y-111904819D01*
X188940476Y-111904819D02*
X188369048Y-111904819D01*
X188654762Y-111904819D02*
X188654762Y-110904819D01*
X188654762Y-110904819D02*
X188559524Y-111047676D01*
X188559524Y-111047676D02*
X188464286Y-111142914D01*
X188464286Y-111142914D02*
X188369048Y-111190533D01*
X189845238Y-110904819D02*
X189369048Y-110904819D01*
X189369048Y-110904819D02*
X189321429Y-111381009D01*
X189321429Y-111381009D02*
X189369048Y-111333390D01*
X189369048Y-111333390D02*
X189464286Y-111285771D01*
X189464286Y-111285771D02*
X189702381Y-111285771D01*
X189702381Y-111285771D02*
X189797619Y-111333390D01*
X189797619Y-111333390D02*
X189845238Y-111381009D01*
X189845238Y-111381009D02*
X189892857Y-111476247D01*
X189892857Y-111476247D02*
X189892857Y-111714342D01*
X189892857Y-111714342D02*
X189845238Y-111809580D01*
X189845238Y-111809580D02*
X189797619Y-111857200D01*
X189797619Y-111857200D02*
X189702381Y-111904819D01*
X189702381Y-111904819D02*
X189464286Y-111904819D01*
X189464286Y-111904819D02*
X189369048Y-111857200D01*
X189369048Y-111857200D02*
X189321429Y-111809580D01*
D14*
X121750000Y-92100000D02*
X121750000Y-93350000D01*
X121750000Y-93350000D02*
X123000000Y-93350000D01*
X122040000Y-82940000D02*
X122040000Y-93060000D01*
X122040000Y-93060000D02*
X128010000Y-93060000D01*
X122050000Y-82950000D02*
X122050000Y-84750000D01*
X122050000Y-84750000D02*
X122800000Y-84750000D01*
X122050000Y-86250000D02*
X122050000Y-89750000D01*
X122050000Y-89750000D02*
X122800000Y-89750000D01*
X122050000Y-91250000D02*
X122050000Y-93050000D01*
X122050000Y-93050000D02*
X122800000Y-93050000D01*
X122800000Y-82950000D02*
X122050000Y-82950000D01*
X122800000Y-84750000D02*
X122800000Y-82950000D01*
X122800000Y-86250000D02*
X122050000Y-86250000D01*
X122800000Y-89750000D02*
X122800000Y-86250000D01*
X122800000Y-91250000D02*
X122050000Y-91250000D01*
X122800000Y-93050000D02*
X122800000Y-91250000D01*
X124300000Y-82950000D02*
X124300000Y-83700000D01*
X124300000Y-83700000D02*
X127250000Y-83700000D01*
X124300000Y-92300000D02*
X127250000Y-92300000D01*
X124300000Y-93050000D02*
X124300000Y-92300000D01*
X127250000Y-83700000D02*
X127250000Y-88000000D01*
X127250000Y-92300000D02*
X127250000Y-88000000D01*
X128010000Y-82940000D02*
X122040000Y-82940000D01*
X128010000Y-93060000D02*
X128010000Y-82940000D01*
X163690000Y-100390000D02*
X163690000Y-113110000D01*
X163690000Y-113110000D02*
X170310000Y-113110000D01*
X164400000Y-101400000D02*
X164400000Y-112100000D01*
X164400000Y-112100000D02*
X168700000Y-112100000D01*
X167000000Y-100390000D02*
X167000000Y-101400000D01*
X167000000Y-113110000D02*
X167000000Y-112100000D01*
X168700000Y-101400000D02*
X164400000Y-101400000D01*
X168700000Y-112100000D02*
X168700000Y-101400000D01*
X169310000Y-104050000D02*
X170310000Y-104050000D01*
X169310000Y-105950000D02*
X169310000Y-104050000D01*
X169310000Y-107550000D02*
X169910000Y-107550000D01*
X169310000Y-109450000D02*
X169310000Y-107550000D01*
X169910000Y-105950000D02*
X169310000Y-105950000D01*
X169910000Y-107550000D02*
X169910000Y-105950000D01*
X170310000Y-100390000D02*
X163690000Y-100390000D01*
X170310000Y-104050000D02*
X170310000Y-100390000D01*
X170310000Y-109450000D02*
X169310000Y-109450000D01*
X170310000Y-113110000D02*
X170310000Y-109450000D01*
X170610000Y-100090000D02*
X169360000Y-100090000D01*
X170610000Y-101340000D02*
X170610000Y-100090000D01*
X147250000Y-92100000D02*
X147250000Y-93350000D01*
X147250000Y-93350000D02*
X148500000Y-93350000D01*
X147540000Y-82940000D02*
X147540000Y-93060000D01*
X147540000Y-93060000D02*
X153510000Y-93060000D01*
X147550000Y-82950000D02*
X147550000Y-84750000D01*
X147550000Y-84750000D02*
X148300000Y-84750000D01*
X147550000Y-86250000D02*
X147550000Y-89750000D01*
X147550000Y-89750000D02*
X148300000Y-89750000D01*
X147550000Y-91250000D02*
X147550000Y-93050000D01*
X147550000Y-93050000D02*
X148300000Y-93050000D01*
X148300000Y-82950000D02*
X147550000Y-82950000D01*
X148300000Y-84750000D02*
X148300000Y-82950000D01*
X148300000Y-86250000D02*
X147550000Y-86250000D01*
X148300000Y-89750000D02*
X148300000Y-86250000D01*
X148300000Y-91250000D02*
X147550000Y-91250000D01*
X148300000Y-93050000D02*
X148300000Y-91250000D01*
X149800000Y-82950000D02*
X149800000Y-83700000D01*
X149800000Y-83700000D02*
X152750000Y-83700000D01*
X149800000Y-92300000D02*
X152750000Y-92300000D01*
X149800000Y-93050000D02*
X149800000Y-92300000D01*
X152750000Y-83700000D02*
X152750000Y-88000000D01*
X152750000Y-92300000D02*
X152750000Y-88000000D01*
X153510000Y-82940000D02*
X147540000Y-82940000D01*
X153510000Y-93060000D02*
X153510000Y-82940000D01*
D15*
X108947853Y-83901099D02*
X109048710Y-85196398D01*
X108845372Y-85399736D01*
X108846183Y-84002768D01*
X108846995Y-82605800D01*
X108947853Y-83901099D01*
G36*
X108947853Y-83901099D02*
G01*
X109048710Y-85196398D01*
X108845372Y-85399736D01*
X108846183Y-84002768D01*
X108846995Y-82605800D01*
X108947853Y-83901099D01*
G37*
X110732229Y-85577600D02*
X110472247Y-85577600D01*
X110468281Y-85550386D01*
X110465350Y-85528043D01*
X110461915Y-85498729D01*
X110459560Y-85476838D01*
X110454806Y-85430505D01*
X109650089Y-86235197D01*
X108845372Y-87039890D01*
X108845372Y-86013029D01*
X109105267Y-86013029D01*
X109109417Y-86047500D01*
X109112696Y-86075348D01*
X109116432Y-86107941D01*
X109118298Y-86124559D01*
X109123030Y-86167146D01*
X109927629Y-85362571D01*
X110732229Y-84557996D01*
X110732229Y-85577600D01*
G36*
X110732229Y-85577600D02*
G01*
X110472247Y-85577600D01*
X110468281Y-85550386D01*
X110465350Y-85528043D01*
X110461915Y-85498729D01*
X110459560Y-85476838D01*
X110454806Y-85430505D01*
X109650089Y-86235197D01*
X108845372Y-87039890D01*
X108845372Y-86013029D01*
X109105267Y-86013029D01*
X109109417Y-86047500D01*
X109112696Y-86075348D01*
X109116432Y-86107941D01*
X109118298Y-86124559D01*
X109123030Y-86167146D01*
X109927629Y-85362571D01*
X110732229Y-84557996D01*
X110732229Y-85577600D01*
G37*
X110732229Y-87586046D02*
X110732219Y-87727210D01*
X110732189Y-87864447D01*
X110732142Y-87997057D01*
X110732077Y-88124340D01*
X110731996Y-88245595D01*
X110731900Y-88360120D01*
X110731789Y-88467216D01*
X110731665Y-88566181D01*
X110731528Y-88656315D01*
X110731380Y-88736916D01*
X110731222Y-88807285D01*
X110731054Y-88866721D01*
X110730877Y-88914522D01*
X110730693Y-88949988D01*
X110730503Y-88972418D01*
X110730306Y-88981112D01*
X110730285Y-88981200D01*
X110729381Y-88974182D01*
X110727485Y-88953998D01*
X110724706Y-88921956D01*
X110721149Y-88879365D01*
X110716922Y-88827530D01*
X110712132Y-88767760D01*
X110706886Y-88701362D01*
X110701291Y-88629643D01*
X110697754Y-88583871D01*
X110693101Y-88523472D01*
X110687438Y-88450070D01*
X110680880Y-88365134D01*
X110673540Y-88270132D01*
X110665532Y-88166533D01*
X110656969Y-88055804D01*
X110647965Y-87939413D01*
X110638634Y-87818831D01*
X110629089Y-87695523D01*
X110619443Y-87570960D01*
X110609810Y-87446608D01*
X110600305Y-87323937D01*
X110597728Y-87290688D01*
X110528287Y-86394834D01*
X110732229Y-86190892D01*
X110732229Y-87586046D01*
G36*
X110732229Y-87586046D02*
G01*
X110732219Y-87727210D01*
X110732189Y-87864447D01*
X110732142Y-87997057D01*
X110732077Y-88124340D01*
X110731996Y-88245595D01*
X110731900Y-88360120D01*
X110731789Y-88467216D01*
X110731665Y-88566181D01*
X110731528Y-88656315D01*
X110731380Y-88736916D01*
X110731222Y-88807285D01*
X110731054Y-88866721D01*
X110730877Y-88914522D01*
X110730693Y-88949988D01*
X110730503Y-88972418D01*
X110730306Y-88981112D01*
X110730285Y-88981200D01*
X110729381Y-88974182D01*
X110727485Y-88953998D01*
X110724706Y-88921956D01*
X110721149Y-88879365D01*
X110716922Y-88827530D01*
X110712132Y-88767760D01*
X110706886Y-88701362D01*
X110701291Y-88629643D01*
X110697754Y-88583871D01*
X110693101Y-88523472D01*
X110687438Y-88450070D01*
X110680880Y-88365134D01*
X110673540Y-88270132D01*
X110665532Y-88166533D01*
X110656969Y-88055804D01*
X110647965Y-87939413D01*
X110638634Y-87818831D01*
X110629089Y-87695523D01*
X110619443Y-87570960D01*
X110609810Y-87446608D01*
X110600305Y-87323937D01*
X110597728Y-87290688D01*
X110528287Y-86394834D01*
X110732229Y-86190892D01*
X110732229Y-87586046D01*
G37*
X111357648Y-82901430D02*
X111344181Y-82917640D01*
X111322066Y-82943914D01*
X111291708Y-82979778D01*
X111253512Y-83024759D01*
X111207881Y-83078383D01*
X111155221Y-83140178D01*
X111095935Y-83209669D01*
X111030429Y-83286383D01*
X110959106Y-83369846D01*
X110882372Y-83459586D01*
X110800630Y-83555128D01*
X110714285Y-83656000D01*
X110623742Y-83761727D01*
X110529405Y-83871836D01*
X110431678Y-83985855D01*
X110330967Y-84103308D01*
X110227675Y-84223724D01*
X110213843Y-84239844D01*
X109062921Y-85581229D01*
X109380379Y-85583120D01*
X109697837Y-85585012D01*
X109487551Y-85795392D01*
X109277265Y-86005771D01*
X108246670Y-86005771D01*
X109803015Y-84449413D01*
X109928727Y-84323718D01*
X110051782Y-84200714D01*
X110171783Y-84080797D01*
X110288335Y-83964360D01*
X110401044Y-83851796D01*
X110509515Y-83743500D01*
X110613351Y-83639866D01*
X110712158Y-83541287D01*
X110805541Y-83448156D01*
X110893105Y-83360869D01*
X110974454Y-83279818D01*
X111049193Y-83205398D01*
X111116927Y-83138001D01*
X111177260Y-83078023D01*
X111229799Y-83025857D01*
X111274147Y-82981897D01*
X111309909Y-82946536D01*
X111336690Y-82920168D01*
X111354096Y-82903188D01*
X111361730Y-82895988D01*
X111362063Y-82895758D01*
X111357648Y-82901430D01*
G36*
X111357648Y-82901430D02*
G01*
X111344181Y-82917640D01*
X111322066Y-82943914D01*
X111291708Y-82979778D01*
X111253512Y-83024759D01*
X111207881Y-83078383D01*
X111155221Y-83140178D01*
X111095935Y-83209669D01*
X111030429Y-83286383D01*
X110959106Y-83369846D01*
X110882372Y-83459586D01*
X110800630Y-83555128D01*
X110714285Y-83656000D01*
X110623742Y-83761727D01*
X110529405Y-83871836D01*
X110431678Y-83985855D01*
X110330967Y-84103308D01*
X110227675Y-84223724D01*
X110213843Y-84239844D01*
X109062921Y-85581229D01*
X109380379Y-85583120D01*
X109697837Y-85585012D01*
X109487551Y-85795392D01*
X109277265Y-86005771D01*
X108246670Y-86005771D01*
X109803015Y-84449413D01*
X109928727Y-84323718D01*
X110051782Y-84200714D01*
X110171783Y-84080797D01*
X110288335Y-83964360D01*
X110401044Y-83851796D01*
X110509515Y-83743500D01*
X110613351Y-83639866D01*
X110712158Y-83541287D01*
X110805541Y-83448156D01*
X110893105Y-83360869D01*
X110974454Y-83279818D01*
X111049193Y-83205398D01*
X111116927Y-83138001D01*
X111177260Y-83078023D01*
X111229799Y-83025857D01*
X111274147Y-82981897D01*
X111309909Y-82946536D01*
X111336690Y-82920168D01*
X111354096Y-82903188D01*
X111361730Y-82895988D01*
X111362063Y-82895758D01*
X111357648Y-82901430D01*
G37*
X110816638Y-85586622D02*
X111325398Y-85588486D01*
X109769977Y-87148771D01*
X109644431Y-87274691D01*
X109521553Y-87397898D01*
X109401736Y-87517999D01*
X109285374Y-87634600D01*
X109172861Y-87747307D01*
X109064590Y-87855728D01*
X108960954Y-87959470D01*
X108862348Y-88058139D01*
X108769165Y-88151341D01*
X108681797Y-88238684D01*
X108600640Y-88319774D01*
X108526086Y-88394218D01*
X108458529Y-88461622D01*
X108398362Y-88521594D01*
X108345979Y-88573739D01*
X108301774Y-88617666D01*
X108266140Y-88652980D01*
X108239470Y-88679288D01*
X108222158Y-88696196D01*
X108214598Y-88703312D01*
X108214278Y-88703516D01*
X108218906Y-88697579D01*
X108232571Y-88681094D01*
X108254868Y-88654535D01*
X108285392Y-88618378D01*
X108323738Y-88573098D01*
X108369502Y-88519169D01*
X108422280Y-88457068D01*
X108481665Y-88387268D01*
X108547254Y-88310246D01*
X108618641Y-88226477D01*
X108695422Y-88136435D01*
X108777192Y-88040595D01*
X108863547Y-87939433D01*
X108954081Y-87833424D01*
X109048390Y-87723043D01*
X109146069Y-87608765D01*
X109246714Y-87491065D01*
X109349918Y-87370419D01*
X109364234Y-87353688D01*
X110514468Y-86009400D01*
X110202382Y-86005771D01*
X109890297Y-86002143D01*
X110099087Y-85793450D01*
X110307877Y-85584758D01*
X110816638Y-85586622D01*
G36*
X110816638Y-85586622D02*
G01*
X111325398Y-85588486D01*
X109769977Y-87148771D01*
X109644431Y-87274691D01*
X109521553Y-87397898D01*
X109401736Y-87517999D01*
X109285374Y-87634600D01*
X109172861Y-87747307D01*
X109064590Y-87855728D01*
X108960954Y-87959470D01*
X108862348Y-88058139D01*
X108769165Y-88151341D01*
X108681797Y-88238684D01*
X108600640Y-88319774D01*
X108526086Y-88394218D01*
X108458529Y-88461622D01*
X108398362Y-88521594D01*
X108345979Y-88573739D01*
X108301774Y-88617666D01*
X108266140Y-88652980D01*
X108239470Y-88679288D01*
X108222158Y-88696196D01*
X108214598Y-88703312D01*
X108214278Y-88703516D01*
X108218906Y-88697579D01*
X108232571Y-88681094D01*
X108254868Y-88654535D01*
X108285392Y-88618378D01*
X108323738Y-88573098D01*
X108369502Y-88519169D01*
X108422280Y-88457068D01*
X108481665Y-88387268D01*
X108547254Y-88310246D01*
X108618641Y-88226477D01*
X108695422Y-88136435D01*
X108777192Y-88040595D01*
X108863547Y-87939433D01*
X108954081Y-87833424D01*
X109048390Y-87723043D01*
X109146069Y-87608765D01*
X109246714Y-87491065D01*
X109349918Y-87370419D01*
X109364234Y-87353688D01*
X110514468Y-86009400D01*
X110202382Y-86005771D01*
X109890297Y-86002143D01*
X110099087Y-85793450D01*
X110307877Y-85584758D01*
X110816638Y-85586622D01*
G37*
X112187172Y-88500344D02*
X112264369Y-88577122D01*
X112346695Y-88659095D01*
X112433660Y-88745769D01*
X112524774Y-88836653D01*
X112619546Y-88931254D01*
X112717486Y-89029080D01*
X112818104Y-89129638D01*
X112920909Y-89232437D01*
X113025411Y-89336984D01*
X113131118Y-89442787D01*
X113237542Y-89549353D01*
X113344191Y-89656191D01*
X113450575Y-89762807D01*
X113556203Y-89868710D01*
X113660585Y-89973408D01*
X113763231Y-90076408D01*
X113863650Y-90177218D01*
X113961352Y-90275345D01*
X114055846Y-90370298D01*
X114146643Y-90461584D01*
X114233250Y-90548711D01*
X114315179Y-90631186D01*
X114391938Y-90708518D01*
X114463037Y-90780213D01*
X114527986Y-90845780D01*
X114586295Y-90904727D01*
X114637472Y-90956561D01*
X114681027Y-91000789D01*
X114716471Y-91036921D01*
X114743312Y-91064462D01*
X114761060Y-91082922D01*
X114769225Y-91091808D01*
X114769704Y-91092571D01*
X114763315Y-91088138D01*
X114746181Y-91075313D01*
X114718999Y-91054635D01*
X114682464Y-91026642D01*
X114637275Y-90991874D01*
X114584126Y-90950869D01*
X114523716Y-90904166D01*
X114456741Y-90852302D01*
X114383898Y-90795817D01*
X114305882Y-90735249D01*
X114223392Y-90671137D01*
X114137124Y-90604020D01*
X114056000Y-90540845D01*
X113966507Y-90471093D01*
X113879942Y-90403569D01*
X113797021Y-90338835D01*
X113718465Y-90277454D01*
X113644991Y-90219991D01*
X113577318Y-90167007D01*
X113516164Y-90119067D01*
X113462249Y-90076733D01*
X113416290Y-90040569D01*
X113379006Y-90011138D01*
X113351116Y-89989003D01*
X113333338Y-89974728D01*
X113326657Y-89969141D01*
X113319394Y-89963223D01*
X113301414Y-89948967D01*
X113273455Y-89926948D01*
X113236256Y-89897742D01*
X113190554Y-89861923D01*
X113137087Y-89820068D01*
X113076594Y-89772752D01*
X113009811Y-89720550D01*
X112937478Y-89664038D01*
X112860333Y-89603790D01*
X112779112Y-89540384D01*
X112694555Y-89474393D01*
X112607399Y-89406393D01*
X112518382Y-89336960D01*
X112428243Y-89266669D01*
X112337718Y-89196096D01*
X112247547Y-89125816D01*
X112158468Y-89056404D01*
X112071217Y-88988436D01*
X111986534Y-88922488D01*
X111905156Y-88859134D01*
X111827822Y-88798950D01*
X111755268Y-88742511D01*
X111688234Y-88690393D01*
X111627457Y-88643172D01*
X111573675Y-88601422D01*
X111527627Y-88565720D01*
X111490050Y-88536640D01*
X111461682Y-88514758D01*
X111443261Y-88500650D01*
X111442724Y-88500242D01*
X111416619Y-88480427D01*
X111388295Y-88500922D01*
X111354098Y-88523989D01*
X111308903Y-88551932D01*
X111254905Y-88583576D01*
X111194300Y-88617746D01*
X111129282Y-88653267D01*
X111062047Y-88688962D01*
X110994789Y-88723657D01*
X110929703Y-88756177D01*
X110868985Y-88785346D01*
X110814829Y-88809988D01*
X110795729Y-88818216D01*
X110739486Y-88841970D01*
X110739486Y-88388234D01*
X110810221Y-88356331D01*
X110873852Y-88324954D01*
X110945309Y-88285081D01*
X111022105Y-88238423D01*
X111101748Y-88186693D01*
X111181747Y-88131601D01*
X111259613Y-88074860D01*
X111332854Y-88018180D01*
X111398982Y-87963275D01*
X111451926Y-87915291D01*
X111526659Y-87843826D01*
X112187172Y-88500344D01*
G36*
X112187172Y-88500344D02*
G01*
X112264369Y-88577122D01*
X112346695Y-88659095D01*
X112433660Y-88745769D01*
X112524774Y-88836653D01*
X112619546Y-88931254D01*
X112717486Y-89029080D01*
X112818104Y-89129638D01*
X112920909Y-89232437D01*
X113025411Y-89336984D01*
X113131118Y-89442787D01*
X113237542Y-89549353D01*
X113344191Y-89656191D01*
X113450575Y-89762807D01*
X113556203Y-89868710D01*
X113660585Y-89973408D01*
X113763231Y-90076408D01*
X113863650Y-90177218D01*
X113961352Y-90275345D01*
X114055846Y-90370298D01*
X114146643Y-90461584D01*
X114233250Y-90548711D01*
X114315179Y-90631186D01*
X114391938Y-90708518D01*
X114463037Y-90780213D01*
X114527986Y-90845780D01*
X114586295Y-90904727D01*
X114637472Y-90956561D01*
X114681027Y-91000789D01*
X114716471Y-91036921D01*
X114743312Y-91064462D01*
X114761060Y-91082922D01*
X114769225Y-91091808D01*
X114769704Y-91092571D01*
X114763315Y-91088138D01*
X114746181Y-91075313D01*
X114718999Y-91054635D01*
X114682464Y-91026642D01*
X114637275Y-90991874D01*
X114584126Y-90950869D01*
X114523716Y-90904166D01*
X114456741Y-90852302D01*
X114383898Y-90795817D01*
X114305882Y-90735249D01*
X114223392Y-90671137D01*
X114137124Y-90604020D01*
X114056000Y-90540845D01*
X113966507Y-90471093D01*
X113879942Y-90403569D01*
X113797021Y-90338835D01*
X113718465Y-90277454D01*
X113644991Y-90219991D01*
X113577318Y-90167007D01*
X113516164Y-90119067D01*
X113462249Y-90076733D01*
X113416290Y-90040569D01*
X113379006Y-90011138D01*
X113351116Y-89989003D01*
X113333338Y-89974728D01*
X113326657Y-89969141D01*
X113319394Y-89963223D01*
X113301414Y-89948967D01*
X113273455Y-89926948D01*
X113236256Y-89897742D01*
X113190554Y-89861923D01*
X113137087Y-89820068D01*
X113076594Y-89772752D01*
X113009811Y-89720550D01*
X112937478Y-89664038D01*
X112860333Y-89603790D01*
X112779112Y-89540384D01*
X112694555Y-89474393D01*
X112607399Y-89406393D01*
X112518382Y-89336960D01*
X112428243Y-89266669D01*
X112337718Y-89196096D01*
X112247547Y-89125816D01*
X112158468Y-89056404D01*
X112071217Y-88988436D01*
X111986534Y-88922488D01*
X111905156Y-88859134D01*
X111827822Y-88798950D01*
X111755268Y-88742511D01*
X111688234Y-88690393D01*
X111627457Y-88643172D01*
X111573675Y-88601422D01*
X111527627Y-88565720D01*
X111490050Y-88536640D01*
X111461682Y-88514758D01*
X111443261Y-88500650D01*
X111442724Y-88500242D01*
X111416619Y-88480427D01*
X111388295Y-88500922D01*
X111354098Y-88523989D01*
X111308903Y-88551932D01*
X111254905Y-88583576D01*
X111194300Y-88617746D01*
X111129282Y-88653267D01*
X111062047Y-88688962D01*
X110994789Y-88723657D01*
X110929703Y-88756177D01*
X110868985Y-88785346D01*
X110814829Y-88809988D01*
X110795729Y-88818216D01*
X110739486Y-88841970D01*
X110739486Y-88388234D01*
X110810221Y-88356331D01*
X110873852Y-88324954D01*
X110945309Y-88285081D01*
X111022105Y-88238423D01*
X111101748Y-88186693D01*
X111181747Y-88131601D01*
X111259613Y-88074860D01*
X111332854Y-88018180D01*
X111398982Y-87963275D01*
X111451926Y-87915291D01*
X111526659Y-87843826D01*
X112187172Y-88500344D01*
G37*
X107768042Y-87864184D02*
X107793088Y-87888952D01*
X107827105Y-87920269D01*
X107867497Y-87955915D01*
X107911670Y-87993672D01*
X107957027Y-88031321D01*
X108000974Y-88066641D01*
X108039914Y-88096663D01*
X108093053Y-88134604D01*
X108156371Y-88176613D01*
X108226811Y-88220802D01*
X108301318Y-88265283D01*
X108376835Y-88308168D01*
X108422042Y-88332713D01*
X108488570Y-88368150D01*
X108350927Y-88529532D01*
X108315686Y-88570567D01*
X108283280Y-88607757D01*
X108254948Y-88639726D01*
X108231926Y-88665096D01*
X108215453Y-88682488D01*
X108206767Y-88690526D01*
X108205925Y-88690914D01*
X108197095Y-88687582D01*
X108178271Y-88678482D01*
X108152111Y-88664955D01*
X108121274Y-88648345D01*
X108117384Y-88646208D01*
X108078207Y-88624591D01*
X108048433Y-88607949D01*
X108024744Y-88594271D01*
X108003818Y-88581549D01*
X107982336Y-88567775D01*
X107956978Y-88550938D01*
X107930528Y-88533146D01*
X107899292Y-88513090D01*
X107875112Y-88499607D01*
X107859699Y-88493589D01*
X107855425Y-88493891D01*
X107849115Y-88498790D01*
X107831803Y-88512253D01*
X107803939Y-88533927D01*
X107765977Y-88563460D01*
X107718368Y-88600502D01*
X107661563Y-88644700D01*
X107596015Y-88695703D01*
X107522175Y-88753160D01*
X107440494Y-88816718D01*
X107351425Y-88886027D01*
X107255420Y-88960735D01*
X107152930Y-89040490D01*
X107044406Y-89124940D01*
X106930302Y-89213735D01*
X106811067Y-89306523D01*
X106687156Y-89402952D01*
X106559018Y-89502670D01*
X106427105Y-89605326D01*
X106291871Y-89710569D01*
X106176825Y-89800101D01*
X106039218Y-89907178D01*
X105904576Y-90011924D01*
X105773348Y-90113989D01*
X105645985Y-90213024D01*
X105522938Y-90308678D01*
X105404656Y-90400603D01*
X105291591Y-90488448D01*
X105184193Y-90571865D01*
X105082913Y-90650503D01*
X104988200Y-90724014D01*
X104900506Y-90792047D01*
X104820280Y-90854252D01*
X104747975Y-90910282D01*
X104684039Y-90959784D01*
X104628923Y-91002411D01*
X104583078Y-91037813D01*
X104546955Y-91065639D01*
X104521004Y-91085541D01*
X104505674Y-91097169D01*
X104501336Y-91100286D01*
X104506010Y-91095213D01*
X104520545Y-91080254D01*
X104544555Y-91055800D01*
X104577650Y-91022241D01*
X104619444Y-90979967D01*
X104669547Y-90929370D01*
X104727572Y-90870839D01*
X104793131Y-90804765D01*
X104865836Y-90731539D01*
X104945299Y-90651550D01*
X105031131Y-90565190D01*
X105122945Y-90472849D01*
X105220353Y-90374917D01*
X105322966Y-90271784D01*
X105430397Y-90163842D01*
X105542257Y-90051481D01*
X105658159Y-89935091D01*
X105777715Y-89815062D01*
X105900536Y-89691785D01*
X106026235Y-89565651D01*
X106086161Y-89505529D01*
X106213534Y-89377746D01*
X106338448Y-89252438D01*
X106460502Y-89130005D01*
X106579293Y-89010850D01*
X106694422Y-88895375D01*
X106805487Y-88783982D01*
X106912087Y-88677073D01*
X107013821Y-88575050D01*
X107110289Y-88478315D01*
X107201089Y-88387270D01*
X107285819Y-88302318D01*
X107364080Y-88223860D01*
X107435470Y-88152299D01*
X107499588Y-88088036D01*
X107556033Y-88031474D01*
X107604405Y-87983014D01*
X107644301Y-87943059D01*
X107675321Y-87912011D01*
X107697065Y-87890272D01*
X107709130Y-87878244D01*
X107711205Y-87876195D01*
X107746626Y-87841618D01*
X107768042Y-87864184D01*
G36*
X107768042Y-87864184D02*
G01*
X107793088Y-87888952D01*
X107827105Y-87920269D01*
X107867497Y-87955915D01*
X107911670Y-87993672D01*
X107957027Y-88031321D01*
X108000974Y-88066641D01*
X108039914Y-88096663D01*
X108093053Y-88134604D01*
X108156371Y-88176613D01*
X108226811Y-88220802D01*
X108301318Y-88265283D01*
X108376835Y-88308168D01*
X108422042Y-88332713D01*
X108488570Y-88368150D01*
X108350927Y-88529532D01*
X108315686Y-88570567D01*
X108283280Y-88607757D01*
X108254948Y-88639726D01*
X108231926Y-88665096D01*
X108215453Y-88682488D01*
X108206767Y-88690526D01*
X108205925Y-88690914D01*
X108197095Y-88687582D01*
X108178271Y-88678482D01*
X108152111Y-88664955D01*
X108121274Y-88648345D01*
X108117384Y-88646208D01*
X108078207Y-88624591D01*
X108048433Y-88607949D01*
X108024744Y-88594271D01*
X108003818Y-88581549D01*
X107982336Y-88567775D01*
X107956978Y-88550938D01*
X107930528Y-88533146D01*
X107899292Y-88513090D01*
X107875112Y-88499607D01*
X107859699Y-88493589D01*
X107855425Y-88493891D01*
X107849115Y-88498790D01*
X107831803Y-88512253D01*
X107803939Y-88533927D01*
X107765977Y-88563460D01*
X107718368Y-88600502D01*
X107661563Y-88644700D01*
X107596015Y-88695703D01*
X107522175Y-88753160D01*
X107440494Y-88816718D01*
X107351425Y-88886027D01*
X107255420Y-88960735D01*
X107152930Y-89040490D01*
X107044406Y-89124940D01*
X106930302Y-89213735D01*
X106811067Y-89306523D01*
X106687156Y-89402952D01*
X106559018Y-89502670D01*
X106427105Y-89605326D01*
X106291871Y-89710569D01*
X106176825Y-89800101D01*
X106039218Y-89907178D01*
X105904576Y-90011924D01*
X105773348Y-90113989D01*
X105645985Y-90213024D01*
X105522938Y-90308678D01*
X105404656Y-90400603D01*
X105291591Y-90488448D01*
X105184193Y-90571865D01*
X105082913Y-90650503D01*
X104988200Y-90724014D01*
X104900506Y-90792047D01*
X104820280Y-90854252D01*
X104747975Y-90910282D01*
X104684039Y-90959784D01*
X104628923Y-91002411D01*
X104583078Y-91037813D01*
X104546955Y-91065639D01*
X104521004Y-91085541D01*
X104505674Y-91097169D01*
X104501336Y-91100286D01*
X104506010Y-91095213D01*
X104520545Y-91080254D01*
X104544555Y-91055800D01*
X104577650Y-91022241D01*
X104619444Y-90979967D01*
X104669547Y-90929370D01*
X104727572Y-90870839D01*
X104793131Y-90804765D01*
X104865836Y-90731539D01*
X104945299Y-90651550D01*
X105031131Y-90565190D01*
X105122945Y-90472849D01*
X105220353Y-90374917D01*
X105322966Y-90271784D01*
X105430397Y-90163842D01*
X105542257Y-90051481D01*
X105658159Y-89935091D01*
X105777715Y-89815062D01*
X105900536Y-89691785D01*
X106026235Y-89565651D01*
X106086161Y-89505529D01*
X106213534Y-89377746D01*
X106338448Y-89252438D01*
X106460502Y-89130005D01*
X106579293Y-89010850D01*
X106694422Y-88895375D01*
X106805487Y-88783982D01*
X106912087Y-88677073D01*
X107013821Y-88575050D01*
X107110289Y-88478315D01*
X107201089Y-88387270D01*
X107285819Y-88302318D01*
X107364080Y-88223860D01*
X107435470Y-88152299D01*
X107499588Y-88088036D01*
X107556033Y-88031474D01*
X107604405Y-87983014D01*
X107644301Y-87943059D01*
X107675321Y-87912011D01*
X107697065Y-87890272D01*
X107709130Y-87878244D01*
X107711205Y-87876195D01*
X107746626Y-87841618D01*
X107768042Y-87864184D01*
G37*
X108684715Y-88447783D02*
X108771284Y-88478558D01*
X108861789Y-88507915D01*
X108952684Y-88534842D01*
X109040425Y-88558330D01*
X109121464Y-88577368D01*
X109179200Y-88588734D01*
X109262213Y-88601128D01*
X109354583Y-88611164D01*
X109452637Y-88618686D01*
X109552707Y-88623536D01*
X109651122Y-88625556D01*
X109744212Y-88624587D01*
X109828306Y-88620473D01*
X109858297Y-88617941D01*
X109898490Y-88613364D01*
X109947438Y-88606693D01*
X110002491Y-88598391D01*
X110060999Y-88588922D01*
X110120313Y-88578749D01*
X110177783Y-88568336D01*
X110230759Y-88558146D01*
X110276592Y-88548645D01*
X110312631Y-88540294D01*
X110331271Y-88535179D01*
X110365013Y-88524776D01*
X110405409Y-88512351D01*
X110445234Y-88500125D01*
X110456457Y-88496685D01*
X110495071Y-88484368D01*
X110539820Y-88469356D01*
X110583292Y-88454158D01*
X110600081Y-88448067D01*
X110630354Y-88437220D01*
X110655134Y-88428907D01*
X110671578Y-88424044D01*
X110676870Y-88423300D01*
X110678496Y-88431759D01*
X110680745Y-88452389D01*
X110683471Y-88482982D01*
X110686530Y-88521331D01*
X110689776Y-88565229D01*
X110693065Y-88612467D01*
X110696251Y-88660840D01*
X110699190Y-88708138D01*
X110701735Y-88752156D01*
X110703742Y-88790686D01*
X110705066Y-88821521D01*
X110705562Y-88842452D01*
X110705085Y-88851274D01*
X110705012Y-88851380D01*
X110694817Y-88856377D01*
X110672652Y-88864314D01*
X110640621Y-88874586D01*
X110600827Y-88886590D01*
X110555377Y-88899722D01*
X110506373Y-88913377D01*
X110455920Y-88926953D01*
X110406123Y-88939843D01*
X110359086Y-88951446D01*
X110343818Y-88955055D01*
X110245052Y-88976563D01*
X110146696Y-88995082D01*
X110052938Y-89009894D01*
X109967968Y-89020281D01*
X109957529Y-89021293D01*
X109929246Y-89024617D01*
X109912807Y-89028588D01*
X109905542Y-89034057D01*
X109904483Y-89038179D01*
X109903851Y-89050293D01*
X109902357Y-89075885D01*
X109900044Y-89114267D01*
X109896955Y-89164748D01*
X109893135Y-89226641D01*
X109888628Y-89299257D01*
X109883476Y-89381907D01*
X109877725Y-89473901D01*
X109871416Y-89574553D01*
X109864595Y-89683171D01*
X109857305Y-89799069D01*
X109849590Y-89921556D01*
X109841493Y-90049944D01*
X109833058Y-90183545D01*
X109824330Y-90321670D01*
X109815351Y-90463629D01*
X109806165Y-90608734D01*
X109796817Y-90756296D01*
X109787350Y-90905626D01*
X109777807Y-91056036D01*
X109768232Y-91206836D01*
X109758670Y-91357339D01*
X109749164Y-91506855D01*
X109739757Y-91654695D01*
X109730494Y-91800170D01*
X109721418Y-91942592D01*
X109712572Y-92081272D01*
X109704001Y-92215521D01*
X109695749Y-92344651D01*
X109687859Y-92467972D01*
X109680374Y-92584795D01*
X109673339Y-92694433D01*
X109666797Y-92796195D01*
X109660793Y-92889394D01*
X109655369Y-92973341D01*
X109650569Y-93047346D01*
X109646438Y-93110721D01*
X109643019Y-93162777D01*
X109640356Y-93202825D01*
X109638492Y-93230177D01*
X109637472Y-93244144D01*
X109637282Y-93245816D01*
X109636713Y-93235156D01*
X109635270Y-93210916D01*
X109633009Y-93173999D01*
X109629987Y-93125308D01*
X109626261Y-93065748D01*
X109621890Y-92996223D01*
X109616928Y-92917635D01*
X109611434Y-92830889D01*
X109605465Y-92736888D01*
X109599078Y-92636536D01*
X109592329Y-92530737D01*
X109585276Y-92420394D01*
X109578416Y-92313273D01*
X109570726Y-92193270D01*
X109562233Y-92060644D01*
X109553054Y-91917259D01*
X109543311Y-91764979D01*
X109533121Y-91605666D01*
X109522603Y-91441182D01*
X109511877Y-91273392D01*
X109501062Y-91104158D01*
X109490277Y-90935343D01*
X109479641Y-90768810D01*
X109469273Y-90606422D01*
X109459292Y-90450043D01*
X109449817Y-90301534D01*
X109447995Y-90272971D01*
X109439819Y-90144863D01*
X109431843Y-90020111D01*
X109424123Y-89899541D01*
X109416712Y-89783978D01*
X109409662Y-89674251D01*
X109403028Y-89571183D01*
X109396863Y-89475603D01*
X109391220Y-89388336D01*
X109386152Y-89310209D01*
X109381713Y-89242047D01*
X109377956Y-89184677D01*
X109374935Y-89138925D01*
X109372703Y-89105618D01*
X109371314Y-89085581D01*
X109370967Y-89080986D01*
X109366375Y-89024743D01*
X109300002Y-89024733D01*
X109260809Y-89023403D01*
X109218189Y-89019898D01*
X109180460Y-89014932D01*
X109175572Y-89014074D01*
X109071515Y-88994390D01*
X108979362Y-88975546D01*
X108896583Y-88956858D01*
X108820648Y-88937641D01*
X108749025Y-88917210D01*
X108679186Y-88894883D01*
X108608601Y-88869973D01*
X108534737Y-88841798D01*
X108526276Y-88838459D01*
X108465995Y-88814281D01*
X108409425Y-88790983D01*
X108358009Y-88769206D01*
X108313192Y-88749592D01*
X108276417Y-88732782D01*
X108249126Y-88719419D01*
X108232765Y-88710143D01*
X108228514Y-88706085D01*
X108233455Y-88700043D01*
X108247436Y-88685070D01*
X108269200Y-88662457D01*
X108297488Y-88633498D01*
X108331041Y-88599488D01*
X108368601Y-88561719D01*
X108383052Y-88547261D01*
X108537590Y-88392848D01*
X108684715Y-88447783D01*
G36*
X108684715Y-88447783D02*
G01*
X108771284Y-88478558D01*
X108861789Y-88507915D01*
X108952684Y-88534842D01*
X109040425Y-88558330D01*
X109121464Y-88577368D01*
X109179200Y-88588734D01*
X109262213Y-88601128D01*
X109354583Y-88611164D01*
X109452637Y-88618686D01*
X109552707Y-88623536D01*
X109651122Y-88625556D01*
X109744212Y-88624587D01*
X109828306Y-88620473D01*
X109858297Y-88617941D01*
X109898490Y-88613364D01*
X109947438Y-88606693D01*
X110002491Y-88598391D01*
X110060999Y-88588922D01*
X110120313Y-88578749D01*
X110177783Y-88568336D01*
X110230759Y-88558146D01*
X110276592Y-88548645D01*
X110312631Y-88540294D01*
X110331271Y-88535179D01*
X110365013Y-88524776D01*
X110405409Y-88512351D01*
X110445234Y-88500125D01*
X110456457Y-88496685D01*
X110495071Y-88484368D01*
X110539820Y-88469356D01*
X110583292Y-88454158D01*
X110600081Y-88448067D01*
X110630354Y-88437220D01*
X110655134Y-88428907D01*
X110671578Y-88424044D01*
X110676870Y-88423300D01*
X110678496Y-88431759D01*
X110680745Y-88452389D01*
X110683471Y-88482982D01*
X110686530Y-88521331D01*
X110689776Y-88565229D01*
X110693065Y-88612467D01*
X110696251Y-88660840D01*
X110699190Y-88708138D01*
X110701735Y-88752156D01*
X110703742Y-88790686D01*
X110705066Y-88821521D01*
X110705562Y-88842452D01*
X110705085Y-88851274D01*
X110705012Y-88851380D01*
X110694817Y-88856377D01*
X110672652Y-88864314D01*
X110640621Y-88874586D01*
X110600827Y-88886590D01*
X110555377Y-88899722D01*
X110506373Y-88913377D01*
X110455920Y-88926953D01*
X110406123Y-88939843D01*
X110359086Y-88951446D01*
X110343818Y-88955055D01*
X110245052Y-88976563D01*
X110146696Y-88995082D01*
X110052938Y-89009894D01*
X109967968Y-89020281D01*
X109957529Y-89021293D01*
X109929246Y-89024617D01*
X109912807Y-89028588D01*
X109905542Y-89034057D01*
X109904483Y-89038179D01*
X109903851Y-89050293D01*
X109902357Y-89075885D01*
X109900044Y-89114267D01*
X109896955Y-89164748D01*
X109893135Y-89226641D01*
X109888628Y-89299257D01*
X109883476Y-89381907D01*
X109877725Y-89473901D01*
X109871416Y-89574553D01*
X109864595Y-89683171D01*
X109857305Y-89799069D01*
X109849590Y-89921556D01*
X109841493Y-90049944D01*
X109833058Y-90183545D01*
X109824330Y-90321670D01*
X109815351Y-90463629D01*
X109806165Y-90608734D01*
X109796817Y-90756296D01*
X109787350Y-90905626D01*
X109777807Y-91056036D01*
X109768232Y-91206836D01*
X109758670Y-91357339D01*
X109749164Y-91506855D01*
X109739757Y-91654695D01*
X109730494Y-91800170D01*
X109721418Y-91942592D01*
X109712572Y-92081272D01*
X109704001Y-92215521D01*
X109695749Y-92344651D01*
X109687859Y-92467972D01*
X109680374Y-92584795D01*
X109673339Y-92694433D01*
X109666797Y-92796195D01*
X109660793Y-92889394D01*
X109655369Y-92973341D01*
X109650569Y-93047346D01*
X109646438Y-93110721D01*
X109643019Y-93162777D01*
X109640356Y-93202825D01*
X109638492Y-93230177D01*
X109637472Y-93244144D01*
X109637282Y-93245816D01*
X109636713Y-93235156D01*
X109635270Y-93210916D01*
X109633009Y-93173999D01*
X109629987Y-93125308D01*
X109626261Y-93065748D01*
X109621890Y-92996223D01*
X109616928Y-92917635D01*
X109611434Y-92830889D01*
X109605465Y-92736888D01*
X109599078Y-92636536D01*
X109592329Y-92530737D01*
X109585276Y-92420394D01*
X109578416Y-92313273D01*
X109570726Y-92193270D01*
X109562233Y-92060644D01*
X109553054Y-91917259D01*
X109543311Y-91764979D01*
X109533121Y-91605666D01*
X109522603Y-91441182D01*
X109511877Y-91273392D01*
X109501062Y-91104158D01*
X109490277Y-90935343D01*
X109479641Y-90768810D01*
X109469273Y-90606422D01*
X109459292Y-90450043D01*
X109449817Y-90301534D01*
X109447995Y-90272971D01*
X109439819Y-90144863D01*
X109431843Y-90020111D01*
X109424123Y-89899541D01*
X109416712Y-89783978D01*
X109409662Y-89674251D01*
X109403028Y-89571183D01*
X109396863Y-89475603D01*
X109391220Y-89388336D01*
X109386152Y-89310209D01*
X109381713Y-89242047D01*
X109377956Y-89184677D01*
X109374935Y-89138925D01*
X109372703Y-89105618D01*
X109371314Y-89085581D01*
X109370967Y-89080986D01*
X109366375Y-89024743D01*
X109300002Y-89024733D01*
X109260809Y-89023403D01*
X109218189Y-89019898D01*
X109180460Y-89014932D01*
X109175572Y-89014074D01*
X109071515Y-88994390D01*
X108979362Y-88975546D01*
X108896583Y-88956858D01*
X108820648Y-88937641D01*
X108749025Y-88917210D01*
X108679186Y-88894883D01*
X108608601Y-88869973D01*
X108534737Y-88841798D01*
X108526276Y-88838459D01*
X108465995Y-88814281D01*
X108409425Y-88790983D01*
X108358009Y-88769206D01*
X108313192Y-88749592D01*
X108276417Y-88732782D01*
X108249126Y-88719419D01*
X108232765Y-88710143D01*
X108228514Y-88706085D01*
X108233455Y-88700043D01*
X108247436Y-88685070D01*
X108269200Y-88662457D01*
X108297488Y-88633498D01*
X108331041Y-88599488D01*
X108368601Y-88561719D01*
X108383052Y-88547261D01*
X108537590Y-88392848D01*
X108684715Y-88447783D01*
G37*
X115080475Y-80513708D02*
X115067768Y-80530624D01*
X115046838Y-80558091D01*
X115018034Y-80595659D01*
X114981705Y-80642878D01*
X114938198Y-80699299D01*
X114887862Y-80764472D01*
X114831047Y-80837947D01*
X114768099Y-80919274D01*
X114699368Y-81008004D01*
X114625202Y-81103687D01*
X114545949Y-81205873D01*
X114461958Y-81314112D01*
X114373578Y-81427956D01*
X114281157Y-81546953D01*
X114185043Y-81670655D01*
X114085585Y-81798612D01*
X113983131Y-81930373D01*
X113878030Y-82065490D01*
X113786977Y-82182508D01*
X113679823Y-82320198D01*
X113574964Y-82454939D01*
X113472752Y-82586281D01*
X113373539Y-82713771D01*
X113277674Y-82836959D01*
X113185511Y-82955392D01*
X113097400Y-83068620D01*
X113013692Y-83176190D01*
X112934738Y-83277652D01*
X112860891Y-83372554D01*
X112792501Y-83460443D01*
X112729920Y-83540870D01*
X112673498Y-83613382D01*
X112623588Y-83677528D01*
X112580541Y-83732856D01*
X112544708Y-83778916D01*
X112516439Y-83815254D01*
X112496088Y-83841421D01*
X112484004Y-83856964D01*
X112480500Y-83861480D01*
X112481227Y-83871092D01*
X112489410Y-83887345D01*
X112496569Y-83897765D01*
X112527475Y-83941928D01*
X112562407Y-83997175D01*
X112600109Y-84061072D01*
X112639320Y-84131186D01*
X112678784Y-84205085D01*
X112717241Y-84280333D01*
X112753432Y-84354498D01*
X112786101Y-84425145D01*
X112813988Y-84489843D01*
X112835834Y-84546156D01*
X112843600Y-84568857D01*
X112854801Y-84602260D01*
X112866589Y-84635403D01*
X112876780Y-84662187D01*
X112878677Y-84666829D01*
X112893381Y-84706861D01*
X112909392Y-84758827D01*
X112926175Y-84820264D01*
X112943192Y-84888708D01*
X112959909Y-84961697D01*
X112975790Y-85036768D01*
X112990299Y-85111457D01*
X113002900Y-85183301D01*
X113013057Y-85249838D01*
X113020235Y-85308603D01*
X113021736Y-85324454D01*
X113026544Y-85379736D01*
X113064115Y-85383443D01*
X113074417Y-85384200D01*
X113098619Y-85385822D01*
X113136134Y-85388271D01*
X113186376Y-85391513D01*
X113248758Y-85395508D01*
X113322694Y-85400221D01*
X113407598Y-85405613D01*
X113502882Y-85411649D01*
X113607960Y-85418292D01*
X113722246Y-85425504D01*
X113845154Y-85433248D01*
X113976096Y-85441487D01*
X114114487Y-85450184D01*
X114259740Y-85459303D01*
X114411268Y-85468807D01*
X114568485Y-85478657D01*
X114730805Y-85488818D01*
X114897640Y-85499253D01*
X115068405Y-85509923D01*
X115179047Y-85516832D01*
X117256409Y-85646513D01*
X115143693Y-85778644D01*
X114969685Y-85789537D01*
X114799444Y-85800215D01*
X114633539Y-85810640D01*
X114472538Y-85820778D01*
X114317012Y-85830591D01*
X114167527Y-85840043D01*
X114024655Y-85849098D01*
X113888963Y-85857719D01*
X113761020Y-85865869D01*
X113641396Y-85873513D01*
X113530660Y-85880614D01*
X113429380Y-85887136D01*
X113338125Y-85893042D01*
X113257465Y-85898295D01*
X113187968Y-85902860D01*
X113130203Y-85906699D01*
X113084740Y-85909778D01*
X113052147Y-85912058D01*
X113032993Y-85913504D01*
X113027705Y-85914047D01*
X113025878Y-85922061D01*
X113023073Y-85941872D01*
X113019622Y-85970823D01*
X113015854Y-86006256D01*
X113014355Y-86021417D01*
X113010480Y-86060599D01*
X113006923Y-86093192D01*
X113003179Y-86122055D01*
X112998739Y-86150052D01*
X112993095Y-86180043D01*
X112985741Y-86214892D01*
X112976168Y-86257459D01*
X112963869Y-86310607D01*
X112960494Y-86325086D01*
X112947607Y-86377699D01*
X112932174Y-86436410D01*
X112914980Y-86498587D01*
X112896811Y-86561596D01*
X112878451Y-86622804D01*
X112860685Y-86679576D01*
X112844297Y-86729280D01*
X112830072Y-86769281D01*
X112822171Y-86789277D01*
X112809018Y-86819840D01*
X112793278Y-86855464D01*
X112776091Y-86893675D01*
X112758598Y-86931998D01*
X112741943Y-86967958D01*
X112727264Y-86999078D01*
X112715705Y-87022884D01*
X112708406Y-87036901D01*
X112706914Y-87039239D01*
X112701473Y-87048070D01*
X112690541Y-87067393D01*
X112675410Y-87094868D01*
X112657373Y-87128157D01*
X112644386Y-87152400D01*
X112602240Y-87227856D01*
X112556538Y-87303422D01*
X112510570Y-87373775D01*
X112484918Y-87410323D01*
X112483420Y-87413368D01*
X112483249Y-87417507D01*
X112484936Y-87423461D01*
X112489012Y-87431953D01*
X112496009Y-87443704D01*
X112506457Y-87459435D01*
X112520888Y-87479870D01*
X112539833Y-87505728D01*
X112563823Y-87537734D01*
X112593390Y-87576607D01*
X112629064Y-87623071D01*
X112671377Y-87677847D01*
X112720861Y-87741656D01*
X112778046Y-87815221D01*
X112843464Y-87899264D01*
X112866784Y-87929209D01*
X112925543Y-88004598D01*
X112982028Y-88076963D01*
X113035566Y-88145448D01*
X113085484Y-88209196D01*
X113131109Y-88267352D01*
X113171769Y-88319060D01*
X113206790Y-88363463D01*
X113235499Y-88399707D01*
X113257224Y-88426934D01*
X113271291Y-88444289D01*
X113276741Y-88450655D01*
X113292242Y-88468751D01*
X113307816Y-88490693D01*
X113310002Y-88494198D01*
X113316003Y-88502485D01*
X113330489Y-88521656D01*
X113353023Y-88551151D01*
X113383171Y-88590405D01*
X113420494Y-88638855D01*
X113464558Y-88695938D01*
X113514926Y-88761091D01*
X113571162Y-88833751D01*
X113632830Y-88913354D01*
X113699494Y-88999337D01*
X113770717Y-89091137D01*
X113846063Y-89188192D01*
X113925096Y-89289936D01*
X114007381Y-89395809D01*
X114092480Y-89505245D01*
X114179958Y-89617683D01*
X114203237Y-89647594D01*
X114290971Y-89760348D01*
X114376270Y-89870037D01*
X114458712Y-89976113D01*
X114537873Y-90078028D01*
X114613327Y-90175234D01*
X114684652Y-90267183D01*
X114751423Y-90353328D01*
X114813216Y-90433120D01*
X114869607Y-90506011D01*
X114920171Y-90571454D01*
X114964486Y-90628901D01*
X115002127Y-90677803D01*
X115032669Y-90717613D01*
X115055689Y-90747783D01*
X115070763Y-90767765D01*
X115077466Y-90777011D01*
X115077782Y-90777609D01*
X115072496Y-90772760D01*
X115057345Y-90758024D01*
X115032715Y-90733786D01*
X114998994Y-90700435D01*
X114956567Y-90658354D01*
X114905823Y-90607932D01*
X114847149Y-90549553D01*
X114780931Y-90483604D01*
X114707556Y-90410472D01*
X114627412Y-90330542D01*
X114540886Y-90244201D01*
X114448364Y-90151835D01*
X114350235Y-90053831D01*
X114246884Y-89950573D01*
X114138699Y-89842449D01*
X114026067Y-89729845D01*
X113909375Y-89613147D01*
X113789011Y-89492740D01*
X113665360Y-89369013D01*
X113538811Y-89242350D01*
X113455712Y-89159157D01*
X111836435Y-87537912D01*
X111903003Y-87465995D01*
X111957046Y-87406537D01*
X112003583Y-87352676D01*
X112045909Y-87300311D01*
X112087315Y-87245339D01*
X112131094Y-87183658D01*
X112140157Y-87170543D01*
X112245792Y-87004536D01*
X112338354Y-86832285D01*
X112417858Y-86653752D01*
X112484317Y-86468901D01*
X112537743Y-86277693D01*
X112578150Y-86080092D01*
X112605551Y-85876061D01*
X112608429Y-85846114D01*
X112616061Y-85712091D01*
X112615609Y-85570538D01*
X112607381Y-85425769D01*
X112591681Y-85282101D01*
X112568816Y-85143847D01*
X112553660Y-85073229D01*
X112545459Y-85038154D01*
X112535734Y-84996559D01*
X112526267Y-84956058D01*
X112523970Y-84946229D01*
X112513523Y-84907223D01*
X112498351Y-84858177D01*
X112479628Y-84802311D01*
X112458530Y-84742845D01*
X112436231Y-84683001D01*
X112413907Y-84625998D01*
X112392733Y-84575058D01*
X112373883Y-84533399D01*
X112371718Y-84528943D01*
X112303018Y-84394437D01*
X112234732Y-84272335D01*
X112165511Y-84160633D01*
X112094005Y-84057328D01*
X112018867Y-83960416D01*
X111938747Y-83867895D01*
X111895812Y-83822045D01*
X111836567Y-83760332D01*
X113458991Y-82132464D01*
X113587266Y-82003779D01*
X113712897Y-81877784D01*
X113835500Y-81754867D01*
X113954688Y-81635411D01*
X114070074Y-81519804D01*
X114181272Y-81408432D01*
X114287897Y-81301680D01*
X114389562Y-81199934D01*
X114485882Y-81103580D01*
X114576468Y-81013005D01*
X114660937Y-80928594D01*
X114738901Y-80850732D01*
X114809974Y-80779807D01*
X114873771Y-80716204D01*
X114929905Y-80660308D01*
X114977989Y-80612506D01*
X115017638Y-80573184D01*
X115048465Y-80542728D01*
X115070085Y-80521524D01*
X115082111Y-80509956D01*
X115084611Y-80507792D01*
X115080475Y-80513708D01*
G36*
X115080475Y-80513708D02*
G01*
X115067768Y-80530624D01*
X115046838Y-80558091D01*
X115018034Y-80595659D01*
X114981705Y-80642878D01*
X114938198Y-80699299D01*
X114887862Y-80764472D01*
X114831047Y-80837947D01*
X114768099Y-80919274D01*
X114699368Y-81008004D01*
X114625202Y-81103687D01*
X114545949Y-81205873D01*
X114461958Y-81314112D01*
X114373578Y-81427956D01*
X114281157Y-81546953D01*
X114185043Y-81670655D01*
X114085585Y-81798612D01*
X113983131Y-81930373D01*
X113878030Y-82065490D01*
X113786977Y-82182508D01*
X113679823Y-82320198D01*
X113574964Y-82454939D01*
X113472752Y-82586281D01*
X113373539Y-82713771D01*
X113277674Y-82836959D01*
X113185511Y-82955392D01*
X113097400Y-83068620D01*
X113013692Y-83176190D01*
X112934738Y-83277652D01*
X112860891Y-83372554D01*
X112792501Y-83460443D01*
X112729920Y-83540870D01*
X112673498Y-83613382D01*
X112623588Y-83677528D01*
X112580541Y-83732856D01*
X112544708Y-83778916D01*
X112516439Y-83815254D01*
X112496088Y-83841421D01*
X112484004Y-83856964D01*
X112480500Y-83861480D01*
X112481227Y-83871092D01*
X112489410Y-83887345D01*
X112496569Y-83897765D01*
X112527475Y-83941928D01*
X112562407Y-83997175D01*
X112600109Y-84061072D01*
X112639320Y-84131186D01*
X112678784Y-84205085D01*
X112717241Y-84280333D01*
X112753432Y-84354498D01*
X112786101Y-84425145D01*
X112813988Y-84489843D01*
X112835834Y-84546156D01*
X112843600Y-84568857D01*
X112854801Y-84602260D01*
X112866589Y-84635403D01*
X112876780Y-84662187D01*
X112878677Y-84666829D01*
X112893381Y-84706861D01*
X112909392Y-84758827D01*
X112926175Y-84820264D01*
X112943192Y-84888708D01*
X112959909Y-84961697D01*
X112975790Y-85036768D01*
X112990299Y-85111457D01*
X113002900Y-85183301D01*
X113013057Y-85249838D01*
X113020235Y-85308603D01*
X113021736Y-85324454D01*
X113026544Y-85379736D01*
X113064115Y-85383443D01*
X113074417Y-85384200D01*
X113098619Y-85385822D01*
X113136134Y-85388271D01*
X113186376Y-85391513D01*
X113248758Y-85395508D01*
X113322694Y-85400221D01*
X113407598Y-85405613D01*
X113502882Y-85411649D01*
X113607960Y-85418292D01*
X113722246Y-85425504D01*
X113845154Y-85433248D01*
X113976096Y-85441487D01*
X114114487Y-85450184D01*
X114259740Y-85459303D01*
X114411268Y-85468807D01*
X114568485Y-85478657D01*
X114730805Y-85488818D01*
X114897640Y-85499253D01*
X115068405Y-85509923D01*
X115179047Y-85516832D01*
X117256409Y-85646513D01*
X115143693Y-85778644D01*
X114969685Y-85789537D01*
X114799444Y-85800215D01*
X114633539Y-85810640D01*
X114472538Y-85820778D01*
X114317012Y-85830591D01*
X114167527Y-85840043D01*
X114024655Y-85849098D01*
X113888963Y-85857719D01*
X113761020Y-85865869D01*
X113641396Y-85873513D01*
X113530660Y-85880614D01*
X113429380Y-85887136D01*
X113338125Y-85893042D01*
X113257465Y-85898295D01*
X113187968Y-85902860D01*
X113130203Y-85906699D01*
X113084740Y-85909778D01*
X113052147Y-85912058D01*
X113032993Y-85913504D01*
X113027705Y-85914047D01*
X113025878Y-85922061D01*
X113023073Y-85941872D01*
X113019622Y-85970823D01*
X113015854Y-86006256D01*
X113014355Y-86021417D01*
X113010480Y-86060599D01*
X113006923Y-86093192D01*
X113003179Y-86122055D01*
X112998739Y-86150052D01*
X112993095Y-86180043D01*
X112985741Y-86214892D01*
X112976168Y-86257459D01*
X112963869Y-86310607D01*
X112960494Y-86325086D01*
X112947607Y-86377699D01*
X112932174Y-86436410D01*
X112914980Y-86498587D01*
X112896811Y-86561596D01*
X112878451Y-86622804D01*
X112860685Y-86679576D01*
X112844297Y-86729280D01*
X112830072Y-86769281D01*
X112822171Y-86789277D01*
X112809018Y-86819840D01*
X112793278Y-86855464D01*
X112776091Y-86893675D01*
X112758598Y-86931998D01*
X112741943Y-86967958D01*
X112727264Y-86999078D01*
X112715705Y-87022884D01*
X112708406Y-87036901D01*
X112706914Y-87039239D01*
X112701473Y-87048070D01*
X112690541Y-87067393D01*
X112675410Y-87094868D01*
X112657373Y-87128157D01*
X112644386Y-87152400D01*
X112602240Y-87227856D01*
X112556538Y-87303422D01*
X112510570Y-87373775D01*
X112484918Y-87410323D01*
X112483420Y-87413368D01*
X112483249Y-87417507D01*
X112484936Y-87423461D01*
X112489012Y-87431953D01*
X112496009Y-87443704D01*
X112506457Y-87459435D01*
X112520888Y-87479870D01*
X112539833Y-87505728D01*
X112563823Y-87537734D01*
X112593390Y-87576607D01*
X112629064Y-87623071D01*
X112671377Y-87677847D01*
X112720861Y-87741656D01*
X112778046Y-87815221D01*
X112843464Y-87899264D01*
X112866784Y-87929209D01*
X112925543Y-88004598D01*
X112982028Y-88076963D01*
X113035566Y-88145448D01*
X113085484Y-88209196D01*
X113131109Y-88267352D01*
X113171769Y-88319060D01*
X113206790Y-88363463D01*
X113235499Y-88399707D01*
X113257224Y-88426934D01*
X113271291Y-88444289D01*
X113276741Y-88450655D01*
X113292242Y-88468751D01*
X113307816Y-88490693D01*
X113310002Y-88494198D01*
X113316003Y-88502485D01*
X113330489Y-88521656D01*
X113353023Y-88551151D01*
X113383171Y-88590405D01*
X113420494Y-88638855D01*
X113464558Y-88695938D01*
X113514926Y-88761091D01*
X113571162Y-88833751D01*
X113632830Y-88913354D01*
X113699494Y-88999337D01*
X113770717Y-89091137D01*
X113846063Y-89188192D01*
X113925096Y-89289936D01*
X114007381Y-89395809D01*
X114092480Y-89505245D01*
X114179958Y-89617683D01*
X114203237Y-89647594D01*
X114290971Y-89760348D01*
X114376270Y-89870037D01*
X114458712Y-89976113D01*
X114537873Y-90078028D01*
X114613327Y-90175234D01*
X114684652Y-90267183D01*
X114751423Y-90353328D01*
X114813216Y-90433120D01*
X114869607Y-90506011D01*
X114920171Y-90571454D01*
X114964486Y-90628901D01*
X115002127Y-90677803D01*
X115032669Y-90717613D01*
X115055689Y-90747783D01*
X115070763Y-90767765D01*
X115077466Y-90777011D01*
X115077782Y-90777609D01*
X115072496Y-90772760D01*
X115057345Y-90758024D01*
X115032715Y-90733786D01*
X114998994Y-90700435D01*
X114956567Y-90658354D01*
X114905823Y-90607932D01*
X114847149Y-90549553D01*
X114780931Y-90483604D01*
X114707556Y-90410472D01*
X114627412Y-90330542D01*
X114540886Y-90244201D01*
X114448364Y-90151835D01*
X114350235Y-90053831D01*
X114246884Y-89950573D01*
X114138699Y-89842449D01*
X114026067Y-89729845D01*
X113909375Y-89613147D01*
X113789011Y-89492740D01*
X113665360Y-89369013D01*
X113538811Y-89242350D01*
X113455712Y-89159157D01*
X111836435Y-87537912D01*
X111903003Y-87465995D01*
X111957046Y-87406537D01*
X112003583Y-87352676D01*
X112045909Y-87300311D01*
X112087315Y-87245339D01*
X112131094Y-87183658D01*
X112140157Y-87170543D01*
X112245792Y-87004536D01*
X112338354Y-86832285D01*
X112417858Y-86653752D01*
X112484317Y-86468901D01*
X112537743Y-86277693D01*
X112578150Y-86080092D01*
X112605551Y-85876061D01*
X112608429Y-85846114D01*
X112616061Y-85712091D01*
X112615609Y-85570538D01*
X112607381Y-85425769D01*
X112591681Y-85282101D01*
X112568816Y-85143847D01*
X112553660Y-85073229D01*
X112545459Y-85038154D01*
X112535734Y-84996559D01*
X112526267Y-84956058D01*
X112523970Y-84946229D01*
X112513523Y-84907223D01*
X112498351Y-84858177D01*
X112479628Y-84802311D01*
X112458530Y-84742845D01*
X112436231Y-84683001D01*
X112413907Y-84625998D01*
X112392733Y-84575058D01*
X112373883Y-84533399D01*
X112371718Y-84528943D01*
X112303018Y-84394437D01*
X112234732Y-84272335D01*
X112165511Y-84160633D01*
X112094005Y-84057328D01*
X112018867Y-83960416D01*
X111938747Y-83867895D01*
X111895812Y-83822045D01*
X111836567Y-83760332D01*
X113458991Y-82132464D01*
X113587266Y-82003779D01*
X113712897Y-81877784D01*
X113835500Y-81754867D01*
X113954688Y-81635411D01*
X114070074Y-81519804D01*
X114181272Y-81408432D01*
X114287897Y-81301680D01*
X114389562Y-81199934D01*
X114485882Y-81103580D01*
X114576468Y-81013005D01*
X114660937Y-80928594D01*
X114738901Y-80850732D01*
X114809974Y-80779807D01*
X114873771Y-80716204D01*
X114929905Y-80660308D01*
X114977989Y-80612506D01*
X115017638Y-80573184D01*
X115048465Y-80542728D01*
X115070085Y-80521524D01*
X115082111Y-80509956D01*
X115084611Y-80507792D01*
X115080475Y-80513708D01*
G37*
D14*
X194912500Y-110260000D02*
X197197500Y-110260000D01*
X197197500Y-108790000D02*
X194912500Y-108790000D01*
X197197500Y-110260000D02*
X197197500Y-108790000D01*
X194912500Y-118760000D02*
X197197500Y-118760000D01*
X197197500Y-117290000D02*
X194912500Y-117290000D01*
X197197500Y-118760000D02*
X197197500Y-117290000D01*
X195949758Y-114502500D02*
X195475242Y-114502500D01*
X195949758Y-115547500D02*
X195475242Y-115547500D01*
X195954758Y-97502500D02*
X195480242Y-97502500D01*
X195954758Y-98547500D02*
X195480242Y-98547500D01*
X155750000Y-92100000D02*
X155750000Y-93350000D01*
X155750000Y-93350000D02*
X157000000Y-93350000D01*
X156040000Y-82940000D02*
X156040000Y-93060000D01*
X156040000Y-93060000D02*
X162010000Y-93060000D01*
X156050000Y-82950000D02*
X156050000Y-84750000D01*
X156050000Y-84750000D02*
X156800000Y-84750000D01*
X156050000Y-86250000D02*
X156050000Y-89750000D01*
X156050000Y-89750000D02*
X156800000Y-89750000D01*
X156050000Y-91250000D02*
X156050000Y-93050000D01*
X156050000Y-93050000D02*
X156800000Y-93050000D01*
X156800000Y-82950000D02*
X156050000Y-82950000D01*
X156800000Y-84750000D02*
X156800000Y-82950000D01*
X156800000Y-86250000D02*
X156050000Y-86250000D01*
X156800000Y-89750000D02*
X156800000Y-86250000D01*
X156800000Y-91250000D02*
X156050000Y-91250000D01*
X156800000Y-93050000D02*
X156800000Y-91250000D01*
X158300000Y-82950000D02*
X158300000Y-83700000D01*
X158300000Y-83700000D02*
X161250000Y-83700000D01*
X158300000Y-92300000D02*
X161250000Y-92300000D01*
X158300000Y-93050000D02*
X158300000Y-92300000D01*
X161250000Y-83700000D02*
X161250000Y-88000000D01*
X161250000Y-92300000D02*
X161250000Y-88000000D01*
X162010000Y-82940000D02*
X156040000Y-82940000D01*
X162010000Y-93060000D02*
X162010000Y-82940000D01*
X194912500Y-93260000D02*
X197197500Y-93260000D01*
X197197500Y-91790000D02*
X194912500Y-91790000D01*
X197197500Y-93260000D02*
X197197500Y-91790000D01*
D12*
X167960000Y-140960000D02*
X178120000Y-140960000D01*
X167960000Y-146040000D02*
X167960000Y-140960000D01*
X178120000Y-140960000D02*
X178120000Y-146040000D01*
X178120000Y-146040000D02*
X167960000Y-146040000D01*
X110400000Y-140400000D02*
X116600000Y-140400000D01*
X110400000Y-146600000D02*
X110400000Y-140400000D01*
X110900000Y-139700000D02*
X111600000Y-139700000D01*
X110900000Y-140400000D02*
X110900000Y-139700000D01*
X110900000Y-146600000D02*
X110900000Y-147300000D01*
X110900000Y-147300000D02*
X111600000Y-147300000D01*
X111600000Y-139700000D02*
X111600000Y-140400000D01*
X111600000Y-147300000D02*
X111600000Y-146600000D01*
X115400000Y-139700000D02*
X116100000Y-139700000D01*
X115400000Y-140400000D02*
X115400000Y-139700000D01*
X115400000Y-147300000D02*
X115400000Y-146600000D01*
X116100000Y-139700000D02*
X116100000Y-140400000D01*
X116100000Y-146600000D02*
X116100000Y-147300000D01*
X116100000Y-147300000D02*
X115400000Y-147300000D01*
X116600000Y-140400000D02*
X116600000Y-146600000D01*
X116600000Y-146600000D02*
X110400000Y-146600000D01*
X115508046Y-143500000D02*
G75*
G02*
X111491954Y-143500000I-2008046J0D01*
G01*
X111491954Y-143500000D02*
G75*
G02*
X115508046Y-143500000I2008046J0D01*
G01*
D14*
X155050000Y-103165000D02*
X158050000Y-103165000D01*
X155050000Y-106385000D02*
X158050000Y-106385000D01*
X158110000Y-103215000D02*
X158110000Y-103365000D01*
X154490000Y-103435000D02*
X154010000Y-103435000D01*
X154490000Y-102955000D01*
X154490000Y-103435000D01*
G36*
X154490000Y-103435000D02*
G01*
X154010000Y-103435000D01*
X154490000Y-102955000D01*
X154490000Y-103435000D01*
G37*
D12*
X107750000Y-99750000D02*
X107750000Y-101250000D01*
X107750000Y-101250000D02*
X108250000Y-101750000D01*
X107750000Y-102250000D02*
X107750000Y-103750000D01*
X107750000Y-103750000D02*
X108250000Y-104250000D01*
X107750000Y-104750000D02*
X107750000Y-106250000D01*
X107750000Y-106250000D02*
X108250000Y-106750000D01*
X107750000Y-107250000D02*
X107750000Y-108750000D01*
X107750000Y-108750000D02*
X108250000Y-109250000D01*
X108250000Y-99250000D02*
X107750000Y-99750000D01*
X108250000Y-101750000D02*
X107750000Y-102250000D01*
X108250000Y-101750000D02*
X109750000Y-101750000D01*
X108250000Y-104250000D02*
X107750000Y-104750000D01*
X108250000Y-104250000D02*
X109750000Y-104250000D01*
X108250000Y-106750000D02*
X107750000Y-107250000D01*
X108250000Y-106750000D02*
X109750000Y-106750000D01*
X108250000Y-109250000D02*
X109750000Y-109250000D01*
X109750000Y-99250000D02*
X108250000Y-99250000D01*
X109750000Y-101750000D02*
X108250000Y-101750000D01*
X109750000Y-101750000D02*
X110250000Y-101250000D01*
X109750000Y-104250000D02*
X108250000Y-104250000D01*
X109750000Y-104250000D02*
X110250000Y-103750000D01*
X109750000Y-106750000D02*
X108250000Y-106750000D01*
X109750000Y-106750000D02*
X110250000Y-106250000D01*
X109750000Y-109250000D02*
X110250000Y-108750000D01*
X110250000Y-99750000D02*
X109750000Y-99250000D01*
X110250000Y-101250000D02*
X110250000Y-99750000D01*
X110250000Y-102250000D02*
X109750000Y-101750000D01*
X110250000Y-103750000D02*
X110250000Y-102250000D01*
X110250000Y-104750000D02*
X109750000Y-104250000D01*
X110250000Y-106250000D02*
X110250000Y-104750000D01*
X110250000Y-107250000D02*
X109750000Y-106750000D01*
X110250000Y-108750000D02*
X110250000Y-107250000D01*
X167960000Y-125960000D02*
X178120000Y-125960000D01*
X167960000Y-131040000D02*
X167960000Y-125960000D01*
X178120000Y-125960000D02*
X178120000Y-131040000D01*
X178120000Y-131040000D02*
X167960000Y-131040000D01*
X160750000Y-113750000D02*
X160750000Y-115250000D01*
X160750000Y-115250000D02*
X161250000Y-115750000D01*
X160750000Y-116250000D02*
X160750000Y-117750000D01*
X160750000Y-117750000D02*
X161250000Y-118250000D01*
X160750000Y-118750000D02*
X160750000Y-120250000D01*
X160750000Y-120250000D02*
X161250000Y-120750000D01*
X160750000Y-121250000D02*
X160750000Y-122750000D01*
X160750000Y-122750000D02*
X161250000Y-123250000D01*
X160750000Y-123750000D02*
X160750000Y-125250000D01*
X160750000Y-125250000D02*
X161250000Y-125750000D01*
X160750000Y-126250000D02*
X160750000Y-127750000D01*
X160750000Y-127750000D02*
X161250000Y-128250000D01*
X161250000Y-113250000D02*
X160750000Y-113750000D01*
X161250000Y-115750000D02*
X160750000Y-116250000D01*
X161250000Y-115750000D02*
X162750000Y-115750000D01*
X161250000Y-118250000D02*
X160750000Y-118750000D01*
X161250000Y-118250000D02*
X162750000Y-118250000D01*
X161250000Y-120750000D02*
X160750000Y-121250000D01*
X161250000Y-120750000D02*
X162750000Y-120750000D01*
X161250000Y-123250000D02*
X160750000Y-123750000D01*
X161250000Y-123250000D02*
X162750000Y-123250000D01*
X161250000Y-125750000D02*
X160750000Y-126250000D01*
X161250000Y-125750000D02*
X162750000Y-125750000D01*
X161250000Y-128250000D02*
X162750000Y-128250000D01*
X162750000Y-113250000D02*
X161250000Y-113250000D01*
X162750000Y-115750000D02*
X161250000Y-115750000D01*
X162750000Y-115750000D02*
X163250000Y-115250000D01*
X162750000Y-118250000D02*
X161250000Y-118250000D01*
X162750000Y-118250000D02*
X163250000Y-117750000D01*
X162750000Y-120750000D02*
X161250000Y-120750000D01*
X162750000Y-120750000D02*
X163250000Y-120250000D01*
X162750000Y-123250000D02*
X161250000Y-123250000D01*
X162750000Y-123250000D02*
X163250000Y-122750000D01*
X162750000Y-125750000D02*
X161250000Y-125750000D01*
X162750000Y-125750000D02*
X163250000Y-125250000D01*
X162750000Y-128250000D02*
X163250000Y-127750000D01*
X163250000Y-113750000D02*
X162750000Y-113250000D01*
X163250000Y-115250000D02*
X163250000Y-113750000D01*
X163250000Y-116250000D02*
X162750000Y-115750000D01*
X163250000Y-117750000D02*
X163250000Y-116250000D01*
X163250000Y-118750000D02*
X162750000Y-118250000D01*
X163250000Y-120250000D02*
X163250000Y-118750000D01*
X163250000Y-121250000D02*
X162750000Y-120750000D01*
X163250000Y-122750000D02*
X163250000Y-121250000D01*
X163250000Y-123750000D02*
X162750000Y-123250000D01*
X163250000Y-125250000D02*
X163250000Y-123750000D01*
X163250000Y-126250000D02*
X162750000Y-125750000D01*
X163250000Y-127750000D02*
X163250000Y-126250000D01*
D14*
X130350000Y-92100000D02*
X130350000Y-93350000D01*
X130350000Y-93350000D02*
X131600000Y-93350000D01*
X130640000Y-82940000D02*
X130640000Y-93060000D01*
X130640000Y-93060000D02*
X136610000Y-93060000D01*
X130650000Y-82950000D02*
X130650000Y-84750000D01*
X130650000Y-84750000D02*
X131400000Y-84750000D01*
X130650000Y-86250000D02*
X130650000Y-89750000D01*
X130650000Y-89750000D02*
X131400000Y-89750000D01*
X130650000Y-91250000D02*
X130650000Y-93050000D01*
X130650000Y-93050000D02*
X131400000Y-93050000D01*
X131400000Y-82950000D02*
X130650000Y-82950000D01*
X131400000Y-84750000D02*
X131400000Y-82950000D01*
X131400000Y-86250000D02*
X130650000Y-86250000D01*
X131400000Y-89750000D02*
X131400000Y-86250000D01*
X131400000Y-91250000D02*
X130650000Y-91250000D01*
X131400000Y-93050000D02*
X131400000Y-91250000D01*
X132900000Y-82950000D02*
X132900000Y-83700000D01*
X132900000Y-83700000D02*
X135850000Y-83700000D01*
X132900000Y-92300000D02*
X135850000Y-92300000D01*
X132900000Y-93050000D02*
X132900000Y-92300000D01*
X135850000Y-83700000D02*
X135850000Y-88000000D01*
X135850000Y-92300000D02*
X135850000Y-88000000D01*
X136610000Y-82940000D02*
X130640000Y-82940000D01*
X136610000Y-93060000D02*
X136610000Y-82940000D01*
X174190000Y-100390000D02*
X174190000Y-113110000D01*
X174190000Y-113110000D02*
X180810000Y-113110000D01*
X174900000Y-101400000D02*
X174900000Y-112100000D01*
X174900000Y-112100000D02*
X179200000Y-112100000D01*
X177500000Y-100390000D02*
X177500000Y-101400000D01*
X177500000Y-113110000D02*
X177500000Y-112100000D01*
X179200000Y-101400000D02*
X174900000Y-101400000D01*
X179200000Y-112100000D02*
X179200000Y-101400000D01*
X179810000Y-104050000D02*
X180810000Y-104050000D01*
X179810000Y-105950000D02*
X179810000Y-104050000D01*
X179810000Y-107550000D02*
X180410000Y-107550000D01*
X179810000Y-109450000D02*
X179810000Y-107550000D01*
X180410000Y-105950000D02*
X179810000Y-105950000D01*
X180410000Y-107550000D02*
X180410000Y-105950000D01*
X180810000Y-100390000D02*
X174190000Y-100390000D01*
X180810000Y-104050000D02*
X180810000Y-100390000D01*
X180810000Y-109450000D02*
X179810000Y-109450000D01*
X180810000Y-113110000D02*
X180810000Y-109450000D01*
X181110000Y-100090000D02*
X179860000Y-100090000D01*
X181110000Y-101340000D02*
X181110000Y-100090000D01*
X194912500Y-101760000D02*
X197197500Y-101760000D01*
X197197500Y-100290000D02*
X194912500Y-100290000D01*
X197197500Y-101760000D02*
X197197500Y-100290000D01*
X184650000Y-103750000D02*
X184650000Y-105000000D01*
X184940000Y-104040000D02*
X184940000Y-110010000D01*
X184940000Y-110010000D02*
X192560000Y-110010000D01*
X184950000Y-104050000D02*
X184950000Y-104800000D01*
X184950000Y-104800000D02*
X186750000Y-104800000D01*
X184950000Y-106300000D02*
X185700000Y-106300000D01*
X185700000Y-106300000D02*
X185700000Y-109250000D01*
X185700000Y-109250000D02*
X188750000Y-109250000D01*
X185900000Y-103750000D02*
X184650000Y-103750000D01*
X186750000Y-104050000D02*
X184950000Y-104050000D01*
X186750000Y-104800000D02*
X186750000Y-104050000D01*
X188250000Y-104050000D02*
X188250000Y-104800000D01*
X188250000Y-104800000D02*
X189250000Y-104800000D01*
X189250000Y-104050000D02*
X188250000Y-104050000D01*
X189250000Y-104800000D02*
X189250000Y-104050000D01*
X190750000Y-104050000D02*
X190750000Y-104800000D01*
X190750000Y-104800000D02*
X192550000Y-104800000D01*
X191800000Y-106300000D02*
X191800000Y-109250000D01*
X191800000Y-109250000D02*
X188750000Y-109250000D01*
X192550000Y-104050000D02*
X190750000Y-104050000D01*
X192550000Y-104800000D02*
X192550000Y-104050000D01*
X192550000Y-106300000D02*
X191800000Y-106300000D01*
X192560000Y-104040000D02*
X184940000Y-104040000D01*
X192560000Y-110010000D02*
X192560000Y-104040000D01*
X164250000Y-92100000D02*
X164250000Y-93350000D01*
X164250000Y-93350000D02*
X165500000Y-93350000D01*
X164540000Y-82940000D02*
X164540000Y-93060000D01*
X164540000Y-93060000D02*
X170510000Y-93060000D01*
X164550000Y-82950000D02*
X164550000Y-84750000D01*
X164550000Y-84750000D02*
X165300000Y-84750000D01*
X164550000Y-86250000D02*
X164550000Y-89750000D01*
X164550000Y-89750000D02*
X165300000Y-89750000D01*
X164550000Y-91250000D02*
X164550000Y-93050000D01*
X164550000Y-93050000D02*
X165300000Y-93050000D01*
X165300000Y-82950000D02*
X164550000Y-82950000D01*
X165300000Y-84750000D02*
X165300000Y-82950000D01*
X165300000Y-86250000D02*
X164550000Y-86250000D01*
X165300000Y-89750000D02*
X165300000Y-86250000D01*
X165300000Y-91250000D02*
X164550000Y-91250000D01*
X165300000Y-93050000D02*
X165300000Y-91250000D01*
X166800000Y-82950000D02*
X166800000Y-83700000D01*
X166800000Y-83700000D02*
X169750000Y-83700000D01*
X166800000Y-92300000D02*
X169750000Y-92300000D01*
X166800000Y-93050000D02*
X166800000Y-92300000D01*
X169750000Y-83700000D02*
X169750000Y-88000000D01*
X169750000Y-92300000D02*
X169750000Y-88000000D01*
X170510000Y-82940000D02*
X164540000Y-82940000D01*
X170510000Y-93060000D02*
X170510000Y-82940000D01*
X138750000Y-92100000D02*
X138750000Y-93350000D01*
X138750000Y-93350000D02*
X140000000Y-93350000D01*
X139040000Y-82940000D02*
X139040000Y-93060000D01*
X139040000Y-93060000D02*
X145010000Y-93060000D01*
X139050000Y-82950000D02*
X139050000Y-84750000D01*
X139050000Y-84750000D02*
X139800000Y-84750000D01*
X139050000Y-86250000D02*
X139050000Y-89750000D01*
X139050000Y-89750000D02*
X139800000Y-89750000D01*
X139050000Y-91250000D02*
X139050000Y-93050000D01*
X139050000Y-93050000D02*
X139800000Y-93050000D01*
X139800000Y-82950000D02*
X139050000Y-82950000D01*
X139800000Y-84750000D02*
X139800000Y-82950000D01*
X139800000Y-86250000D02*
X139050000Y-86250000D01*
X139800000Y-89750000D02*
X139800000Y-86250000D01*
X139800000Y-91250000D02*
X139050000Y-91250000D01*
X139800000Y-93050000D02*
X139800000Y-91250000D01*
X141300000Y-82950000D02*
X141300000Y-83700000D01*
X141300000Y-83700000D02*
X144250000Y-83700000D01*
X141300000Y-92300000D02*
X144250000Y-92300000D01*
X141300000Y-93050000D02*
X141300000Y-92300000D01*
X144250000Y-83700000D02*
X144250000Y-88000000D01*
X144250000Y-92300000D02*
X144250000Y-88000000D01*
X145010000Y-82940000D02*
X139040000Y-82940000D01*
X145010000Y-93060000D02*
X145010000Y-82940000D01*
D12*
X167960000Y-133460000D02*
X178120000Y-133460000D01*
X167960000Y-138540000D02*
X167960000Y-133460000D01*
X178120000Y-133460000D02*
X178120000Y-138540000D01*
X178120000Y-138540000D02*
X167960000Y-138540000D01*
D13*
X104000000Y-110050000D02*
X109700000Y-110050000D01*
X104000000Y-112570000D02*
X104000000Y-110050000D01*
X104000000Y-112570000D02*
X105500000Y-112570000D01*
X104000000Y-117570000D02*
X104000000Y-114430000D01*
X104000000Y-119425540D02*
X104000000Y-121950000D01*
X104000000Y-119430000D02*
X105500000Y-119430000D01*
X104000000Y-121950000D02*
X109700000Y-121950000D01*
X105500000Y-114430000D02*
X104000000Y-114430000D01*
X105500000Y-114430000D02*
X105500000Y-112570000D01*
X105500000Y-117570000D02*
X104000000Y-117570000D01*
X105500000Y-119430000D02*
X105500000Y-117570000D01*
X109700000Y-110050000D02*
X109700000Y-121950000D01*
D14*
X184800000Y-86750000D02*
X184800000Y-88000000D01*
X185090000Y-87040000D02*
X185090000Y-93010000D01*
X185090000Y-93010000D02*
X192710000Y-93010000D01*
X185100000Y-87050000D02*
X185100000Y-87800000D01*
X185100000Y-87800000D02*
X186900000Y-87800000D01*
X185100000Y-89300000D02*
X185850000Y-89300000D01*
X185850000Y-89300000D02*
X185850000Y-92250000D01*
X185850000Y-92250000D02*
X188900000Y-92250000D01*
X186050000Y-86750000D02*
X184800000Y-86750000D01*
X186900000Y-87050000D02*
X185100000Y-87050000D01*
X186900000Y-87800000D02*
X186900000Y-87050000D01*
X188400000Y-87050000D02*
X188400000Y-87800000D01*
X188400000Y-87800000D02*
X189400000Y-87800000D01*
X189400000Y-87050000D02*
X188400000Y-87050000D01*
X189400000Y-87800000D02*
X189400000Y-87050000D01*
X190900000Y-87050000D02*
X190900000Y-87800000D01*
X190900000Y-87800000D02*
X192700000Y-87800000D01*
X191950000Y-89300000D02*
X191950000Y-92250000D01*
X191950000Y-92250000D02*
X188900000Y-92250000D01*
X192700000Y-87050000D02*
X190900000Y-87050000D01*
X192700000Y-87800000D02*
X192700000Y-87050000D01*
X192700000Y-89300000D02*
X191950000Y-89300000D01*
X192710000Y-87040000D02*
X185090000Y-87040000D01*
X192710000Y-93010000D02*
X192710000Y-87040000D01*
X195912258Y-89037500D02*
X195437742Y-89037500D01*
X195912258Y-90082500D02*
X195437742Y-90082500D01*
D13*
X120500000Y-100000000D02*
X122500000Y-100000000D01*
X122500000Y-147000000D01*
X120500000Y-147000000D01*
X120500000Y-100000000D01*
X145500000Y-100000000D02*
X147500000Y-100000000D01*
X147500000Y-147000000D01*
X145500000Y-147000000D01*
X145500000Y-100000000D01*
D14*
X183860000Y-121520000D02*
X183860000Y-144500000D01*
X183860000Y-144500000D02*
X189160000Y-144500000D01*
X185510000Y-121520000D02*
X183860000Y-121520000D01*
X189160000Y-121520000D02*
X187510000Y-121520000D01*
X189160000Y-144500000D02*
X189160000Y-121520000D01*
X187510000Y-121520000D02*
G75*
G02*
X185510000Y-121520000I-1000000J0D01*
G01*
D13*
X104000000Y-122800000D02*
X109700000Y-122800000D01*
X104000000Y-125320000D02*
X104000000Y-122800000D01*
X104000000Y-125320000D02*
X105500000Y-125320000D01*
X104000000Y-130320000D02*
X104000000Y-127180000D01*
X104000000Y-132175540D02*
X104000000Y-134700000D01*
X104000000Y-132180000D02*
X105500000Y-132180000D01*
X104000000Y-134700000D02*
X109700000Y-134700000D01*
X105500000Y-127180000D02*
X104000000Y-127180000D01*
X105500000Y-127180000D02*
X105500000Y-125320000D01*
X105500000Y-130320000D02*
X104000000Y-130320000D01*
X105500000Y-132180000D02*
X105500000Y-130320000D01*
X109700000Y-122800000D02*
X109700000Y-134700000D01*
D14*
X195954758Y-105877500D02*
X195480242Y-105877500D01*
X195954758Y-106922500D02*
X195480242Y-106922500D01*
D12*
X167960000Y-118460000D02*
X178120000Y-118460000D01*
X167960000Y-123540000D02*
X167960000Y-118460000D01*
X178120000Y-118460000D02*
X178120000Y-123540000D01*
X178120000Y-123540000D02*
X167960000Y-123540000D01*
X160750000Y-129500000D02*
X160750000Y-131000000D01*
X160750000Y-131000000D02*
X161250000Y-131500000D01*
X160750000Y-132000000D02*
X160750000Y-133500000D01*
X160750000Y-133500000D02*
X161250000Y-134000000D01*
X160750000Y-134500000D02*
X160750000Y-136000000D01*
X160750000Y-136000000D02*
X161250000Y-136500000D01*
X160750000Y-137000000D02*
X160750000Y-138500000D01*
X160750000Y-138500000D02*
X161250000Y-139000000D01*
X160750000Y-139500000D02*
X160750000Y-141000000D01*
X160750000Y-141000000D02*
X161250000Y-141500000D01*
X160750000Y-142000000D02*
X160750000Y-143500000D01*
X160750000Y-143500000D02*
X161250000Y-144000000D01*
X160750000Y-144500000D02*
X160750000Y-146000000D01*
X160750000Y-146000000D02*
X161250000Y-146500000D01*
X160750000Y-147000000D02*
X160750000Y-148500000D01*
X160750000Y-148500000D02*
X161250000Y-149000000D01*
X161250000Y-129000000D02*
X160750000Y-129500000D01*
X161250000Y-131500000D02*
X160750000Y-132000000D01*
X161250000Y-131500000D02*
X162750000Y-131500000D01*
X161250000Y-134000000D02*
X160750000Y-134500000D01*
X161250000Y-134000000D02*
X162750000Y-134000000D01*
X161250000Y-136500000D02*
X160750000Y-137000000D01*
X161250000Y-136500000D02*
X162750000Y-136500000D01*
X161250000Y-139000000D02*
X160750000Y-139500000D01*
X161250000Y-139000000D02*
X162750000Y-139000000D01*
X161250000Y-141500000D02*
X160750000Y-142000000D01*
X161250000Y-141500000D02*
X162750000Y-141500000D01*
X161250000Y-144000000D02*
X160750000Y-144500000D01*
X161250000Y-144000000D02*
X162750000Y-144000000D01*
X161250000Y-146500000D02*
X160750000Y-147000000D01*
X161250000Y-146500000D02*
X162750000Y-146500000D01*
X161250000Y-149000000D02*
X162750000Y-149000000D01*
X162750000Y-129000000D02*
X161250000Y-129000000D01*
X162750000Y-131500000D02*
X161250000Y-131500000D01*
X162750000Y-131500000D02*
X163250000Y-131000000D01*
X162750000Y-134000000D02*
X161250000Y-134000000D01*
X162750000Y-134000000D02*
X163250000Y-133500000D01*
X162750000Y-136500000D02*
X161250000Y-136500000D01*
X162750000Y-136500000D02*
X163250000Y-136000000D01*
X162750000Y-139000000D02*
X161250000Y-139000000D01*
X162750000Y-139000000D02*
X163250000Y-138500000D01*
X162750000Y-141500000D02*
X161250000Y-141500000D01*
X162750000Y-141500000D02*
X163250000Y-141000000D01*
X162750000Y-144000000D02*
X161250000Y-144000000D01*
X162750000Y-144000000D02*
X163250000Y-143500000D01*
X162750000Y-146500000D02*
X161250000Y-146500000D01*
X162750000Y-146500000D02*
X163250000Y-146000000D01*
X162750000Y-149000000D02*
X163250000Y-148500000D01*
X163250000Y-129500000D02*
X162750000Y-129000000D01*
X163250000Y-131000000D02*
X163250000Y-129500000D01*
X163250000Y-132000000D02*
X162750000Y-131500000D01*
X163250000Y-133500000D02*
X163250000Y-132000000D01*
X163250000Y-134500000D02*
X162750000Y-134000000D01*
X163250000Y-136000000D02*
X163250000Y-134500000D01*
X163250000Y-137000000D02*
X162750000Y-136500000D01*
X163250000Y-138500000D02*
X163250000Y-137000000D01*
X163250000Y-139500000D02*
X162750000Y-139000000D01*
X163250000Y-141000000D02*
X163250000Y-139500000D01*
X163250000Y-142000000D02*
X162750000Y-141500000D01*
X163250000Y-143500000D02*
X163250000Y-142000000D01*
X163250000Y-144500000D02*
X162750000Y-144000000D01*
X163250000Y-146000000D02*
X163250000Y-144500000D01*
X163250000Y-147000000D02*
X162750000Y-146500000D01*
X163250000Y-148500000D02*
X163250000Y-147000000D01*
D14*
X172940000Y-82990000D02*
X172940000Y-88960000D01*
X172940000Y-88960000D02*
X183060000Y-88960000D01*
X172950000Y-86700000D02*
X173700000Y-86700000D01*
X172950000Y-88200000D02*
X172950000Y-88950000D01*
X172950000Y-88950000D02*
X174750000Y-88950000D01*
X173700000Y-83750000D02*
X178000000Y-83750000D01*
X173700000Y-86700000D02*
X173700000Y-83750000D01*
X174750000Y-88200000D02*
X172950000Y-88200000D01*
X174750000Y-88950000D02*
X174750000Y-88200000D01*
X176250000Y-88200000D02*
X176250000Y-88950000D01*
X176250000Y-88950000D02*
X179750000Y-88950000D01*
X179750000Y-88200000D02*
X176250000Y-88200000D01*
X179750000Y-88950000D02*
X179750000Y-88200000D01*
X181250000Y-88200000D02*
X181250000Y-88950000D01*
X181250000Y-88950000D02*
X183050000Y-88950000D01*
X182100000Y-89250000D02*
X183350000Y-89250000D01*
X182300000Y-83750000D02*
X178000000Y-83750000D01*
X182300000Y-86700000D02*
X182300000Y-83750000D01*
X183050000Y-86700000D02*
X182300000Y-86700000D01*
X183050000Y-88200000D02*
X181250000Y-88200000D01*
X183050000Y-88950000D02*
X183050000Y-88200000D01*
X183060000Y-82990000D02*
X172940000Y-82990000D01*
X183060000Y-88960000D02*
X183060000Y-82990000D01*
X183350000Y-89250000D02*
X183350000Y-88000000D01*
X184650000Y-95250000D02*
X184650000Y-96500000D01*
X184940000Y-95540000D02*
X184940000Y-101510000D01*
X184940000Y-101510000D02*
X192560000Y-101510000D01*
X184950000Y-95550000D02*
X184950000Y-96300000D01*
X184950000Y-96300000D02*
X186750000Y-96300000D01*
X184950000Y-97800000D02*
X185700000Y-97800000D01*
X185700000Y-97800000D02*
X185700000Y-100750000D01*
X185700000Y-100750000D02*
X188750000Y-100750000D01*
X185900000Y-95250000D02*
X184650000Y-95250000D01*
X186750000Y-95550000D02*
X184950000Y-95550000D01*
X186750000Y-96300000D02*
X186750000Y-95550000D01*
X188250000Y-95550000D02*
X188250000Y-96300000D01*
X188250000Y-96300000D02*
X189250000Y-96300000D01*
X189250000Y-95550000D02*
X188250000Y-95550000D01*
X189250000Y-96300000D02*
X189250000Y-95550000D01*
X190750000Y-95550000D02*
X190750000Y-96300000D01*
X190750000Y-96300000D02*
X192550000Y-96300000D01*
X191800000Y-97800000D02*
X191800000Y-100750000D01*
X191800000Y-100750000D02*
X188750000Y-100750000D01*
X192550000Y-95550000D02*
X190750000Y-95550000D01*
X192550000Y-96300000D02*
X192550000Y-95550000D01*
X192550000Y-97800000D02*
X191800000Y-97800000D01*
X192560000Y-95540000D02*
X184940000Y-95540000D01*
X192560000Y-101510000D02*
X192560000Y-95540000D01*
X184650000Y-112250000D02*
X184650000Y-113500000D01*
X184940000Y-112540000D02*
X184940000Y-118510000D01*
X184940000Y-118510000D02*
X192560000Y-118510000D01*
X184950000Y-112550000D02*
X184950000Y-113300000D01*
X184950000Y-113300000D02*
X186750000Y-113300000D01*
X184950000Y-114800000D02*
X185700000Y-114800000D01*
X185700000Y-114800000D02*
X185700000Y-117750000D01*
X185700000Y-117750000D02*
X188750000Y-117750000D01*
X185900000Y-112250000D02*
X184650000Y-112250000D01*
X186750000Y-112550000D02*
X184950000Y-112550000D01*
X186750000Y-113300000D02*
X186750000Y-112550000D01*
X188250000Y-112550000D02*
X188250000Y-113300000D01*
X188250000Y-113300000D02*
X189250000Y-113300000D01*
X189250000Y-112550000D02*
X188250000Y-112550000D01*
X189250000Y-113300000D02*
X189250000Y-112550000D01*
X190750000Y-112550000D02*
X190750000Y-113300000D01*
X190750000Y-113300000D02*
X192550000Y-113300000D01*
X191800000Y-114800000D02*
X191800000Y-117750000D01*
X191800000Y-117750000D02*
X188750000Y-117750000D01*
X192550000Y-112550000D02*
X190750000Y-112550000D01*
X192550000Y-113300000D02*
X192550000Y-112550000D01*
X192550000Y-114800000D02*
X191800000Y-114800000D01*
X192560000Y-112540000D02*
X184940000Y-112540000D01*
X192560000Y-118510000D02*
X192560000Y-112540000D01*
D16*
X175580000Y-143500000D03*
X173040000Y-143500000D03*
X170500000Y-143500000D03*
D17*
X178120000Y-143500000D03*
X167960000Y-143500000D03*
D18*
X110960000Y-147310000D03*
X116040000Y-147310000D03*
X110960000Y-139690000D03*
X116040000Y-139690000D03*
D16*
X175580000Y-128500000D03*
X173040000Y-128500000D03*
X170500000Y-128500000D03*
D17*
X178120000Y-128500000D03*
X167960000Y-128500000D03*
D16*
X175580000Y-136000000D03*
X173040000Y-136000000D03*
X170500000Y-136000000D03*
D17*
X178120000Y-136000000D03*
X167960000Y-136000000D03*
D16*
X175580000Y-121000000D03*
X173040000Y-121000000D03*
X170500000Y-121000000D03*
D17*
X178120000Y-121000000D03*
X167960000Y-121000000D03*
%LPC*%
D19*
X124500000Y-90500000D03*
D20*
X124500000Y-88000000D03*
X124500000Y-85500000D03*
D21*
X167000000Y-103000000D03*
D20*
X167000000Y-105500000D03*
X167000000Y-108000000D03*
X167000000Y-110500000D03*
D19*
X150000000Y-90500000D03*
D20*
X150000000Y-88000000D03*
X150000000Y-85500000D03*
D22*
X196500000Y-109525000D03*
X194925000Y-109525000D03*
X196500000Y-118025000D03*
X194925000Y-118025000D03*
D23*
X196537500Y-115025000D03*
X194887500Y-115025000D03*
X196542500Y-98025000D03*
X194892500Y-98025000D03*
D19*
X158500000Y-90500000D03*
D20*
X158500000Y-88000000D03*
X158500000Y-85500000D03*
D22*
X196500000Y-92525000D03*
X194925000Y-92525000D03*
D16*
X175580000Y-143500000D03*
X173040000Y-143500000D03*
X170500000Y-143500000D03*
D17*
X178120000Y-143500000D03*
X167960000Y-143500000D03*
D18*
X110960000Y-147310000D03*
X116040000Y-147310000D03*
X110960000Y-139690000D03*
X116040000Y-139690000D03*
D24*
X155000000Y-103800000D03*
X155000000Y-104450000D03*
X155000000Y-105100000D03*
X155000000Y-105750000D03*
X158100000Y-105750000D03*
X158100000Y-105100000D03*
X158100000Y-104450000D03*
X158100000Y-103800000D03*
D25*
X156550000Y-104775000D03*
D18*
X109000000Y-108000000D03*
X109000000Y-105500000D03*
X109000000Y-103000000D03*
X109000000Y-100500000D03*
D16*
X175580000Y-128500000D03*
X173040000Y-128500000D03*
X170500000Y-128500000D03*
D17*
X178120000Y-128500000D03*
X167960000Y-128500000D03*
D18*
X162000000Y-127000000D03*
X162000000Y-124500000D03*
X162000000Y-122000000D03*
X162000000Y-119500000D03*
X162000000Y-117000000D03*
X162000000Y-114500000D03*
D19*
X133100000Y-90500000D03*
D20*
X133100000Y-88000000D03*
X133100000Y-85500000D03*
D21*
X177500000Y-103000000D03*
D20*
X177500000Y-105500000D03*
X177500000Y-108000000D03*
X177500000Y-110500000D03*
D22*
X196500000Y-101025000D03*
X194925000Y-101025000D03*
D26*
X187500000Y-106500000D03*
D27*
X190000000Y-106500000D03*
D19*
X167000000Y-90500000D03*
D20*
X167000000Y-88000000D03*
X167000000Y-85500000D03*
D19*
X141500000Y-90500000D03*
D20*
X141500000Y-88000000D03*
X141500000Y-85500000D03*
D16*
X175580000Y-136000000D03*
X173040000Y-136000000D03*
X170500000Y-136000000D03*
D17*
X178120000Y-136000000D03*
X167960000Y-136000000D03*
D28*
X107000000Y-119750000D03*
D18*
X107000000Y-117250000D03*
X107000000Y-114750000D03*
X107000000Y-112250000D03*
D26*
X187650000Y-89500000D03*
D27*
X190150000Y-89500000D03*
D23*
X196500000Y-89560000D03*
X194850000Y-89560000D03*
D29*
X196000000Y-83500000D03*
X104000000Y-145500000D03*
D18*
X121500000Y-101000000D03*
X121500000Y-103500000D03*
X121500000Y-106000000D03*
X121500000Y-108500000D03*
X121500000Y-111000000D03*
X121500000Y-113500000D03*
X121500000Y-116000000D03*
X121500000Y-118500000D03*
X121500000Y-121000000D03*
X121500000Y-123500000D03*
X121500000Y-126000000D03*
X121500000Y-128500000D03*
X121500000Y-131000000D03*
X121500000Y-133500000D03*
X121500000Y-136000000D03*
X121500000Y-138500000D03*
X121500000Y-141000000D03*
X121500000Y-143500000D03*
X121500000Y-146000000D03*
X146500000Y-101000000D03*
X146500000Y-103500000D03*
X146500000Y-106000000D03*
X146500000Y-108500000D03*
X146500000Y-111000000D03*
X146500000Y-113500000D03*
X146500000Y-116000000D03*
X146500000Y-118500000D03*
X146500000Y-121000000D03*
X146500000Y-123500000D03*
X146500000Y-126000000D03*
X146500000Y-128500000D03*
X146500000Y-131000000D03*
X146500000Y-133500000D03*
X146500000Y-136000000D03*
X146500000Y-138500000D03*
X146500000Y-141000000D03*
X146500000Y-143500000D03*
X146500000Y-146000000D03*
D30*
X182700000Y-122850000D03*
D31*
X182700000Y-125390000D03*
X182700000Y-127930000D03*
X182700000Y-130470000D03*
X182700000Y-133010000D03*
X182700000Y-135550000D03*
X182700000Y-138090000D03*
X182700000Y-140630000D03*
X182700000Y-143170000D03*
X190320000Y-143170000D03*
X190320000Y-140630000D03*
X190320000Y-138090000D03*
X190320000Y-135550000D03*
X190320000Y-133010000D03*
X190320000Y-130470000D03*
X190320000Y-127930000D03*
X190320000Y-125390000D03*
X190320000Y-122850000D03*
D28*
X107000000Y-132500000D03*
D18*
X107000000Y-130000000D03*
X107000000Y-127500000D03*
X107000000Y-125000000D03*
D29*
X104000000Y-83500000D03*
D23*
X196542500Y-106400000D03*
X194892500Y-106400000D03*
D16*
X175580000Y-121000000D03*
X173040000Y-121000000D03*
X170500000Y-121000000D03*
D17*
X178120000Y-121000000D03*
X167960000Y-121000000D03*
D29*
X196000000Y-145500000D03*
D18*
X162000000Y-130250000D03*
X162000000Y-132750000D03*
X162000000Y-135250000D03*
X162000000Y-137750000D03*
X162000000Y-140250000D03*
X162000000Y-142750000D03*
X162000000Y-145250000D03*
X162000000Y-147750000D03*
D32*
X180500000Y-86500000D03*
D33*
X178000000Y-86500000D03*
X175500000Y-86500000D03*
D26*
X187500000Y-98000000D03*
D27*
X190000000Y-98000000D03*
D26*
X187500000Y-115000000D03*
D27*
X190000000Y-115000000D03*
%LPD*%
M02*
