%TF.GenerationSoftware,KiCad,Pcbnew,8.0.4*%
%TF.CreationDate,2024-09-18T18:00:15+09:00*%
%TF.ProjectId,circuit-esp32-base,63697263-7569-4742-9d65-737033322d62,rev?*%
%TF.SameCoordinates,Original*%
%TF.FileFunction,Drillmap*%
%TF.FilePolarity,Positive*%
%FSLAX45Y45*%
G04 Gerber Fmt 4.5, Leading zero omitted, Abs format (unit mm)*
G04 Created by KiCad (PCBNEW 8.0.4) date 2024-09-18 18:00:15*
%MOMM*%
%LPD*%
G01*
G04 APERTURE LIST*
%ADD10C,0.050000*%
%ADD11C,0.200000*%
%ADD12C,0.320000*%
G04 APERTURE END LIST*
D10*
X10000000Y-8350000D02*
G75*
G02*
X10400000Y-7950000I400000J0D01*
G01*
X20000000Y-14550000D02*
G75*
G02*
X19600000Y-14950000I-400000J0D01*
G01*
X10400000Y-7950000D02*
X19600000Y-7950000D01*
X19600000Y-7950000D02*
G75*
G02*
X20000000Y-8350000I0J-400000D01*
G01*
X10000000Y-8350000D02*
X10000000Y-14550000D01*
X10400000Y-14950000D02*
G75*
G02*
X10000000Y-14550000I0J400000D01*
G01*
X10400000Y-14950000D02*
X19600000Y-14950000D01*
X20000000Y-8350000D02*
X20000000Y-14550000D01*
D11*
D12*
X10240000Y-8190000D02*
X10560000Y-8510000D01*
X10560000Y-8190000D02*
X10240000Y-8510000D01*
X10240000Y-14390000D02*
X10560000Y-14710000D01*
X10560000Y-14390000D02*
X10240000Y-14710000D01*
X19440000Y-8190000D02*
X19760000Y-8510000D01*
X19760000Y-8190000D02*
X19440000Y-8510000D01*
X19440000Y-14390000D02*
X19760000Y-14710000D01*
X19760000Y-14390000D02*
X19440000Y-14710000D01*
D11*
X10258277Y-15263984D02*
X10258277Y-15063984D01*
X10258277Y-15063984D02*
X10305896Y-15063984D01*
X10305896Y-15063984D02*
X10334467Y-15073508D01*
X10334467Y-15073508D02*
X10353515Y-15092555D01*
X10353515Y-15092555D02*
X10363039Y-15111603D01*
X10363039Y-15111603D02*
X10372563Y-15149698D01*
X10372563Y-15149698D02*
X10372563Y-15178269D01*
X10372563Y-15178269D02*
X10363039Y-15216365D01*
X10363039Y-15216365D02*
X10353515Y-15235412D01*
X10353515Y-15235412D02*
X10334467Y-15254460D01*
X10334467Y-15254460D02*
X10305896Y-15263984D01*
X10305896Y-15263984D02*
X10258277Y-15263984D01*
X10458277Y-15263984D02*
X10458277Y-15130650D01*
X10458277Y-15168746D02*
X10467801Y-15149698D01*
X10467801Y-15149698D02*
X10477324Y-15140174D01*
X10477324Y-15140174D02*
X10496372Y-15130650D01*
X10496372Y-15130650D02*
X10515420Y-15130650D01*
X10582086Y-15263984D02*
X10582086Y-15130650D01*
X10582086Y-15063984D02*
X10572563Y-15073508D01*
X10572563Y-15073508D02*
X10582086Y-15083031D01*
X10582086Y-15083031D02*
X10591610Y-15073508D01*
X10591610Y-15073508D02*
X10582086Y-15063984D01*
X10582086Y-15063984D02*
X10582086Y-15083031D01*
X10705896Y-15263984D02*
X10686848Y-15254460D01*
X10686848Y-15254460D02*
X10677324Y-15235412D01*
X10677324Y-15235412D02*
X10677324Y-15063984D01*
X10810658Y-15263984D02*
X10791610Y-15254460D01*
X10791610Y-15254460D02*
X10782086Y-15235412D01*
X10782086Y-15235412D02*
X10782086Y-15063984D01*
X11039229Y-15263984D02*
X11039229Y-15063984D01*
X11039229Y-15063984D02*
X11105896Y-15206841D01*
X11105896Y-15206841D02*
X11172563Y-15063984D01*
X11172563Y-15063984D02*
X11172563Y-15263984D01*
X11353515Y-15263984D02*
X11353515Y-15159222D01*
X11353515Y-15159222D02*
X11343991Y-15140174D01*
X11343991Y-15140174D02*
X11324943Y-15130650D01*
X11324943Y-15130650D02*
X11286848Y-15130650D01*
X11286848Y-15130650D02*
X11267801Y-15140174D01*
X11353515Y-15254460D02*
X11334467Y-15263984D01*
X11334467Y-15263984D02*
X11286848Y-15263984D01*
X11286848Y-15263984D02*
X11267801Y-15254460D01*
X11267801Y-15254460D02*
X11258277Y-15235412D01*
X11258277Y-15235412D02*
X11258277Y-15216365D01*
X11258277Y-15216365D02*
X11267801Y-15197317D01*
X11267801Y-15197317D02*
X11286848Y-15187793D01*
X11286848Y-15187793D02*
X11334467Y-15187793D01*
X11334467Y-15187793D02*
X11353515Y-15178269D01*
X11448753Y-15130650D02*
X11448753Y-15330650D01*
X11448753Y-15140174D02*
X11467801Y-15130650D01*
X11467801Y-15130650D02*
X11505896Y-15130650D01*
X11505896Y-15130650D02*
X11524943Y-15140174D01*
X11524943Y-15140174D02*
X11534467Y-15149698D01*
X11534467Y-15149698D02*
X11543991Y-15168746D01*
X11543991Y-15168746D02*
X11543991Y-15225888D01*
X11543991Y-15225888D02*
X11534467Y-15244936D01*
X11534467Y-15244936D02*
X11524943Y-15254460D01*
X11524943Y-15254460D02*
X11505896Y-15263984D01*
X11505896Y-15263984D02*
X11467801Y-15263984D01*
X11467801Y-15263984D02*
X11448753Y-15254460D01*
X11629705Y-15244936D02*
X11639229Y-15254460D01*
X11639229Y-15254460D02*
X11629705Y-15263984D01*
X11629705Y-15263984D02*
X11620182Y-15254460D01*
X11620182Y-15254460D02*
X11629705Y-15244936D01*
X11629705Y-15244936D02*
X11629705Y-15263984D01*
X11629705Y-15140174D02*
X11639229Y-15149698D01*
X11639229Y-15149698D02*
X11629705Y-15159222D01*
X11629705Y-15159222D02*
X11620182Y-15149698D01*
X11620182Y-15149698D02*
X11629705Y-15140174D01*
X11629705Y-15140174D02*
X11629705Y-15159222D01*
X9797500Y-15492500D02*
X9997500Y-15692500D01*
X9997500Y-15492500D02*
X9797500Y-15692500D01*
X10239229Y-15483984D02*
X10363039Y-15483984D01*
X10363039Y-15483984D02*
X10296372Y-15560174D01*
X10296372Y-15560174D02*
X10324944Y-15560174D01*
X10324944Y-15560174D02*
X10343991Y-15569698D01*
X10343991Y-15569698D02*
X10353515Y-15579222D01*
X10353515Y-15579222D02*
X10363039Y-15598269D01*
X10363039Y-15598269D02*
X10363039Y-15645888D01*
X10363039Y-15645888D02*
X10353515Y-15664936D01*
X10353515Y-15664936D02*
X10343991Y-15674460D01*
X10343991Y-15674460D02*
X10324944Y-15683984D01*
X10324944Y-15683984D02*
X10267801Y-15683984D01*
X10267801Y-15683984D02*
X10248753Y-15674460D01*
X10248753Y-15674460D02*
X10239229Y-15664936D01*
X10448753Y-15664936D02*
X10458277Y-15674460D01*
X10458277Y-15674460D02*
X10448753Y-15683984D01*
X10448753Y-15683984D02*
X10439229Y-15674460D01*
X10439229Y-15674460D02*
X10448753Y-15664936D01*
X10448753Y-15664936D02*
X10448753Y-15683984D01*
X10534467Y-15503031D02*
X10543991Y-15493508D01*
X10543991Y-15493508D02*
X10563039Y-15483984D01*
X10563039Y-15483984D02*
X10610658Y-15483984D01*
X10610658Y-15483984D02*
X10629705Y-15493508D01*
X10629705Y-15493508D02*
X10639229Y-15503031D01*
X10639229Y-15503031D02*
X10648753Y-15522079D01*
X10648753Y-15522079D02*
X10648753Y-15541127D01*
X10648753Y-15541127D02*
X10639229Y-15569698D01*
X10639229Y-15569698D02*
X10524944Y-15683984D01*
X10524944Y-15683984D02*
X10648753Y-15683984D01*
X10772563Y-15483984D02*
X10791610Y-15483984D01*
X10791610Y-15483984D02*
X10810658Y-15493508D01*
X10810658Y-15493508D02*
X10820182Y-15503031D01*
X10820182Y-15503031D02*
X10829705Y-15522079D01*
X10829705Y-15522079D02*
X10839229Y-15560174D01*
X10839229Y-15560174D02*
X10839229Y-15607793D01*
X10839229Y-15607793D02*
X10829705Y-15645888D01*
X10829705Y-15645888D02*
X10820182Y-15664936D01*
X10820182Y-15664936D02*
X10810658Y-15674460D01*
X10810658Y-15674460D02*
X10791610Y-15683984D01*
X10791610Y-15683984D02*
X10772563Y-15683984D01*
X10772563Y-15683984D02*
X10753515Y-15674460D01*
X10753515Y-15674460D02*
X10743991Y-15664936D01*
X10743991Y-15664936D02*
X10734467Y-15645888D01*
X10734467Y-15645888D02*
X10724944Y-15607793D01*
X10724944Y-15607793D02*
X10724944Y-15560174D01*
X10724944Y-15560174D02*
X10734467Y-15522079D01*
X10734467Y-15522079D02*
X10743991Y-15503031D01*
X10743991Y-15503031D02*
X10753515Y-15493508D01*
X10753515Y-15493508D02*
X10772563Y-15483984D01*
X10963039Y-15483984D02*
X10982086Y-15483984D01*
X10982086Y-15483984D02*
X11001134Y-15493508D01*
X11001134Y-15493508D02*
X11010658Y-15503031D01*
X11010658Y-15503031D02*
X11020182Y-15522079D01*
X11020182Y-15522079D02*
X11029705Y-15560174D01*
X11029705Y-15560174D02*
X11029705Y-15607793D01*
X11029705Y-15607793D02*
X11020182Y-15645888D01*
X11020182Y-15645888D02*
X11010658Y-15664936D01*
X11010658Y-15664936D02*
X11001134Y-15674460D01*
X11001134Y-15674460D02*
X10982086Y-15683984D01*
X10982086Y-15683984D02*
X10963039Y-15683984D01*
X10963039Y-15683984D02*
X10943991Y-15674460D01*
X10943991Y-15674460D02*
X10934467Y-15664936D01*
X10934467Y-15664936D02*
X10924944Y-15645888D01*
X10924944Y-15645888D02*
X10915420Y-15607793D01*
X10915420Y-15607793D02*
X10915420Y-15560174D01*
X10915420Y-15560174D02*
X10924944Y-15522079D01*
X10924944Y-15522079D02*
X10934467Y-15503031D01*
X10934467Y-15503031D02*
X10943991Y-15493508D01*
X10943991Y-15493508D02*
X10963039Y-15483984D01*
X11115420Y-15683984D02*
X11115420Y-15550650D01*
X11115420Y-15569698D02*
X11124944Y-15560174D01*
X11124944Y-15560174D02*
X11143991Y-15550650D01*
X11143991Y-15550650D02*
X11172563Y-15550650D01*
X11172563Y-15550650D02*
X11191610Y-15560174D01*
X11191610Y-15560174D02*
X11201134Y-15579222D01*
X11201134Y-15579222D02*
X11201134Y-15683984D01*
X11201134Y-15579222D02*
X11210658Y-15560174D01*
X11210658Y-15560174D02*
X11229705Y-15550650D01*
X11229705Y-15550650D02*
X11258277Y-15550650D01*
X11258277Y-15550650D02*
X11277324Y-15560174D01*
X11277324Y-15560174D02*
X11286848Y-15579222D01*
X11286848Y-15579222D02*
X11286848Y-15683984D01*
X11382086Y-15683984D02*
X11382086Y-15550650D01*
X11382086Y-15569698D02*
X11391610Y-15560174D01*
X11391610Y-15560174D02*
X11410658Y-15550650D01*
X11410658Y-15550650D02*
X11439229Y-15550650D01*
X11439229Y-15550650D02*
X11458277Y-15560174D01*
X11458277Y-15560174D02*
X11467801Y-15579222D01*
X11467801Y-15579222D02*
X11467801Y-15683984D01*
X11467801Y-15579222D02*
X11477324Y-15560174D01*
X11477324Y-15560174D02*
X11496372Y-15550650D01*
X11496372Y-15550650D02*
X11524943Y-15550650D01*
X11524943Y-15550650D02*
X11543991Y-15560174D01*
X11543991Y-15560174D02*
X11553515Y-15579222D01*
X11553515Y-15579222D02*
X11553515Y-15683984D01*
X11943991Y-15474460D02*
X11772563Y-15731603D01*
X12201134Y-15483984D02*
X12220182Y-15483984D01*
X12220182Y-15483984D02*
X12239229Y-15493508D01*
X12239229Y-15493508D02*
X12248753Y-15503031D01*
X12248753Y-15503031D02*
X12258277Y-15522079D01*
X12258277Y-15522079D02*
X12267801Y-15560174D01*
X12267801Y-15560174D02*
X12267801Y-15607793D01*
X12267801Y-15607793D02*
X12258277Y-15645888D01*
X12258277Y-15645888D02*
X12248753Y-15664936D01*
X12248753Y-15664936D02*
X12239229Y-15674460D01*
X12239229Y-15674460D02*
X12220182Y-15683984D01*
X12220182Y-15683984D02*
X12201134Y-15683984D01*
X12201134Y-15683984D02*
X12182086Y-15674460D01*
X12182086Y-15674460D02*
X12172563Y-15664936D01*
X12172563Y-15664936D02*
X12163039Y-15645888D01*
X12163039Y-15645888D02*
X12153515Y-15607793D01*
X12153515Y-15607793D02*
X12153515Y-15560174D01*
X12153515Y-15560174D02*
X12163039Y-15522079D01*
X12163039Y-15522079D02*
X12172563Y-15503031D01*
X12172563Y-15503031D02*
X12182086Y-15493508D01*
X12182086Y-15493508D02*
X12201134Y-15483984D01*
X12353515Y-15664936D02*
X12363039Y-15674460D01*
X12363039Y-15674460D02*
X12353515Y-15683984D01*
X12353515Y-15683984D02*
X12343991Y-15674460D01*
X12343991Y-15674460D02*
X12353515Y-15664936D01*
X12353515Y-15664936D02*
X12353515Y-15683984D01*
X12553515Y-15683984D02*
X12439229Y-15683984D01*
X12496372Y-15683984D02*
X12496372Y-15483984D01*
X12496372Y-15483984D02*
X12477325Y-15512555D01*
X12477325Y-15512555D02*
X12458277Y-15531603D01*
X12458277Y-15531603D02*
X12439229Y-15541127D01*
X12629706Y-15503031D02*
X12639229Y-15493508D01*
X12639229Y-15493508D02*
X12658277Y-15483984D01*
X12658277Y-15483984D02*
X12705896Y-15483984D01*
X12705896Y-15483984D02*
X12724944Y-15493508D01*
X12724944Y-15493508D02*
X12734467Y-15503031D01*
X12734467Y-15503031D02*
X12743991Y-15522079D01*
X12743991Y-15522079D02*
X12743991Y-15541127D01*
X12743991Y-15541127D02*
X12734467Y-15569698D01*
X12734467Y-15569698D02*
X12620182Y-15683984D01*
X12620182Y-15683984D02*
X12743991Y-15683984D01*
X12915420Y-15483984D02*
X12877325Y-15483984D01*
X12877325Y-15483984D02*
X12858277Y-15493508D01*
X12858277Y-15493508D02*
X12848753Y-15503031D01*
X12848753Y-15503031D02*
X12829706Y-15531603D01*
X12829706Y-15531603D02*
X12820182Y-15569698D01*
X12820182Y-15569698D02*
X12820182Y-15645888D01*
X12820182Y-15645888D02*
X12829706Y-15664936D01*
X12829706Y-15664936D02*
X12839229Y-15674460D01*
X12839229Y-15674460D02*
X12858277Y-15683984D01*
X12858277Y-15683984D02*
X12896372Y-15683984D01*
X12896372Y-15683984D02*
X12915420Y-15674460D01*
X12915420Y-15674460D02*
X12924944Y-15664936D01*
X12924944Y-15664936D02*
X12934467Y-15645888D01*
X12934467Y-15645888D02*
X12934467Y-15598269D01*
X12934467Y-15598269D02*
X12924944Y-15579222D01*
X12924944Y-15579222D02*
X12915420Y-15569698D01*
X12915420Y-15569698D02*
X12896372Y-15560174D01*
X12896372Y-15560174D02*
X12858277Y-15560174D01*
X12858277Y-15560174D02*
X12839229Y-15569698D01*
X12839229Y-15569698D02*
X12829706Y-15579222D01*
X12829706Y-15579222D02*
X12820182Y-15598269D01*
X13058277Y-15483984D02*
X13077325Y-15483984D01*
X13077325Y-15483984D02*
X13096372Y-15493508D01*
X13096372Y-15493508D02*
X13105896Y-15503031D01*
X13105896Y-15503031D02*
X13115420Y-15522079D01*
X13115420Y-15522079D02*
X13124944Y-15560174D01*
X13124944Y-15560174D02*
X13124944Y-15607793D01*
X13124944Y-15607793D02*
X13115420Y-15645888D01*
X13115420Y-15645888D02*
X13105896Y-15664936D01*
X13105896Y-15664936D02*
X13096372Y-15674460D01*
X13096372Y-15674460D02*
X13077325Y-15683984D01*
X13077325Y-15683984D02*
X13058277Y-15683984D01*
X13058277Y-15683984D02*
X13039229Y-15674460D01*
X13039229Y-15674460D02*
X13029706Y-15664936D01*
X13029706Y-15664936D02*
X13020182Y-15645888D01*
X13020182Y-15645888D02*
X13010658Y-15607793D01*
X13010658Y-15607793D02*
X13010658Y-15560174D01*
X13010658Y-15560174D02*
X13020182Y-15522079D01*
X13020182Y-15522079D02*
X13029706Y-15503031D01*
X13029706Y-15503031D02*
X13039229Y-15493508D01*
X13039229Y-15493508D02*
X13058277Y-15483984D01*
X13201134Y-15483984D02*
X13201134Y-15522079D01*
X13277325Y-15483984D02*
X13277325Y-15522079D01*
X13572563Y-15760174D02*
X13563039Y-15750650D01*
X13563039Y-15750650D02*
X13543991Y-15722079D01*
X13543991Y-15722079D02*
X13534468Y-15703031D01*
X13534468Y-15703031D02*
X13524944Y-15674460D01*
X13524944Y-15674460D02*
X13515420Y-15626841D01*
X13515420Y-15626841D02*
X13515420Y-15588746D01*
X13515420Y-15588746D02*
X13524944Y-15541127D01*
X13524944Y-15541127D02*
X13534468Y-15512555D01*
X13534468Y-15512555D02*
X13543991Y-15493508D01*
X13543991Y-15493508D02*
X13563039Y-15464936D01*
X13563039Y-15464936D02*
X13572563Y-15455412D01*
X13734468Y-15550650D02*
X13734468Y-15683984D01*
X13686848Y-15474460D02*
X13639229Y-15617317D01*
X13639229Y-15617317D02*
X13763039Y-15617317D01*
X13991610Y-15683984D02*
X13991610Y-15483984D01*
X14077325Y-15683984D02*
X14077325Y-15579222D01*
X14077325Y-15579222D02*
X14067801Y-15560174D01*
X14067801Y-15560174D02*
X14048753Y-15550650D01*
X14048753Y-15550650D02*
X14020182Y-15550650D01*
X14020182Y-15550650D02*
X14001134Y-15560174D01*
X14001134Y-15560174D02*
X13991610Y-15569698D01*
X14201134Y-15683984D02*
X14182087Y-15674460D01*
X14182087Y-15674460D02*
X14172563Y-15664936D01*
X14172563Y-15664936D02*
X14163039Y-15645888D01*
X14163039Y-15645888D02*
X14163039Y-15588746D01*
X14163039Y-15588746D02*
X14172563Y-15569698D01*
X14172563Y-15569698D02*
X14182087Y-15560174D01*
X14182087Y-15560174D02*
X14201134Y-15550650D01*
X14201134Y-15550650D02*
X14229706Y-15550650D01*
X14229706Y-15550650D02*
X14248753Y-15560174D01*
X14248753Y-15560174D02*
X14258277Y-15569698D01*
X14258277Y-15569698D02*
X14267801Y-15588746D01*
X14267801Y-15588746D02*
X14267801Y-15645888D01*
X14267801Y-15645888D02*
X14258277Y-15664936D01*
X14258277Y-15664936D02*
X14248753Y-15674460D01*
X14248753Y-15674460D02*
X14229706Y-15683984D01*
X14229706Y-15683984D02*
X14201134Y-15683984D01*
X14382087Y-15683984D02*
X14363039Y-15674460D01*
X14363039Y-15674460D02*
X14353515Y-15655412D01*
X14353515Y-15655412D02*
X14353515Y-15483984D01*
X14534468Y-15674460D02*
X14515420Y-15683984D01*
X14515420Y-15683984D02*
X14477325Y-15683984D01*
X14477325Y-15683984D02*
X14458277Y-15674460D01*
X14458277Y-15674460D02*
X14448753Y-15655412D01*
X14448753Y-15655412D02*
X14448753Y-15579222D01*
X14448753Y-15579222D02*
X14458277Y-15560174D01*
X14458277Y-15560174D02*
X14477325Y-15550650D01*
X14477325Y-15550650D02*
X14515420Y-15550650D01*
X14515420Y-15550650D02*
X14534468Y-15560174D01*
X14534468Y-15560174D02*
X14543991Y-15579222D01*
X14543991Y-15579222D02*
X14543991Y-15598269D01*
X14543991Y-15598269D02*
X14448753Y-15617317D01*
X14620182Y-15674460D02*
X14639230Y-15683984D01*
X14639230Y-15683984D02*
X14677325Y-15683984D01*
X14677325Y-15683984D02*
X14696372Y-15674460D01*
X14696372Y-15674460D02*
X14705896Y-15655412D01*
X14705896Y-15655412D02*
X14705896Y-15645888D01*
X14705896Y-15645888D02*
X14696372Y-15626841D01*
X14696372Y-15626841D02*
X14677325Y-15617317D01*
X14677325Y-15617317D02*
X14648753Y-15617317D01*
X14648753Y-15617317D02*
X14629706Y-15607793D01*
X14629706Y-15607793D02*
X14620182Y-15588746D01*
X14620182Y-15588746D02*
X14620182Y-15579222D01*
X14620182Y-15579222D02*
X14629706Y-15560174D01*
X14629706Y-15560174D02*
X14648753Y-15550650D01*
X14648753Y-15550650D02*
X14677325Y-15550650D01*
X14677325Y-15550650D02*
X14696372Y-15560174D01*
X14772563Y-15760174D02*
X14782087Y-15750650D01*
X14782087Y-15750650D02*
X14801134Y-15722079D01*
X14801134Y-15722079D02*
X14810658Y-15703031D01*
X14810658Y-15703031D02*
X14820182Y-15674460D01*
X14820182Y-15674460D02*
X14829706Y-15626841D01*
X14829706Y-15626841D02*
X14829706Y-15588746D01*
X14829706Y-15588746D02*
X14820182Y-15541127D01*
X14820182Y-15541127D02*
X14810658Y-15512555D01*
X14810658Y-15512555D02*
X14801134Y-15493508D01*
X14801134Y-15493508D02*
X14782087Y-15464936D01*
X14782087Y-15464936D02*
X14772563Y-15455412D01*
X15134468Y-15760174D02*
X15124944Y-15750650D01*
X15124944Y-15750650D02*
X15105896Y-15722079D01*
X15105896Y-15722079D02*
X15096372Y-15703031D01*
X15096372Y-15703031D02*
X15086849Y-15674460D01*
X15086849Y-15674460D02*
X15077325Y-15626841D01*
X15077325Y-15626841D02*
X15077325Y-15588746D01*
X15077325Y-15588746D02*
X15086849Y-15541127D01*
X15086849Y-15541127D02*
X15096372Y-15512555D01*
X15096372Y-15512555D02*
X15105896Y-15493508D01*
X15105896Y-15493508D02*
X15124944Y-15464936D01*
X15124944Y-15464936D02*
X15134468Y-15455412D01*
X15210658Y-15550650D02*
X15210658Y-15683984D01*
X15210658Y-15569698D02*
X15220182Y-15560174D01*
X15220182Y-15560174D02*
X15239230Y-15550650D01*
X15239230Y-15550650D02*
X15267801Y-15550650D01*
X15267801Y-15550650D02*
X15286849Y-15560174D01*
X15286849Y-15560174D02*
X15296372Y-15579222D01*
X15296372Y-15579222D02*
X15296372Y-15683984D01*
X15420182Y-15683984D02*
X15401134Y-15674460D01*
X15401134Y-15674460D02*
X15391611Y-15664936D01*
X15391611Y-15664936D02*
X15382087Y-15645888D01*
X15382087Y-15645888D02*
X15382087Y-15588746D01*
X15382087Y-15588746D02*
X15391611Y-15569698D01*
X15391611Y-15569698D02*
X15401134Y-15560174D01*
X15401134Y-15560174D02*
X15420182Y-15550650D01*
X15420182Y-15550650D02*
X15448753Y-15550650D01*
X15448753Y-15550650D02*
X15467801Y-15560174D01*
X15467801Y-15560174D02*
X15477325Y-15569698D01*
X15477325Y-15569698D02*
X15486849Y-15588746D01*
X15486849Y-15588746D02*
X15486849Y-15645888D01*
X15486849Y-15645888D02*
X15477325Y-15664936D01*
X15477325Y-15664936D02*
X15467801Y-15674460D01*
X15467801Y-15674460D02*
X15448753Y-15683984D01*
X15448753Y-15683984D02*
X15420182Y-15683984D01*
X15543992Y-15550650D02*
X15620182Y-15550650D01*
X15572563Y-15483984D02*
X15572563Y-15655412D01*
X15572563Y-15655412D02*
X15582087Y-15674460D01*
X15582087Y-15674460D02*
X15601134Y-15683984D01*
X15601134Y-15683984D02*
X15620182Y-15683984D01*
X15839230Y-15550650D02*
X15839230Y-15750650D01*
X15839230Y-15560174D02*
X15858277Y-15550650D01*
X15858277Y-15550650D02*
X15896373Y-15550650D01*
X15896373Y-15550650D02*
X15915420Y-15560174D01*
X15915420Y-15560174D02*
X15924944Y-15569698D01*
X15924944Y-15569698D02*
X15934468Y-15588746D01*
X15934468Y-15588746D02*
X15934468Y-15645888D01*
X15934468Y-15645888D02*
X15924944Y-15664936D01*
X15924944Y-15664936D02*
X15915420Y-15674460D01*
X15915420Y-15674460D02*
X15896373Y-15683984D01*
X15896373Y-15683984D02*
X15858277Y-15683984D01*
X15858277Y-15683984D02*
X15839230Y-15674460D01*
X16048753Y-15683984D02*
X16029706Y-15674460D01*
X16029706Y-15674460D02*
X16020182Y-15655412D01*
X16020182Y-15655412D02*
X16020182Y-15483984D01*
X16210658Y-15683984D02*
X16210658Y-15579222D01*
X16210658Y-15579222D02*
X16201134Y-15560174D01*
X16201134Y-15560174D02*
X16182087Y-15550650D01*
X16182087Y-15550650D02*
X16143992Y-15550650D01*
X16143992Y-15550650D02*
X16124944Y-15560174D01*
X16210658Y-15674460D02*
X16191611Y-15683984D01*
X16191611Y-15683984D02*
X16143992Y-15683984D01*
X16143992Y-15683984D02*
X16124944Y-15674460D01*
X16124944Y-15674460D02*
X16115420Y-15655412D01*
X16115420Y-15655412D02*
X16115420Y-15636365D01*
X16115420Y-15636365D02*
X16124944Y-15617317D01*
X16124944Y-15617317D02*
X16143992Y-15607793D01*
X16143992Y-15607793D02*
X16191611Y-15607793D01*
X16191611Y-15607793D02*
X16210658Y-15598269D01*
X16277325Y-15550650D02*
X16353515Y-15550650D01*
X16305896Y-15483984D02*
X16305896Y-15655412D01*
X16305896Y-15655412D02*
X16315420Y-15674460D01*
X16315420Y-15674460D02*
X16334468Y-15683984D01*
X16334468Y-15683984D02*
X16353515Y-15683984D01*
X16496373Y-15674460D02*
X16477325Y-15683984D01*
X16477325Y-15683984D02*
X16439230Y-15683984D01*
X16439230Y-15683984D02*
X16420182Y-15674460D01*
X16420182Y-15674460D02*
X16410658Y-15655412D01*
X16410658Y-15655412D02*
X16410658Y-15579222D01*
X16410658Y-15579222D02*
X16420182Y-15560174D01*
X16420182Y-15560174D02*
X16439230Y-15550650D01*
X16439230Y-15550650D02*
X16477325Y-15550650D01*
X16477325Y-15550650D02*
X16496373Y-15560174D01*
X16496373Y-15560174D02*
X16505896Y-15579222D01*
X16505896Y-15579222D02*
X16505896Y-15598269D01*
X16505896Y-15598269D02*
X16410658Y-15617317D01*
X16677325Y-15683984D02*
X16677325Y-15483984D01*
X16677325Y-15674460D02*
X16658277Y-15683984D01*
X16658277Y-15683984D02*
X16620182Y-15683984D01*
X16620182Y-15683984D02*
X16601134Y-15674460D01*
X16601134Y-15674460D02*
X16591611Y-15664936D01*
X16591611Y-15664936D02*
X16582087Y-15645888D01*
X16582087Y-15645888D02*
X16582087Y-15588746D01*
X16582087Y-15588746D02*
X16591611Y-15569698D01*
X16591611Y-15569698D02*
X16601134Y-15560174D01*
X16601134Y-15560174D02*
X16620182Y-15550650D01*
X16620182Y-15550650D02*
X16658277Y-15550650D01*
X16658277Y-15550650D02*
X16677325Y-15560174D01*
X16753515Y-15760174D02*
X16763039Y-15750650D01*
X16763039Y-15750650D02*
X16782087Y-15722079D01*
X16782087Y-15722079D02*
X16791611Y-15703031D01*
X16791611Y-15703031D02*
X16801135Y-15674460D01*
X16801135Y-15674460D02*
X16810658Y-15626841D01*
X16810658Y-15626841D02*
X16810658Y-15588746D01*
X16810658Y-15588746D02*
X16801135Y-15541127D01*
X16801135Y-15541127D02*
X16791611Y-15512555D01*
X16791611Y-15512555D02*
X16782087Y-15493508D01*
X16782087Y-15493508D02*
X16763039Y-15464936D01*
X16763039Y-15464936D02*
X16753515Y-15455412D01*
M02*
